<?xml version="1.0" encoding="utf-8"?>
<!-- Generator: Adobe Illustrator 23.0.1, SVG Export Plug-In . SVG Version: 6.00 Build 0)  -->
<svg version="1.1" id="Слой_1" xmlns="http://www.w3.org/2000/svg" xmlns:xlink="http://www.w3.org/1999/xlink" x="0px" y="0px"
	 viewBox="0 0 566 565" style="enable-background:new 0 0 566 565;" xml:space="preserve">
<style type="text/css">
	.st0{display:none;}
	.st1{display:inline;}
	.st2{fill:none;stroke:#000000;stroke-miterlimit:10;}
	.st3{fill:#808285;}
	.st4{fill:#A7A9AC;}
	.st5{fill:#BCBEC0;}
	.st6{fill:none;stroke:#D1D3D4;stroke-width:10;stroke-miterlimit:10;}
	.st7{fill-rule:evenodd;clip-rule:evenodd;fill:#808285;}
	.st8{fill:#5F9898;}
	.st9{fill-rule:evenodd;clip-rule:evenodd;fill:#578685;}
	.st10{fill:#447776;}
	.st11{fill:#578685;}
	.st12{fill-rule:evenodd;clip-rule:evenodd;fill:#447776;}
</style>
<g>
	<g>
		<path class="st7" d="M459.8,438.2c-3.8,5.6-9,9-16.6,10.9c-4,1-13.3,2.2-19.5,6.4c-7.3,5-9.8,12.3-8.7,18.8
			c1.2,7.4,7,13.8,15.4,14.9c6,0.8,13.4-1.2,21.5-7.4c5-3.8,9.4-8.8,12.6-14.9c3.1-6,4.9-13,4.9-21.1c0-11.6-4.7-21.5-4.7-21.5
			S464.4,431.5,459.8,438.2z"/>
		<path class="st7" d="M412.1,491.1c-3.4-5.9-6.5-11.1-8.6-16.2c-2.3-5.5-3.5-10.7-2.6-16.4c0.8-4.9,3.1-10.2,7.5-16.2
			c9-12.2,1.3-19.1-0.3-21.1c-0.8-1-4.4-4.6-7.7-8.9c-4.2-5.5-5.9-9.2-7-11.8c-4.2,6-8.2,11.9-11.3,17.9c-4.4,8.6-7.2,17.5-6.8,27.5
			c0.2,6.3,1.3,12.2,3.4,17.1c3,6.8,7.6,13.4,15.5,19.5C398.7,486,406.9,489.6,412.1,491.1z"/>
		<path class="st7" d="M446.5,411.7c-2.6,7.9-7.5,13.8-15.3,20.4c-5.2,4.4-11.4,8-17.3,12.5c-8.6,6.7-10.2,14.2-8.8,21.8
			c1.5,8.4,8,17.5,8,17.5s-1.4-6.1-1.8-9c-0.5-3.6-0.5-7.1,0.3-10.3c2-7.9,9-14.7,24.3-18c7.8-1.7,14.4-3.4,19.5-9.6
			c4.1-5,5.1-9.8,5.2-14c0.1-13.7-12.7-27.8-12.7-27.8C449.2,401.6,448.1,406.8,446.5,411.7L446.5,411.7z M429.5,339.3L429.5,339.3
			c4.8-9.9,4-17.2,4-17.2s1.9,5,2.1,11.9c0.1,2.9-0.1,6.3-0.9,9.7c-1.3,5-3,8.6-8.1,14.4c-3.5,3.9-6.1,8.7-7.2,12.7
			c-1.5,5.9-0.9,11.9,0.6,16.6c1.2,3.8,1.7,4.8,2.3,6.1c0.9,2.1,2.6,5.5,2.6,5.5s-9.1-9.8-11.5-13.9c-2.4-4.1-3.9-8.7-3.3-14
			c0.6-5.9,3.7-12.6,10.8-20.4C424.7,346.4,427.6,343.1,429.5,339.3L429.5,339.3z M397.7,373.8L397.7,373.8
			c4.2-10.3,12.7-15.8,12.7-15.8c-10.3,14.5-4.4,24.8,3.2,33.3c5.3,5.9,11.1,10.5,13.4,15.5c2.2,4.7,0.8,11.2-2.1,16.8
			c-4.7,9.1-12.5,17.2-12.5,17.2c3.6-4.9,4.5-9.1,4.3-12.6c-0.4-5.5-5-10.1-5-10.1c-2.6-3.1-5.3-6.2-7.6-9.1
			c-3.5-4.7-5.6-9.3-7-13.5C394.4,386.9,395.3,379.6,397.7,373.8L397.7,373.8z M432.7,357.8L432.7,357.8c6.4-4.3,13.3-5.4,13.3-5.4
			c-5.8,4.4-9.3,9.8-8.9,18.5c0.3,5.7,2.2,12.9,6.2,22c10.1,23-24.5,44.8-24.5,44.8c4.4-4.6,7.6-8.9,9.6-13c2.6-5.5,3.2-10,3.2-14.1
			c0-4.8-2.6-10.1-3.5-12.3c-1-2.1-4.7-10.5-5.5-14.8c-0.7-4.1-0.7-7.6-0.1-10.7C423.8,365.6,428.1,360.9,432.7,357.8z"/>
	</g>
	<path class="st5" d="M523,309.3V82.6c0-14-8.6-22.2-24-22.2h-66.1c-0.5-15.8,4.5-33.5-17.2-41.2h-33.5
		c-21.7,7.7-16.3,24.9-17.2,40.7H162.8c0-4.5-0.5-9.1,0-13.6c0.9-12.7-4.1-22.2-17.2-27.2h-33.9c-13.1,5-18.1,14.5-16.7,27.2
		c0.5,4.5,0,9.1,0,14H30.7C13,60.4,4.9,68.1,4.9,83.9v405c0,16.3,8.1,23.5,26.2,23.5h298.2c24.9,21.7,57.5,34.8,92.8,34.8
		c77.4,0,140.3-63.3,140.3-140.7C562.4,368.5,547.4,334.6,523,309.3z M388.1,40h21.3v61.1h-21.3V40z M118,40h21.3v61.1H118V40z
		 M27.5,81.2h67.4V98c0,16.3,8.6,24,26.2,24h17.6c14.5,0,23.5-8.6,24-21.7v-19h202.3v17.6c0,14.9,9.1,23.1,25.3,23.1h19.5
		c13.6-0.5,22.6-8.6,23.1-21.3V81.2c1.8,0,2.7-0.5,3.6-0.5h63.3v71.5H27.5V81.2z M307.6,492.1H27.5V174h472.9v6.8
		c0,37.1,0,73.3,0.5,110c-19-13.6-41.6-21.7-65.6-24v-63.3h-343v262.4h202.3c4.5,9.5,10,18.6,16.3,26.7
		C309.9,492.1,309,492.1,307.6,492.1z M355.6,282.6V226h56.6v40.3C391.8,267.6,372.8,273.5,355.6,282.6z M286.3,443.2h-10.9v-57.5
		h7.7c-1.4,6.8-1.8,14-1.8,21.3C281.4,419.7,283.2,431.9,286.3,443.2z M275.5,362.7v-56.6h48.4c-16.3,15.4-28.5,34.8-35.3,56.6
		H275.5z M275.5,282.6v-56.1H332v56.1H275.5z M195.4,362.7v-56.6h56.6v56.6H195.4z M251.9,386.2v56.6h-56.6v-56.6H251.9z
		 M195.4,282.6V226h56.6v56.6H195.4z M115.3,362.7v-56.6h56.6v56.6H115.3z M171.9,386.6v56.1h-56.6v-56.1H171.9z M115.3,282.6V226
		h56.6v56.6H115.3z M422.5,519.2c-62,0-113.1-50.2-113.1-112.2c0-8.1,0.9-15.8,2.3-23.5c1.4-7.2,3.6-14,6.8-20.8
		c3.6-8.6,8.6-16.7,14-24c6.3-8.6,14-16.3,22.6-22.2c5.4-4.5,11.3-8.1,17.6-10.9c14.9-7.7,31.7-11.8,49.3-11.8
		c4.5,0,9.1,0.5,13.1,1.4c55.7,6.3,99.1,53.8,99.1,111.3C534.3,468.1,484.1,518.8,422.5,519.2z"/>
</g>
</svg>
