<?xml version="1.0" encoding="utf-8"?>
<!-- Generator: Adobe Illustrator 23.0.1, SVG Export Plug-In . SVG Version: 6.00 Build 0)  -->
<svg version="1.1" id="Слой_1" xmlns="http://www.w3.org/2000/svg" xmlns:xlink="http://www.w3.org/1999/xlink" x="0px" y="0px"
	 viewBox="0 0 566 565" style="enable-background:new 0 0 566 565;" xml:space="preserve">
<style type="text/css">
	.st0{display:none;}
	.st1{display:inline;}
	.st2{fill:none;stroke:#000000;stroke-miterlimit:10;}
	.st3{fill:#F4F4F4;}
	.st4{fill:#FFFFFF;}
	.st5{fill:none;stroke:#FFFFFF;stroke-width:10;stroke-miterlimit:10;}
	.st6{fill-rule:evenodd;clip-rule:evenodd;fill:#F4F4F4;}
	.st7{fill:#5F9898;}
	.st8{fill-rule:evenodd;clip-rule:evenodd;fill:#578685;}
	.st9{fill:#447776;}
	.st10{fill:#578685;}
	.st11{fill-rule:evenodd;clip-rule:evenodd;fill:#447776;}
	.st12{fill:#EEEEEE;}
	.st13{clip-path:url(#SVGID_2_);fill:#FFFFFF;}
	.st14{clip-path:url(#SVGID_2_);fill:none;}
	.st15{opacity:0.24;clip-path:url(#SVGID_2_);}
	.st16{opacity:0.24;}
	.st17{opacity:0.31;clip-path:url(#SVGID_4_);}
	.st18{opacity:0.31;}
	.st19{clip-path:url(#SVGID_6_);fill:#C2DBCB;}
	.st20{clip-path:url(#SVGID_6_);}
	.st21{fill:#C9E2F2;}
	.st22{opacity:0.67;clip-path:url(#SVGID_4_);}
	.st23{fill:none;}
	.st24{opacity:0.65;fill:#B8D5BC;}
	.st25{clip-path:url(#SVGID_4_);fill:none;}
	.st26{opacity:0.31;clip-path:url(#SVGID_8_);}
	.st27{clip-path:url(#SVGID_10_);fill:#C2DBCB;}
	.st28{clip-path:url(#SVGID_10_);}
	.st29{opacity:0.67;clip-path:url(#SVGID_8_);}
	.st30{clip-path:url(#SVGID_8_);fill:none;}
	.st31{opacity:0.31;clip-path:url(#SVGID_12_);}
	.st32{clip-path:url(#SVGID_14_);fill:#C2DBCB;}
	.st33{clip-path:url(#SVGID_14_);}
	.st34{opacity:0.67;clip-path:url(#SVGID_12_);}
	.st35{clip-path:url(#SVGID_12_);fill:none;}
	.st36{opacity:0.7;fill:#DBDBDB;}
</style>
<g>
	<g>
		<path class="st8" d="M460.2,436c-3.8,5.6-9.1,9-16.7,10.9c-4,1-13.3,2.2-19.6,6.4c-7.3,5-9.8,12.3-8.7,18.8
			c1.2,7.4,7,13.9,15.5,15c6,0.8,13.4-1.2,21.5-7.4c5-3.9,9.5-8.8,12.6-14.9c3.1-6,4.9-13,4.9-21.1c0-11.6-4.7-21.6-4.7-21.6
			S464.7,429.2,460.2,436z"/>
		<path class="st8" d="M412.3,489c-3.4-5.9-6.5-11.2-8.7-16.2c-2.3-5.5-3.5-10.8-2.6-16.5c0.8-4.9,3.1-10.2,7.5-16.3
			c9-12.3,1.3-19.1-0.3-21.1c-0.8-1-4.4-4.7-7.7-8.9c-4.2-5.5-5.9-9.3-7.1-11.8c-4.2,6-8.2,11.9-11.3,18c-4.4,8.6-7.2,17.6-6.8,27.6
			c0.2,6.4,1.3,12.2,3.4,17.1c3,6.8,7.6,13.4,15.6,19.6C398.9,483.9,407.1,487.5,412.3,489z"/>
		<path class="st8" d="M446.8,409.4c-2.6,7.9-7.5,13.9-15.4,20.5c-5.2,4.4-11.5,8-17.3,12.5c-8.7,6.7-10.2,14.2-8.9,21.9
			c1.5,8.4,8,17.6,8,17.6s-1.4-6.1-1.8-9c-0.5-3.6-0.5-7.1,0.3-10.4c2-7.9,9-14.7,24.4-18.1c7.8-1.7,14.4-3.5,19.5-9.6
			c4.1-5,5.1-9.8,5.2-14.1c0.1-13.7-12.7-27.9-12.7-27.9C449.5,399.2,448.4,404.5,446.8,409.4L446.8,409.4z M429.7,336.7
			L429.7,336.7c4.8-10,4-17.3,4-17.3s1.9,5,2.1,12c0.1,3-0.1,6.3-0.9,9.7c-1.3,5-3,8.7-8.1,14.4c-3.5,3.9-6.2,8.7-7.2,12.7
			c-1.5,5.9-0.9,12,0.6,16.6c1.2,3.8,1.7,4.8,2.3,6.2c0.9,2.1,2.6,5.5,2.6,5.5s-9.1-9.8-11.5-13.9c-2.4-4.1-3.9-8.8-3.3-14
			c0.6-5.9,3.7-12.7,10.8-20.5C424.9,343.9,427.8,340.6,429.7,336.7L429.7,336.7z M397.8,371.4L397.8,371.4
			c4.2-10.3,12.7-15.9,12.7-15.9c-10.3,14.6-4.4,24.9,3.2,33.4c5.3,5.9,11.2,10.6,13.5,15.6c2.2,4.7,0.8,11.2-2.1,16.9
			c-4.7,9.1-12.5,17.3-12.5,17.3c3.6-4.9,4.5-9.2,4.3-12.7c-0.4-5.5-5-10.1-5-10.1c-2.6-3.1-5.4-6.2-7.6-9.1
			c-3.5-4.7-5.7-9.3-7-13.5C394.5,384.6,395.5,377.2,397.8,371.4L397.8,371.4z M433,355.4L433,355.4c6.4-4.3,13.3-5.4,13.3-5.4
			c-5.8,4.4-9.3,9.8-8.9,18.5c0.3,5.7,2.2,12.9,6.2,22.1c10.1,23.1-24.6,44.9-24.6,44.9c4.4-4.6,7.7-9,9.6-13.1
			c2.6-5.5,3.2-10.1,3.2-14.2c0-4.8-2.6-10.2-3.6-12.3c-1-2.1-4.7-10.6-5.5-14.9c-0.7-4.1-0.7-7.6-0.1-10.7
			C424,363.2,428.4,358.5,433,355.4z"/>
	</g>
	<path class="st7" d="M523.5,306.7V79.3c0-14.1-8.6-22.2-24.1-22.2h-66.3c-0.5-15.9,4.5-33.6-17.2-41.3h-33.6
		c-21.8,7.7-16.3,25-17.2,40.8H162.3c0-4.5-0.5-9.1,0-13.6c0.9-12.7-4.1-22.2-17.2-27.2h-34c-13.2,5-18.2,14.5-16.8,27.2
		c0.5,4.5,0,9.1,0,14.1H29.8c-17.7,0-25.9,7.7-25.9,23.6v406.2c0,16.3,8.2,23.6,26.3,23.6h299.1c25,21.8,57.6,34.9,93,34.9
		c77.6,0,140.7-63.5,140.7-141.1C563,366.1,548,332.1,523.5,306.7z M388.3,36.6h21.3v61.3h-21.3V36.6z M117.3,36.6h21.3v61.3h-21.3
		V36.6z M26.6,77.9h67.6v16.8c0,16.3,8.6,24.1,26.3,24.1h17.7c14.5,0,23.6-8.6,24.1-21.8V77.9h202.9v17.7c0,15,9.1,23.1,25.4,23.1
		h19.5c13.6-0.5,22.7-8.6,23.1-21.3V77.9c1.8,0,2.7-0.5,3.6-0.5h63.5v71.7H26.6V77.9z M307.5,490H26.6V171h474.2v6.8
		c0,37.2,0,73.5,0.5,110.3c-19.1-13.6-41.8-21.8-65.8-24.1v-63.5h-344v263.2h202.9c4.5,9.5,10,18.6,16.3,26.8
		C309.8,490,308.9,490,307.5,490z M355.6,279.9v-56.7h56.7v40.4C391.9,264.9,372.8,270.8,355.6,279.9z M286.2,441h-10.9v-57.6h7.7
		c-1.4,6.8-1.8,14.1-1.8,21.3C281.2,417.4,283,429.6,286.2,441z M275.3,360.2v-56.7h48.6c-16.3,15.4-28.6,34.9-35.4,56.7H275.3z
		 M275.3,279.9v-56.3H332v56.3H275.3z M194.9,360.2v-56.7h56.7v56.7H194.9z M251.7,383.8v56.7h-56.7v-56.7H251.7z M194.9,279.9
		v-56.7h56.7v56.7H194.9z M114.6,360.2v-56.7h56.7v56.7H114.6z M171.3,384.3v56.3h-56.7v-56.3H171.3z M114.6,279.9v-56.7h56.7v56.7
		H114.6z M422.8,517.2c-62.2,0-113.5-50.4-113.5-112.6c0-8.2,0.9-15.9,2.3-23.6c1.4-7.3,3.6-14.1,6.8-20.9
		c3.6-8.6,8.6-16.8,14.1-24.1c6.4-8.6,14.1-16.3,22.7-22.2c5.4-4.5,11.3-8.2,17.7-10.9c15-7.7,31.8-11.8,49.5-11.8
		c4.5,0,9.1,0.5,13.2,1.4c55.8,6.4,99.4,54,99.4,111.6C534.9,466,484.5,516.8,422.8,517.2z"/>
</g>
<g>
	<g>
		<defs>
			<rect id="SVGID_1_" x="-2919.4" y="-810.4" width="452.4" height="1516.8"/>
		</defs>
		<clipPath id="SVGID_2_">
			<use xlink:href="#SVGID_1_"  style="overflow:visible;"/>
		</clipPath>
		<g class="st15">
			<defs>
				<rect id="SVGID_3_" x="-2954.2" y="-1217.2" class="st16" width="3553.6" height="1214.7"/>
			</defs>
			<clipPath id="SVGID_4_">
				<use xlink:href="#SVGID_3_"  style="overflow:visible;"/>
			</clipPath>
			<rect x="-2976.4" y="-1202.6" class="st25" width="3660.9" height="1249.7"/>
		</g>
	</g>
</g>
</svg>
