<svg id="Слой_1" data-name="Слой 1" xmlns="http://www.w3.org/2000/svg" viewBox="0 0 500 500"><defs><style>.cls-1{fill:#6f7882;}</style></defs><title>Ошибка соединения с сервисом  500 на 500 px новые</title><path class="cls-1" d="M249.69.85742C112.30013.85742.79012,112.23736.79012,249.62738s111.51,248.9,248.8999,248.9c137.39014,0,248.77-111.51,248.77-248.9S387.08016.85742,249.69.85742ZM22.2,249.62738A227.16458,227.16458,0,0,1,131.35262,55.409L345.63826,455.92376A226.34217,226.34217,0,0,1,249.69,477.11737C124.00008,477.11737,22.2,375.31732,22.2,249.62738Zm343.23,195.87c-.241.1427-.48681.278-.72851.4198L150.24276,45.079c.25024-.12195.49658-.25055.74731-.37164a226.80077,226.80077,0,0,1,98.7-22.44c125.57007,0,227.37012,101.78992,227.37012,227.36A227.38928,227.38928,0,0,1,365.43,445.49737Z"/><path class="cls-1" d="M423.36922,235.97223a6.45432,6.45432,0,0,1,1.38989-.08q6.375-.015,12.75-.01h1.39014c0-6.55.04-12.91-.0498-19.26a2.63178,2.63178,0,0,0-1.21021-1.99c-.94018-.38013-.90991-.92-.90991-1.64014q.01466-9.72,0-19.44995c0-2.25-.68018-2.90991-2.9502-2.92993-1.85009-.01-3.71,0-5.11987,0-.88989-.9-1.5-1.54-2.11987-2.16H408.09945c-.61035.63-1.21021,1.28-2.01026,2.14-1.6499.01-3.31006.01-4.96.02-2.58984.01-3.16015.59-3.16015,3.22q0,9.64489-.02,19.32007c0,.40991-.13965,1.12988-.35987,1.17993-1.77978.5-1.81982,1.87-1.81982,3.3v18.25h3.68994c3.7,0,7.40991-.01,11.10986.01,1.49024.02,2.3501.78992,2.39991,2.03.07031,1.29993-.81983,2.16992-2.31983,2.2699-.33008.02-.68017.01-1.01.01h-13.78v4.30993h1.47022c4.37988,0,8.75-.01,13.12988,0,1.41992,0,2.25.6001,2.46,1.68006.31006,1.5-.66992,2.6-2.41016,2.61-3.58007.03-7.15966.01-10.73.01h-2.73974c.46,1.52.86987,2.88,1.2998,4.30005h1.43018c3.56982,0,7.1499-.01,10.73.01,1.54.01,2.44971.82,2.48975,2.1.03027,1.34-.90967,2.18005-2.52979,2.19006-3.06006.0199-6.12988.01-9.21.01h-1.58008c.39014,1.23.77979,2.25989,1.00977,3.30994.17041.85.62011,1.01989,1.41015,1.00988,2.64991-.03991,5.3-.01989,7.96-.00988a5.252,5.252,0,0,1,1.48.17,2.10126,2.10126,0,0,1-.35009,4.07,8.63164,8.63164,0,0,1-1.51978.05993h-7.34985c.7998,2.55,1.50976,4.96,2.32983,7.34009a2.02176,2.02176,0,0,0,2.11987,1.28c1.34034-.01,2.66993-.01,4.11011-.01v1.53c0,1.17993,0,2.36987-.01,3.55994h.14014c.06006,10.76989-.11011,21.53991-1.61011,32.25988a117.5781,117.5781,0,0,1-22.28,54.46009A111.83079,111.83079,0,0,1,365.929,388.00213c-.60987.4701-1.21973.95008-1.83985,1.42017-.41992.31982-.85986.62988-1.27978.94983-.75.54-1.49024,1.08008-2.24024,1.61011-.33984.23-.67993.47-1.02.7-.87988.61011-1.77,1.21-2.67993,1.8-.22.1499-.44018.29-.65991.43994-1.08008.7-2.16992,1.38-3.27,2.06006l-.1499.09c-1.42017.86-2.86035,1.71009-4.31006,2.53l5.93994,11.09q1.21509-.68994,2.43018-1.40991c1.96-1.16016,3.86963-2.37012,5.75976-3.59009.08008-.05.1499-.1.23-.1499q2.58033-1.68018,5.08008-3.45008c.16016-.12.33008-.23.49-.35q5.0548-3.61506,9.74-7.6001c.16016-.13989.33985-.27.5-.40991l-.02-.01a131.36025,131.36025,0,0,0,16.99-17.59l.03.02a126.02393,126.02393,0,0,0,14.91016-23.69006c8.17969-16.88,13.10986-34.58,13.04-53.51-.0503-7.94007.31982-15.89.41992-23.83.00976-.17.02978-.32007.0498-.48h3.91016a1.98308,1.98308,0,0,0,2.08984-1.33008c.81006-2.37,1.52-4.78,2.3-7.28h-1.67016c-2.27979,0-4.54981.02-6.82984-.03a2.03755,2.03755,0,0,1-2.15991-1.99,2.11156,2.11156,0,0,1,1.93994-2.24,7.134,7.134,0,0,1,1.12988-.04992c2.66016,0,5.3003.01989,7.96-.01.37011-.01.95019-.17005,1.05029-.4.46-1.24.79-2.51,1.19971-3.88989-3.04,0-5.85987-.1001-8.66993.0199-4.25.16-4.48-.75-4.58984-2.15-.14014-1.67993.96973-2.17993,4.52978-2.17993h10.08008c.4502-1.47.87012-2.82007,1.32007-4.30005h-1.76c-3.91015,0-7.83008.02-11.75-.01-1.96-.02-3.16015-1.78-2.10986-3.17993a3.201,3.201,0,0,1,2.21-1.07007c4.41992-.09,8.8501-.04,13.25976-.04h1.33008v-4.30993h-1.41992c-4.26,0-8.51.01-12.76-.01a4.788,4.788,0,0,1-1.61011-.22,1.90161,1.90161,0,0,1-1.31982-2.18006A1.94173,1.94173,0,0,1,423.36922,235.97223Z"/><path class="cls-1" d="M353.42269,373.591a101.23539,101.23539,0,0,0,9.85986-21.69995l.07007.04a101.98306,101.98306,0,0,0,4.74-29.8c.3999-30.19995-10.71-55.99-32.03-77.16992a106.88125,106.88125,0,0,0-42.32007-26,103.7782,103.7782,0,0,0-43.19995-4.54l6.92993,12.93994a98.56129,98.56129,0,0,1,29.38013,3.24,90.17846,90.17846,0,0,1,37.8999,20.72c17.34009,16.05005,27.19019,35.89014,29.40015,59.39014,1.5498,16.38989-.38013,32.30993-7.4502,47.3999a105.28743,105.28743,0,0,0,1.46021-14.94995l.11987.07007c.62012-23.83008-7.61987-44.99-25.22-63.02-13.51-13.83008-29.65991-22.59009-48.54-25.28-.82007-.12-1.6499-.23-2.48-.33008l7.83008,14.64014a71.96106,71.96106,0,0,1,44.02,32.07983c7.5,11.90015,10.63989,25,10.63989,38.94007a77.89886,77.89886,0,0,1-3.66992,24.28l12.47,23.29993a115.82272,115.82272,0,0,0,10.13989-14.22Z"/><path class="cls-1" d="M300.971,390.23041a70.53974,70.53974,0,0,1-41.62988,25.02c-4.99,1.01978-10.25.73-15.3899,1.0398-23.06006.76-41.63012-8.48-56.32007-25.63989-13.28-15.51-18-33.96-16.16015-54.07007,1.64014-17.87988,8.09009-32.49,19.02-43.69995l-.13989-.08a75.36631,75.36631,0,0,1,21.3999-15.03992l.09009.04993c1.16992-.56994,2.3601-1.12,3.58007-1.64a71.83077,71.83077,0,0,1,21.57984-5.5l-6.63989-12.40992c-20.24,3.05994-37.41993,13.16993-51.7,29.55994-18.26,20.97-24.33007,45.5199-20.01,72.7699-6.82006-14.8999-8.47-30.55994-7.03-46.73a87.7152,87.7152,0,0,1,11.49-36.78992l-.16993-.1a98.69529,98.69529,0,0,1,14.5398-19l.15014.09c1.22-1.26,2.47-2.49,3.77-3.72009a86.92274,86.92274,0,0,1,36.07984-20.1499l-6.27979-11.75A106.885,106.885,0,0,0,186.211,234.61029c-24.7898,16.33008-40.56983,39.18005-46.61987,68.14013-6.03,28.84986.08007,55.67994,16.06,80.32a45.50658,45.50658,0,0,1-3.42016-3.19006c-21.77979-23.13989-33.84986-50.33-34.1499-82.36988q-.22487-23.32506-.3899-46.66015l-.27-.15991q-.12011-13.76991-.22-27.52l.26978.15991q-.07471-10.70983-.17993-21.40991h.1101v-3.74c0-.41.05-.82007.06983-1.34009h4.12012a2.01416,2.01416,0,0,0,2.10009-1.32984c.79981-2.38012,1.51-4.78,2.29981-7.29h-1.67993c-2.28,0-4.55.02-6.83008-.02a2.04573,2.04573,0,0,1-2.15991-2,2.1114,2.1114,0,0,1,1.93994-2.24,7.1204,7.1204,0,0,1,1.13012-.05c2.65992,0,5.31006.02,7.96-.01.36987-.01.96-.16992,1.05-.39991.46-1.2301.79-2.51,1.2-3.89013-3.04,0-5.8501-.09-8.66993.02-4.24.16-4.47021-.75-4.59008-2.13989-.1399-1.69007.97-2.19007,4.53-2.19007h10.08007c.45-1.46008.86988-2.81994,1.31983-4.29993h-1.76c-3.90991,0-7.82984.02991-11.74-.01-1.97-.02-3.16992-1.77-2.11988-3.18006a3.19122,3.19122,0,0,1,2.21-1.05994c4.41992-.10009,8.84985-.04,13.26-.04h1.33007v-4.31006h-1.42016c-4.26,0-8.5.01-12.76-.01a4.8249,4.8249,0,0,1-1.60987-.22,1.93155,1.93155,0,0,1-1.32006-2.18994,1.96048,1.96048,0,0,1,1.63989-1.82007,7.16478,7.16478,0,0,1,1.39014-.07007c4.25-.01,8.51-.01,12.75-.01h1.38989c0-6.55994.04-12.91992-.05-19.2699a2.61163,2.61163,0,0,0-1.21-1.9801c-.92993-.38989-.90991-.91992-.90991-1.63989q.015-9.735,0-19.46c0-2.25-.67994-2.90015-2.95-2.93006-1.85009-.01-3.7,0-5.12011,0-.87989-.9-1.5-1.53-2.11988-2.16H101.711c-.59985.64-1.21,1.29-2,2.14-1.65991.01-3.31983.01-4.97.02-2.58985.01-3.15991.59-3.15991,3.23q0,9.64509-.02,19.30994c0,.41015-.1399,1.13013-.35987,1.18-1.77.51-1.82007,1.88-1.82007,3.30994v18.25h3.7c3.7,0,7.3999-.00989,11.10009.01,1.5.01,2.34986.78,2.40992,2.03.06005,1.29-.83008,2.16-2.32007,2.27-.33985.02-.67993.01-1.02.01H89.481v4.31006h1.4602c4.37989,0,8.75-.01,13.1399,0,1.40991,0,2.25.59,2.45,1.66992.31006,1.51-.65991,2.6001-2.40991,2.61011-3.58008.03991-7.15015.01-10.73.01h-2.74c.46,1.5199.87989,2.87989,1.30982,4.29993h1.42016c3.57984,0,7.14991-.01,10.73.01,1.55.01,2.46.82,2.49,2.11.03,1.33007-.90992,2.16992-2.52,2.17993-3.07007.02-6.1399.01-9.22.01H93.28109c.39013,1.24.78,2.26,1.01,3.32007.17993.84.63012,1.01,1.41015,1,2.65992-.04,5.29981-.02,7.96-.01a4.92785,4.92785,0,0,1,1.48.17993,1.94059,1.94059,0,0,1,1.42994,2.24,1.97033,1.97033,0,0,1-1.78,1.83008,9.64914,9.64914,0,0,1-1.52.05H95.92122c.79981,2.54992,1.52,4.97,2.32984,7.34a2.03669,2.03669,0,0,0,2.12012,1.28992c1.32006-.01,2.62988-.01,4.04-.01a1.42018,1.42018,0,0,1,.06983.22009v1.29993c0,1.19006,0,2.38013-.01,3.56006h.17016v2.44995h-.28q-.07507,41.43018,0,82.86011c.02,8.28-.22,16.65991.90991,24.81994a132.61087,132.61087,0,0,0,30.21,68.20007c20.98,25.01,47.38013,41.16993,79.59009,47.40992,16.7,3.23,33.48,3.2,50.31,1.08008a196.30447,196.30447,0,0,0,49.49-12.52Z"/></svg>