<?xml version="1.0" encoding="utf-8"?>
<!-- Generator: Adobe Illustrator 23.0.1, SVG Export Plug-In . SVG Version: 6.00 Build 0)  -->
<svg version="1.1" id="Слой_1" xmlns="http://www.w3.org/2000/svg" xmlns:xlink="http://www.w3.org/1999/xlink" x="0px" y="0px"
	 viewBox="0 0 566 565" style="enable-background:new 0 0 566 565;" xml:space="preserve">
<style type="text/css">
	.st0{display:none;}
	.st1{display:inline;}
	.st2{fill:none;stroke:#000000;stroke-miterlimit:10;}
	.st3{fill:#F4F4F4;}
	.st4{fill:#FFFFFF;}
	.st5{fill:none;stroke:#FFFFFF;stroke-width:10;stroke-miterlimit:10;}
	.st6{fill-rule:evenodd;clip-rule:evenodd;fill:#F4F4F4;}
	.st7{fill:#5F9898;}
	.st8{fill-rule:evenodd;clip-rule:evenodd;fill:#578685;}
	.st9{fill:#447776;}
	.st10{fill:#578685;}
	.st11{fill-rule:evenodd;clip-rule:evenodd;fill:#447776;}
	.st12{fill:#EEEEEE;}
	.st13{clip-path:url(#SVGID_2_);fill:#FFFFFF;}
	.st14{clip-path:url(#SVGID_2_);fill:none;}
	.st15{opacity:0.24;clip-path:url(#SVGID_2_);}
	.st16{opacity:0.24;}
	.st17{opacity:0.31;clip-path:url(#SVGID_4_);}
	.st18{opacity:0.31;}
	.st19{clip-path:url(#SVGID_6_);fill:#C2DBCB;}
	.st20{clip-path:url(#SVGID_6_);}
	.st21{fill:#C9E2F2;}
	.st22{opacity:0.67;clip-path:url(#SVGID_4_);}
	.st23{fill:none;}
	.st24{opacity:0.65;fill:#B8D5BC;}
	.st25{clip-path:url(#SVGID_4_);fill:none;}
	.st26{opacity:0.31;clip-path:url(#SVGID_8_);}
	.st27{clip-path:url(#SVGID_10_);fill:#C2DBCB;}
	.st28{clip-path:url(#SVGID_10_);}
	.st29{opacity:0.67;clip-path:url(#SVGID_8_);}
	.st30{clip-path:url(#SVGID_8_);fill:none;}
	.st31{opacity:0.31;clip-path:url(#SVGID_12_);}
	.st32{clip-path:url(#SVGID_14_);fill:#C2DBCB;}
	.st33{clip-path:url(#SVGID_14_);}
	.st34{opacity:0.67;clip-path:url(#SVGID_12_);}
	.st35{clip-path:url(#SVGID_12_);fill:none;}
	.st36{opacity:0.7;fill:#DBDBDB;}
</style>
<g>
	<g>
		<path class="st7" d="M560.7,80.8c-0.6-3.2-1.4-6.2-3.4-8.6c-0.6-0.3-0.8-0.6-1.4-1.2c-2.2-1.5-5.1-1.5-7.6-1.5h-61.6
			c-64.9-0.3-130.2-0.3-195.1-0.3h-12.4c-64.9,0-130.2,0-195.1,0.3H22.7c-2.5,0-5.3,0-7.6,1.5c-0.6,0.6-0.8,0.9-1.4,1.2
			c-2,2.4-2.8,5.3-3.4,8.6C4.7,108,5,136.3,11.1,163.2c0.6,2.7,1.4,5.6,3.4,7.4c2.2,2.1,5.6,2.1,8.7,2.1h111v-13h-99
			c-2.8,0-5.9,0-8.2-1.5c-1.7-1.5-2.5-3.5-3.1-5.6c-5.9-20.1-6.2-41-0.8-61.4c0.6-2.4,1.4-4.7,3.1-6.5c0.6-0.3,0.8-0.3,1.4-0.9
			c2.2-1.2,4.8-1.2,7.3-1.2h496.4c2.2,0,4.8,0,7,1.2c0.6,0.6,0.8,0.6,1.4,0.9c1.7,1.8,2.5,4.1,3.1,6.5c5.3,20.4,5.1,41.3-0.8,61.4
			c-0.6,2.1-1.1,4.1-3.1,5.6c-2.2,1.5-5.3,1.5-8.2,1.5h-94.5v13h111.3c3.1,0,6.5,0,8.7-2.1c2-1.8,2.8-4.7,3.4-7.4
			C566,136.3,566.3,108,560.7,80.8z"/>
		<path class="st7" d="M24.4,192.5c0.6-0.3,0.8-0.3,1.4-0.9c2.2-1.2,4.8-1.2,7.3-1.2h101.2v-13H20.7c-2.5,0-5.3,0-7.6,1.5
			c-0.6,0.6-0.8,0.9-1.4,1.2c-2,2.4-2.8,5.3-3.4,8.6C2.7,215.8,3,244.1,9.2,271c0.6,2.7,1.4,5.6,3.4,7.4c2.2,2.1,5.6,2.1,8.7,2.1
			h113v-13H33.4c-2.8,0-5.9,0-8.2-1.5c-1.7-1.5-2.5-3.5-3.1-5.6c-5.9-20.1-6.2-41-0.8-61.4C21.8,196.6,22.7,194.2,24.4,192.5z
			 M558.7,188.6c-0.6-3.2-1.4-6.2-3.4-8.6c-0.6-0.3-0.8-0.6-1.4-1.2c-2.2-1.5-5.1-1.5-7.6-1.5H436.5v13h93c2.2,0,4.8,0,7,1.2
			c0.6,0.6,0.8,0.6,1.4,0.9c1.7,1.8,2.5,4.1,3.1,6.5c5.3,20.4,5.1,41.3-0.8,61.4c-0.6,2.1-1.1,4.1-3.1,5.6c-2.2,1.5-5.3,1.5-8.2,1.5
			h-92.5v13h109.4c3.1,0,6.5,0,8.7-2.1c2-1.8,2.8-4.7,3.4-7.4C564.1,244.1,564.4,215.8,558.7,188.6z"/>
		<path class="st7" d="M24.4,303.8c0.6-0.3,0.8-0.3,1.4-0.9c2.2-1.2,4.8-1.2,7.3-1.2h101.2v-13H20.7c-2.5,0-5.3,0-7.6,1.5
			c-0.6,0.6-0.8,0.9-1.4,1.2c-2,2.4-2.8,5.3-3.4,8.6c-5.6,27.2-5.3,55.5,0.8,82.4c0.6,2.7,1.4,5.6,3.4,7.4c2.2,2.1,5.6,2.1,8.7,2.1
			h113v-13H33.4c-2.8,0-5.9,0-8.2-1.5c-1.7-1.5-2.5-3.5-3.1-5.6c-5.9-20.1-6.2-41-0.8-61.4C21.8,307.9,22.7,305.6,24.4,303.8z
			 M558.7,300c-0.6-3.2-1.4-6.2-3.4-8.6c-0.6-0.3-0.8-0.6-1.4-1.2c-2.2-1.5-5.1-1.5-7.6-1.5H436.5v13h93c2.2,0,4.8,0,7,1.2
			c0.6,0.6,0.8,0.6,1.4,0.9c1.7,1.8,2.5,4.1,3.1,6.5c5.3,20.4,5.1,41.3-0.8,61.4c-0.6,2.1-1.1,4.1-3.1,5.6c-2.2,1.5-5.3,1.5-8.2,1.5
			h-92.5v13h109.4c3.1,0,6.5,0,8.7-2.1c2-1.8,2.8-4.7,3.4-7.4C564.1,355.5,564.4,327.1,558.7,300z"/>
		<path class="st7" d="M560.7,411c-0.6-3.2-1.4-6.2-3.4-8.6c-0.6-0.3-0.8-0.6-1.4-1.2c-2.2-1.5-5.1-1.5-7.6-1.5H436.5v13h95
			c2.2,0,4.8,0,7,1.2c0.6,0.6,0.8,0.6,1.4,0.9c1.7,1.8,2.5,4.1,3.1,6.5c5.3,20.4,5.1,41.3-0.8,61.4c-0.6,2.1-1.1,4.1-3.1,5.6
			c-2.2,1.5-5.3,1.5-8.2,1.5c-82.6,0-165.3,0-247.7-0.3c-82.6,0.3-165.3,0.3-247.9,0.3c-2.8,0-5.9,0-8.2-1.5
			c-1.7-1.5-2.5-3.5-3.1-5.6c-5.9-20.1-6.2-41-0.8-61.4c0.6-2.4,1.4-4.7,3.1-6.5c0.6-0.3,0.8-0.3,1.4-0.9c2.2-1.2,4.8-1.2,7.3-1.2
			h99.2v-13H22.7c-2.5,0-5.3,0-7.6,1.5c-0.6,0.6-0.8,0.9-1.4,1.2c-2,2.4-2.8,5.3-3.4,8.6c-5.6,27.2-5.3,55.5,0.8,82.4
			c0.6,2.7,1.4,5.6,3.4,7.4c2.2,2.1,5.6,2.1,8.7,2.1c87.4,0,174.8,0,262.3-0.3c87.4,0.3,174.8,0.3,262.3,0.3c3.1,0,6.5,0,8.7-2.1
			c2-1.8,2.8-4.7,3.4-7.4C566,466.5,566.3,438.2,560.7,411z"/>
	</g>
	<g>
		<path class="st10" d="M311.9,241.2c0,33,0.1,66,0,99c-0.1,21.4-21.2,34.8-39.7,25.4c-10.1-5.1-15.1-13.7-15.2-25.1
			c-0.1-14.6-0.1-29.1-0.1-43.7c0-50.9,0-101.8,0-152.7c0-14.5,7.1-25.1,19.7-28.9c16.9-5.2,34.5,6.8,35.3,24.5
			c0.5,10.9,0.2,21.8,0.2,32.7C312,195.4,312,218.3,311.9,241.2C312,241.2,311.9,241.2,311.9,241.2z"/>
		<path class="st10" d="M256.9,428.6c-0.1-11.5,4.6-20.7,15.3-26c9.7-4.9,19.4-4,28.3,2.2c12,8.4,15.4,27.1,7.4,40.2
			c-7.4,12.1-23.3,16.7-35.8,10.1C261.6,449.6,256.8,440.7,256.9,428.6z"/>
	</g>
</g>
<g>
	<g>
		<defs>
			<rect id="SVGID_1_" x="-3505.4" y="-810.4" width="452.4" height="1516.8"/>
		</defs>
		<clipPath id="SVGID_2_">
			<use xlink:href="#SVGID_1_"  style="overflow:visible;"/>
		</clipPath>
		<g class="st15">
			<defs>
				<rect id="SVGID_3_" x="-3540.2" y="-1217.2" class="st16" width="3553.6" height="1214.7"/>
			</defs>
			<clipPath id="SVGID_4_">
				<use xlink:href="#SVGID_3_"  style="overflow:visible;"/>
			</clipPath>
			<rect x="-3562.4" y="-1202.6" class="st25" width="3660.9" height="1249.7"/>
		</g>
	</g>
</g>
</svg>
