<?xml version="1.0" encoding="utf-8"?>
<!-- Generator: Adobe Illustrator 23.0.1, SVG Export Plug-In . SVG Version: 6.00 Build 0)  -->
<svg version="1.1" id="Слой_1" xmlns="http://www.w3.org/2000/svg" xmlns:xlink="http://www.w3.org/1999/xlink" x="0px" y="0px"
	 viewBox="0 0 566 565" style="enable-background:new 0 0 566 565;" xml:space="preserve">
<style type="text/css">
	.st0{display:none;}
	.st1{display:inline;}
	.st2{fill:none;stroke:#000000;stroke-miterlimit:10;}
	.st3{fill:#808285;}
	.st4{fill:#A7A9AC;}
	.st5{fill:#BCBEC0;}
	.st6{fill:none;stroke:#D1D3D4;stroke-width:10;stroke-miterlimit:10;}
	.st7{fill-rule:evenodd;clip-rule:evenodd;fill:#808285;}
	.st8{fill:#5F9898;}
	.st9{fill-rule:evenodd;clip-rule:evenodd;fill:#578685;}
</style>
<g class="st0">
	<g class="st1">
		<rect x="126.3" y="117.5" class="st2" width="423.9" height="423.9"/>
		<line class="st2" x1="126.3" y1="502.9" x2="550.1" y2="502.9"/>
		<line class="st2" x1="126.3" y1="464.3" x2="550.1" y2="464.3"/>
		<line class="st2" x1="126.3" y1="425.8" x2="550.1" y2="425.8"/>
		<line class="st2" x1="126.3" y1="387.3" x2="550.1" y2="387.3"/>
		<line class="st2" x1="126.3" y1="348.7" x2="550.1" y2="348.7"/>
		<line class="st2" x1="126.3" y1="310.2" x2="550.1" y2="310.2"/>
		<line class="st2" x1="126.3" y1="271.6" x2="550.1" y2="271.6"/>
		<line class="st2" x1="126.3" y1="233.1" x2="550.1" y2="233.1"/>
		<line class="st2" x1="126.3" y1="194.6" x2="550.1" y2="194.6"/>
		<line class="st2" x1="126.3" y1="156" x2="550.1" y2="156"/>
		<line class="st2" x1="511.6" y1="117.5" x2="511.6" y2="541.4"/>
		<line class="st2" x1="473" y1="117.5" x2="473" y2="541.4"/>
		<line class="st2" x1="434.5" y1="117.5" x2="434.5" y2="541.4"/>
		<line class="st2" x1="396" y1="117.5" x2="396" y2="541.4"/>
		<line class="st2" x1="357.4" y1="117.5" x2="357.4" y2="541.4"/>
		<line class="st2" x1="318.9" y1="117.5" x2="318.9" y2="541.4"/>
		<line class="st2" x1="280.3" y1="117.5" x2="280.3" y2="541.4"/>
		<line class="st2" x1="241.9" y1="117.5" x2="241.9" y2="541.4"/>
		<line class="st2" x1="203.4" y1="117.5" x2="203.4" y2="541.4"/>
		<line class="st2" x1="164.8" y1="117.5" x2="164.8" y2="541.4"/>
	</g>
</g>
<g>
	<polygon class="st3" points="164.2,155.8 209.9,155.8 209.9,315.6 255.5,224.2 301.1,224.2 301.1,384 255.8,384.3 255.8,292.3 
		210.1,384 164.7,384 	"/>
</g>
<g id="Слой_3">
	<polygon class="st4" points="301.2,384 301.2,201.4 210.2,201.4 210.2,155.8 415.3,155.8 415.3,201.4 346.8,201.1 346.8,384 	"/>
</g>
<g id="Слой_4">
	<g>
		<path class="st5" d="M522.8,273.2c0,0-0.1,1.2-0.2,3.6c-0.1,1.2-0.2,2.6-0.3,4.4c0,0.4-0.1,0.9-0.1,1.3c0,0.2,0,0.5,0,0.7
			c0,0.3-0.1,0.6-0.1,0.9c-0.1,1.4-0.3,2.8-0.4,4.4c-0.2,1.6-0.3,3.2-0.5,4.9c-0.2,1.7-0.4,3.6-0.7,5.3c-0.5,3.4-1.1,7.2-1.8,11.3
			c-0.4,2-0.9,4.1-1.3,6.3c-0.2,1.1-0.5,2.2-0.7,3.3c-0.2,1.1-0.5,2.2-0.8,3.4c-0.6,2.3-1.2,4.6-1.9,7c-0.3,1.2-0.6,2.4-1,3.7
			c-0.4,1.2-0.8,2.5-1.2,3.7c-0.8,2.5-1.6,5.1-2.5,7.7c-1,2.6-2,5.3-3,8c-1,2.7-2.2,5.5-3.4,8.3c-1.2,2.8-2.4,5.7-3.8,8.5
			c-5.4,11.5-12.2,23.3-20.6,35.2c-8.4,11.9-18.3,23.7-30,35c-11.6,11.2-25,21.9-40,31.2c-15,9.3-31.6,17.3-49.5,23.4
			c-2.2,0.8-4.5,1.4-6.8,2.2c-2.3,0.7-4.6,1.4-6.9,2c-2.3,0.6-4.7,1.2-7,1.7c-1.2,0.3-2.3,0.6-3.5,0.9c-1.2,0.3-2.4,0.5-3.6,0.7
			c-2.4,0.5-4.8,0.9-7.2,1.4c-2.4,0.5-4.8,0.7-7.3,1.1c-1.2,0.2-2.4,0.3-3.7,0.5l-1.8,0.3l-1.8,0.2c-2.5,0.2-4.9,0.5-7.4,0.7
			c-2.5,0.3-5,0.3-7.5,0.5c-2.5,0.1-5,0.2-7.5,0.3c-2.5,0-5,0-7.5-0.1c-1.3,0-2.5,0-3.8,0c0.7,0-1.5,0-1.4,0l-0.4,0l-0.8-0.1
			l-1.6-0.1c-2.1-0.1-4.3-0.3-6.4-0.4l-0.8-0.1l-1-0.1l-2.1-0.2c-1.4-0.1-2.7-0.3-4.1-0.4c-5.7-0.5-10.6-1.4-15.7-2.2
			c-10.2-1.9-20.4-4.3-30.4-7.7c-5-1.5-10-3.5-14.9-5.4c-2.5-1-4.9-2.1-7.3-3.1l-3.7-1.6l-3.6-1.8c-19.2-9.3-37.3-21.5-53.5-36
			c-2-1.8-4-3.7-6-5.5c-2-1.9-3.8-3.9-5.7-5.8c-0.9-1-1.9-1.9-2.8-2.9l-2.7-3.1l-2.7-3.1c-0.9-1-1.8-2-2.7-3.1
			c-1.7-2.1-3.4-4.3-5.1-6.4c-1.7-2.1-3.3-4.4-4.9-6.6l-2.4-3.3l-2.3-3.4l-2.3-3.4c-0.8-1.1-1.5-2.3-2.2-3.5
			c-1.4-2.4-2.8-4.7-4.2-7.1c-1.4-2.4-2.6-4.8-3.9-7.3c-0.6-1.2-1.3-2.4-1.9-3.7l-1.8-3.7l-1.7-3.7c-0.6-1.2-1.2-2.5-1.7-3.8
			c-1-2.5-2.1-5.1-3.1-7.6c-1-2.6-1.9-5.2-2.8-7.8c-0.5-1.3-0.9-2.6-1.4-3.9l-1.2-4l-1.2-4c-0.4-1.3-0.8-2.6-1.1-4l-2-8
			c-0.6-2.7-1.1-5.4-1.6-8.1l-0.8-4l-0.6-4.1c-0.4-2.7-0.8-5.4-1.1-8.2c-1.2-10.9-1.5-21.9-1.2-32.8c0-1.4,0-0.7,0-1.1l0-0.5
			l0.1-0.9l0.1-1.8l0.2-3.6l0.1-1.8l0.1-0.9c0-0.3,0.1-0.7,0.1-1l0.5-4.3l0.5-4.3l0.2-2.1c0.1-0.7,0.2-1.4,0.3-2l1.3-8
			c0.5-2.7,1.1-5.3,1.7-8l0.9-4l1-3.9c0.7-2.6,1.4-5.2,2.2-7.8l2.5-7.7c0.4-1.3,0.9-2.5,1.4-3.8l1.4-3.8l1.4-3.8
			c0.5-1.2,1.1-2.5,1.6-3.7c1.1-2.5,2.1-4.9,3.3-7.3c1.2-2.4,2.4-4.8,3.6-7.2c0.6-1.2,1.2-2.4,1.9-3.5l1.9-3.5l1.9-3.5
			c0.7-1.1,1.4-2.3,2.1-3.4c1.4-2.2,2.8-4.5,4.2-6.7c1.5-2.2,3-4.3,4.5-6.5c0.7-1.1,1.5-2.1,2.3-3.2l2.4-3.1l2.4-3.1l2.5-3
			c1.7-2,3.3-4,5.1-5.9c1.8-1.9,3.5-3.8,5.3-5.7c0.9-1,1.8-1.9,2.7-2.8l2.8-2.7l2.8-2.7c0.9-0.9,1.9-1.7,2.9-2.6
			c1.9-1.7,3.8-3.4,5.8-5.1c2-1.6,4-3.2,6-4.8c16.1-12.5,33.7-22.6,52-29.8l3.4-1.4l3.5-1.2c2.3-0.8,4.6-1.6,6.9-2.4
			c4.7-1.4,9.3-2.9,13.9-3.9c9.3-2.4,18.7-3.9,28-5c4.7-0.4,9.3-0.9,13.9-1c2.3-0.1,4.6-0.2,6.9-0.2c2.3,0,4.6,0.1,6.8,0.1l1.7,0
			l0.9,0l0.4,0c0.1,0,0.9,0,0.7,0l3.2,0.2c2.1,0.1,4.2,0.3,6.3,0.4c2.2,0.2,4.6,0.5,6.8,0.7c2.3,0.3,4.6,0.5,6.7,0.9
			c2.2,0.4,4.3,0.7,6.5,1.1l1.6,0.3l1.6,0.3c1.1,0.2,2.1,0.5,3.2,0.7c2.1,0.5,4.2,0.9,6.3,1.4c2.1,0.6,4.1,1.1,6.2,1.7
			c1,0.3,2.1,0.5,3.1,0.8c1,0.3,2,0.7,3,1c2,0.7,4,1.3,6,2c2,0.7,3.9,1.5,5.9,2.2c1.9,0.8,3.9,1.4,5.8,2.3
			c15.2,6.4,29,14.3,41.2,23.2c12.3,8.9,22.9,18.8,32,28.9c9.1,10.2,16.7,20.7,23,31c6.2,10.4,11.2,20.5,14.9,30.3
			c1,2.4,1.8,4.8,2.6,7.2c0.8,2.4,1.7,4.6,2.3,6.9c0.7,2.3,1.3,4.5,2,6.7c0.5,2.2,1.1,4.3,1.6,6.4c3.9,16.7,4.9,30.2,5.1,39.3
			c0,1.1,0.1,2.2,0.1,3.2c0,1,0,1.9,0,2.8c0,1.7,0,3.2-0.1,4.4c0,2.3-0.1,3.6-0.1,3.6L522.8,273.2z M472.8,272c0,0-0.1-1.2-0.2-3.6
			c-0.1-1.2-0.2-2.6-0.3-4.4c-0.1-0.9-0.1-1.8-0.2-2.8c-0.1-1-0.2-2.1-0.4-3.2c-1-9-3-22.2-8.1-38.2c-0.7-2-1.3-4-2-6.1
			c-0.8-2.1-1.6-4.2-2.4-6.3c-0.8-2.2-1.8-4.3-2.8-6.5c-1-2.2-1.9-4.5-3.1-6.7c-4.3-9.1-9.9-18.4-16.6-27.8
			c-13.4-18.7-32-37.5-55.9-52c-11.9-7.3-25.1-13.5-39.3-18.1c-1.7-0.7-3.6-1.1-5.4-1.6c-1.8-0.5-3.6-1.1-5.4-1.6
			c-1.8-0.4-3.7-0.9-5.5-1.3c-0.9-0.2-1.9-0.4-2.8-0.7c-0.9-0.2-1.9-0.4-2.8-0.5c-1.9-0.4-3.8-0.7-5.7-1.1c-1.9-0.3-3.8-0.5-5.7-0.8
			c-1-0.1-1.9-0.3-2.9-0.4l-1.4-0.2l-1.5-0.1c-1.9-0.2-3.9-0.3-5.8-0.5c-2-0.2-3.9-0.2-5.8-0.3c-1.9-0.1-3.8-0.1-5.8-0.2
			c-2.1,0-4.2,0.1-6.4,0.1l-3.2,0c-0.4,0,0.1,0-0.1,0l-0.4,0l-0.7,0.1l-1.5,0.1c-2,0.1-4,0.3-6,0.4c-2,0.2-4,0.5-6,0.7
			c-4,0.4-8,1.2-12,1.8c-8,1.6-16,3.5-23.8,6.2c-3.9,1.2-7.8,2.8-11.7,4.3c-1.9,0.8-3.8,1.7-5.7,2.5l-2.9,1.3l-2.8,1.4
			c-15,7.4-29.1,17.1-41.6,28.6c-1.5,1.5-3.1,2.9-4.6,4.4c-1.5,1.5-3,3.1-4.5,4.6c-0.7,0.8-1.5,1.5-2.2,2.3l-2.1,2.4l-2.1,2.4
			c-0.7,0.8-1.4,1.6-2.1,2.5c-1.3,1.7-2.7,3.4-4,5c-1.3,1.7-2.5,3.5-3.8,5.2l-1.9,2.6l-1.7,2.7l-1.7,2.7c-0.6,0.9-1.2,1.8-1.7,2.7
			c-1.1,1.9-2.1,3.7-3.2,5.6c-1.1,1.9-2,3.8-3,5.7c-0.5,1-1,1.9-1.5,2.9l-1.3,2.9l-1.3,2.9c-0.5,1-0.9,1.9-1.3,2.9l-2.4,6
			c-0.8,2-1.4,4-2.1,6.1c-0.3,1-0.7,2-1,3l-0.9,3.1l-0.9,3.1c-0.3,1-0.6,2-0.8,3.1l-1.5,6.2c-0.5,2.1-0.8,4.2-1.2,6.3l-0.6,3.1
			l-0.4,3.2c-0.3,2.1-0.6,4.2-0.8,6.3l-0.5,6.4c0,0.5-0.1,1.1-0.1,1.6l0,1.5l-0.1,3l-0.1,3c0,0.3,0,0.5,0,0.8l0,0.9l0,1.8l0.1,3.6
			l0,1.8l0,0.9l0,0.5c0-0.1,0,0.9,0-0.2c0.5,8.5,1.4,16.9,3,25.2c0.4,2.1,0.9,4.1,1.4,6.1l0.7,3.1l0.9,3c0.6,2,1.1,4,1.7,6l2,5.9
			c0.3,1,0.7,2,1.1,2.9l1.1,2.9l1.1,2.9c0.4,1,0.8,1.9,1.3,2.8c0.9,1.9,1.7,3.8,2.6,5.6l2.8,5.5c0.4,0.9,1,1.8,1.5,2.7l1.5,2.7
			l1.5,2.7c0.5,0.9,1.1,1.7,1.6,2.6c1.1,1.7,2.2,3.5,3.3,5.1l3.5,5c0.6,0.8,1.2,1.6,1.8,2.4l1.9,2.4l1.9,2.4l2,2.3
			c1.3,1.5,2.6,3.1,4,4.5c1.4,1.5,2.8,2.9,4.1,4.3c0.7,0.7,1.4,1.4,2.1,2.1l2.2,2.1l2.2,2.1c0.7,0.7,1.5,1.3,2.2,2
			c1.5,1.3,3,2.6,4.5,3.9c1.6,1.2,3.1,2.4,4.6,3.6c12.5,9.5,26.1,17.1,40.1,22.4l2.6,1l2.7,0.9c1.8,0.6,3.5,1.2,5.3,1.8
			c3.6,1,7.1,2.1,10.7,2.9c7.1,1.8,14.3,2.8,21.4,3.5c3.5,0.2,7.3,0.6,10.2,0.6l2.3,0.1l1.2,0l0.6,0l0.8,0c2.2,0,4.3-0.1,6.4-0.1
			l1.6,0l0.8,0l0.4,0c0.4,0-1.6,0-0.6,0l2.6-0.2c1.7-0.1,3.4-0.3,5.1-0.4c1.7-0.2,3.4-0.4,5.1-0.6c1.7-0.2,3.4-0.4,5-0.7
			c1.7-0.3,3.3-0.6,4.9-0.9l1.2-0.2l1.2-0.3l2.4-0.6c1.6-0.4,3.2-0.7,4.8-1.1c1.6-0.4,3.1-0.9,4.7-1.3c0.8-0.2,1.6-0.4,2.3-0.7
			l2.3-0.8c1.5-0.5,3-1,4.5-1.5c1.5-0.5,2.9-1.2,4.4-1.7c1.5-0.6,2.9-1.1,4.3-1.8c11.4-5,21.8-11.1,31-18
			c18.4-13.7,31.8-30.1,41-45.8c4.6-7.9,8.2-15.6,10.9-22.9c0.8-1.8,1.3-3.6,1.9-5.4c0.6-1.8,1.2-3.5,1.6-5.2c0.5-1.7,1-3.4,1.4-5
			c0.4-1.6,0.7-3.3,1.1-4.8c0.2-0.8,0.4-1.5,0.5-2.3c0.2-0.8,0.3-1.5,0.4-2.3c0.3-1.5,0.5-2.9,0.8-4.3c0.1-0.7,0.2-1.4,0.3-2.1
			c0.1-0.7,0.2-1.4,0.2-2c0.2-1.3,0.3-2.6,0.5-3.8c0.2-2.5,0.4-4.8,0.5-6.9c0.1-1.1,0.1-1.9,0.1-2.7c0-0.8,0-1.5,0-2.3
			c0-0.7,0-1.4,0.1-2l0-0.2l0-0.1l0-0.2c0-0.2,0-0.5,0-0.7c0-0.5,0-0.9,0-1.4c0-1.7,0-3.2-0.1-4.4c0-2.3-0.1-3.6-0.1-3.6L472.8,272z
			"/>
	</g>
	<circle class="st6" cx="282.7" cy="283.6" r="270.7"/>
</g>
</svg>
