<?xml version="1.0" encoding="utf-8"?>
<!-- Generator: Adobe Illustrator 23.0.1, SVG Export Plug-In . SVG Version: 6.00 Build 0)  -->
<svg version="1.1" id="Слой_1" xmlns="http://www.w3.org/2000/svg" xmlns:xlink="http://www.w3.org/1999/xlink" x="0px" y="0px"
	 viewBox="0 0 566 565" style="enable-background:new 0 0 566 565;" xml:space="preserve">
<style type="text/css">
	.st0{display:none;}
	.st1{display:inline;}
	.st2{fill:none;stroke:#000000;stroke-miterlimit:10;}
	.st3{fill:#808285;}
	.st4{fill:#A7A9AC;}
	.st5{fill:#BCBEC0;}
	.st6{fill:none;stroke:#D1D3D4;stroke-width:10;stroke-miterlimit:10;}
	.st7{fill-rule:evenodd;clip-rule:evenodd;fill:#808285;}
	.st8{fill:#5F9898;}
	.st9{fill-rule:evenodd;clip-rule:evenodd;fill:#578685;}
	.st10{fill:#447776;}
	.st11{fill:#578685;}
	.st12{fill-rule:evenodd;clip-rule:evenodd;fill:#447776;}
</style>
<g>
	<g>
		<path class="st5" d="M561.3,71.2c-0.6-3.3-1.4-6.2-3.4-8.6c-0.6-0.3-0.8-0.6-1.4-1.2c-2.3-1.5-5.1-1.5-7.6-1.5h-61.7
			c-65.1-0.3-130.4-0.3-195.5-0.3h-12.4c-65.1,0-130.4,0-195.5,0.3H22.1c-2.5,0-5.4,0-7.6,1.5c-0.6,0.6-0.8,0.9-1.4,1.2
			c-2,2.4-2.8,5.3-3.4,8.6c-5.6,27.2-5.4,55.6,0.8,82.6c0.6,2.7,1.4,5.6,3.4,7.4c2.3,2.1,5.6,2.1,8.7,2.1H134v-13H34.8
			c-2.8,0-5.9,0-8.2-1.5c-1.7-1.5-2.5-3.6-3.1-5.6c-5.9-20.1-6.2-41.1-0.8-61.5c0.6-2.4,1.4-4.7,3.1-6.5c0.6-0.3,0.8-0.3,1.4-0.9
			C29.5,73,32,73,34.5,73H532c2.3,0,4.8,0,7,1.2c0.6,0.6,0.8,0.6,1.4,0.9c1.7,1.8,2.5,4.1,3.1,6.5c5.4,20.4,5.1,41.4-0.8,61.5
			c-0.6,2.1-1.1,4.1-3.1,5.6c-2.3,1.5-5.4,1.5-8.2,1.5h-94.6v13h111.5c3.1,0,6.5,0,8.7-2.1c2-1.8,2.8-4.7,3.4-7.4
			C566.6,126.8,566.9,98.4,561.3,71.2z"/>
		<path class="st5" d="M23.8,183.1c0.6-0.3,0.8-0.3,1.4-0.9c2.3-1.2,4.8-1.2,7.3-1.2H134v-13H20.2c-2.5,0-5.4,0-7.6,1.5
			c-0.6,0.6-0.8,0.9-1.4,1.2c-2,2.4-2.8,5.3-3.4,8.6c-5.6,27.2-5.4,55.6,0.8,82.6c0.6,2.7,1.4,5.6,3.4,7.4c2.3,2.1,5.6,2.1,8.7,2.1
			H134v-13H32.8c-2.8,0-5.9,0-8.2-1.5c-1.7-1.5-2.5-3.6-3.1-5.6c-5.9-20.1-6.2-41.1-0.8-61.5C21.3,187.2,22.1,184.8,23.8,183.1z
			 M559.3,179.2c-0.6-3.3-1.4-6.2-3.4-8.6c-0.6-0.3-0.8-0.6-1.4-1.2c-2.3-1.5-5.1-1.5-7.6-1.5H436.8v13H530c2.3,0,4.8,0,7,1.2
			c0.6,0.6,0.8,0.6,1.4,0.9c1.7,1.8,2.5,4.1,3.1,6.5c5.4,20.4,5.1,41.4-0.8,61.5c-0.6,2.1-1.1,4.1-3.1,5.6c-2.3,1.5-5.4,1.5-8.2,1.5
			h-92.7v13h109.6c3.1,0,6.5,0,8.7-2.1c2-1.8,2.8-4.7,3.4-7.4C564.6,234.9,564.9,206.4,559.3,179.2z"/>
		<path class="st5" d="M23.8,294.6c0.6-0.3,0.8-0.3,1.4-0.9c2.3-1.2,4.8-1.2,7.3-1.2H134v-13H20.2c-2.5,0-5.4,0-7.6,1.5
			c-0.6,0.6-0.8,0.9-1.4,1.2c-2,2.4-2.8,5.3-3.4,8.6c-5.6,27.2-5.4,55.6,0.8,82.6c0.6,2.7,1.4,5.6,3.4,7.4c2.3,2.1,5.6,2.1,8.7,2.1
			H134v-13H32.8c-2.8,0-5.9,0-8.2-1.5c-1.7-1.5-2.5-3.6-3.1-5.6c-5.9-20.1-6.2-41.1-0.8-61.5C21.3,298.8,22.1,296.4,23.8,294.6z
			 M559.3,290.8c-0.6-3.3-1.4-6.2-3.4-8.6c-0.6-0.3-0.8-0.6-1.4-1.2c-2.3-1.5-5.1-1.5-7.6-1.5H436.8v13H530c2.3,0,4.8,0,7,1.2
			c0.6,0.6,0.8,0.6,1.4,0.9c1.7,1.8,2.5,4.1,3.1,6.5c5.4,20.4,5.1,41.4-0.8,61.5c-0.6,2.1-1.1,4.1-3.1,5.6c-2.3,1.5-5.4,1.5-8.2,1.5
			h-92.7v13h109.6c3.1,0,6.5,0,8.7-2.1c2-1.8,2.8-4.7,3.4-7.4C564.6,346.4,564.9,318,559.3,290.8z"/>
		<path class="st5" d="M561.3,402c-0.6-3.3-1.4-6.2-3.4-8.6c-0.6-0.3-0.8-0.6-1.4-1.2c-2.3-1.5-5.1-1.5-7.6-1.5H436.8v13H532
			c2.3,0,4.8,0,7,1.2c0.6,0.6,0.8,0.6,1.4,0.9c1.7,1.8,2.5,4.1,3.1,6.5c5.4,20.4,5.1,41.4-0.8,61.5c-0.6,2.1-1.1,4.1-3.1,5.6
			c-2.3,1.5-5.4,1.5-8.2,1.5c-82.8,0-165.6,0-248.2-0.3c-82.8,0.3-165.6,0.3-248.4,0.3c-2.8,0-5.9,0-8.2-1.5
			c-1.7-1.5-2.5-3.6-3.1-5.6c-5.9-20.1-6.2-41.1-0.8-61.5c0.6-2.4,1.4-4.7,3.1-6.5c0.6-0.3,0.8-0.3,1.4-0.9c2.3-1.2,4.8-1.2,7.3-1.2
			H134v-13H22.1c-2.5,0-5.4,0-7.6,1.5c-0.6,0.6-0.8,0.9-1.4,1.2c-2,2.4-2.8,5.3-3.4,8.6c-5.6,27.2-5.4,55.6,0.8,82.6
			c0.6,2.7,1.4,5.6,3.4,7.4c2.3,2.1,5.6,2.1,8.7,2.1c87.6,0,175.2,0,262.8-0.3c87.6,0.3,175.2,0.3,262.8,0.3c3.1,0,6.5,0,8.7-2.1
			c2-1.8,2.8-4.7,3.4-7.4C566.6,457.7,566.9,429.3,561.3,402z"/>
	</g>
	<g>
		<path class="st3" d="M312,231.9c0,33.1,0.1,66.2,0,99.2c-0.1,21.4-21.3,34.9-39.8,25.4c-10.1-5.1-15.2-13.8-15.3-25.1
			c-0.1-14.6-0.1-29.2-0.1-43.8c0-51,0-102,0-153c0-14.5,7.1-25.2,19.7-29c16.9-5.2,34.6,6.9,35.4,24.6c0.5,10.9,0.2,21.8,0.2,32.7
			C312,186,312,209,312,231.9C312,231.9,312,231.9,312,231.9z"/>
		<path class="st3" d="M256.8,419.7c-0.1-11.5,4.6-20.7,15.3-26.1c9.7-4.9,19.4-4,28.4,2.2c12,8.4,15.4,27.2,7.4,40.2
			c-7.4,12.1-23.4,16.8-35.9,10.2C261.6,440.7,256.7,431.8,256.8,419.7z"/>
	</g>
</g>
</svg>
