<?xml version="1.0" encoding="utf-8"?>
<!-- Generator: Adobe Illustrator 23.0.1, SVG Export Plug-In . SVG Version: 6.00 Build 0)  -->
<svg version="1.1" id="Слой_1" xmlns="http://www.w3.org/2000/svg" xmlns:xlink="http://www.w3.org/1999/xlink" x="0px" y="0px"
	 viewBox="0 0 566 565" style="enable-background:new 0 0 566 565;" xml:space="preserve">
<style type="text/css">
	.st0{display:none;}
	.st1{display:inline;}
	.st2{fill:none;stroke:#000000;stroke-miterlimit:10;}
	.st3{fill:#808285;}
	.st4{fill:#A7A9AC;}
	.st5{fill:#BCBEC0;}
	.st6{fill:none;stroke:#D1D3D4;stroke-width:10;stroke-miterlimit:10;}
	.st7{fill-rule:evenodd;clip-rule:evenodd;fill:#808285;}
	.st8{fill:#5F9898;}
	.st9{fill-rule:evenodd;clip-rule:evenodd;fill:#578685;}
	.st10{fill:#447776;}
	.st11{fill:#578685;}
	.st12{fill-rule:evenodd;clip-rule:evenodd;fill:#447776;}
</style>
<g>
	<path class="st5" d="M559.6,152.8c1.1,8.4,1.7,14.7,1.8,16.3c2,36.1-0.1,104.7-0.5,130c-0.4,29.2,0.5,89.8-1,136.4
		c-0.2,5.8-0.9,21.8-9.7,38.9c-2.9,5.7-8.6,16.1-19.7,24.2c-3.4,2.5-10.4,6.9-48.6,11c0,0-48.7,5.2-59.6-6.5
		c-1.4-1.5-2.6-3.2-2.6-3.2c-3.1-4.5-4.3-8.7-4.7-10.5c-0.1-0.6-0.6-2.5-0.7-5.7c-0.1-4.4,0.8-7.7,1.2-14.2c0.4-6.7-2-14.7-8.5-16.4
		c-8.7-2.2-15,8.8-15.2,17.7c-0.3,13.4,0.5,18.9-3.6,26.1c-5.6,9.8-21.8,10.4-31.3,10.7c-54.8,1.5-82.7-0.5-107.5-0.6
		c-36.6-0.3-59.2,3.3-65.7-8.9c-2.5-4.8-6.7-7.9-5.1-24.6c0.8-8.8-1.6-20.2-10.3-21.4c-8.6-1.2-14.2,9.3-14.6,18
		c-0.4,8.7,1.4,18.3-3.6,25.5c-5,7.2-14.8,8.9-23.5,9.6c-37.2,3.2-79.5-1.7-102.7-30.9C5.2,450.6,4.4,418,4.4,387.9
		c0.1-64.7,0.2-129.4,0.2-194.1c0-35.7,2.5-76.6,30.6-98.6c20.6-16.2,48.9-16.9,75.1-17c71.9-0.2,143.8-0.4,215.6-0.6
		c35.9-0.1,71.9-0.2,107.8-0.3c29.5-0.1,64-5.1,90.4,11.1c8.4,5.2,15.7,12.1,21.1,20.3C553.8,121.8,557.5,137.2,559.6,152.8z
		 M203.7,483.8c53.3,0.1,106.7,0.2,160,0.4c1.8,0,3.8-0.1,5.1-1.3c1.4-1.3,1.6-3.3,1.7-5.2c0.9-11.7,3.4-23.6,10.1-33.2
		s18.4-16.4,30-14.6c11.3,1.8,20.2,11.4,24.4,22s4.5,22.4,4.7,33.9c16.1-0.7,32.1,2.3,48.2,1.6c16.1-0.7,33.2-5.9,42.4-19.1
		c8-11.6,8.4-26.6,8.4-40.7c0.1-76.9,0.2-153.8,0.4-230.6c0-18-0.1-36.6-7.1-53.2c-8-18.8-23.9-29.1-43.7-31.4
		c-26.2-3-54-0.8-80.4-1.1c-53.8-0.7-107.6-1.5-161.4-2.2c-49.5-0.7-99-1.4-148.5-2c-16-0.2-33.7,0.2-45.5,11.1
		c-10.5,9.8-13.1,25.2-14.8,39.4c-10.2,86-7.8,172.8-5.5,259.4c0.3,11.7,0.7,23.7,5.8,34.2c6.4,13.3,19.5,22.4,33.5,27.1
		c14,4.7,28.9,5.7,43.6,6.6c5.3,0.3,11.4,0.3,14.8-3.8c2.3-2.9,2.5-6.8,2.9-10.5c0.9-10.7,3.8-21.5,10.3-30.1
		c6.5-8.5,17.1-14.4,27.8-13.4c11.9,1.2,21.8,10.7,26.7,21.6C202.4,459.5,203.2,471.8,203.7,483.8z"/>
	<g>
		<g>
			<path class="st7" d="M217.7,303c-3.1,4.6-7.4,7.4-13.6,8.9c-3.3,0.8-10.9,1.8-16,5.2c-6,4.1-8,10-7.1,15.4
				c1,6,5.7,11.3,12.6,12.2c4.9,0.6,11-0.9,17.6-6.1c4.1-3.1,7.7-7.2,10.3-12.2c2.5-4.9,4-10.6,4-17.2c0-9.5-3.8-17.6-3.8-17.6
				S221.5,297.5,217.7,303z"/>
			<path class="st7" d="M178.6,346.3c-2.8-4.8-5.3-9.1-7.1-13.2c-1.9-4.5-2.8-8.8-2.1-13.5c0.6-4,2.5-8.3,6.2-13.3
				c7.4-10,1.1-15.6-0.2-17.3c-0.7-0.8-3.6-3.8-6.3-7.3c-3.4-4.5-4.8-7.6-5.8-9.7c-3.5,4.9-6.7,9.7-9.2,14.7
				c-3.6,7-5.9,14.3-5.6,22.5c0.2,5.2,1,10,2.8,14c2.4,5.6,6.2,10.9,12.7,16C167.7,342.1,174.4,345.1,178.6,346.3z"/>
			<path class="st7" d="M206.8,281.3c-2.1,6.5-6.1,11.3-12.5,16.7c-4.3,3.6-9.4,6.5-14.1,10.2c-7.1,5.5-8.3,11.6-7.2,17.9
				c1.2,6.9,6.6,14.4,6.6,14.4s-1.2-5-1.5-7.3c-0.4-3-0.4-5.8,0.3-8.5c1.6-6.5,7.4-12,19.9-14.7c6.3-1.4,11.8-2.8,15.9-7.9
				c3.3-4.1,4.2-8,4.2-11.5c0.1-11.2-10.4-22.8-10.4-22.8C209,273,208.1,277.3,206.8,281.3L206.8,281.3z M192.9,222L192.9,222
				c3.9-8.1,3.2-14.1,3.2-14.1s1.5,4.1,1.7,9.8c0.1,2.4,0,5.1-0.8,7.9c-1.1,4.1-2.4,7.1-6.6,11.8c-2.8,3.2-5,7.1-5.9,10.4
				c-1.2,4.8-0.7,9.8,0.5,13.6c1,3.1,1.4,3.9,1.9,5c0.7,1.7,2.1,4.5,2.1,4.5s-7.4-8-9.4-11.4c-2-3.4-3.2-7.2-2.7-11.4
				c0.5-4.8,3-10.3,8.8-16.7C189,227.8,191.3,225.2,192.9,222L192.9,222z M166.9,250.3L166.9,250.3c3.4-8.4,10.4-12.9,10.4-12.9
				c-8.4,11.9-3.6,20.3,2.6,27.3c4.4,4.9,9.1,8.6,11,12.7c1.8,3.8,0.7,9.1-1.7,13.8c-3.8,7.4-10.2,14.1-10.2,14.1
				c2.9-4,3.7-7.5,3.5-10.3c-0.3-4.5-4.1-8.2-4.1-8.2c-2.1-2.5-4.4-5-6.2-7.4c-2.9-3.8-4.6-7.6-5.7-11
				C164.2,261,164.9,255,166.9,250.3L166.9,250.3z M195.5,237.2L195.5,237.2c5.2-3.5,10.9-4.4,10.9-4.4c-4.8,3.6-7.6,8-7.3,15.1
				c0.2,4.7,1.8,10.5,5,18c8.2,18.8-20.1,36.7-20.1,36.7c3.6-3.8,6.3-7.3,7.8-10.7c2.1-4.5,2.6-8.2,2.6-11.6c0-3.9-2.1-8.3-2.9-10
				c-0.8-1.7-3.8-8.6-4.5-12.2c-0.6-3.3-0.6-6.2-0.1-8.8C188.2,243.6,191.8,239.7,195.5,237.2z"/>
		</g>
		<path class="st5" d="M456.7,333.7c-6.1-6.1-12.3-12.2-18.4-18.3c-1.3-1.3-2.6-2.7-4.2-4.3c-7.7,7.6-15.1,14.9-22.9,22.6
			c-7.6-7.7-15-15.2-22.7-23c-7.8,7.7-15.2,15-23,22.6c-7.7-7.8-15-15.2-22.7-23c-5.7,5.7-11.3,10.9-16.6,16.5
			c-2.5,2.6-5.1,3.6-8.7,3.5c-13.9-0.3-27.7-0.2-41.6-0.4c-2.7,0-4.2,0.6-5.7,3c-30.3,49.2-97.5,60.5-142.4,24.1
			c-0.7-0.6-1.6-1-2.4-1.5c-3.8-3.9-7.7-7.8-11.5-11.7c-3.3-5-6.9-9.9-9.8-15.1c-21.9-39.3-13.6-88.2,20-118.7
			c32.4-29.4,82.4-32.7,118.8-7.7c13,8.9,23.3,20.4,30.6,34.4c1.2,2.4,2.6,3.1,5.1,3.1c54.2,0.3,108.3,0.7,162.5,1.1
			c2.3,0,4.9,0.7,7,1.8c12.4,6.7,24.6,13.7,36.9,20.5c3.9,2.1,5.8,4.7,5.6,9.5c-0.5,9.1-0.1,18.2-0.1,27.3
			C479.3,311.4,468,322.6,456.7,333.7z M248.1,223.5c-32.4-33-85.4-33.4-118.3-1c-32.8,32.2-33.3,85.2-1.1,118.1
			c32.3,33,85.3,33.5,118.3,1.2C280,309.4,280.5,256.5,248.1,223.5z M278.4,317.2c12.8,0.1,25.3,0.2,37.7,0.1c1.1,0,2.3-1,3.2-1.8
			c6.6-6.4,13.2-13,19.8-19.5c1.2-1.2,2.5-2.4,3.9-3.8c7.7,7.8,15,15.2,22.7,23c7.7-7.6,15.2-15,23-22.7c7.7,7.8,15,15.2,22.6,22.9
			c7.7-7.6,15.2-14.9,22.9-22.6c7.6,7.7,15,15.2,22.5,22.8c6.9-6.8,13.5-13.3,20-19.8c0.5-0.5,0.8-1.4,0.9-2.2c0.3-4,0.4-8,0.6-12.7
			c-53.7-0.4-106.6-0.7-159.2-1.1c0-4.1-0.1-8.1-0.1-12.7c49.2,0.3,98.4,0.7,148.5,1c-8.1-4.5-15.4-8.7-22.8-12.7
			c-1.9-1-4.2-1.7-6.3-1.7c-51.3-0.4-102.6-0.8-154-1.1c-1.2,0-2.5,0-3.9,0.1C287,274.6,286.3,295.7,278.4,317.2z"/>
	</g>
</g>
</svg>
