<?xml version="1.0" encoding="utf-8"?>
<!-- Generator: Adobe Illustrator 23.0.1, SVG Export Plug-In . SVG Version: 6.00 Build 0)  -->
<svg version="1.1" id="Слой_1" xmlns="http://www.w3.org/2000/svg" xmlns:xlink="http://www.w3.org/1999/xlink" x="0px" y="0px"
	 viewBox="0 0 566 565" style="enable-background:new 0 0 566 565;" xml:space="preserve">
<style type="text/css">
	.st0{display:none;}
	.st1{display:inline;}
	.st2{fill:none;stroke:#000000;stroke-miterlimit:10;}
	.st3{fill:#808285;}
	.st4{fill:#A7A9AC;}
	.st5{fill:#BCBEC0;}
	.st6{fill:none;stroke:#D1D3D4;stroke-width:10;stroke-miterlimit:10;}
	.st7{fill-rule:evenodd;clip-rule:evenodd;fill:#808285;}
	.st8{fill:#5F9898;}
	.st9{fill-rule:evenodd;clip-rule:evenodd;fill:#578685;}
</style>
<g>
	<path class="st5" d="M484.7,222.5V109.9c0-1.6-0.4-4.5-2.2-6.9c-2.9-3.7-8.1-4.1-9.6-4.1h-8.5c-16.2,0-448.7,0-448.7,0
		c-7.4,2.4-9.6,6.9-10.3,8.6c-1.1,2.4-1.1,5.7-1.5,11.8c-0.4,3.3-0.4,5.7-0.4,5.7v316.9c0,1.2-0.4,7.3,2.9,10.2
		c1.8,1.6,4,1.6,8.8,1.6c2.6,0.4,4.8,0,6.3,0h354.1c19.1,15.1,42.3,23.7,67.7,23.7c65.5,0,118.9-59.1,118.9-131.7
		C562.4,288.9,530,240.8,484.7,222.5z M435.8,129.9c-28,22.4-147.2,159.1-170.1,184.3c-8.8,10.2-11.8,13.9-16.6,13.9
		c-6.3-0.4-103.8-107.7-118.9-124.8c-15.8-17.9-39-44-71-76.3C184.7,127.8,310.2,128.7,435.8,129.9z M450.9,135.6v79.1
		c-2.6-0.4-4.8-0.4-7.4-0.4c-46.7,0-86.9,29.8-106,73c-4-4.9-8.1-9.8-12.5-14.7C364.4,229.8,406.7,183.7,450.9,135.6z M59.3,420.2
		c-10,0.6-11.6,0.7-13.8,0.7c-4.9,0-9.1-0.4-12.1-0.7c-0.4-97.5-0.7-194.9-1.1-292.8c22.5,26.1,45.6,52.2,69.6,78.3
		c23.9,26.5,47.9,52.6,71.4,77.5c-4.9,6.4-12.6,16.5-21.3,29.4c-13.5,19.9-41.4,57.1-53.4,74.5c-10.3,14.9-19.8,31.7-30.8,32.7
		C67.7,419.8,64.9,419.9,59.3,420.2z M94.3,423.4c12.9-20.3,27.7-41.8,44.6-63.8c17.4-22.8,34.6-43,51-60.8
		c8.1,9.8,53.7,55.5,59.6,54.6c3.7-0.8,6.6-2.9,12.9-9c7.4-6.9,30.5-36.7,49-55.1c0.8,0.9,2.1,2.4,3.6,4.2c6.2,7.1,5.1,5.6,7.9,8.9
		c0,0,6.4,7.5,6.8,7.1c0,0,0.1-0.1,0.1-0.2c0.2-0.7-3.8,23-4.8,36.3c-1.3,17.9,1.8,43.4,21.9,76.5C262.7,422.6,178.5,423,94.3,423.4
		z M443.5,455.7c-54.8,0-99-49.3-99-110.1c0-60.4,44.2-109.7,99-109.7s99,49.3,99,109.7C542.5,406.4,498.3,455.7,443.5,455.7z"/>
	<path class="st3" d="M463.7,310.6c0.5-1.7,0.9-3.2,1.4-4.7c0.2-0.5,0.8-1.1,1.2-1.1c6.3-0.1,12.6,0,19.1,0
		c-0.1,0.6-0.1,1.1-0.2,1.5c-4.9,18.5-9.8,37.1-14.6,55.6c-0.4,1.6-0.7,3.2-0.7,4.9c-0.2,3.7,1.7,5.7,5.2,4.9c2.7-0.6,5.5-1.5,7.8-3
		c6.6-4.3,10.7-10.8,13.1-18.3c5.4-17.2,3.3-33.1-8.2-47.1c-6.1-7.4-14.1-11.4-23.2-13.3c-16.4-3.4-32.3-2.2-47.4,5.9
		c-16.1,8.7-25.7,22.6-28.8,41.1c-2.2,13.1-0.9,26,4.9,38c6.7,13.8,17.7,22.3,31.9,26.4c12.6,3.7,25.3,3.2,38,0.6
		c8.7-1.8,16.8-5.2,24.4-10.1c0.6-0.4,1.2-0.7,1.9-1.1c4-1.9,8.6-0.8,11.3,2.5c2.9,3.7,2.7,9.5-0.8,13.1c-4.1,2.6-9.9,6.4-17.6,9.1
		c-16,5.6-32.5,7.9-49.4,6.5c-15.8-1.3-30.4-6-42.7-16.8c-12.9-11.2-20.1-25.7-22.8-42.7c-2.4-15.2-1.1-30.2,4.5-44.5
		c7.3-18.7,20-32.2,37.7-40.2c20.6-9.3,42-11,63.7-4.7c16.1,4.6,28.8,14.3,37.2,29.6c11.8,21.6,9.8,52.9-7.8,72
		c-8.7,9.4-19.2,15-31.9,15.6c-1.8,0.1-3.7,0-5.5-0.4c-6.1-1.3-10.9-4.2-11.8-11.6c-1,1-1.8,1.8-2.6,2.7
		c-10.8,11.5-31.6,10.9-40.8-1.4c-4-5.3-6.2-11.4-6.7-18c-1.3-15.7,2.1-30.2,11.1-43c5.9-8.3,13.4-14.3,23.3-16.5
		c5-1.1,10.1-1.1,15.1,0.1c3.5,0.9,6.3,3,8.6,5.9C462.2,308.7,462.8,309.5,463.7,310.6z M423.7,351c-0.2,1.2-1.6,10.2,1.6,15.4
		c1.1,1.8,2.5,2.9,2.5,2.9c2.3,1.8,4.8,1.9,5.7,1.9c4.6,0.1,8.1-2.2,11.1-5.4c4.3-4.6,6.9-10.3,8.9-16.2c2.4-6.9,4-14,3.6-21.4
		c-0.4-7.2-5.7-11.4-12.5-9.9c-5.9,1.3-9.6,5.9-12.3,9.8C426.4,336.2,424.4,344.9,423.7,351z"/>
</g>
</svg>
