<?xml version="1.0" encoding="utf-8"?>
<!-- Generator: Adobe Illustrator 23.0.1, SVG Export Plug-In . SVG Version: 6.00 Build 0)  -->
<svg version="1.1" id="Слой_1" xmlns="http://www.w3.org/2000/svg" xmlns:xlink="http://www.w3.org/1999/xlink" x="0px" y="0px"
	 viewBox="0 0 566 565" style="enable-background:new 0 0 566 565;" xml:space="preserve">
<style type="text/css">
	.st0{fill:#5F9898;}
</style>
<path class="st0" d="M482.7,248.6V136.9c0-1.6-0.4-4.5-2.2-6.9c-2.9-3.6-8-4-9.5-4H17.2c-7.3,2.4-9.5,6.9-10.2,8.5
	c-1.1,2.4-1.1,5.7-1.5,11.7c-0.4,3.2-0.4,5.7-0.4,5.7v314.5c0,1.2-0.4,7.3,2.9,10.1c1.8,1.6,4,1.6,8.8,1.6c2.6,0.4,4.7,0,6.2,0
	h351.5c19,15,42,23.5,67.2,23.5c65,0,118-58.7,118-130.8C559.8,314.6,527.6,266.8,482.7,248.6L482.7,248.6z M434.1,156.7
	C406.3,179,253.6,353.5,248.9,353.5c-6.2-0.4-156.7-167.6-188.5-199.6C184.9,154.7,309.5,155.5,434.1,156.7z M449.1,162.4v78.5
	c-2.6-0.4-4.7-0.4-7.3-0.4c-46.4,0-86.2,29.6-105.2,72.5c-4-4.9-8-9.7-12.4-14.6C363.2,255.9,405.2,210.1,449.1,162.4L449.1,162.4z
	 M60.4,444.9c-9.9,0.6-11.5,0.7-13.7,0.7c-4.9,0-9-0.3-12-0.7c-0.4-96.8-0.7-193.5-1.1-290.7c22.4,26,45.4,51.9,69.1,77.8
	c23.7,26.3,47.5,52.2,70.9,76.9c-4.9,6.3-12.5,16.3-21.2,29.1c-13.4,19.7-41.1,56.7-53,73.9c-10.2,14.8-19.6,31.5-30.6,32.5
	C68.8,444.4,66,444.6,60.4,444.9z M95.2,448c12.8-20.1,27.5-41.4,44.2-63.4c17.3-22.6,34.4-42.7,50.6-60.4
	c8,9.7,53.3,55.1,59.2,54.2c3.7-0.8,6.6-2.8,12.8-8.9c7.3-6.9,30.3-36.4,48.6-54.6c0.8,0.9,2.1,2.4,3.6,4.2c6.1,7.1,5,5.6,7.8,8.9
	c0,0,6.4,7.4,6.7,7c0,0,0.1-0.1,0.1-0.2c0.2-0.7-3.8,22.8-4.7,36c-1.3,17.7,1.8,43.1,21.7,76L95.2,448z M441.8,480.2
	c-54.4,0-98.3-49-98.3-109.3c0-59.9,43.8-108.9,98.3-108.9s98.3,49,98.3,108.9C540.1,431.2,496.2,480.2,441.8,480.2z M461.8,336.1
	c0.5-1.7,0.9-3.2,1.4-4.7c0.2-0.5,0.7-1.1,1.1-1.1c6.3-0.1,12.5,0,19,0c-0.1,0.6-0.1,1.1-0.2,1.5c-4.8,18.4-9.7,36.8-14.5,55.2
	c-0.4,1.6-0.7,3.2-0.7,4.8c-0.2,3.7,1.7,5.6,5.1,4.9c2.7-0.6,5.4-1.5,7.7-3c6.6-4.2,10.6-10.7,13-18.2c5.3-17,3.3-32.8-8.1-46.8
	c-6-7.4-14-11.3-23-13.2c-16.3-3.4-32.1-2.2-47,5.8c-16,8.6-25.5,22.4-28.5,40.8c-2.1,13-0.9,25.8,4.9,37.7
	c6.7,13.7,17.6,22.1,31.6,26.2c12.5,3.7,25.1,3.2,37.7,0.6c8.7-1.8,16.7-5.2,24.2-10c0.6-0.4,1.1-0.7,1.9-1.1
	c3.9-1.9,8.6-0.8,11.2,2.5c2.9,3.7,2.7,9.4-0.8,13c-4.1,2.6-9.9,6.4-17.5,9c-15.9,5.5-32.3,7.8-49,6.4c-15.7-1.3-30.1-6-42.4-16.7
	c-12.8-11.1-20-25.5-22.6-42.4c-2.3-15.1-1.1-29.9,4.4-44.2c7.2-18.5,19.9-31.9,37.4-39.9c20.4-9.3,41.7-10.9,63.2-4.7
	c16,4.6,28.6,14.2,36.9,29.3c11.7,21.4,9.7,52.5-7.7,71.4c-8.6,9.3-19,14.9-31.6,15.4c-1.8,0.1-3.7,0-5.4-0.4
	c-6.1-1.3-10.8-4.2-11.7-11.6l-2.6,2.6c-10.7,11.4-31.4,10.8-40.5-1.4c-4-5.3-6.1-11.4-6.6-17.9c-1.3-15.5,2.1-29.9,11-42.6
	c5.8-8.2,13.3-14.1,23.1-16.4c5-1.1,10-1.1,15,0.1c3.5,0.9,6.3,2.9,8.5,5.8C460.3,334.2,461,335,461.8,336.1L461.8,336.1z
	 M422.1,376.2c-0.2,1.2-1.6,10.1,1.5,15.3c1.1,1.8,2.5,2.9,2.5,2.9c2.3,1.8,4.8,1.9,5.6,1.9c4.5,0.1,8-2.2,11-5.4
	c4.3-4.6,6.8-10.2,8.8-16.1c2.4-6.9,4-13.9,3.5-21.2c-0.4-7.2-5.7-11.3-12.4-9.9c-5.9,1.2-9.5,5.9-12.2,9.7
	C424.8,361.5,422.8,370.2,422.1,376.2L422.1,376.2z"/>
</svg>
