<svg viewBox="0 0 201 201" fill="none" xmlns="http://www.w3.org/2000/svg"><path fill-rule="evenodd" clip-rule="evenodd" d="M117.059 106c-2.116 3.12-5.031 5.04-9.304 6.08-2.236.56-7.426 1.24-10.94 3.6-4.073 2.8-5.47 6.88-4.872 10.52.68 4.12 3.913 7.76 8.625 8.36 3.354.44 7.507-.64 12.019-4.16 2.795-2.16 5.27-4.92 7.027-8.32 1.717-3.32 2.755-7.28 2.755-11.8 0-6.48-2.595-12.04-2.595-12.04s-.16 3.96-2.715 7.76zm-26.713 29.6c-1.877-3.32-3.633-6.24-4.831-9.04-1.278-3.08-1.957-6-1.438-9.2.44-2.76 1.717-5.72 4.193-9.08 5.03-6.84.718-10.68-.16-11.8-.44-.56-2.476-2.6-4.272-5-2.356-3.08-3.275-5.2-3.953-6.6-2.356 3.36-4.592 6.64-6.31 10.04-2.475 4.8-4.032 9.84-3.832 15.4.12 3.56.718 6.8 1.916 9.56 1.677 3.84 4.233 7.48 8.705 10.96 2.515 1.96 7.107 3.96 9.982 4.76z" fill="#447776"/><path fill-rule="evenodd" clip-rule="evenodd" d="M110.351 81.92c.758 3.56.159 6.48-.719 9.24-1.437 4.44-4.153 7.76-8.585 11.44-2.915 2.44-6.388 4.48-9.663 7-4.831 3.76-5.67 7.96-4.95 12.24.798 4.56 4.272 9.52 4.471 9.8-.04-.2-.798-3.48-.998-5-.28-2.04-.28-3.96.16-5.8 1.118-4.4 5.03-8.2 13.616-10.08 4.352-.92 8.025-1.92 10.86-5.36 2.276-2.76 2.875-5.48 2.875-7.84.08-7.72-7.067-15.64-7.067-15.64zm-6.868-34.36c-.12-3.88-1.158-6.68-1.158-6.68s.479 4.08-2.236 9.64c-1.038 2.2-2.675 3.96-4.871 6.36-3.954 4.36-5.67 8.12-6.03 11.44-.28 2.92.52 5.52 1.877 7.84 1.318 2.24 6.11 7.44 6.428 7.76-.08-.2-.998-1.92-1.437-3.04-.32-.76-.599-1.28-1.278-3.44-.838-2.6-1.158-5.96-.32-9.28.56-2.24 2.077-4.92 3.994-7.12 2.875-3.24 3.793-5.28 4.512-8.08.479-1.88.559-3.72.519-5.4zM98.731 88.4c-1.277-2.8-4.552-5.4-7.506-8.72-4.273-4.76-7.547-10.52-1.797-18.64-.28.2-4.832 3.28-7.108 8.84-1.317 3.28-1.836 7.36-.24 12.24.76 2.36 1.957 4.92 3.914 7.56 1.238 1.64 2.755 3.36 4.232 5.08 0 0 2.556 2.56 2.795 5.64.16 1.96-.399 4.36-2.355 7.08.28-.28 4.432-4.72 6.947-9.64 1.597-3.16 2.316-6.8 1.118-9.44zm5.59-20.12c-.199-4.88 1.717-7.92 4.952-10.36 0 0-3.834.6-7.427 3.04-2.556 1.72-4.991 4.36-5.79 8.36-.32 1.72-.36 3.72.04 6 .44 2.4 2.516 7.12 3.075 8.32.559 1.2 1.996 4.16 1.996 6.88 0 2.28-.359 4.8-1.797 7.92-1.078 2.28-2.875 4.72-5.35 7.32 0 0 19.365-12.2 13.735-25.08-2.196-5.16-3.274-9.16-3.434-12.4z" fill="#447776"/><path d="M194.322 33.92c-.479-.92-.918-1.76-1.677-2.84-3.993-5.6-10.422-8.16-17.569-8.84-9.503-.92-19.645-.04-29.228-.04-19.566 0-39.171-.04-58.776-.04 0-8.68-6.668-17.04-15.812-19.84a29.345 29.345 0 00-5.27-1.08c-3.195-.4-6.51-.4-9.744-.4-7.307 0-14.614 0-21.92-.04-10.502 0-22.64.64-29.03 8.16-4.55 5.36-4.75 12.6-4.75 19.32 0 33.64.04 67.24.04 100.88 0 7.04.24 14.76 5.31 20.16 7.707 8.2 20.923 7.52 27.152 7.2 22.281-1.2 51.829-1.2 90.68-.52a26.202 26.202 0 01-2.675-6.56 25.782 25.782 0 01-.719-7.28c-48.913-.04-84.33-.08-93.115.32-1.717.08-7.188.4-9.743-2.88-1.318-1.68-1.358-3.88-1.358-5.96 0-29.2-.04-58.4-.04-87.6 0-2.64.12-5.56 2.077-7.48 2.236-2.2 5.91-2.32 9.223-2.32 47.836 0 95.711 0 143.546.04 2.875 0 6.03.12 8.106 1.88 2.556 2.16 2.436 6 2.396 7.8-.28 16.08.239 32.12.279 48.2 0 1.04.04 3.28 1.198 5.64 1.478 3 3.953 4.48 5.67 5.68 2.635 1.84 6.109 4.88 9.543 10-.758-16.44-.878-29.4-.838-38.28.04-5.6-.4-11.24-.24-16.84.439-10.16 1.478-18.2-2.715-26.44zM33.686 21.2c-1.278.12-2.555 0-3.833 0v.16c-1.637-.12-3.274-.08-4.871-.4-3.075-.64-5.071-3.16-4.672-5.64.4-2.72 2.875-4.72 6.15-4.8 2.275-.08 4.551-.04 6.827 0 3.554.08 6.229 2.28 6.389 5.16.16 2.76-2.476 5.24-5.99 5.52zm23.878-.04c-2.556.2-5.15.16-7.666 0-3.554-.24-5.99-2.68-5.83-5.6.12-2.88 2.795-5.04 6.428-5.12 1.158-.04 2.276 0 3.434 0h2.995c3.634.08 6.309 2.2 6.509 5.04.12 2.88-2.356 5.44-5.87 5.68z" fill="#5F9898"/><path d="M164.774 104.44c-19.685-.16-35.896 16-35.936 35.88-.04 19.76 15.932 35.8 35.736 35.88 19.805.08 35.897-16 35.897-35.88.04-19.8-15.812-35.72-35.697-35.88zm-.12 64.56c-15.812 0-28.629-12.84-28.629-28.68s12.817-28.68 28.629-28.68c15.812 0 28.63 12.84 28.63 28.68S180.466 169 164.654 169z" fill="#5F9898"/><path d="M144.65 132.68c.12-.48.16-.96.319-1.4.479-1.6 1.438-2.92 2.835-3.96 1.438-1.08 3.115-1.6 4.952-1.6h11.779c1.597 0 3.194-.04 4.791.04 1.318.04 2.556.4 3.674 1.08 2.236 1.32 3.553 3.24 3.873 5.72.04.44 0 .92 0 1.44.719-.36 1.357-.64 1.996-.96 1.797-.84 3.554-1.72 5.351-2.56 1.198-.56 2.356.2 2.356 1.48v18.24c0 .88-.559 1.48-1.478 1.6-.319.04-.678-.04-.958-.2a571.266 571.266 0 01-7.147-3.4h-.12v.36c0 2.88-1.278 5.12-3.793 6.68-1.438.88-2.995 1.2-4.712 1.2-2.076-.04-4.193 0-6.269 0h-6.149c-1.238 0-2.436.04-3.634 0-2.355-.12-4.272-1.04-5.789-2.76a7.035 7.035 0 01-1.797-4.04c0-.04-.04-.08-.04-.12-.04-5.68-.04-11.28-.04-16.84zm29.907 9.08c0-2.32-.04-4.64-.04-6.96 0-1.4 0-2.88-.719-4.08-.718-1.24-2.036-2.04-3.474-2.44-1.397-.4-2.874-.4-4.352-.4-.958 0-1.597-.04-2.076-.04-.839-.04-1.478-.08-1.637-.08-1.757-.12-3.354.04-6.07.08-3.593.04-4.791-.16-6.228.64-.759.4-1.238.88-1.358 1-.719.72-1.158 1.56-1.477 2.64-.599 2.04-.36 4.04-.28 6.16.12 3 .04 9.2 0 10.6 0 .36-.04 1.2.359 2.16a5.627 5.627 0 001.877 2.4c1.597 1.2 3.474 1.16 5.95 1.16 4.192 0 8.425-.12 12.617-.12 2.196 0 3.793.04 4.991-1.08.599-.52 1.039-1.32 1.478-3.48.639-2.76.439-4.2.439-8.16zm10.222-8.84c-.439.24-.998.52-1.677.8-.399.16-.559.24-1.118.44-.32.12-.958.4-1.717.76-2.037.92-1.198.68-2.436 1.28-.319.16-.679.32-.838.64-.04.12-.04.24-.04.88v2.52c0 1.96.04 3.4 0 4.24v.32s0 .56.08 1.04c.119.6 1.277 1 2.994 1.8 1.238.56 1.078.6 2.476 1.2.918.44 1.757.76 2.436 1-.12-5.64-.12-11.28-.16-16.92z" fill="#5F9898"/><path d="M155.231 133.04l.24 17.4c4.791-3.2 9.583-6.36 14.334-9.56-4.831-2.56-9.703-5.2-14.574-7.84z" fill="#5F9898"/></svg>