<svg version="1.1" id="Слой_1" xmlns="http://www.w3.org/2000/svg" xmlns:xlink="http://www.w3.org/1999/xlink" x="0px" y="0px"
	 viewBox="0 0 566 565" style="enable-background:new 0 0 566 565;" xml:space="preserve">
<style type="text/css">
	.st0{display:none;}
	.st1{display:inline;}
	.st2{fill:none;stroke:#000000;stroke-miterlimit:10;}
	.st3{fill:#F4F4F4;}
	.st4{fill:#FFFFFF;}
	.st5{fill:none;stroke:#FFFFFF;stroke-width:10;stroke-miterlimit:10;}
	.st6{fill-rule:evenodd;clip-rule:evenodd;fill:#F4F4F4;}
	.st7{fill:#5F9898;}
	.st8{fill-rule:evenodd;clip-rule:evenodd;fill:#578685;}
	.st9{fill:#447776;}
	.st10{fill:#578685;}
	.st11{fill-rule:evenodd;clip-rule:evenodd;fill:#447776;}
	.st12{fill:#EEEEEE;}
	.st13{clip-path:url(#SVGID_2_);fill:#FFFFFF;}
	.st14{clip-path:url(#SVGID_2_);fill:none;}
	.st15{opacity:0.24;clip-path:url(#SVGID_2_);}
	.st16{opacity:0.24;}
	.st17{opacity:0.31;clip-path:url(#SVGID_4_);}
	.st18{opacity:0.31;}
	.st19{clip-path:url(#SVGID_6_);fill:#C2DBCB;}
	.st20{clip-path:url(#SVGID_6_);}
	.st21{fill:#C9E2F2;}
	.st22{opacity:0.67;clip-path:url(#SVGID_4_);}
	.st23{fill:none;}
	.st24{opacity:0.65;fill:#B8D5BC;}
	.st25{clip-path:url(#SVGID_4_);fill:none;}
	.st26{opacity:0.31;clip-path:url(#SVGID_8_);}
	.st27{clip-path:url(#SVGID_10_);fill:#C2DBCB;}
	.st28{clip-path:url(#SVGID_10_);}
	.st29{opacity:0.67;clip-path:url(#SVGID_8_);}
	.st30{clip-path:url(#SVGID_8_);fill:none;}
	.st31{opacity:0.31;clip-path:url(#SVGID_12_);}
	.st32{clip-path:url(#SVGID_14_);fill:#C2DBCB;}
	.st33{clip-path:url(#SVGID_14_);}
	.st34{opacity:0.67;clip-path:url(#SVGID_12_);}
	.st35{clip-path:url(#SVGID_12_);fill:none;}
	.st36{opacity:0.7;fill:#DBDBDB;}
</style>
<g>
	<path class="st4" d="M420,160.6c0-25.6-19.1-44.5-44.8-44.5c-107.8,0-215.5,0-323.3,0c-22.9,0-40.3,14.7-44.3,37.2
		c-0.1,0.5-0.3,1.1-0.5,1.6v224c0.7,2.9,1.3,5.8,2.3,8.6c5.7,17.4,22.1,29.4,40.4,29.7c5.6,0.1,11.2,0,17.4,0
		c-12.3,21.4-24.4,42.2-36.9,63.9c1.8-0.8,2.8-1.2,3.9-1.7c44.5-20.4,89.1-40.7,133.7-61c1.6-0.7,3.4-1.1,5.1-1.1
		c67.3-0.1,134.7,0,202-0.1c19.6,0,35.8-10.5,42-28c1.9-5.2,2.9-11,2.9-16.5C420.1,302,420.1,231.3,420,160.6z M382.7,379.5
		c0,3.7-3,6.8-6.8,6.8H56.5c-3.7,0-6.8-3-6.8-6.8V155.9c0-3.7,3-6.8,6.8-6.8H376c3.7,0,6.8,3,6.8,6.8V379.5z"/>
	<path class="st4" d="M558.7,313c-0.5,2.1-0.8,4.2-1.4,6.3c-4.7,18-20.7,30.5-39.4,30.7c-5.1,0.1-10.1,0-15.8,0
		c11.6,20,22.9,39.7,34.5,59.9c-1.1-0.4-1.8-0.6-2.4-0.8c-31.3-14.3-62.5-28.6-93.8-42.9c-1.3-0.6-2.3-1-2.3-2.9
		c0.1-25,0.1-50.1,0.1-75.1c0-0.5,0.1-0.9,0.1-1.7c1.2,0,2.3,0,3.4,0c13.2,0,26.5,0,39.7,0c4.6,0,6.4-1.7,6.4-6.2
		c0.1-6.7,0-13.3,0-20c0-4.5-1.9-6.2-6.4-6.2c-13.2,0-26.5,0-39.7,0c-1,0-2,0-3.3,0c0-9.6,0-19,0-28.7c1,0,2,0,3,0
		c13.3,0,26.6,0,40,0c4.7,0,6.4-1.7,6.4-6.4c0-6.5,0-12.9,0-19.4c0-4.9-1.6-6.4-6.4-6.4c-13.2,0-26.5,0-39.7,0c-1.1,0-2.2,0-3.4,0
		c0-9.7,0-19.1,0-28.9c1.1,0,2.2,0,3.3,0c13.2,0,26.5,0,39.7,0c4.8,0,6.5-1.6,6.5-6.3c0-6.6,0-13.1,0-19.7c0-4.6-1.8-6.3-6.3-6.3
		c-13.3,0-26.6,0-40,0c-1,0-2,0-3.1,0c-0.3-3.6-0.2-7-0.8-10.3c-1.8-11.6-11.9-20.3-23.6-20.7c-1.4,0-2.8,0-4.2,0
		c-78.6,0-157.2,0-235.8,0c-1.2,0-2.4,0-3.9,0c0.9-6.6,3.2-12.2,6.9-17.3c8.3-11.4,19.6-17.4,33.6-17.4c102.1-0.1,204.3,0,306.4,0
		c21,0,37.8,14.5,41,35.2c0.1,0.4,0.3,0.8,0.5,1.3C558.7,172.7,558.7,242.9,558.7,313z"/>
	<path class="st3" d="M341,322.6c0,6.7,0,13.5,0,20.3c0,5.2-1.8,6.8-7,6.8c-40.8,0-81.6,0-122.4,0H89.5c-5.6,0-7.2-1.6-7.2-7.2
		c0-6.7-0.1-13.3,0-20c0-5.5,1.8-7.2,7.3-7.2c81.4,0,162.8,0,244.2,0C339.3,315.4,340.9,317,341,322.6z"/>
	<path class="st3" d="M82.3,277.9c-0.1-6.8-0.1-13.7,0-20.5c0.1-5.2,1.8-6.8,7-6.8H334c5.1,0,6.9,1.7,6.9,6.9c0,6.8,0,13.7,0,20.5
		c0,5.2-1.8,6.9-7,6.9H89.2C84.1,284.8,82.3,283.1,82.3,277.9z"/>
	<path class="st3" d="M82.3,213.2c-0.1-6.9-0.1-13.9,0-20.8c0.1-4.9,1.8-6.6,6.7-6.6c41,0,82,0,122.9,0c40.6,0,81.2,0,121.8,0
		c5.7,0,7.3,1.5,7.3,7.4c0,6.7,0,13.3,0,20c0,5.2-1.8,6.9-6.9,6.9H89.3C84.1,220,82.3,218.4,82.3,213.2z"/>
</g>
</svg>
