<?xml version="1.0" encoding="utf-8"?>
<!-- Generator: Adobe Illustrator 23.0.1, SVG Export Plug-In . SVG Version: 6.00 Build 0)  -->
<svg version="1.1" id="Слой_1" xmlns="http://www.w3.org/2000/svg" xmlns:xlink="http://www.w3.org/1999/xlink" x="0px" y="0px"
	 viewBox="0 0 566 565" style="enable-background:new 0 0 566 565;" xml:space="preserve">
<style type="text/css">
	.st0{fill:#5F9898;}
</style>
<path class="st0" d="M422.9,167.4c0-26-19.4-45.1-45.4-45.1H49.8c-23.2,0-40.9,14.9-44.9,37.7c-0.1,0.5-0.3,1.1-0.5,1.6v227.1
	c0.8,2.9,1.4,5.9,2.3,8.7c5.8,17.6,22.4,29.8,40.9,30.1c5.7,0.1,11.3,0,17.6,0c-12.5,21.6-24.7,42.8-37.4,64.7
	c1.8-0.8,2.9-1.2,3.9-1.7c45.2-20.6,90.3-41.3,135.5-61.9c1.6-0.7,3.4-1.1,5.2-1.1c68.3-0.1,136.5,0,204.8-0.1
	c19.9,0,36.3-10.7,42.6-28.4c1.9-5.3,3-11.1,3-16.7C423,310.8,423,239.1,422.9,167.4L422.9,167.4z M385.1,389.4
	c0,3.8-3.1,6.8-6.8,6.8H54.4c-3.8,0-6.8-3.1-6.8-6.8V162.6c0-3.8,3.1-6.8,6.8-6.8h323.9c3.8,0,6.8,3.1,6.8,6.8L385.1,389.4
	L385.1,389.4z M563.4,322c-0.5,2.1-0.8,4.3-1.4,6.4c-4.8,18.3-21,30.9-39.9,31.1c-5.1,0.1-10.3,0-16,0c11.7,20.3,23.2,40.3,35,60.7
	c-1.2-0.4-1.8-0.6-2.5-0.9c-31.7-14.5-63.4-29-95-43.5c-1.3-0.6-2.4-1-2.4-3c0.1-25.4,0.1-50.8,0.1-76.2c0-0.5,0.1-0.9,0.1-1.8H485
	c4.7,0,6.5-1.7,6.5-6.3c0.1-6.8,0.1-13.5,0-20.3c0-4.5-1.9-6.3-6.5-6.3h-43.5v-29.1H485c4.7,0,6.5-1.7,6.5-6.5v-19.7
	c0-4.9-1.6-6.5-6.5-6.5h-43.7v-29.3h43.5c4.9,0,6.6-1.6,6.6-6.4v-20c0-4.6-1.8-6.4-6.4-6.4h-43.6c-0.3-3.6-0.2-7.1-0.8-10.4
	c-1.8-11.7-12.1-20.6-23.9-21H169.5c0.9-6.7,3.3-12.4,7-17.5c8.4-11.6,19.8-17.6,34.1-17.6c103.5-0.1,207.1-0.1,310.6,0
	c21.2,0,38.3,14.7,41.6,35.7c0.1,0.4,0.3,0.8,0.5,1.3C563.4,179.7,563.4,250.8,563.4,322L563.4,322z M342.8,331.6v20.5
	c0,5.2-1.8,6.9-7.1,6.9H87.9c-5.6,0-7.3-1.6-7.3-7.3c0-6.7-0.1-13.5,0-20.2c0-5.6,1.8-7.3,7.4-7.3h247.5
	C341,324.3,342.7,326,342.8,331.6z M80.5,286.4c-0.1-6.9-0.1-13.9,0-20.8c0.1-5.2,1.9-6.9,7.1-6.9h248.1c5.2,0,7,1.7,7,7v20.8
	c0,5.2-1.8,7-7.1,7h-248C82.4,293.4,80.6,291.7,80.5,286.4z M80.5,220.7c-0.1-7-0.1-14.1,0-21.1c0.1-5,1.9-6.7,6.8-6.7h248.1
	c5.8,0,7.4,1.6,7.4,7.5v20.2c0,5.3-1.8,7-7,7H87.6C82.4,227.7,80.6,226,80.5,220.7z"/>
</svg>
