<?xml version="1.0" encoding="utf-8"?>
<!-- Generator: Adobe Illustrator 23.0.1, SVG Export Plug-In . SVG Version: 6.00 Build 0)  -->
<svg version="1.1" id="Слой_1" xmlns="http://www.w3.org/2000/svg" xmlns:xlink="http://www.w3.org/1999/xlink" x="0px" y="0px"
	 viewBox="0 0 566 565" style="enable-background:new 0 0 566 565;" xml:space="preserve">
<style type="text/css">
	.st0{display:none;}
	.st1{display:inline;}
	.st2{fill:none;stroke:#000000;stroke-miterlimit:10;}
	.st3{fill:#F4F4F4;}
	.st4{fill:#FFFFFF;}
	.st5{fill:none;stroke:#FFFFFF;stroke-width:10;stroke-miterlimit:10;}
	.st6{fill-rule:evenodd;clip-rule:evenodd;fill:#F4F4F4;}
	.st7{fill:#5F9898;}
	.st8{fill-rule:evenodd;clip-rule:evenodd;fill:#578685;}
	.st9{fill:#447776;}
	.st10{fill:#578685;}
	.st11{fill-rule:evenodd;clip-rule:evenodd;fill:#447776;}
	.st12{fill:#EEEEEE;}
	.st13{clip-path:url(#SVGID_2_);fill:#FFFFFF;}
	.st14{clip-path:url(#SVGID_2_);fill:none;}
	.st15{opacity:0.24;clip-path:url(#SVGID_2_);}
	.st16{opacity:0.24;}
	.st17{opacity:0.31;clip-path:url(#SVGID_4_);}
	.st18{opacity:0.31;}
	.st19{clip-path:url(#SVGID_6_);fill:#C2DBCB;}
	.st20{clip-path:url(#SVGID_6_);}
	.st21{fill:#C9E2F2;}
	.st22{opacity:0.67;clip-path:url(#SVGID_4_);}
	.st23{fill:none;}
	.st24{opacity:0.65;fill:#B8D5BC;}
	.st25{clip-path:url(#SVGID_4_);fill:none;}
	.st26{opacity:0.31;clip-path:url(#SVGID_8_);}
	.st27{clip-path:url(#SVGID_10_);fill:#C2DBCB;}
	.st28{clip-path:url(#SVGID_10_);}
	.st29{opacity:0.67;clip-path:url(#SVGID_8_);}
	.st30{clip-path:url(#SVGID_8_);fill:none;}
	.st31{opacity:0.31;clip-path:url(#SVGID_12_);}
	.st32{clip-path:url(#SVGID_14_);fill:#C2DBCB;}
	.st33{clip-path:url(#SVGID_14_);}
	.st34{opacity:0.67;clip-path:url(#SVGID_12_);}
	.st35{clip-path:url(#SVGID_12_);fill:none;}
	.st36{opacity:0.7;fill:#DBDBDB;}
</style>
<g>
	<path class="st7" d="M422.9,167.4c0-26-19.4-45.1-45.4-45.1c-109.2,0-218.5,0-327.7,0c-23.2,0-40.9,14.9-44.9,37.7
		c-0.1,0.5-0.3,1.1-0.5,1.6v227.1c0.8,2.9,1.4,5.9,2.3,8.7c5.8,17.6,22.4,29.8,40.9,30.1c5.7,0.1,11.3,0,17.6,0
		c-12.5,21.6-24.7,42.8-37.4,64.7c1.8-0.8,2.9-1.2,3.9-1.7c45.2-20.6,90.3-41.3,135.5-61.9c1.6-0.7,3.4-1.1,5.2-1.1
		c68.3-0.1,136.5,0,204.8-0.1c19.9,0,36.3-10.7,42.6-28.4c1.9-5.3,3-11.1,3-16.7C423,310.8,423,239.1,422.9,167.4z M385.1,389.4
		c0,3.8-3.1,6.8-6.8,6.8H54.4c-3.8,0-6.8-3.1-6.8-6.8V162.6c0-3.8,3.1-6.8,6.8-6.8h323.9c3.8,0,6.8,3.1,6.8,6.8V389.4z"/>
	<path class="st7" d="M563.4,322c-0.5,2.1-0.8,4.3-1.4,6.4c-4.8,18.3-21,30.9-39.9,31.1c-5.1,0.1-10.3,0-16,0
		c11.7,20.3,23.2,40.3,35,60.7c-1.2-0.4-1.8-0.6-2.5-0.9c-31.7-14.5-63.4-29-95-43.5c-1.3-0.6-2.4-1-2.4-3
		c0.1-25.4,0.1-50.8,0.1-76.2c0-0.5,0.1-0.9,0.1-1.8c1.2,0,2.3,0,3.4,0c13.4,0,26.8,0,40.2,0c4.7,0,6.5-1.7,6.5-6.3
		c0.1-6.8,0.1-13.5,0-20.3c0-4.5-1.9-6.3-6.5-6.3c-13.4,0-26.8,0-40.2,0c-1,0-2.1,0-3.3,0c0-9.7,0-19.2,0-29.1c1,0,2,0,3,0
		c13.5,0,27,0,40.5,0c4.7,0,6.5-1.7,6.5-6.5c0-6.6,0-13.1,0-19.7c0-4.9-1.6-6.5-6.5-6.5c-13.4,0-26.8,0-40.2,0c-1.1,0-2.2,0-3.5,0
		c0-9.8,0-19.3,0-29.3c1.1,0,2.2,0,3.3,0c13.4,0,26.8,0,40.2,0c4.9,0,6.6-1.6,6.6-6.4c0-6.7,0-13.3,0-20c0-4.6-1.8-6.4-6.4-6.4
		c-13.5,0-27,0-40.5,0c-1,0-2.1,0-3.1,0c-0.3-3.6-0.2-7.1-0.8-10.4c-1.8-11.7-12.1-20.6-23.9-21c-1.4,0-2.9,0-4.3,0
		c-79.7,0-159.4,0-239,0c-1.2,0-2.4,0-3.9,0c0.9-6.7,3.3-12.4,7-17.5c8.4-11.6,19.8-17.6,34.1-17.6c103.5-0.1,207.1-0.1,310.6,0
		c21.2,0,38.3,14.7,41.6,35.7c0.1,0.4,0.3,0.8,0.5,1.3C563.4,179.7,563.4,250.8,563.4,322z"/>
	<path class="st10" d="M342.8,331.6c0,6.8,0,13.7,0,20.5c0,5.2-1.8,6.9-7.1,6.9c-41.4,0-82.7,0-124.1,0H87.9c-5.6,0-7.3-1.6-7.3-7.3
		c0-6.7-0.1-13.5,0-20.2c0-5.6,1.8-7.3,7.4-7.3c82.5,0,165,0,247.5,0C341,324.3,342.7,326,342.8,331.6z"/>
	<path class="st10" d="M80.5,286.4c-0.1-6.9-0.1-13.9,0-20.8c0.1-5.2,1.9-6.9,7.1-6.9h248.1c5.2,0,7,1.7,7,7c0,6.9,0,13.9,0,20.8
		c0,5.2-1.8,7-7.1,7H87.6C82.4,293.4,80.6,291.7,80.5,286.4z"/>
	<path class="st10" d="M80.5,220.7c-0.1-7-0.1-14.1,0-21.1c0.1-5,1.9-6.7,6.8-6.7c41.5,0,83.1,0,124.6,0c41.2,0,82.3,0,123.5,0
		c5.8,0,7.4,1.6,7.4,7.5c0,6.7,0,13.5,0,20.2c0,5.3-1.8,7-7,7H87.6C82.4,227.7,80.6,226,80.5,220.7z"/>
</g>
</svg>
