<?xml version="1.0" encoding="utf-8"?>
<!-- Generator: Adobe Illustrator 23.0.1, SVG Export Plug-In . SVG Version: 6.00 Build 0)  -->
<svg version="1.1" id="Слой_1" xmlns="http://www.w3.org/2000/svg" xmlns:xlink="http://www.w3.org/1999/xlink" x="0px" y="0px"
	 viewBox="0 0 566 565" style="enable-background:new 0 0 566 565;" xml:space="preserve">
<style type="text/css">
	.st0{display:none;}
	.st1{display:inline;}
	.st2{fill:none;stroke:#000000;stroke-miterlimit:10;}
	.st3{fill:#808285;}
	.st4{fill:#A7A9AC;}
	.st5{fill:#BCBEC0;}
	.st6{fill:none;stroke:#D1D3D4;stroke-width:10;stroke-miterlimit:10;}
	.st7{fill-rule:evenodd;clip-rule:evenodd;fill:#808285;}
	.st8{fill:#5F9898;}
	.st9{fill-rule:evenodd;clip-rule:evenodd;fill:#578685;}
	.st10{fill:#447776;}
	.st11{fill:#578685;}
	.st12{fill-rule:evenodd;clip-rule:evenodd;fill:#447776;}
</style>
<g>
	<g>
		<path class="st7" d="M181.4,217.3c-3.6,5.4-8.7,8.6-16,10.4c-3.8,0.9-12.7,2.1-18.7,6.1c-7,4.8-9.4,11.8-8.3,18
			c1.2,7.1,6.7,13.2,14.8,14.3c5.8,0.7,12.9-1.1,20.6-7.1c4.8-3.7,9.1-8.4,12.1-14.3c3-5.7,4.7-12.4,4.7-20.2
			c0-11.1-4.5-20.6-4.5-20.6S185.8,210.9,181.4,217.3z"/>
		<path class="st7" d="M135.6,268c-3.2-5.7-6.2-10.7-8.3-15.5c-2.2-5.2-3.3-10.3-2.5-15.8c0.7-4.7,3-9.8,7.2-15.5
			c8.6-11.7,1.3-18.3-0.3-20.2c-0.8-1-4.2-4.5-7.3-8.5c-4-5.3-5.6-8.9-6.8-11.3c-4.1,5.7-7.8,11.4-10.8,17.2
			c-4.3,8.2-6.9,16.8-6.5,26.4c0.2,6.1,1.2,11.7,3.3,16.4c2.9,6.5,7.3,12.8,14.9,18.7C122.9,263.2,130.7,266.6,135.6,268z"/>
		<path class="st7" d="M168.7,191.9c-2.5,7.6-7.1,13.3-14.7,19.6c-5,4.2-11,7.6-16.6,12c-8.3,6.4-9.7,13.6-8.5,20.9
			c1.4,8.1,7.7,16.8,7.7,16.8s-1.4-5.9-1.7-8.6c-0.5-3.5-0.5-6.8,0.3-9.9c1.9-7.6,8.6-14.1,23.3-17.3c7.4-1.6,13.8-3.3,18.7-9.2
			c3.9-4.8,4.9-9.4,4.9-13.4c0.1-13.1-12.2-26.7-12.2-26.7C171.2,182.2,170.2,187.3,168.7,191.9L168.7,191.9z M152.3,122.5
			L152.3,122.5c4.6-9.5,3.8-16.5,3.8-16.5s1.8,4.8,2,11.4c0.1,2.8-0.1,6-0.9,9.3c-1.2,4.8-2.9,8.3-7.7,13.8
			c-3.3,3.7-5.9,8.3-6.9,12.2c-1.4,5.7-0.9,11.5,0.6,15.9c1.2,3.7,1.7,4.6,2.2,5.9c0.8,2,2.5,5.2,2.5,5.2s-8.7-9.4-11-13.3
			c-2.3-4-3.7-8.4-3.2-13.4c0.6-5.7,3.5-12.1,10.3-19.6C147.8,129.3,150.5,126.2,152.3,122.5L152.3,122.5z M121.9,155.6L121.9,155.6
			c4-9.8,12.2-15.2,12.2-15.2c-9.8,13.9-4.2,23.8,3.1,32c5.1,5.7,10.7,10.1,12.9,14.9c2.1,4.5,0.8,10.7-2,16.1
			c-4.5,8.7-11.9,16.5-11.9,16.5c3.4-4.7,4.3-8.8,4.1-12.1c-0.4-5.3-4.8-9.6-4.8-9.6c-2.5-2.9-5.1-5.9-7.2-8.7
			c-3.4-4.5-5.4-8.9-6.7-12.9C118.7,168.2,119.6,161.2,121.9,155.6L121.9,155.6z M155.4,140.3L155.4,140.3
			c6.1-4.1,12.7-5.2,12.7-5.2c-5.6,4.2-8.9,9.4-8.5,17.7c0.2,5.5,2.1,12.3,5.9,21.1c9.6,22.1-23.5,42.9-23.5,42.9
			c4.2-4.4,7.3-8.6,9.2-12.5c2.5-5.3,3.1-9.6,3.1-13.5c0-4.6-2.4-9.7-3.4-11.7c-1-2-4.5-10.1-5.2-14.2c-0.7-3.9-0.7-7.3-0.1-10.3
			C146.9,147.8,151,143.2,155.4,140.3z"/>
	</g>
	<path class="st5" d="M3.3,452.2c0-114,0-227.9,0-341.9c0.1-0.2,0.4-0.5,0.4-0.7c0.2-1.9,0.4-3.8,0.6-5.6c0.6-5.5,2-10.9,4.2-16.1
		c2.2-5.1,5-9.8,9.4-13.7c3.3-3,7.2-5.3,11.5-7c5.2-2,10.7-3.3,16.3-3.3c145.6,0,291.1,0,436.7,0c2.4,0,4.7,0.2,7.1,0.6
		c8.8,1.5,16.4,4.9,21.9,11.6c2.7,3.3,5.3,6.6,6,10.9c0.6,3.8,3.2,6.4,7.3,7.4c3.3,0.8,6.7,1.2,9.9,2c7.8,1.8,14.4,5.2,19.4,11.2
		c5.6,6.8,7.9,14.6,8,22.9c0.1,91.5,0.1,183.1,0,274.6c0,13.9-0.1,27.8-0.3,41.7c0,4-0.2,8.1-0.6,12.1c-0.5,5.3-1.2,10.6-2.1,15.8
		c-1.2,6.5-2.9,12.9-6.5,18.7c-4.2,6.8-10.4,10.8-18.8,12c-1,0.1-1.9,0.4-2.8,0.6c-151.6,0-303.2,0-454.7,0
		c-0.5-0.1-0.9-0.4-1.4-0.4c-3.2-0.1-6.5,0-9.6-0.3c-4.6-0.5-9.1-1.2-13.6-2.2c-10.7-2.4-20-7.1-28.1-13.9
		c-6.3-5.3-11.7-11.3-15-18.6c-2.2-4.8-3.6-9.8-4.3-15C3.9,454.4,3.6,453.3,3.3,452.2z M262.7,92.7c-71.4,0-142.8,0-214.2,0
		c-2.5,0-4.9,0.2-7.4,0.6c-4.7,0.7-8.3,2.9-10,7.1c-1.6,3.8-2.5,7.7-2.5,11.7c-0.1,93.3-0.2,186.5-0.3,279.8
		c0,16.9-0.1,33.8,0.1,50.7c0,3.1,0.5,6.3,1.2,9.4c1.3,5.4,4.5,9.8,9.2,13.3c3.1,2.3,6.5,4,10.1,5.4c6.8,2.6,13.8,4.5,21.2,4.5
		c140.5,0,281.1,0,421.6,0c0.5,0,1.1,0,1.6,0c1.7-0.1,3.3-1.1,3.4-2.4c0.1-1.1,0.1-2.2,0-3.3c-0.6-4.1-1.5-8.2-2-12.4
		c-0.6-5.5-1.2-11-1.2-16.5c-0.1-111.2,0-222.4-0.1-333.7c0-2.2-0.2-4.3-0.6-6.5c-0.6-3.5-2.7-6.1-6.5-6.9c-2.4-0.5-5-0.9-7.5-0.9
		C406.7,92.7,334.7,92.7,262.7,92.7z M519.9,289.9c0,47.3,0,94.7,0,142c0,10.6-0.6,21.2,1.2,31.7c0.6,3.1,1.7,6.2,2.8,9.2
		c0.5,1.4,1.9,1.7,3.4,1.8c1.5,0,2.5-0.7,3-1.8c0.6-1.6,1.3-3.2,1.5-4.8c0.8-5.6,1.6-11.3,2.1-16.9c0.4-4.8,0.6-9.6,0.6-14.4
		c0-101.2,0-202.4,0-303.7c0-0.4,0-0.8,0-1.2c-0.4-3.6-1.8-6.1-6-7.1c-0.7-0.2-1.3-0.2-2-0.4c-4.4-0.8-6.5,0.8-6.5,4.8
		C519.9,182.8,519.9,236.4,519.9,289.9z"/>
	<path class="st5" d="M261.2,326.8c-63.5,0-127,0-190.6-0.1c-6.2,0-11.4-2.6-14.6-8.3c-2.5-4.5-2.4-9.4-1.2-14.2
		c0.8-3.1,1.9-6.1,4.2-8.5c2.1-2.1,4.6-3.2,7.5-3.5c1.8-0.2,3.6-0.3,5.5-0.3c125.4,0,250.8,0,376.2,0c7,0,12.7,3,15.9,9.6
		c2.3,4.8,2.1,9.8,0.2,14.6c-0.8,2.1-2,4.1-3.2,5.9c-2.2,3.2-5.4,4.7-9.3,4.7C388.2,326.8,324.7,326.8,261.2,326.8z"/>
	<path class="st5" d="M365.7,430.8c27.4,0,54.7,0,82.1,0c4.4,0,8.7,1,11.9,4.3c2.4,2.4,3.6,5.5,4.2,8.8c0.6,3.6,0.5,7.3-0.5,10.8
		c-1.8,6.4-6.1,9.8-12.4,10.9c-1.8,0.3-3.6,0.3-5.5,0.3c-53.6,0-107.2,0-160.7,0c-3.9,0-7.7-0.8-10.9-3.5c-1.8-1.6-3-3.6-3.8-5.8
		c-2.5-7.3-1.9-14.2,2.4-20.7c1.9-2.9,4.8-4.3,8.2-4.7c2.4-0.3,4.9-0.3,7.4-0.3C313.8,430.8,339.7,430.8,365.7,430.8z"/>
	<path class="st5" d="M374.2,224.9c27.4,0,54.8,0,82.2,0c3.3,0,6.6,0.6,9.5,2.4c2.3,1.5,3.7,3.7,4.7,6.1c2.9,6.9,2.7,13.7-1.3,20.2
		c-2.4,3.9-5.9,6-10.5,6.1c-3,0.1-6,0.3-9,0.3c-30.8,0-61.7,0-92.5,0c-22.4,0-44.8-0.1-67.2-0.3c-4.3,0-7.6-2.3-10.1-5.7
		c-5-6.7-4.7-17.9,0.9-24.4c2.2-2.5,5.1-3.9,8.3-4.4c1.8-0.3,3.6-0.3,5.5-0.3C321.1,224.9,347.6,224.9,374.2,224.9z"/>
	<path class="st5" d="M366.3,395.4c-27.5,0-55,0-82.5,0c-3.8,0-7.4-1-10.3-3.4c-2.3-1.9-3.5-4.5-4.1-7.4c-1.1-5.1-1-10.2,0.8-15.2
		c1.8-5,5.4-7.7,10.6-8.6c1.7-0.3,3.4-0.3,5.2-0.3c54.2,0,108.5,0,162.7,0c8.4,0,14.6,5.8,15.4,14.1c0.3,3.5,0.2,6.9-0.6,10.3
		c-1.4,5.5-5.9,9.6-11.5,10.2c-1.6,0.2-3.2,0.3-4.9,0.3C420,395.4,393.2,395.4,366.3,395.4z"/>
	<path class="st5" d="M373.9,138c27.9,0,55.7,0,83.6,0c7.8,0,13,5.1,14.5,12.1c1,5,0.7,10.1-1.7,14.7c-2.3,4.5-6.4,6.8-11.2,7.1
		c-6.6,0.4-13.2,0.4-19.8,0.4c-48.9,0-97.8,0-146.7,0c-2.9,0-5.8-0.3-8.5-1.6c-3.2-1.6-4.8-4.4-6-7.5c-2.2-5.8-2.1-11.7,0.5-17.3
		c2.4-5.2,5.4-7.9,11.5-7.9C318,138,345.9,138,373.9,138z"/>
	<path class="st5" d="M142.9,463.6c-24.2,0-48.4,0-72.5,0c-5.1,0-9.5-1.7-12.5-6.2c-1.7-2.7-2.5-5.7-2.6-8.8
		c-0.1-3.9-0.1-7.7,1.5-11.4c1.7-4.1,4.7-6.7,8.9-7.8c2.4-0.6,4.9-0.9,7.3-0.9c47-0.1,94.1-0.1,141.1,0c3.3,0,6.5,0.5,9.5,2.2
		c3.7,2.1,5.7,5.4,6.6,9.3c1.1,5.1,1.1,10.2-0.8,15.1c-1.5,3.9-4.4,6.5-8.4,7.5c-2.4,0.6-5,0.9-7.4,0.9
		C190,463.6,166.5,463.6,142.9,463.6z"/>
	<path class="st5" d="M143.1,393.9c-24,0-48,0-72,0c-4.2,0-8-1.1-11.1-4.1c-2.4-2.3-3.9-5.3-4.4-8.6c-0.7-4.6-0.7-9.1,1-13.6
		c1.7-4.6,5.1-7.3,9.8-8.3c2.4-0.5,4.9-0.6,7.4-0.6c46.9,0,93.8,0,140.6,0c4.1,0,8.1,0.7,11.3,3.5c2.2,1.8,3.4,4.2,4.2,6.8
		c1.3,4.7,1.2,9.3,0,14c-1.4,5.9-6.3,10-12.3,10.5c-2.4,0.2-4.8,0.3-7.3,0.3C188,393.9,165.5,393.9,143.1,393.9z"/>
</g>
</svg>
