<?xml version="1.0" encoding="utf-8"?>
<!-- Generator: Adobe Illustrator 23.0.1, SVG Export Plug-In . SVG Version: 6.00 Build 0)  -->
<svg version="1.1" id="Слой_1" xmlns="http://www.w3.org/2000/svg" xmlns:xlink="http://www.w3.org/1999/xlink" x="0px" y="0px"
	 viewBox="0 0 566 565" style="enable-background:new 0 0 566 565;" xml:space="preserve">
<style type="text/css">
	.st0{display:none;}
	.st1{display:inline;}
	.st2{fill:none;stroke:#000000;stroke-miterlimit:10;}
	.st3{fill:#F4F4F4;}
	.st4{fill:#FFFFFF;}
	.st5{fill:none;stroke:#FFFFFF;stroke-width:10;stroke-miterlimit:10;}
	.st6{fill-rule:evenodd;clip-rule:evenodd;fill:#F4F4F4;}
	.st7{fill:#5F9898;}
	.st8{fill-rule:evenodd;clip-rule:evenodd;fill:#578685;}
	.st9{fill:#447776;}
	.st10{fill:#578685;}
	.st11{fill-rule:evenodd;clip-rule:evenodd;fill:#447776;}
	.st12{fill:#EEEEEE;}
	.st13{clip-path:url(#SVGID_2_);fill:#FFFFFF;}
	.st14{clip-path:url(#SVGID_2_);fill:none;}
	.st15{opacity:0.24;clip-path:url(#SVGID_2_);}
	.st16{opacity:0.24;}
	.st17{opacity:0.31;clip-path:url(#SVGID_4_);}
	.st18{opacity:0.31;}
	.st19{clip-path:url(#SVGID_6_);fill:#C2DBCB;}
	.st20{clip-path:url(#SVGID_6_);}
	.st21{fill:#C9E2F2;}
	.st22{opacity:0.67;clip-path:url(#SVGID_4_);}
	.st23{fill:none;}
	.st24{opacity:0.65;fill:#B8D5BC;}
	.st25{clip-path:url(#SVGID_4_);fill:none;}
	.st26{opacity:0.31;clip-path:url(#SVGID_8_);}
	.st27{clip-path:url(#SVGID_10_);fill:#C2DBCB;}
	.st28{clip-path:url(#SVGID_10_);}
	.st29{opacity:0.67;clip-path:url(#SVGID_8_);}
	.st30{clip-path:url(#SVGID_8_);fill:none;}
	.st31{opacity:0.31;clip-path:url(#SVGID_12_);}
	.st32{clip-path:url(#SVGID_14_);fill:#C2DBCB;}
	.st33{clip-path:url(#SVGID_14_);}
	.st34{opacity:0.67;clip-path:url(#SVGID_12_);}
	.st35{clip-path:url(#SVGID_12_);fill:none;}
	.st36{opacity:0.7;fill:#DBDBDB;}
</style>
<g>
	<g>
		<path class="st8" d="M181.2,219.9c-3.6,5.3-8.6,8.6-15.9,10.4c-3.8,0.9-12.7,2.1-18.7,6.1c-7,4.8-9.3,11.7-8.3,18
			c1.2,7.1,6.7,13.2,14.8,14.3c5.8,0.7,12.8-1.1,20.5-7.1c4.8-3.7,9-8.4,12-14.2c2.9-5.7,4.7-12.4,4.7-20.1
			c0-11.1-4.5-20.5-4.5-20.5S185.6,213.4,181.2,219.9z"/>
		<path class="st8" d="M135.6,270.4c-3.2-5.6-6.2-10.6-8.2-15.5c-2.2-5.2-3.3-10.3-2.5-15.7c0.7-4.7,3-9.7,7.2-15.5
			c8.6-11.7,1.3-18.2-0.3-20.2c-0.8-1-4.2-4.4-7.3-8.5c-4-5.2-5.6-8.8-6.7-11.3c-4,5.7-7.8,11.3-10.8,17.1
			c-4.2,8.2-6.9,16.8-6.5,26.3c0.2,6.1,1.2,11.6,3.3,16.3c2.9,6.5,7.3,12.8,14.8,18.7C122.8,265.6,130.7,269,135.6,270.4z"/>
		<path class="st8" d="M168.5,194.6c-2.5,7.5-7.1,13.2-14.7,19.5c-5,4.2-10.9,7.6-16.5,11.9c-8.3,6.4-9.7,13.6-8.4,20.9
			c1.4,8,7.7,16.8,7.7,16.8s-1.4-5.9-1.7-8.6c-0.5-3.5-0.5-6.7,0.3-9.9c1.9-7.5,8.6-14,23.2-17.2c7.4-1.6,13.7-3.3,18.6-9.2
			c3.9-4.7,4.9-9.4,4.9-13.4c0.1-13.1-12.2-26.6-12.2-26.6C171,184.9,170,189.9,168.5,194.6L168.5,194.6z M152.2,125.3L152.2,125.3
			c4.6-9.5,3.8-16.5,3.8-16.5s1.8,4.8,2,11.4c0.1,2.8-0.1,6-0.9,9.2c-1.2,4.8-2.8,8.3-7.7,13.8c-3.3,3.7-5.9,8.3-6.8,12.1
			c-1.4,5.6-0.9,11.4,0.5,15.8c1.2,3.7,1.6,4.6,2.2,5.9c0.8,2,2.5,5.2,2.5,5.2s-8.7-9.3-11-13.3c-2.3-4-3.7-8.4-3.2-13.4
			c0.6-5.6,3.5-12.1,10.3-19.5C147.6,132.1,150.4,129,152.2,125.3L152.2,125.3z M121.8,158.3L121.8,158.3c4-9.8,12.1-15.1,12.1-15.1
			c-9.8,13.9-4.2,23.7,3.1,31.9c5.1,5.7,10.6,10.1,12.8,14.8c2.1,4.5,0.8,10.7-2,16.1c-4.5,8.7-11.9,16.4-11.9,16.4
			c3.4-4.7,4.3-8.7,4.1-12.1c-0.4-5.3-4.7-9.6-4.7-9.6c-2.5-2.9-5.1-5.9-7.2-8.7c-3.4-4.5-5.4-8.9-6.7-12.9
			C118.7,170.9,119.6,163.9,121.8,158.3L121.8,158.3z M155.3,143.1L155.3,143.1c6.1-4.1,12.7-5.1,12.7-5.1
			c-5.6,4.2-8.9,9.4-8.5,17.7c0.2,5.5,2.1,12.3,5.9,21.1c9.6,22-23.5,42.8-23.5,42.8c4.2-4.4,7.3-8.6,9.1-12.5
			c2.5-5.3,3.1-9.6,3.1-13.5c0-4.6-2.4-9.7-3.4-11.7c-1-2-4.5-10.1-5.2-14.2c-0.7-3.9-0.7-7.3-0.1-10.2
			C146.8,150.5,150.9,146,155.3,143.1z"/>
	</g>
	<path class="st7" d="M3.7,454c0-113.6,0-227.2,0-340.8c0.1-0.2,0.4-0.5,0.4-0.7c0.2-1.9,0.4-3.8,0.6-5.6c0.6-5.5,2-10.9,4.2-16
		c2.1-5.1,5-9.8,9.3-13.6c3.3-3,7.2-5.3,11.5-7c5.2-2,10.6-3.3,16.3-3.3c145.1,0,290.2,0,435.3,0c2.3,0,4.7,0.2,7,0.6
		c8.8,1.5,16.4,4.9,21.8,11.6c2.7,3.3,5.2,6.6,5.9,10.8c0.6,3.8,3.2,6.4,7.3,7.4c3.3,0.8,6.6,1.2,9.9,2c7.7,1.8,14.4,5.2,19.3,11.1
		c5.6,6.8,7.9,14.6,7.9,22.9c0.1,91.3,0.1,182.5,0,273.8c0,13.8-0.1,27.7-0.3,41.5c0,4-0.2,8-0.6,12c-0.5,5.3-1.1,10.5-2.1,15.8
		c-1.2,6.5-2.9,12.8-6.5,18.6c-4.1,6.8-10.4,10.8-18.7,12c-1,0.1-1.9,0.4-2.8,0.6c-151.1,0-302.2,0-453.3,0
		c-0.5-0.1-0.9-0.4-1.4-0.4c-3.2-0.1-6.4,0-9.6-0.3c-4.6-0.5-9.1-1.2-13.6-2.1c-10.6-2.3-19.9-7.1-28-13.8
		c-6.3-5.3-11.6-11.2-14.9-18.5c-2.2-4.8-3.6-9.8-4.3-14.9C4.2,456.2,3.9,455.1,3.7,454z M262.2,95.7c-71.2,0-142.4,0-213.6,0
		c-2.4,0-4.9,0.2-7.3,0.6c-4.7,0.7-8.2,2.9-10,7.1c-1.6,3.8-2.5,7.7-2.5,11.7c-0.1,93-0.2,185.9-0.3,278.9c0,16.8-0.1,33.7,0.1,50.5
		c0,3.1,0.5,6.3,1.2,9.3c1.3,5.4,4.5,9.8,9.2,13.3c3.1,2.3,6.4,3.9,10,5.3c6.7,2.6,13.8,4.5,21.1,4.5c140.1,0,280.2,0,420.3,0
		c0.5,0,1.1,0,1.6,0c1.7-0.1,3.2-1.1,3.4-2.4c0.1-1.1,0.1-2.2,0-3.3c-0.6-4.1-1.5-8.2-2-12.4c-0.6-5.5-1.2-10.9-1.2-16.4
		c-0.1-110.9,0-221.7-0.1-332.6c0-2.1-0.2-4.3-0.6-6.4c-0.6-3.5-2.6-6.1-6.5-6.9c-2.4-0.5-4.9-0.9-7.4-0.9
		C405.8,95.7,334,95.7,262.2,95.7z M518.6,292.3c0,47.2,0,94.4,0,141.6c0,10.6-0.6,21.1,1.2,31.6c0.6,3.1,1.7,6.2,2.7,9.2
		c0.5,1.4,1.8,1.7,3.3,1.8c1.5,0,2.5-0.7,3-1.8c0.6-1.6,1.3-3.1,1.5-4.8c0.8-5.6,1.6-11.2,2.1-16.8c0.4-4.8,0.6-9.5,0.6-14.3
		c0-100.9,0-201.8,0-302.7c0-0.4,0-0.8,0-1.2c-0.4-3.5-1.7-6.1-6-7.1c-0.7-0.2-1.3-0.2-2-0.4c-4.4-0.8-6.5,0.8-6.5,4.8
		C518.6,185.5,518.6,238.9,518.6,292.3z"/>
	<path class="st7" d="M260.7,329c-63.3,0-126.6,0-190-0.1c-6.2,0-11.4-2.6-14.5-8.2c-2.5-4.5-2.4-9.3-1.2-14.2
		c0.8-3.1,1.8-6.1,4.2-8.5c2.1-2.1,4.6-3.2,7.5-3.5c1.8-0.2,3.6-0.3,5.5-0.3c125,0,250,0,375,0c7,0,12.6,3,15.8,9.5
		c2.3,4.8,2.1,9.8,0.2,14.6c-0.8,2.1-1.9,4.1-3.2,5.9c-2.2,3.2-5.4,4.7-9.2,4.7C387.4,329,324,329,260.7,329z"/>
	<path class="st7" d="M364.9,432.6c27.3,0,54.6,0,81.8,0c4.4,0,8.6,1,11.9,4.3c2.4,2.4,3.6,5.5,4.2,8.8c0.6,3.6,0.5,7.2-0.5,10.8
		c-1.8,6.4-6.1,9.8-12.4,10.9c-1.8,0.3-3.6,0.3-5.4,0.3c-53.4,0-106.8,0-160.2,0c-3.9,0-7.7-0.8-10.9-3.5c-1.8-1.6-3-3.6-3.8-5.8
		c-2.5-7.3-1.9-14.2,2.4-20.7c1.9-2.9,4.8-4.3,8.1-4.7c2.4-0.3,4.9-0.3,7.4-0.3C313.2,432.6,339,432.6,364.9,432.6z"/>
	<path class="st7" d="M373.3,227.4c27.3,0,54.7,0,82,0c3.3,0,6.5,0.6,9.4,2.4c2.3,1.5,3.7,3.7,4.7,6.1c2.9,6.9,2.7,13.7-1.3,20.2
		c-2.4,3.9-5.9,6-10.5,6.1c-3,0.1-6,0.3-9,0.3c-30.7,0-61.5,0-92.2,0c-22.3,0-44.6-0.1-66.9-0.3c-4.2,0-7.5-2.3-10.1-5.7
		c-5-6.7-4.7-17.9,0.9-24.4c2.1-2.5,5-3.9,8.3-4.4c1.8-0.3,3.6-0.3,5.4-0.3C320.5,227.4,346.9,227.4,373.3,227.4z"/>
	<path class="st7" d="M365.5,397.3c-27.4,0-54.8,0-82.3,0c-3.8,0-7.3-1-10.3-3.4c-2.3-1.9-3.5-4.5-4.1-7.3c-1.1-5.1-1-10.1,0.8-15.1
		c1.8-5,5.4-7.7,10.5-8.6c1.7-0.3,3.4-0.3,5.2-0.3c54.1,0,108.1,0,162.2,0c8.4,0,14.5,5.8,15.4,14.1c0.3,3.5,0.2,6.8-0.6,10.2
		c-1.4,5.5-5.9,9.6-11.5,10.2c-1.6,0.2-3.2,0.3-4.9,0.3C419.1,397.3,392.3,397.3,365.5,397.3z"/>
	<path class="st7" d="M373.1,140.8c27.8,0,55.5,0,83.3,0c7.8,0,13,5,14.5,12.1c1,5,0.7,10-1.7,14.7c-2.3,4.5-6.3,6.8-11.2,7.1
		c-6.6,0.4-13.1,0.4-19.7,0.4c-48.8,0-97.5,0-146.3,0c-2.9,0-5.8-0.3-8.5-1.6c-3.2-1.6-4.8-4.4-6-7.5c-2.2-5.8-2.1-11.6,0.5-17.2
		c2.3-5.2,5.4-7.8,11.5-7.8C317.3,140.7,345.2,140.8,373.1,140.8z"/>
	<path class="st7" d="M142.8,465.4c-24.1,0-48.2,0-72.3,0c-5,0-9.5-1.7-12.4-6.1c-1.7-2.7-2.5-5.7-2.6-8.8
		c-0.1-3.8-0.1-7.7,1.5-11.3c1.7-4.1,4.7-6.7,8.8-7.8c2.3-0.6,4.8-0.9,7.3-0.9c46.9-0.1,93.8-0.1,140.6,0c3.3,0,6.5,0.5,9.5,2.2
		c3.7,2.1,5.7,5.4,6.6,9.3c1.1,5.1,1.1,10.2-0.8,15.1c-1.5,3.9-4.4,6.4-8.3,7.5c-2.4,0.6-4.9,0.9-7.4,0.9
		C189.8,465.4,166.3,465.4,142.8,465.4z"/>
	<path class="st7" d="M143,395.8c-23.9,0-47.8,0-71.7,0c-4.1,0-8-1.1-11.1-4.1c-2.4-2.3-3.9-5.3-4.4-8.5c-0.7-4.6-0.7-9.1,1-13.5
		c1.7-4.6,5.1-7.3,9.8-8.3c2.4-0.5,4.9-0.6,7.3-0.6c46.7,0,93.5,0,140.2,0c4,0,8,0.7,11.3,3.5c2.1,1.8,3.4,4.2,4.2,6.8
		c1.3,4.6,1.2,9.3,0,14c-1.4,5.8-6.2,10-12.3,10.4c-2.4,0.2-4.8,0.3-7.2,0.3C187.7,395.9,165.4,395.8,143,395.8z"/>
</g>
</svg>
