<?xml version="1.0" encoding="utf-8"?>
<!-- Generator: Adobe Illustrator 23.0.1, SVG Export Plug-In . SVG Version: 6.00 Build 0)  -->
<svg version="1.1" id="Слой_1" xmlns="http://www.w3.org/2000/svg" xmlns:xlink="http://www.w3.org/1999/xlink" x="0px" y="0px"
	 viewBox="0 0 566 565" style="enable-background:new 0 0 566 565;" xml:space="preserve">
<style type="text/css">
	.st0{display:none;}
	.st1{display:inline;}
	.st2{fill:none;stroke:#000000;stroke-miterlimit:10;}
	.st3{fill:#808285;}
	.st4{fill:#A7A9AC;}
	.st5{fill:#BCBEC0;}
	.st6{fill:none;stroke:#D1D3D4;stroke-width:10;stroke-miterlimit:10;}
	.st7{fill-rule:evenodd;clip-rule:evenodd;fill:#808285;}
	.st8{fill:#5F9898;}
	.st9{fill-rule:evenodd;clip-rule:evenodd;fill:#578685;}
	.st10{fill:#447776;}
	.st11{fill:#578685;}
	.st12{fill-rule:evenodd;clip-rule:evenodd;fill:#447776;}
</style>
<g>
	<path class="st5" d="M562.7,469.9c-7.7,19.6-22.1,27-42.8,26c-22.6-1.1-45.3-0.2-68.5-0.2c-0.4-7.9-0.7-14.4-1-21.6
		c-1.9-4.8-6.6-7.8-11.5-7.4c-4.4,0.3-8.2,3.2-9.8,7.4c-0.3,7-0.7,13.9-1,20.9c-96.7,0-192.7,0-289.9,0c-0.4-6.7-0.8-13.5-1.2-21
		c-1.6-4.4-5.9-7.3-10.6-7.3c-4.7,0-8.9,2.9-10.6,7.3c-0.4,6.8-0.8,13.7-1.2,20.5c-2.9,0.4-6,1.1-9.2,1.1c-21.5,0.1-43.1,0.2-64.6,0
		c-24.6-0.2-37.5-13-37.5-37.7c-0.1-72.1,0-144.2,0-216.3c0-42.7,0-85.4,0-128.1c0-30.5,11.5-42.3,41.7-42.3c69.2,0,138.4,0,207.6,0
		c29.6,0,40,10,41.8,39.8c0.1,1.2,0.5,2.4,1.1,4.9c4.7,0,9.6,0,14.5,0c70,0,140.1,0.5,210.1-0.3c20.7-0.2,35.1,6.5,42.8,26.1
		C562.7,251,562.7,360.5,562.7,469.9z M271.7,137.4c0-9.1,0-16.9,0-24.7c-0.1-17.4-2.6-20.1-20.1-20.1c-68.4,0-136.7,0-205.1,0
		c-18.9,0-21,2.3-21,21.7c0,112.7,0,225.4,0,338.1c0,3.3-1,7.2,0.4,9.8c2.3,4.2,6.1,10.6,9.6,10.8c18.8,1.1,37.7,0.5,56.7,0.5
		c0.4-8,0.7-14.5,1-20.8c2.3-2.3,13.9-13.5,32.4-13.8c19.3-0.3,31.6,11.6,33.8,13.8c0.4,6.8,0.7,13.7,1.1,20.5
		c82.2,0,163.3,0,244.9,0c0.5-7.4,1-14.2,1.5-20.8c3.9-2.8,17.3-11.8,36.1-10.7c15,0.9,25.5,7.6,29.7,10.7c0.3,7.2,0.7,14.4,1,21.5
		c15.7,0,30.9,0,46.2,0c18.3,0,20.5-2.2,20.5-20.9c0-98.2,0-196.4,0-294.6c0-18.8-2.3-21-21.7-21c-77.1,0-154.1,0-231.2,0
		C282.6,137.4,277.8,137.4,271.7,137.4z"/>
	<path class="st5" d="M294.6,260.1c0-7.3,0-13.8,0-20.9c67,0,133.4,0,200.4,0c0,7.1,0,13.6,0,20.9
		C428.5,260.1,362.1,260.1,294.6,260.1z"/>
	<path class="st5" d="M494.6,372.4c-67,0-133,0-199.8,0c0-6.9,0-13.4,0-20.8c66.1,0,132.5,0,199.8,0
		C494.6,357.9,494.6,364.7,494.6,372.4z"/>
	<path class="st5" d="M494.9,295.9c0,7.1,0,13.1,0,19.9c-66.7,0-132.8,0-199.9,0c0-6.2,0-12.5,0-19.9
		C361.3,295.9,427.6,295.9,494.9,295.9z"/>
	<g>
		<path class="st7" d="M207,315.7c-5.8,8.6-13.8,13.8-25.5,16.7c-6.1,1.5-20.4,3.4-30,9.8c-11.2,7.6-15,18.8-13.3,28.8
			c1.9,11.3,10.7,21.2,23.7,22.9c9.2,1.2,20.6-1.8,33-11.3c7.7-5.9,14.5-13.5,19.3-22.8c4.7-9.1,7.6-19.9,7.6-32.3
			c0-17.8-7.2-33-7.2-33S214,305.4,207,315.7z"/>
		<path class="st7" d="M133.7,396.8c-5.2-9.1-10-17.1-13.2-24.8c-3.6-8.4-5.3-16.5-4-25.2c1.2-7.6,4.7-15.6,11.5-24.9
			c13.8-18.7,2-29.3-0.4-32.3c-1.2-1.5-6.8-7.1-11.8-13.6c-6.4-8.4-9-14.2-10.8-18.1c-6.5,9.1-12.5,18.2-17.3,27.5
			c-6.8,13.2-11.1,26.9-10.5,42.2c0.4,9.7,1.9,18.7,5.2,26.2c4.6,10.5,11.7,20.5,23.8,30C113.3,389,125.8,394.5,133.7,396.8z"/>
		<path class="st7" d="M186.6,275.1c-4,12.1-11.4,21.2-23.5,31.4c-8,6.7-17.6,12.2-26.5,19.2C123.3,335.9,121,347.4,123,359
			c2.3,12.9,12.3,26.9,12.3,26.9s-2.2-9.4-2.8-13.7c-0.7-5.6-0.8-10.8,0.5-15.8c3-12.1,13.8-22.5,37.3-27.6
			c11.9-2.6,22.1-5.3,29.8-14.7c6.2-7.6,7.9-15,7.9-21.5c0.2-21-19.5-42.7-19.5-42.7C190.6,259.5,189,267.6,186.6,275.1L186.6,275.1
			z M160.4,163.9L160.4,163.9c7.4-15.2,6.1-26.4,6.1-26.4s2.9,7.6,3.2,18.3c0.1,4.5-0.1,9.6-1.4,14.8c-2,7.7-4.6,13.3-12.4,22.1
			c-5.3,6-9.4,13.4-11,19.5c-2.3,9.1-1.4,18.3,0.9,25.4c1.9,5.9,2.6,7.3,3.5,9.4c1.4,3.3,4,8.4,4,8.4s-13.9-15-17.6-21.3
			c-3.7-6.3-5.9-13.4-5.1-21.5c0.9-9.1,5.7-19.3,16.5-31.3C153.1,174.8,157.6,169.9,160.4,163.9L160.4,163.9z M111.7,216.9
			L111.7,216.9c6.4-15.7,19.5-24.3,19.5-24.3c-15.7,22.3-6.8,38.1,4.9,51.1c8.2,9.1,17.1,16.2,20.6,23.8c3.3,7.2,1.3,17.1-3.2,25.8
			c-7.2,13.9-19.1,26.4-19.1,26.4c5.5-7.5,7-14,6.6-19.4c-0.6-8.5-7.6-15.4-7.6-15.4c-4-4.7-8.2-9.5-11.6-14
			c-5.4-7.2-8.7-14.3-10.8-20.7C106.6,237.1,108.1,225.8,111.7,216.9L111.7,216.9z M165.4,192.4L165.4,192.4
			c9.8-6.6,20.3-8.3,20.3-8.3c-8.9,6.7-14.2,15-13.6,28.4c0.4,8.8,3.3,19.7,9.4,33.8c15.4,35.3-37.6,68.7-37.6,68.7
			c6.8-7.1,11.7-13.7,14.7-20c4-8.5,4.9-15.4,4.9-21.7c0-7.4-3.9-15.5-5.4-18.8c-1.5-3.2-7.2-16.2-8.4-22.8
			c-1.1-6.2-1-11.7-0.1-16.4C151.7,204.4,158.4,197.1,165.4,192.4z"/>
	</g>
</g>
</svg>
