<?xml version="1.0" encoding="utf-8"?>
<!-- Generator: Adobe Illustrator 23.0.1, SVG Export Plug-In . SVG Version: 6.00 Build 0)  -->
<svg version="1.1" id="Слой_1" xmlns="http://www.w3.org/2000/svg" xmlns:xlink="http://www.w3.org/1999/xlink" x="0px" y="0px"
	 viewBox="0 0 566 565" style="enable-background:new 0 0 566 565;" xml:space="preserve">
<style type="text/css">
	.st0{fill:#5F9898;}
</style>
<path class="st0" d="M559.1,149c1.1,8.4,1.7,14.7,1.8,16.3c2,36-0.1,104.6-0.5,129.9c-0.4,29.2,0.5,89.8-1,136.3
	c-0.2,5.8-0.9,21.8-9.7,38.8c-2.9,5.7-8.6,16.1-19.7,24.1c-3.4,2.5-10.4,6.9-48.5,11c0,0-48.6,5.2-59.5-6.5
	c-1.4-1.5-2.6-3.2-2.6-3.2c-3.1-4.5-4.3-8.7-4.7-10.5c-0.1-0.6-0.6-2.5-0.7-5.7c-0.1-4.4,0.8-7.7,1.2-14.2c0.4-6.7-2-14.7-8.5-16.4
	c-8.7-2.2-15,8.8-15.1,17.7c-0.3,13.4,0.5,18.9-3.6,26.1c-5.6,9.8-21.8,10.4-31.3,10.7c-54.8,1.5-82.7-0.5-107.4-0.6
	c-36.5-0.3-59.2,3.3-65.7-8.9c-2.5-4.8-6.7-7.9-5.1-24.6c0.8-8.8-1.6-20.2-10.3-21.4c-8.6-1.2-14.2,9.3-14.6,18
	c-0.4,8.7,1.4,18.3-3.6,25.5s-14.8,8.8-23.5,9.6c-37.1,3.2-79.5-1.7-102.7-30.9C5,446.6,4.2,414,4.3,383.9
	c0.1-64.7,0.2-129.3,0.2-194c0-35.7,2.5-76.5,30.5-98.5c20.6-16.1,48.9-16.9,75-17l215.5-0.6l107.7-0.3c29.4-0.1,64-5.1,90.3,11.1
	c8.4,5.2,15.7,12.1,21.1,20.3C553.3,118,557,133.4,559.1,149z M203.4,479.8c53.3,0.1,106.6,0.2,159.9,0.4c1.8,0,3.8-0.1,5.1-1.3
	c1.4-1.3,1.6-3.3,1.7-5.2c0.9-11.7,3.4-23.6,10.1-33.2s18.4-16.4,30-14.6c11.3,1.8,20.2,11.3,24.3,22s4.5,22.4,4.7,33.8
	c16-0.7,32.1,2.3,48.1,1.6c16-0.7,33.2-5.9,42.4-19.1c8-11.5,8.4-26.6,8.4-40.7c0.1-76.8,0.2-153.7,0.4-230.5
	c0-18-0.1-36.6-7.1-53.2c-7.9-18.7-23.9-29.1-43.6-31.3c-26.2-2.9-54-0.8-80.3-1.1c-53.8-0.7-107.5-1.5-161.3-2.2
	c-49.5-0.7-98.9-1.4-148.4-2c-16-0.2-33.7,0.2-45.5,11.1c-10.5,9.7-13.1,25.1-14.8,39.4c-10.1,85.9-7.8,172.7-5.5,259.2
	c0.3,11.6,0.7,23.7,5.8,34.2c6.4,13.3,19.5,22.4,33.5,27.1s28.9,5.7,43.6,6.6c5.3,0.3,11.4,0.3,14.8-3.8c2.3-2.9,2.5-6.8,2.8-10.5
	c0.9-10.7,3.8-21.5,10.3-30s17.1-14.4,27.8-13.4c11.9,1.2,21.8,10.6,26.7,21.6C202.1,455.5,202.9,467.8,203.4,479.8L203.4,479.8z
	 M217.4,299.1c-3.1,4.6-7.4,7.4-13.6,8.9c-3.3,0.8-10.9,1.8-16,5.2c-6,4.1-8,10-7.1,15.4c1,6,5.7,11.3,12.6,12.2
	c4.9,0.6,11-0.9,17.6-6c4.1-3.1,7.7-7.2,10.3-12.2c2.5-4.9,4-10.6,4-17.2c0-9.5-3.8-17.6-3.8-17.6S221.2,293.6,217.4,299.1
	L217.4,299.1z M178.4,342.3c-2.8-4.8-5.3-9.1-7.1-13.2c-1.9-4.5-2.8-8.8-2.1-13.5c0.6-4,2.5-8.3,6.2-13.3c7.4-10,1.1-15.6-0.2-17.2
	c-0.6-0.8-3.6-3.8-6.3-7.3c-3.4-4.5-4.8-7.6-5.8-9.7c-3.5,4.9-6.7,9.7-9.2,14.6c-3.6,7-5.9,14.3-5.6,22.5c0.2,5.2,1,9.9,2.8,14
	c2.4,5.6,6.2,10.9,12.7,16C167.5,338.2,174.2,341.1,178.4,342.3L178.4,342.3z M206.6,277.4c-2.1,6.5-6.1,11.3-12.5,16.7
	c-4.3,3.6-9.4,6.5-14.1,10.2c-7.1,5.5-8.3,11.6-7.2,17.8c1.2,6.9,6.6,14.3,6.6,14.3s-1.2-5-1.5-7.3c-0.4-3-0.4-5.8,0.3-8.5
	c1.6-6.4,7.4-12,19.9-14.7c6.3-1.4,11.8-2.8,15.9-7.8c3.3-4.1,4.2-8,4.2-11.5c0.1-11.2-10.4-22.8-10.4-22.8
	C208.7,269.1,207.9,273.4,206.6,277.4L206.6,277.4z M192.6,218.1c3.9-8.1,3.2-14.1,3.2-14.1s1.5,4.1,1.7,9.8c0.1,2.4,0,5.1-0.8,7.9
	c-1.1,4.1-2.4,7.1-6.6,11.8c-2.8,3.2-5,7.1-5.9,10.4c-1.2,4.8-0.7,9.8,0.5,13.6c1,3.1,1.4,3.9,1.9,5c0.7,1.7,2.1,4.5,2.1,4.5
	s-7.4-8-9.4-11.4c-2-3.4-3.2-7.1-2.7-11.4c0.5-4.8,3-10.3,8.8-16.7C188.7,223.9,191.1,221.3,192.6,218.1z M166.6,246.4
	c3.4-8.4,10.4-12.9,10.4-12.9c-8.4,11.9-3.6,20.3,2.6,27.3c4.4,4.8,9.1,8.6,11,12.7c1.8,3.8,0.7,9.1-1.7,13.8
	c-3.8,7.4-10.2,14.1-10.2,14.1c2.9-4,3.7-7.5,3.5-10.3c-0.3-4.5-4.1-8.2-4.1-8.2c-2.1-2.5-4.4-5-6.2-7.4c-2.9-3.8-4.6-7.6-5.7-11
	C163.9,257.2,164.7,251.2,166.6,246.4z M195.3,233.4c5.2-3.5,10.8-4.4,10.8-4.4c-4.8,3.6-7.6,8-7.3,15.1c0.2,4.7,1.8,10.5,5,18
	c8.2,18.8-20.1,36.6-20.1,36.6c3.6-3.8,6.3-7.3,7.8-10.7c2.1-4.5,2.6-8.2,2.6-11.6c0-3.9-2.1-8.3-2.9-10c-0.8-1.7-3.8-8.6-4.5-12.1
	c-0.6-3.3-0.6-6.2-0.1-8.8C188,239.7,191.5,235.9,195.3,233.4L195.3,233.4z M456.2,329.8c-6.1-6.1-12.3-12.2-18.4-18.2
	c-1.3-1.3-2.6-2.7-4.2-4.3c-7.7,7.5-15.1,14.9-22.9,22.6c-7.6-7.7-15-15.2-22.6-23c-7.8,7.7-15.2,15-22.9,22.6
	c-7.7-7.8-15-15.2-22.7-23c-5.7,5.7-11.3,10.9-16.6,16.5c-2.5,2.6-5.1,3.6-8.7,3.5c-13.9-0.3-27.7-0.2-41.6-0.4
	c-2.6,0-4.2,0.6-5.7,3c-30.2,49.1-97.4,60.5-142.4,24.1c-0.7-0.6-1.6-1-2.4-1.5c-3.8-3.9-7.7-7.8-11.5-11.6c-3.3-5-6.9-9.9-9.8-15.1
	c-21.9-39.2-13.6-88.1,20-118.6c32.4-29.4,82.3-32.7,118.7-7.7c13,8.9,23.3,20.4,30.6,34.4c1.2,2.3,2.6,3.1,5.1,3.1
	c54.1,0.3,108.3,0.7,162.4,1.1c2.3,0,4.9,0.7,7,1.8c12.4,6.7,24.6,13.7,36.9,20.5c3.9,2.1,5.8,4.7,5.6,9.5
	c-0.5,9.1-0.1,18.2-0.1,27.3C478.8,307.5,467.5,318.7,456.2,329.8L456.2,329.8z M247.8,219.7c-32.4-32.9-85.3-33.4-118.2-1
	c-32.7,32.2-33.2,85.2-1.1,118c32.3,33,85.3,33.5,118.2,1.2C279.7,305.5,280.2,252.6,247.8,219.7L247.8,219.7z M278,313.3
	c12.8,0.1,25.3,0.2,37.7,0.1c1.1,0,2.3-1,3.2-1.8c6.6-6.4,13.2-12.9,19.8-19.4c1.2-1.2,2.5-2.4,3.9-3.8c7.7,7.8,15,15.2,22.7,23
	c7.7-7.6,15.2-15,23-22.7c7.7,7.8,15,15.2,22.6,22.9c7.7-7.6,15.1-14.9,22.9-22.6l22.5,22.8c6.9-6.8,13.5-13.2,20-19.8
	c0.5-0.5,0.8-1.4,0.9-2.2c0.3-4,0.4-8,0.6-12.7c-53.6-0.4-106.5-0.7-159.1-1.1c0-4.1-0.1-8.1-0.1-12.6c49.2,0.3,98.4,0.7,148.5,1
	c-8.1-4.5-15.4-8.7-22.8-12.7c-1.9-1-4.2-1.7-6.3-1.7c-51.3-0.4-102.6-0.8-153.9-1.1c-1.2,0-2.5,0-3.9,0.1
	C286.7,270.7,286,291.9,278,313.3L278,313.3z"/>
</svg>
