<?xml version="1.0" encoding="utf-8"?>
<!-- Generator: Adobe Illustrator 23.0.1, SVG Export Plug-In . SVG Version: 6.00 Build 0)  -->
<svg version="1.1" id="Слой_1" xmlns="http://www.w3.org/2000/svg" xmlns:xlink="http://www.w3.org/1999/xlink" x="0px" y="0px"
	 viewBox="0 0 566 565" style="enable-background:new 0 0 566 565;" xml:space="preserve">
<style type="text/css">
	.st0{fill:#447776;}
	.st1{fill:#578685;}
</style>
<path class="st0" d="M285,7.3C132.1,7.3,8.3,131.2,8.3,284S132.2,560.7,285,560.7c152.9,0,276.8-123.9,276.8-276.7
	C561.7,131.2,437.8,7.3,285,7.3z M285,550.6C137.8,550.6,18.4,431.2,18.4,284S137.8,17.4,285,17.4S551.6,136.7,551.6,284
	C551.6,431.2,432.2,550.6,285,550.6L285,550.6z"/>
<path class="st0" d="M520,269.7c-7.4,0.5-13.4,0.7-17.6,0.8c-5.4,0.1-8.2,0.1-15,0.3c-6,0.1-10.9,0.4-14.1,0.5
	c-6,0.3-11.1,0.3-15.2,0.2c-5.5-0.1-6.6-0.3-14.8-0.6c-11.3-0.3-4.2,0.3-15,0.2c-5.5,0-7.4-0.2-8.8,1.2c-1.6,1.7-1.3,4-1,10.6
	c0.2,3.7,0,7.5,0.3,11.3c0.6,8.3,0.1,19.4-1.3,27.9c-0.7,4.3-3.1,16.9-11,30.8c-4.5,7.9-9,13.1-14.1,18.9
	c-7.8,9-14.7,14.9-19.4,18.9c-1.3,1.1-13.5,11.4-25.9,18.9c-30.5,18.4-65.7,22.1-67.6,22.3c-60.8,5.8-107.1-30.5-114.2-36.1
	c-59.2-47.6-62.3-118.4-62.6-130.7c-0.5-17.5,0.8-71.5,41.2-118c50.1-57.9,121-58.7,134.6-58.9c57.9-0.7,106.1,25.9,134.7,53.9
	c2.1,2,3.7,3.7,4.1,4.2c50.5,53.1,49.1,116.1,52.4,115.5c0.8-0.1,1.4-4.1,0.2-20.3c-0.4-8.7-1.8-20.6-5.2-34.3
	c-7.1-28.3-20.8-48.8-27.1-58c-9.1-13.4-34.3-49.3-83.1-71.8C307.7,55.9,266,59,250,60.3c-25.4,2.2-46,8.6-60,14.1
	c-85,41-140,121.7-140.4,207.1C49.1,402.4,158.4,508.7,285,508.7c142.9,0,233.9-135.9,235.3-227.2
	C520.4,277.1,520.2,273.1,520,269.7z"/>
<path class="st1" d="M167.7,153.4v229.9h45.6l46.9-89.1l1,90.9c14.4,0,28.7-0.1,43.1-0.1V227.2c-14.6,0.2-29.3,0.3-43.9,0.5
	c-15.4,30.1-30.9,60.2-46.3,90.3c0.3-54.9,0.7-109.8,1-164.6H167.7L167.7,153.4z"/>
<path class="st0" d="M215.1,153.4l0.3,46.3h88.9V385h44.3V199.4l70.3,1.6v-47.4C350.9,153.5,283,153.5,215.1,153.4L215.1,153.4z"/>
</svg>
