<svg id="Слой_1" data-name="Слой 1" xmlns="http://www.w3.org/2000/svg" viewBox="0 0 500 500"><defs><style>.cls-1{fill:#4f86bd;}</style></defs><title>заявка создана успешно  500 на 500 px новые</title><path class="cls-1" d="M383.55835,183.70416c.00314-.16041.04679-2.15757.06327-4.88183.01056-1.7378.00654-3.20131,0-4.27445V163.67094l-17.3439,14.06692c.0361,2.04029.06692,4.08575.103,6.126q.03094,1.93209.06692,3.86418.147,8.81034.29371,17.62066.02322,58.65049,0,117.31128a44.293,44.293,0,0,1-10.47969,28.84222,45.72668,45.72668,0,0,1-30.867,16.71385,48.81505,48.81505,0,0,1-5.95086.29884q-63.56572.02316-127.14679.01032a46.347,46.347,0,0,1-28.51252-9.13494A45.36028,45.36028,0,0,1,145.561,329.24454a47.04512,47.04512,0,0,1-.53069-7.32131q-.03849-64.68635-.01535-129.36753a46.26378,46.26378,0,0,1,41.22821-45.757,47.259,47.259,0,0,1,5.39954-.273q58.3702-.03,116.74068-.01547l-.04164.17748q16.783-.11452,33.5659-.229,6.28287-8.38671,12.56574-16.77339l-26.18923.08292c-.00981-.03349-.01912-.06666-.02994-.10069h-1.83938q-72.26013,0-144.52025.01032a54.31365,54.31365,0,0,0-6.2135.31943c-14.8952,1.72086-27.06472,8.44968-36.277,20.26892a51.56861,51.56861,0,0,0-11.21127,32.42815q-.01547,74.50909.02063,149.0027a54.22573,54.22573,0,0,0,.60793,8.42908,52.2132,52.2132,0,0,0,20.98505,34.71574c9.7017,7.2492,20.77386,10.52089,32.84048,10.52089q73.22617.00774,146.442-.01031a57.308,57.308,0,0,0,6.85238-.33491c14.35934-1.75174,26.32282-8.04779,35.55043-19.25391a51.01144,51.01144,0,0,0,12.07681-33.21645C383.60275,304.64238,383.47784,187.76748,383.55835,183.70416Z"/><polygon class="cls-1" points="190.217 243.664 166.121 246.788 237.517 343.618 377.63 150.85 357.55 143.711 236.624 308.366 190.217 243.664"/><path class="cls-1" d="M249.69052,4.11691C112.30007,4.11691.79428,115.49813.79428,252.88858c0,137.39121,111.50579,248.89624,248.89624,248.89624,137.39121,0,248.77167-111.505,248.77167-248.89624C498.46219,115.49813,387.08173,4.11691,249.69052,4.11691Zm0,476.2632c-125.6923,0-227.49077-101.79847-227.49077-227.49153,0-125.56773,101.79847-227.3662,227.49077-227.3662,125.56849,0,227.367,101.79847,227.367,227.3662C477.05748,378.58164,375.259,480.38011,249.69052,480.38011Z"/></svg>