<svg id="Слой_1" data-name="Слой 1" xmlns="http://www.w3.org/2000/svg" viewBox="0 0 500 500"><defs><style>.cls-1{fill:#8692a2;}</style></defs><title>ошибка создания заявки 500 на 500 px новые</title><path class="cls-1" d="M289.81355,250.24526a32.429,32.429,0,0,1,2.61355,2.04133q31.429,31.39476,62.83225,62.81531c6.32524,6.32664,6.30783,12.23618-.04,18.58465q-10.49755,10.4988-20.998,20.99469c-5.56291,5.55024-11.84931,5.54034-17.4099-.01906q-31.66334-31.65641-63.31084-63.32863a24.699,24.699,0,0,1-1.78579-2.26475c-1.03009.97889-1.65289,1.54494-2.24734,2.13942q-31.49422,31.49482-62.98432,62.99385c-6.10737,6.10773-12.16886,6.11889-18.25251.03947q-10.41912-10.41193-20.83079-20.8313c-6.01781-6.0237-6.04279-12.106-.07018-18.07949q31.57487-31.57956,63.15282-63.15605c.59265-.5928,1.15261-1.21831,1.80884-1.91453-.61838-.66126-1.1235-1.23436-1.66274-1.77334Q178.8787,216.75172,147.124,185.02135c-5.70644-5.70378-5.73891-11.92049-.09329-17.57468q10.82062-10.837,21.65919-21.65613c5.43784-5.42239,11.78317-5.41631,17.24856.042q31.76308,31.72194,63.50626,63.46381c.5971.59668,1.21925,1.1683,1.95219,1.86863.74524-.70988,1.42038-1.32632,2.06627-1.97207q31.49785-31.49125,62.99116-62.98705c5.96953-5.96863,12.12275-5.967,18.10071.00461Q345.22428,156.86832,355.8796,167.54c5.449,5.46654,5.469,11.82293.03885,17.25334q-31.65772,31.65918-63.34459,63.28928A34.0527,34.0527,0,0,1,289.81355,250.24526Z"/><path class="cls-1" d="M251.4683,1.45024c-137.39046,0-248.89625,111.38122-248.89625,248.77167,0,137.39121,111.50579,248.89624,248.89625,248.89624,137.39121,0,248.77167-111.505,248.77167-248.89624C500.24,112.83146,388.85951,1.45024,251.4683,1.45024Zm0,476.2632c-125.6923,0-227.49078-101.79847-227.49078-227.49153,0-125.56773,101.79848-227.3662,227.49078-227.3662,125.56848,0,227.367,101.79847,227.367,227.3662C478.83526,375.915,377.03678,477.71344,251.4683,477.71344Z"/></svg>