<?xml version="1.0" encoding="utf-8"?>
<!-- Generator: Adobe Illustrator 23.0.1, SVG Export Plug-In . SVG Version: 6.00 Build 0)  -->
<svg version="1.1" id="Слой_1" xmlns="http://www.w3.org/2000/svg" xmlns:xlink="http://www.w3.org/1999/xlink" x="0px" y="0px"
	 viewBox="0 0 566 565" style="enable-background:new 0 0 566 565;" xml:space="preserve">
<style type="text/css">
	.st0{display:none;}
	.st1{display:inline;}
	.st2{fill:none;stroke:#000000;stroke-miterlimit:10;}
	.st3{fill:#F4F4F4;}
	.st4{fill:#FFFFFF;}
	.st5{fill:none;stroke:#FFFFFF;stroke-width:10;stroke-miterlimit:10;}
	.st6{fill-rule:evenodd;clip-rule:evenodd;fill:#F4F4F4;}
	.st7{fill:#5F9898;}
	.st8{fill-rule:evenodd;clip-rule:evenodd;fill:#578685;}
	.st9{fill:#447776;}
	.st10{fill:#578685;}
	.st11{fill-rule:evenodd;clip-rule:evenodd;fill:#447776;}
	.st12{fill:#EEEEEE;}
	.st13{clip-path:url(#SVGID_2_);fill:#FFFFFF;}
	.st14{clip-path:url(#SVGID_2_);fill:none;}
	.st15{opacity:0.24;clip-path:url(#SVGID_2_);}
	.st16{opacity:0.24;}
	.st17{opacity:0.31;clip-path:url(#SVGID_4_);}
	.st18{opacity:0.31;}
	.st19{clip-path:url(#SVGID_6_);fill:#C2DBCB;}
	.st20{clip-path:url(#SVGID_6_);}
	.st21{fill:#C9E2F2;}
	.st22{opacity:0.67;clip-path:url(#SVGID_4_);}
	.st23{fill:none;}
	.st24{opacity:0.65;fill:#B8D5BC;}
	.st25{clip-path:url(#SVGID_4_);fill:none;}
	.st26{opacity:0.31;clip-path:url(#SVGID_8_);}
	.st27{clip-path:url(#SVGID_10_);fill:#C2DBCB;}
	.st28{clip-path:url(#SVGID_10_);}
	.st29{opacity:0.67;clip-path:url(#SVGID_8_);}
	.st30{clip-path:url(#SVGID_8_);fill:none;}
	.st31{opacity:0.31;clip-path:url(#SVGID_12_);}
	.st32{clip-path:url(#SVGID_14_);fill:#C2DBCB;}
	.st33{clip-path:url(#SVGID_14_);}
	.st34{opacity:0.67;clip-path:url(#SVGID_12_);}
	.st35{clip-path:url(#SVGID_12_);fill:none;}
	.st36{opacity:0.7;fill:#DBDBDB;}
</style>
<g>
	<g>
		<path class="st11" d="M323,315.2c-4.6,6.7-10.9,10.8-20,13.1c-4.8,1.2-16,2.7-23.5,7.7c-8.8,6-11.8,14.8-10.5,22.6
			c1.5,8.9,8.4,16.6,18.6,18c7.3,0.9,16.1-1.4,25.9-8.9c6-4.6,11.4-10.6,15.1-17.9c3.7-7.2,5.9-15.6,5.9-25.4
			c0-13.9-5.6-25.9-5.6-25.9S328.5,307.1,323,315.2z"/>
		<path class="st11" d="M265.5,378.8c-4.1-7.1-7.8-13.4-10.4-19.5c-2.8-6.6-4.2-12.9-3.1-19.8c0.9-5.9,3.7-12.3,9.1-19.5
			c10.8-14.7,1.6-23-0.3-25.4c-1-1.2-5.3-5.6-9.2-10.7c-5-6.6-7.1-11.1-8.5-14.2c-5.1,7.2-9.8,14.3-13.6,21.6
			c-5.3,10.3-8.7,21.1-8.2,33.1c0.3,7.6,1.5,14.6,4.1,20.6c3.6,8.2,9.1,16.1,18.7,23.5C249.5,372.8,259.3,377.1,265.5,378.8z"/>
		<path class="st11" d="M307,283.3c-3.1,9.5-9,16.6-18.5,24.6c-6.3,5.3-13.8,9.6-20.8,15c-10.4,8.1-12.2,17.1-10.6,26.3
			c1.8,10.1,9.6,21.1,9.6,21.1s-1.7-7.4-2.2-10.8c-0.6-4.4-0.6-8.5,0.4-12.4c2.4-9.5,10.8-17.7,29.3-21.7c9.3-2,17.3-4.2,23.4-11.5
			c4.9-6,6.2-11.8,6.2-16.9c0.1-16.5-15.3-33.5-15.3-33.5C310.2,271.1,308.9,277.4,307,283.3L307,283.3z M286.5,196.1L286.5,196.1
			c5.8-11.9,4.8-20.7,4.8-20.7s2.3,6,2.5,14.3c0.1,3.5-0.1,7.5-1.1,11.6c-1.6,6-3.6,10.4-9.7,17.3c-4.2,4.7-7.4,10.5-8.6,15.3
			c-1.8,7.1-1.1,14.4,0.7,19.9c1.5,4.6,2.1,5.7,2.8,7.4c1.1,2.6,3.1,6.6,3.1,6.6s-10.9-11.7-13.8-16.7c-2.9-5-4.7-10.5-4-16.8
			c0.7-7.1,4.5-15.2,12.9-24.6C280.7,204.6,284.3,200.8,286.5,196.1L286.5,196.1z M248.2,237.7L248.2,237.7c5-12.3,15.3-19,15.3-19
			c-12.3,17.5-5.3,29.9,3.9,40.1c6.4,7.1,13.4,12.7,16.2,18.7c2.6,5.6,1,13.4-2.5,20.3c-5.6,10.9-15,20.7-15,20.7
			c4.3-5.9,5.5-11,5.1-15.2c-0.5-6.6-6-12.1-6-12.1c-3.2-3.7-6.4-7.4-9.1-11c-4.2-5.7-6.8-11.2-8.5-16.2
			C244.3,253.5,245.4,244.7,248.2,237.7L248.2,237.7z M290.4,218.5L290.4,218.5c7.7-5.2,16-6.5,16-6.5c-7,5.2-11.2,11.8-10.7,22.3
			c0.3,6.9,2.6,15.5,7.4,26.5c12.1,27.7-29.5,53.9-29.5,53.9c5.3-5.5,9.2-10.8,11.5-15.7c3.1-6.6,3.9-12.1,3.9-17
			c0-5.8-3.1-12.2-4.3-14.7c-1.2-2.5-5.6-12.7-6.6-17.9c-0.9-4.9-0.8-9.2-0.1-12.9C279.6,227.8,284.9,222.2,290.4,218.5z"/>
	</g>
	<path class="st7" d="M4.4,255.4c1.6-6.2,3.4-12.2,7.6-17.2c7.5-9.1,17-14,28.8-14c7.2,0,14.4,0,21.5,0c13.5-0.1,25.5-8.1,30.6-20.5
		c5.3-12.9,2.6-25.8-7.4-35.9c-4.9-4.9-9.8-9.7-14.6-14.6C56.9,138.8,56.8,117,71,102.6C81.6,92,92.2,81.5,103,71.1
		c14-13.6,36.6-13.5,50.6,0.1c5.2,5,10.1,10.2,15.4,15.1c10.4,9.7,22.5,12,35.6,6.5c13-5.5,20.2-15.8,20.7-30.1
		c0.2-7.1,0-14.2,0.1-21.2c0.1-21,15.9-36.8,36.8-36.8c13.7,0,27.5,0,41.2,0c20.4,0,36.1,15.6,36.3,35.9c0.1,7.1,0.1,14.2,0,21.2
		c-0.1,13.5,7.7,25.5,20.6,30.8c13.3,5.5,25.6,3.5,36.3-6.2c5.3-4.8,10.2-10.2,15.3-15.2c14.5-14.1,37.1-14,51.5,0.2
		c10.4,10.2,20.7,20.5,31,30.8c14.8,14.8,14.7,36.9-0.3,51.6c-4.7,4.6-9.4,9.2-14.1,13.8c-9.9,9.7-12.7,22.9-7.6,35.6
		c4.9,12.2,16.9,20.6,30.1,20.8c7,0.1,14,0.2,20.9,0c18.6-0.6,34,13.4,34.8,33.6c0.6,16.2,0.4,32.4,0.1,48.6
		c-0.4,18.4-14.7,32.1-33.2,32.3c-8.9,0.1-17.9-0.5-26.7,0.6c-13.5,1.7-22.3,10.1-26.5,22.7c-4.2,12.5-1.6,23.9,7.6,33.5
		c5,5.2,10.3,10,15.3,15.1c14,14.2,14.1,36.2,0.1,50.4c-10.5,10.7-21.1,21.3-31.8,31.7c-14.5,14.1-37.2,14-51.5-0.3
		c-4.8-4.8-9.5-9.6-14.4-14.3c-10.4-9.9-22.4-12.3-35.8-7.1c-12.7,5-20.7,17-20.8,30.7c0,6.8,0,13.5,0,20.3
		c0.1,21.1-16,37.3-37.1,37.4c-13.7,0.1-27.5,0-41.2,0c-21,0-37.1-15.9-37.2-36.9c0-7,0.1-13.9,0-20.9c-0.2-13.9-8.3-25.6-21.1-30.8
		c-12.9-5.1-26.1-2.2-36.1,7.9c-4.7,4.8-9.4,9.5-14.2,14.1c-14.5,13.8-36.9,13.6-51.1-0.5C92.3,482.1,82.1,472,72,461.8
		c-15.6-15.6-15.4-37.3,0.3-52.8c4.5-4.4,9-8.7,13.4-13.1c9.7-9.6,12.5-22.9,7.5-35.4c-5.1-12.7-16.7-20.8-30.2-21
		c-8.5-0.1-17.1,0.4-25.5-0.4C20.9,337.7,8.4,326,5,309.8c-0.1-0.7-0.4-1.4-0.6-2C4.4,290.3,4.4,272.9,4.4,255.4z M282.6,27.6
		C282.6,27.6,282.6,27.6,282.6,27.6c-3.2,0-6.4,0-9.5,0c-3.3,0-6.6,0-9.8,0c-10,0-14.9,4.9-14.9,14.9c0,7.2,0.3,14.4-0.1,21.5
		c-1.4,24.4-13.7,41.5-36.1,50.3c-22.2,8.8-42.5,4.1-59.8-12.5c-4.8-4.6-9.4-9.4-14.1-14.1c-5.7-5.7-14-5.8-19.7-0.1
		c-10.2,10.1-20.4,20.2-30.5,30.4c-6,6-6,13.2,0,19.2c4.8,4.8,9.8,9.4,14.4,14.3c15.5,16.2,20.4,35.3,13.4,56.4
		c-7.2,21.6-22.5,35-45.4,38.1c-9.4,1.3-19,0.6-28.6,0.7c-8.5,0.1-14.2,5.6-14.2,14c-0.1,13.8-0.1,27.7,0,41.5
		c0,8.3,5.6,13.9,13.9,13.9c7.1,0.1,14.2,0,21.2,0c23.2,0.1,43.3,13.7,52.1,35.2c8.6,20.9,3.7,44.4-12.7,60.7
		c-4.5,4.5-9.1,8.9-13.5,13.4c-6.3,6.3-6.2,13.5,0,19.7c10,10,20,20,30.1,30c6.1,6.1,14.2,6.1,20.4,0c4.5-4.5,8.9-9.1,13.5-13.5
		c16.7-16,36.3-21.1,58.1-13.4c22.1,7.8,35.1,23.9,37.7,47.5c0.9,8.8,0.3,17.8,0.5,26.7c0.2,8,5.5,13.2,13.5,13.3
		c13.9,0.1,27.9,0.1,41.8,0c8.1,0,13.7-5.5,13.8-13.7c0.1-6.9-0.3-13.8,0.1-20.6c0.4-6.1,0.9-12.4,2.8-18.1
		c12.2-37.2,60.9-53,93-21.8c4.6,4.5,9.2,9.1,13.7,13.7c6.1,6,14.1,6,20.2,0c10.1-10,20.2-20.1,30.3-30.2c6-6,5.9-13.6-0.1-19.6
		c-4.6-4.6-9.2-9.1-13.8-13.6c-16.6-16.1-21.5-39.4-12.8-61.2c8.4-21.2,29.3-35.8,51.7-35.9c6.7,0,13.3,0,20,0
		c8.8,0,12.5-3.7,12.5-12.6c0-9.5,0-19.1,0-28.6c0-5.1,0.1-10.3-0.4-15.4c-0.8-8.1-4.7-11.4-12.7-11.4c-7.4,0-14.8,0.3-22.1-0.1
		c-24-1.5-40.9-13.7-49.6-35.8c-8.7-22.3-3.9-42.5,12.8-59.7c4.7-4.9,9.7-9.5,14.4-14.3c5.6-5.7,5.6-12.9,0-18.6
		C467.5,108.3,457.3,98.2,447,88c-5.9-5.8-14.1-5.7-20,0.1c-4.6,4.5-9.1,9.2-13.7,13.7c-11.3,11-24.8,16.9-40.7,16.7
		c-31.3-0.4-57.3-26.4-56.5-58.1c0.2-7.2,0.2-14.4-0.2-21.5c-0.4-6.9-5.4-11.2-12.3-11.2C296.5,27.6,289.6,27.6,282.6,27.6z"/>
	<path class="st7" d="M285.3,122.4C374,122,446.7,194.6,447,283.7c0.3,89.4-71.9,162.2-161.3,162.5
		c-89.7,0.3-162.2-72.1-162.4-162.1C122.9,195,195.4,122.7,285.3,122.4z M285.2,149.3c-74.2-0.2-134.6,59.9-135,134.5
		c-0.5,73.8,59.9,135,133.5,135.2c75.5,0.3,135.9-59.3,136.3-134.6C420.4,210.2,359.9,149.5,285.2,149.3z"/>
</g>
</svg>
