<?xml version="1.0" encoding="utf-8"?>
<!-- Generator: Adobe Illustrator 23.0.1, SVG Export Plug-In . SVG Version: 6.00 Build 0)  -->
<svg version="1.1" id="Слой_1" xmlns="http://www.w3.org/2000/svg" xmlns:xlink="http://www.w3.org/1999/xlink" x="0px" y="0px"
	 viewBox="0 0 566 565" style="enable-background:new 0 0 566 565;" xml:space="preserve">
<style type="text/css">
	.st0{display:none;}
	.st1{display:inline;}
	.st2{fill:none;stroke:#000000;stroke-miterlimit:10;}
	.st3{fill:#F4F4F4;}
	.st4{fill:#FFFFFF;}
	.st5{fill:none;stroke:#FFFFFF;stroke-width:10;stroke-miterlimit:10;}
	.st6{fill-rule:evenodd;clip-rule:evenodd;fill:#F4F4F4;}
	.st7{fill:#5F9898;}
	.st8{fill-rule:evenodd;clip-rule:evenodd;fill:#578685;}
	.st9{fill:#447776;}
	.st10{fill:#578685;}
	.st11{fill-rule:evenodd;clip-rule:evenodd;fill:#447776;}
	.st12{fill:#EEEEEE;}
	.st13{clip-path:url(#SVGID_2_);fill:#FFFFFF;}
	.st14{clip-path:url(#SVGID_2_);fill:none;}
	.st15{opacity:0.24;clip-path:url(#SVGID_2_);}
	.st16{opacity:0.24;}
	.st17{opacity:0.31;clip-path:url(#SVGID_4_);}
	.st18{opacity:0.31;}
	.st19{clip-path:url(#SVGID_6_);fill:#C2DBCB;}
	.st20{clip-path:url(#SVGID_6_);}
	.st21{fill:#C9E2F2;}
	.st22{opacity:0.67;clip-path:url(#SVGID_4_);}
	.st23{fill:none;}
	.st24{opacity:0.65;fill:#B8D5BC;}
	.st25{clip-path:url(#SVGID_4_);fill:none;}
	.st26{opacity:0.31;clip-path:url(#SVGID_8_);}
	.st27{clip-path:url(#SVGID_10_);fill:#C2DBCB;}
	.st28{clip-path:url(#SVGID_10_);}
	.st29{opacity:0.67;clip-path:url(#SVGID_8_);}
	.st30{clip-path:url(#SVGID_8_);fill:none;}
	.st31{opacity:0.31;clip-path:url(#SVGID_12_);}
	.st32{clip-path:url(#SVGID_14_);fill:#C2DBCB;}
	.st33{clip-path:url(#SVGID_14_);}
	.st34{opacity:0.67;clip-path:url(#SVGID_12_);}
	.st35{clip-path:url(#SVGID_12_);fill:none;}
	.st36{opacity:0.7;fill:#DBDBDB;}
</style>
<g>
	<g>
		<path class="st6" d="M324.7,315.8c-4.6,6.7-10.9,10.9-20.1,13.1c-4.8,1.2-16,2.7-23.6,7.7c-8.8,6-11.8,14.8-10.5,22.7
			c1.5,8.9,8.4,16.7,18.6,18c7.3,0.9,16.2-1.4,25.9-8.9c6.1-4.6,11.4-10.6,15.2-17.9c3.7-7.2,6-15.7,6-25.4c0-14-5.6-25.9-5.6-25.9
			S330.2,307.7,324.7,315.8z"/>
		<path class="st6" d="M267.1,379.6c-4.1-7.1-7.8-13.4-10.4-19.5c-2.8-6.6-4.2-12.9-3.1-19.8c0.9-5.9,3.7-12.3,9.1-19.5
			c10.9-14.7,1.6-23-0.3-25.4c-1-1.2-5.3-5.6-9.2-10.7c-5-6.6-7.1-11.2-8.5-14.2c-5.1,7.2-9.9,14.3-13.6,21.6
			c-5.3,10.4-8.7,21.1-8.2,33.2c0.3,7.6,1.5,14.7,4.1,20.6c3.6,8.2,9.2,16.1,18.7,23.6C251,373.5,260.9,377.8,267.1,379.6z"/>
		<path class="st6" d="M308.6,283.9c-3.1,9.5-9,16.7-18.5,24.7c-6.3,5.3-13.8,9.6-20.8,15.1c-10.4,8.1-12.3,17.1-10.7,26.3
			c1.8,10.1,9.7,21.1,9.7,21.1s-1.7-7.4-2.2-10.8c-0.6-4.4-0.6-8.5,0.4-12.5c2.4-9.5,10.8-17.7,29.3-21.7c9.4-2,17.3-4.2,23.5-11.6
			c4.9-6,6.2-11.8,6.2-16.9c0.1-16.5-15.3-33.6-15.3-33.6C311.8,271.6,310.6,278,308.6,283.9L308.6,283.9z M288.1,196.5L288.1,196.5
			c5.8-12,4.8-20.8,4.8-20.8s2.3,6,2.5,14.4c0.1,3.6-0.1,7.6-1.1,11.7c-1.6,6.1-3.6,10.4-9.7,17.4c-4.2,4.7-7.4,10.5-8.6,15.3
			c-1.8,7.1-1.1,14.4,0.7,20c1.5,4.6,2.1,5.7,2.8,7.4c1.1,2.6,3.2,6.6,3.2,6.6s-10.9-11.8-13.9-16.8c-2.9-5-4.7-10.5-4-16.9
			c0.7-7.1,4.5-15.2,13-24.6C282.3,205,285.8,201.2,288.1,196.5L288.1,196.5z M249.7,238.1L249.7,238.1c5-12.4,15.3-19.1,15.3-19.1
			c-12.4,17.5-5.3,29.9,3.9,40.2c6.4,7.1,13.4,12.7,16.2,18.7c2.6,5.6,1,13.5-2.5,20.3c-5.6,11-15,20.8-15,20.8
			c4.3-5.9,5.5-11,5.2-15.2c-0.5-6.7-6-12.1-6-12.1c-3.2-3.7-6.5-7.4-9.1-11c-4.3-5.7-6.8-11.2-8.5-16.3
			C245.8,254,246.9,245.2,249.7,238.1L249.7,238.1z M292,218.9L292,218.9c7.7-5.2,16-6.5,16-6.5c-7,5.3-11.2,11.8-10.7,22.3
			c0.3,6.9,2.6,15.5,7.4,26.6c12.1,27.7-29.6,54-29.6,54c5.3-5.6,9.2-10.8,11.5-15.7c3.1-6.7,3.9-12.1,3.9-17
			c0-5.8-3.1-12.2-4.3-14.8c-1.2-2.6-5.7-12.7-6.6-17.9c-0.9-4.9-0.8-9.2-0.1-12.9C281.2,228.3,286.5,222.6,292,218.9z"/>
	</g>
	<path class="st4" d="M5.4,255.9c1.6-6.2,3.5-12.2,7.6-17.3c7.5-9.1,17-14,28.9-14.1c7.2,0,14.4,0,21.6,0
		c13.5-0.1,25.6-8.1,30.7-20.5c5.3-13,2.7-25.9-7.4-35.9c-4.9-4.9-9.8-9.7-14.6-14.6C58,139.1,58,117.2,72.2,102.8
		c10.6-10.7,21.2-21.2,32-31.6c14-13.6,36.7-13.5,50.7,0.1c5.2,5,10.1,10.2,15.4,15.1c10.4,9.7,22.6,12.1,35.6,6.5
		c13.1-5.6,20.2-15.8,20.7-30.2c0.2-7.1,0-14.2,0.1-21.3c0.1-21.1,15.9-36.8,36.9-36.9c13.8,0,27.5,0,41.3,0
		c20.4,0,36.2,15.6,36.4,36c0.1,7.1,0.1,14.2,0,21.3c-0.1,13.5,7.7,25.5,20.6,30.9c13.3,5.5,25.6,3.5,36.3-6.2
		c5.3-4.8,10.2-10.2,15.3-15.2c14.5-14.1,37.2-14,51.6,0.2c10.4,10.2,20.7,20.5,31.1,30.8c14.9,14.8,14.7,37-0.3,51.7
		c-4.7,4.6-9.4,9.2-14.1,13.8c-9.9,9.7-12.8,22.9-7.7,35.7c4.9,12.3,16.9,20.6,30.2,20.8c7,0.1,14,0.2,21,0
		c18.6-0.6,34,13.5,34.8,33.7c0.6,16.2,0.4,32.5,0.1,48.7c-0.4,18.5-14.8,32.1-33.3,32.4c-8.9,0.1-18-0.5-26.8,0.6
		c-13.5,1.7-22.3,10.1-26.6,22.8c-4.2,12.5-1.6,24,7.7,33.6c5,5.2,10.3,10,15.4,15.1c14,14.2,14.1,36.2,0.1,50.5
		c-10.5,10.7-21.1,21.3-31.9,31.8c-14.5,14.2-37.2,14-51.7-0.3c-4.8-4.8-9.5-9.7-14.4-14.3c-10.4-9.9-22.5-12.4-35.8-7.1
		c-12.7,5-20.7,17-20.8,30.8c0,6.8,0,13.6,0,20.3c0.1,21.1-16,37.4-37.2,37.5c-13.8,0.1-27.5,0-41.3,0c-21,0-37.1-15.9-37.3-37
		c0-7,0.1-14,0-21c-0.2-14-8.3-25.7-21.2-30.8c-13-5.2-26.1-2.2-36.2,8c-4.7,4.8-9.4,9.5-14.3,14.1c-14.5,13.8-37,13.6-51.2-0.5
		c-10.2-10.1-20.4-20.3-30.6-30.5c-15.6-15.7-15.5-37.4,0.3-52.9c4.5-4.4,9-8.7,13.4-13.2c9.7-9.6,12.6-22.9,7.6-35.4
		c-5.1-12.7-16.7-20.8-30.3-21c-8.5-0.1-17.1,0.4-25.6-0.4C21.9,338.3,9.5,326.7,6,310.4c-0.1-0.7-0.4-1.4-0.6-2
		C5.4,290.9,5.4,273.4,5.4,255.9z M284.2,27.7C284.2,27.7,284.2,27.7,284.2,27.7c-3.2,0-6.4,0-9.6,0c-3.3,0-6.6,0-9.9,0
		c-10,0-14.9,4.9-15,15c0,7.2,0.3,14.4-0.1,21.6c-1.4,24.4-13.7,41.6-36.2,50.4c-22.3,8.8-42.6,4.1-59.9-12.5
		c-4.8-4.6-9.4-9.4-14.2-14.2c-5.7-5.7-14-5.9-19.8-0.1C109.3,98,99.1,108.1,89,118.3c-6,6-6,13.3,0,19.3c4.8,4.8,9.8,9.4,14.5,14.3
		c15.5,16.2,20.5,35.3,13.4,56.5c-7.3,21.6-22.6,35.1-45.5,38.2c-9.4,1.3-19.1,0.6-28.6,0.7c-8.5,0.1-14.2,5.6-14.2,14
		c-0.1,13.9-0.1,27.7,0,41.6c0,8.3,5.6,13.9,13.9,14c7.1,0.1,14.2,0,21.3,0c23.3,0.1,43.4,13.7,52.2,35.2c8.6,21,3.7,44.5-12.7,60.8
		c-4.5,4.5-9.1,8.9-13.6,13.5c-6.3,6.3-6.3,13.5,0,19.8c10,10,20.1,20,30.1,30c6.1,6.1,14.3,6.1,20.5,0c4.5-4.5,8.9-9.1,13.5-13.5
		c16.7-16.1,36.4-21.1,58.2-13.4c22.2,7.8,35.2,24,37.7,47.6c0.9,8.8,0.3,17.9,0.5,26.8c0.2,8,5.5,13.2,13.5,13.3
		c14,0.1,28,0.1,41.9,0c8.2,0,13.7-5.6,13.8-13.8c0.1-6.9-0.3-13.8,0.1-20.6c0.4-6.1,0.9-12.4,2.8-18.2
		c12.2-37.3,61.1-53.1,93.2-21.8c4.6,4.5,9.2,9.1,13.8,13.7c6.1,6,14.2,6,20.3,0c10.1-10.1,20.3-20.1,30.4-30.2c6-6,6-13.6-0.1-19.6
		c-4.6-4.6-9.2-9.1-13.8-13.6c-16.6-16.1-21.5-39.4-12.8-61.3c8.4-21.3,29.4-35.8,51.8-36c6.7,0,13.4,0,20,0
		c8.9,0,12.5-3.7,12.6-12.6c0-9.6,0-19.1,0-28.7c0-5.1,0.1-10.3-0.4-15.4c-0.8-8.1-4.7-11.4-12.8-11.4c-7.4,0-14.8,0.3-22.2-0.1
		c-24-1.5-41-13.7-49.7-35.8c-8.8-22.3-3.9-42.6,12.8-59.8c4.7-4.9,9.7-9.5,14.4-14.3c5.6-5.7,5.6-13,0-18.6
		c-10.2-10.2-20.5-20.4-30.9-30.6c-5.9-5.8-14.1-5.7-20.1,0.1c-4.6,4.5-9.1,9.2-13.7,13.7c-11.3,11.1-24.9,16.9-40.8,16.7
		c-31.4-0.5-57.4-26.4-56.6-58.3c0.2-7.2,0.2-14.4-0.2-21.6C317,32,312,27.7,305.1,27.7C298.1,27.7,291.1,27.7,284.2,27.7z"/>
	<path class="st4" d="M286.9,122.6c88.9-0.4,161.7,72.3,162,161.7c0.3,89.6-72.1,162.5-161.7,162.8
		c-89.8,0.3-162.5-72.2-162.8-162.5C124.2,195.4,196.8,123,286.9,122.6z M286.8,149.6c-74.4-0.2-134.8,60-135.3,134.8
		c-0.5,74,60,135.2,133.7,135.5c75.7,0.3,136.2-59.5,136.6-134.9C422.2,210.6,361.6,149.8,286.8,149.6z"/>
</g>
</svg>
