<svg version="1.1" id="Слой_1" xmlns="http://www.w3.org/2000/svg" x="0" y="0" viewBox="0 0 566 565" xml:space="preserve"><style>.st7{fill:#5f9898}.st11{fill-rule:evenodd;clip-rule:evenodd;fill:#447776}</style><path class="st11" d="M323 315.2c-4.6 6.7-10.9 10.8-20 13.1-4.8 1.2-16 2.7-23.5 7.7-8.8 6-11.8 14.8-10.5 22.6 1.5 8.9 8.4 16.6 18.6 18 7.3.9 16.1-1.4 25.9-8.9 6-4.6 11.4-10.6 15.1-17.9 3.7-7.2 5.9-15.6 5.9-25.4 0-13.9-5.6-25.9-5.6-25.9s-.4 8.6-5.9 16.7zm-57.5 63.6c-4.1-7.1-7.8-13.4-10.4-19.5-2.8-6.6-4.2-12.9-3.1-19.8.9-5.9 3.7-12.3 9.1-19.5 10.8-14.7 1.6-23-.3-25.4-1-1.2-5.3-5.6-9.2-10.7-5-6.6-7.1-11.1-8.5-14.2-5.1 7.2-9.8 14.3-13.6 21.6-5.3 10.3-8.7 21.1-8.2 33.1.3 7.6 1.5 14.6 4.1 20.6 3.6 8.2 9.1 16.1 18.7 23.5 5.4 4.3 15.2 8.6 21.4 10.3z"/><path class="st11" d="M307 283.3c-3.1 9.5-9 16.6-18.5 24.6-6.3 5.3-13.8 9.6-20.8 15-10.4 8.1-12.2 17.1-10.6 26.3 1.8 10.1 9.6 21.1 9.6 21.1s-1.7-7.4-2.2-10.8c-.6-4.4-.6-8.5.4-12.4 2.4-9.5 10.8-17.7 29.3-21.7 9.3-2 17.3-4.2 23.4-11.5 4.9-6 6.2-11.8 6.2-16.9.1-16.5-15.3-33.5-15.3-33.5 1.7 7.6.4 13.9-1.5 19.8zm-20.5-87.2c5.8-11.9 4.8-20.7 4.8-20.7s2.3 6 2.5 14.3c.1 3.5-.1 7.5-1.1 11.6-1.6 6-3.6 10.4-9.7 17.3-4.2 4.7-7.4 10.5-8.6 15.3-1.8 7.1-1.1 14.4.7 19.9 1.5 4.6 2.1 5.7 2.8 7.4 1.1 2.6 3.1 6.6 3.1 6.6s-10.9-11.7-13.8-16.7c-2.9-5-4.7-10.5-4-16.8.7-7.1 4.5-15.2 12.9-24.6 4.6-5.1 8.2-8.9 10.4-13.6zm-38.3 41.6c5-12.3 15.3-19 15.3-19-12.3 17.5-5.3 29.9 3.9 40.1 6.4 7.1 13.4 12.7 16.2 18.7 2.6 5.6 1 13.4-2.5 20.3-5.6 10.9-15 20.7-15 20.7 4.3-5.9 5.5-11 5.1-15.2-.5-6.6-6-12.1-6-12.1-3.2-3.7-6.4-7.4-9.1-11-4.2-5.7-6.8-11.2-8.5-16.2-3.3-10.5-2.2-19.3.6-26.3zm42.2-19.2c7.7-5.2 16-6.5 16-6.5-7 5.2-11.2 11.8-10.7 22.3.3 6.9 2.6 15.5 7.4 26.5 12.1 27.7-29.5 53.9-29.5 53.9 5.3-5.5 9.2-10.8 11.5-15.7 3.1-6.6 3.9-12.1 3.9-17 0-5.8-3.1-12.2-4.3-14.7-1.2-2.5-5.6-12.7-6.6-17.9-.9-4.9-.8-9.2-.1-12.9 1.6-8.7 6.9-14.3 12.4-18z"/><path class="st7" d="M4.4 255.4c1.6-6.2 3.4-12.2 7.6-17.2 7.5-9.1 17-14 28.8-14h21.5c13.5-.1 25.5-8.1 30.6-20.5 5.3-12.9 2.6-25.8-7.4-35.9-4.9-4.9-9.8-9.7-14.6-14.6-14-14.4-14.1-36.2.1-50.6C81.6 92 92.2 81.5 103 71.1c14-13.6 36.6-13.5 50.6.1 5.2 5 10.1 10.2 15.4 15.1 10.4 9.7 22.5 12 35.6 6.5 13-5.5 20.2-15.8 20.7-30.1.2-7.1 0-14.2.1-21.2.1-21 15.9-36.8 36.8-36.8h41.2c20.4 0 36.1 15.6 36.3 35.9.1 7.1.1 14.2 0 21.2-.1 13.5 7.7 25.5 20.6 30.8 13.3 5.5 25.6 3.5 36.3-6.2 5.3-4.8 10.2-10.2 15.3-15.2 14.5-14.1 37.1-14 51.5.2 10.4 10.2 20.7 20.5 31 30.8 14.8 14.8 14.7 36.9-.3 51.6L480 167.6c-9.9 9.7-12.7 22.9-7.6 35.6 4.9 12.2 16.9 20.6 30.1 20.8 7 .1 14 .2 20.9 0 18.6-.6 34 13.4 34.8 33.6.6 16.2.4 32.4.1 48.6-.4 18.4-14.7 32.1-33.2 32.3-8.9.1-17.9-.5-26.7.6-13.5 1.7-22.3 10.1-26.5 22.7-4.2 12.5-1.6 23.9 7.6 33.5 5 5.2 10.3 10 15.3 15.1 14 14.2 14.1 36.2.1 50.4-10.5 10.7-21.1 21.3-31.8 31.7-14.5 14.1-37.2 14-51.5-.3-4.8-4.8-9.5-9.6-14.4-14.3-10.4-9.9-22.4-12.3-35.8-7.1-12.7 5-20.7 17-20.8 30.7v20.3c.1 21.1-16 37.3-37.1 37.4-13.7.1-27.5 0-41.2 0-21 0-37.1-15.9-37.2-36.9 0-7 .1-13.9 0-20.9-.2-13.9-8.3-25.6-21.1-30.8-12.9-5.1-26.1-2.2-36.1 7.9-4.7 4.8-9.4 9.5-14.2 14.1-14.5 13.8-36.9 13.6-51.1-.5-10.3-10-20.5-20.1-30.6-30.3-15.6-15.6-15.4-37.3.3-52.8 4.5-4.4 9-8.7 13.4-13.1 9.7-9.6 12.5-22.9 7.5-35.4-5.1-12.7-16.7-20.8-30.2-21-8.5-.1-17.1.4-25.5-.4C20.9 337.7 8.4 326 5 309.8c-.1-.7-.4-1.4-.6-2v-52.4zM282.6 27.6h-19.3c-10 0-14.9 4.9-14.9 14.9 0 7.2.3 14.4-.1 21.5-1.4 24.4-13.7 41.5-36.1 50.3-22.2 8.8-42.5 4.1-59.8-12.5-4.8-4.6-9.4-9.4-14.1-14.1-5.7-5.7-14-5.8-19.7-.1-10.2 10.1-20.4 20.2-30.5 30.4-6 6-6 13.2 0 19.2 4.8 4.8 9.8 9.4 14.4 14.3 15.5 16.2 20.4 35.3 13.4 56.4-7.2 21.6-22.5 35-45.4 38.1-9.4 1.3-19 .6-28.6.7-8.5.1-14.2 5.6-14.2 14-.1 13.8-.1 27.7 0 41.5 0 8.3 5.6 13.9 13.9 13.9 7.1.1 14.2 0 21.2 0 23.2.1 43.3 13.7 52.1 35.2 8.6 20.9 3.7 44.4-12.7 60.7-4.5 4.5-9.1 8.9-13.5 13.4-6.3 6.3-6.2 13.5 0 19.7 10 10 20 20 30.1 30 6.1 6.1 14.2 6.1 20.4 0 4.5-4.5 8.9-9.1 13.5-13.5 16.7-16 36.3-21.1 58.1-13.4 22.1 7.8 35.1 23.9 37.7 47.5.9 8.8.3 17.8.5 26.7.2 8 5.5 13.2 13.5 13.3 13.9.1 27.9.1 41.8 0 8.1 0 13.7-5.5 13.8-13.7.1-6.9-.3-13.8.1-20.6.4-6.1.9-12.4 2.8-18.1 12.2-37.2 60.9-53 93-21.8 4.6 4.5 9.2 9.1 13.7 13.7 6.1 6 14.1 6 20.2 0 10.1-10 20.2-20.1 30.3-30.2 6-6 5.9-13.6-.1-19.6-4.6-4.6-9.2-9.1-13.8-13.6-16.6-16.1-21.5-39.4-12.8-61.2 8.4-21.2 29.3-35.8 51.7-35.9h20c8.8 0 12.5-3.7 12.5-12.6v-28.6c0-5.1.1-10.3-.4-15.4-.8-8.1-4.7-11.4-12.7-11.4-7.4 0-14.8.3-22.1-.1-24-1.5-40.9-13.7-49.6-35.8-8.7-22.3-3.9-42.5 12.8-59.7 4.7-4.9 9.7-9.5 14.4-14.3 5.6-5.7 5.6-12.9 0-18.6-10.6-9.9-20.8-20-31.1-30.2-5.9-5.8-14.1-5.7-20 .1-4.6 4.5-9.1 9.2-13.7 13.7-11.3 11-24.8 16.9-40.7 16.7-31.3-.4-57.3-26.4-56.5-58.1.2-7.2.2-14.4-.2-21.5-.4-6.9-5.4-11.2-12.3-11.2-7.1-.1-14-.1-21-.1z"/><path class="st7" d="M285.3 122.4C374 122 446.7 194.6 447 283.7c.3 89.4-71.9 162.2-161.3 162.5-89.7.3-162.2-72.1-162.4-162.1-.4-89.1 72.1-161.4 162-161.7zm-.1 26.9c-74.2-.2-134.6 59.9-135 134.5-.5 73.8 59.9 135 133.5 135.2 75.5.3 135.9-59.3 136.3-134.6.4-74.2-60.1-134.9-134.8-135.1z"/></svg>