<svg id="Слой_1" data-name="Слой 1" xmlns="http://www.w3.org/2000/svg" viewBox="0 0 500 500"><defs><style>.cls-1{fill:#ef8556;}</style></defs><title>технические работы на портале 500 на 500</title><path class="cls-1" d="M255.429,284.988c-4.46919-4.43636-8.92149-8.85594-13.24375-13.14643L175.72615,338.017l2.65,2.00829c-3.51852,4.38917-6.84355,8.542-10.18043,12.68534a2.72791,2.72791,0,0,1-.68581.53176q-16.50477,10.44585-32.928,20.83075c-1.83139-1.85927-3.6261-3.68128-5.507-5.5908.08157-.1386.28068-.49949.50053-.84725q10.03863-15.87921,20.09273-31.7486a6.22055,6.22055,0,0,1,1.31591-1.47007c3.65416-2.96263,7.33264-5.89525,11.00534-8.835.28782-.23039.5903-.44252,1.12411-.8408l1.98482,2.52621,66.16638-66.30065-13.40538-13.15012c.47718-.507.77111-.837,1.08345-1.14851,4.45221-4.44026,8.92209-8.863,13.345-13.33227a2.75732,2.75732,0,0,1,2.29494-.87361c13.09346.47582,23.80508-7.64074,26.45347-20.18075a58.725,58.725,0,0,0,.55149-7.31246,2.3967,2.3967,0,0,1,.47684-1.4141Q295.07263,170.487,328.128,137.46685c.05716-.05715.135-.09362.0939-.06582l37.44474,37.46366c-.12115.131-.40689.46227-.71552.77061q-32.56663,32.53726-65.1226,65.08517a2.45871,2.45871,0,0,1-2.07587.779c-13.6355-.64075-24.70759,8.29873-26.89467,21.77291a54.35614,54.35614,0,0,0-.23428,5.59729,2.3567,2.3567,0,0,1-.444,1.42789q-7.19863,7.2899-14.47151,14.50639A1.50143,1.50143,0,0,1,255.429,284.988Z"/><path class="cls-1" d="M159.78048,144.55734c2.311-.41627,4.60815-.94692,6.93534-1.231A52.06069,52.06069,0,0,1,219.30536,170.661a51.3015,51.3015,0,0,1,4.52074,37.28734,1.83089,1.83089,0,0,0,.54686,2.04255c5.18256,5.12262,10.30894,10.30209,15.45052,15.46614.112.11246.19837.2504.58578.74705a42.28084,42.28084,0,0,1-6.57821.06411,5.14722,5.14722,0,0,0-4.98043,1.74283c-6.05738,6.24772-12.268,12.34689-18.42064,18.50229-.32013.32027-.62666.65414-.99458,1.03932l13.355,13.37593c-2.92619,2.80992-5.81987,5.58864-8.90335,8.54963a4.28486,4.28486,0,0,0-.5898-.82474q-11.42578-11.45295-22.85785-22.89956a1.86,1.86,0,0,0-2.15857-.57574,52.20139,52.20139,0,0,1-66.4202-40.59968,51.49869,51.49869,0,0,1,.67268-21.92339c.06854-.27935.16847-.551.25378-.82623l.473-.42719a5.23215,5.23215,0,0,0,.70523,1.30117q13.67775,13.70433,27.37453,27.38963a2.12164,2.12164,0,0,0,2.38907.656q13.226-3.63541,26.48719-7.14234a1.74923,1.74923,0,0,0,1.45236-1.42271q3.564-13.4404,7.22227-26.85564a1.75282,1.75282,0,0,0-.63194-1.93758q-13.7983-13.76212-27.5752-27.54573a8.921,8.921,0,0,0-1.09022-.806Z"/><path class="cls-1" d="M233.32989,288.62922l8.379-8.529c4.5201,4.46111,9.01058,8.893,13.55179,13.375.39466-.3753.72409-.67523,1.03883-.98984,6.44877-6.44583,12.86976-12.91988,19.37149-19.31181a3.52989,3.52989,0,0,0,.98675-3.0898c-.09315-2.19187.017-4.39271.05862-6.5895a4.54323,4.54323,0,0,1,.22339-.869c.392.35854.69269.61284.97022.89025q33.92138,33.907,67.84441,67.81223a24.68551,24.68551,0,0,1-19.79365,42.39675,24.27454,24.27454,0,0,1-14.56119-7.00407q-38.92911-38.88-77.81659-77.80164C233.4952,288.831,233.419,288.73178,233.32989,288.62922Zm91.6134,73.24339c.23173-.07551.30992-.10491.39018-.12657,3.731-1.00755,7.4679-1.99411,11.18412-3.05335a1.60552,1.60552,0,0,0,.87041-1.00378c.96888-3.5261,1.845-7.07783,2.82718-10.60006a1.43926,1.43926,0,0,0-.46583-1.62419c-2.88868-2.88068-5.73751-5.80163-8.65085-8.65687a1.83634,1.83634,0,0,0-1.46527-.42173q-5.3841,1.33407-10.723,2.84651a1.723,1.723,0,0,0-1.02732.99506q-1.54152,5.39342-2.923,10.83171a1.58985,1.58985,0,0,0,.32618,1.28358c2.96818,3.0361,5.98174,6.02786,8.99034,9.02427A5.439,5.439,0,0,0,324.94329,361.87261Z"/><path class="cls-1" d="M250.22833.28421C112.83787.28421,1.33208,111.66543,1.33208,249.05589c0,137.39121,111.50579,248.89624,248.89625,248.89624C387.61954,497.95213,499,386.4471,499,249.05589,499,111.66543,387.61954.28421,250.22833.28421Zm0,476.26321c-125.6923,0-227.49077-101.79848-227.49077-227.49153,0-125.56773,101.79847-227.36621,227.49077-227.36621,125.56849,0,227.367,101.79848,227.367,227.36621C477.59529,374.74894,375.79682,476.54742,250.22833,476.54742Z"/></svg>