<?xml version="1.0" encoding="utf-8"?>
<!-- Generator: Adobe Illustrator 23.0.1, SVG Export Plug-In . SVG Version: 6.00 Build 0)  -->
<svg version="1.1" id="Слой_1" xmlns="http://www.w3.org/2000/svg" xmlns:xlink="http://www.w3.org/1999/xlink" x="0px" y="0px"
	 viewBox="0 0 250 250" style="enable-background:new 0 0 250 250;" xml:space="preserve">
<style type="text/css">
	.st0{fill:#5F9898;}
	.st1{fill:#578685;}
</style>
<path class="st0" d="M129.3,249.3c-31.7-0.5-59.8-10.8-84-31.3C26.8,202.2,14.1,182.5,7.5,159c-3-10.5-4.4-21.2-4.5-32.1
	c-0.2-23.7,5.5-45.8,17.5-66.3C32,41.2,48,26.4,67.9,15.7C81.6,8.3,96.2,3.5,111.6,1.5c30.1-3.9,57.9,2.9,83.2,19.4
	c19,12.4,33.7,28.7,43.9,49.1c1.5,3,3,6.1,3.4,9.5c0.2,1.7,0.2,3.4-0.4,5.1c-1.1,3.2-4.5,4.7-7.7,3.3c-2-0.9-3.4-2.4-4.8-4.1
	c-1.5-1.9-2.5-4-3.6-6c-14-25.7-34.3-44.6-61.5-55.7c-11.2-4.6-22.8-6.9-34.9-7.2c-16.7-0.3-32.5,3.2-47.5,10.5
	c-31,15.1-50.6,39.6-59.9,72.6c-2.8,9.9-3.9,20-3.5,30.3c0.7,16.8,5.7,32.2,14.1,46.7c5.2,8.9,11.4,17,18.6,24.4
	c12.5,12.8,26.7,22.9,43.4,29.4c10.2,4,20.7,6.2,31.7,6.4c24.7,0.5,46.7-7.3,66.2-22.3c14.5-11.2,25.7-25.2,34-41.4
	c1.2-2.4,2.5-4.8,4.5-6.7c1.9-1.8,4.2-2.7,6.8-2.2c2.8,0.5,4.4,2.6,4.5,5.7c0.1,2.4-0.6,4.7-1.5,6.9c-11.3,26.1-29.3,46.2-54.3,59.9
	c-12.7,7-26.3,11.3-40.7,13.2C140.3,248.9,134.8,249.3,129.3,249.3z"/>
<path class="st1" d="M122.4,172.5c2.2-4.2,4.4-8.3,6.6-12.4c15.2-28.6,30.3-57.3,45.4-85.9c0.3-0.5,0.6-0.9,1.2-1.1
	c5.8-2.2,12.1,1.4,13.2,7.5c0.1,0.6-0.2,1-0.4,1.4c-7.6,13.7-15.2,27.5-22.8,41.2c-12.5,22.6-25,45.2-37.5,67.9
	c-0.7,1.3-1.5,2.5-2.2,3.9c-0.7,1.4-1.7,2-3.3,2c-1.5,0-2.5-0.7-3.2-2.1c-2.2-4.1-4.6-8.2-6.8-12.3C94,149.3,75.6,116,57.2,82.7
	c-0.8-1.4-0.9-2.6-0.5-4.1c1.5-5.7,7.6-8.4,12.8-5.7c0.6,0.3,0.9,0.7,1.2,1.2c10.7,20.4,21.4,40.8,32.1,61.1
	c6.4,12.1,12.7,24.3,19.1,36.4C122,171.9,122.1,172.1,122.4,172.5z"/>
</svg>
