<svg id="Слой_1" data-name="Слой 1" xmlns="http://www.w3.org/2000/svg" viewBox="0 0 500 500"><defs><style>.cls-1{fill:#2b4c67;}</style></defs><title>идет соединение с сервером 500 на 500 px новые</title><path class="cls-1" d="M92.01379,222.96365a51.1716,51.1716,0,0,1,5.22726-.56666c6.859-.06629,13.71916-.02714,20.68584-.02714.27181-.89564.52674-1.67969.748-2.47282q15.31023-54.88363,65.63332-82.99552a129.511,129.511,0,0,1,47.11837-15.37545c58.71747-7.47355,111.99856,21.49385,137.94134,69.75244a28.52944,28.52944,0,0,1,2.53315,6.11317c1.21078,4.578-2.17937,8.94826-6.94224,9.48257-4.09681.45958-7.244-.78023-9.38635-4.326-1.39465-2.30821-2.89162-4.55671-4.2832-6.86663Q324.554,151.30275,273.28585,140.407a113.56487,113.56487,0,0,0-39.6504-1.46941,117.79454,117.79454,0,0,0-53.37728,21.59212c-20.52144,14.93555-34.79754,34.35345-42.64236,58.28391-1.02478,3.12609-.9853,3.20712,2.41388,3.27844,6.37774.13381,12.75768.16266,19.136.27322,2.13866.03706,4.27524.18992,6.792.30759-.50361,1.07935-.8402,1.9868-1.32468,2.81012-4.55947,7.74844-9.064,15.52972-13.741,23.20936-6.49455,10.66413-13.12121,21.2505-19.70007,31.86492-.60992.98408-1.2828,1.93044-2.07368,3.11479-.54559-.7386-1.01422-1.28838-1.38988-1.894q-13.34676-21.51456-26.65727-43.05078c-3.126-5.08562-6.04422-10.29465-9.05731-15.44735Z"/><path class="cls-1" d="M328.23981,296.0756c.729-3.58638,33.85117-59.36636,36.42553-61.52344,12.57329,19.99679,24.65962,40.22559,36.54184,61.0848-1.85944.14365-3.35224.34471-4.84689.3596-6.55062.06535-13.10185.10385-19.65262.08121a1.536,1.536,0,0,0-1.80923,1.37779c-12.764,46.10735-41.67945,77.42431-86.77622,93.61093-16.74983,6.012-34.18566,7.8195-51.95226,6.60248-30.38362-2.08124-56.84546-13.44727-79.61217-33.46921a127.84144,127.84144,0,0,1-29.67913-38.48013c-.52358-1.03038-.93146-2.11877-1.40785-3.1736-2.0743-4.59294,1.167-11.49117,7.85772-11.09863,3.25676.19108,5.72674,1.12363,7.46292,3.85248,1.44169,2.266,2.93484,4.50388,4.27508,6.82888,16.426,28.49516,40.7747,46.8944,72.55043,54.781,58.49082,14.51725,110.72309-17.646,132.12652-61.85668,2.58318-5.33577,4.45085-11.02021,6.57028-16.57337.66583-1.74456.42506-2.05838-1.45318-2.10425-5.75527-.14068-11.51215-.222-17.26883-.29321C334.53692,296.04452,331.48124,296.0756,328.23981,296.0756Z"/><path class="cls-1" d="M316.45176,278.73746c-.145.491-.2644.99124-.43932,1.4713a6.62,6.62,0,0,1-6.0323,4.42711c-5.813.06655-11.6271.04114-17.44072.0329a18.42832,18.42832,0,0,1-3.51557-.17211,6.71746,6.71746,0,0,1-5.39827-7.19845,6.84551,6.84551,0,0,1,6.18227-6.25795c.34127-.03332.68523-.05465,1.028-.05483q9.19907-.00483,18.39814.00034a6.86718,6.86718,0,0,1,6.85827,4.66146c.13046.38849.2402.784.35954,1.17617Z"/><path class="cls-1" d="M234.14851,258.32263c-.88747.87778-1.74728,1.7227-2.60095,2.57377q-2.37,2.36283-4.73038,4.73535a.69005.69005,0,0,1-.88417.21917,5.22353,5.22353,0,0,0-5.97058,1.18831q-12.69117,12.64945-25.34434,25.337a5.406,5.406,0,0,0-.00765,7.85838q7.12875,7.16831,14.28988,14.30434a5.41467,5.41467,0,0,0,7.907-.02248c8.25516-8.24422,16.47332-16.5258,24.77175-24.72618,2.01207-1.98829,2.97532-4.61735,1.26411-7.54479l7.66552-7.65633a15.15633,15.15633,0,0,1,3.56687,6.8978,15.75875,15.75875,0,0,1-4.28677,15.26283Q237.089,309.5872,224.25436,322.291a16.10638,16.10638,0,0,1-22.78279.056q-7.42577-7.26414-14.69235-14.69051a16.05359,16.05359,0,0,1-.03377-22.6226q12.91524-13.114,26.03388-26.02716A16.12672,16.12672,0,0,1,234.14851,258.32263Z"/><path class="cls-1" d="M259.23557,265.65486l2.57619-2.57707c1.56105-1.56162,3.12776-3.11766,4.67794-4.69a.59625.59625,0,0,1,.87419-.13,5.34091,5.34091,0,0,0,6.59311-.91739q12.657-12.63668,25.29353-25.29385a5.41412,5.41412,0,0,0,.01432-7.90911q-7.10928-7.13993-14.24913-14.2494a5.42328,5.42328,0,0,0-7.95768.035q-12.55242,12.54406-25.09937,25.09359a5.477,5.477,0,0,0-1.35789,6.25777.7378.7378,0,0,1-.11135.64029q-3.60117,3.64608-7.23966,7.25527a1.91,1.91,0,0,1-.24738.17418,15.63352,15.63352,0,0,1-3.53905-8.50667,16.13992,16.13992,0,0,1,4.97942-13.56694q12.499-12.44949,24.95241-24.94467a15.96666,15.96666,0,0,1,12.09562-4.9205,15.2522,15.2522,0,0,1,10.639,4.36758q7.69987,7.53375,15.23662,15.23353a16.06282,16.06282,0,0,1,.00886,22.11187c-4.80159,4.9584-9.74053,9.78382-14.62012,14.66663-3.746,3.74845-7.4761,7.513-11.24594,11.23732a16.19078,16.19078,0,0,1-21.597,1.20953C259.69456,266.05973,259.48931,265.8719,259.23557,265.65486Z"/><path class="cls-1" d="M194.52177,236.2767c3.158,0,6.31831-.07574,9.47336.02078a6.33488,6.33488,0,0,1,6.02975,6.22426,6.45765,6.45765,0,0,1-5.76788,6.63584,11.07384,11.07384,0,0,1-1.11189.06274q-8.674.00579-17.348.00039a6.51637,6.51637,0,0,1-6.654-4.85464,6.405,6.405,0,0,1,5.83541-8.07811c3.17633-.12672,6.36176-.02537,9.54315-.02537Z"/><path class="cls-1" d="M273.52588,315.35321c0,2.97513.03032,5.95064-.00748,8.92529a6.41891,6.41891,0,0,1-6.834,6.57645,6.4946,6.4946,0,0,1-6.04159-5.58111,11.14586,11.14586,0,0,1-.08223-1.25107q-.00792-8.71618-.00084-17.43237a6.473,6.473,0,0,1,12.926-.71929c.09966,3.15776.01994,6.32118.01994,9.48209Z"/><path class="cls-1" d="M220.99606,209.66109c.00064-2.97509-.03029-5.95057.00834-8.92516a6.47056,6.47056,0,1,1,12.94035-.04931q.09921,9.02871.00254,18.05924a6.463,6.463,0,0,1-12.66341,1.89931,8.58,8.58,0,0,1-.27608-2.26817C220.97716,215.472,220.99541,212.56644,220.99606,209.66109Z"/><path class="cls-1" d="M276.78173,285.93011a6.42465,6.42465,0,0,1,4.76941,1.757c4.38669,4.35235,8.78,8.699,13.10283,13.11436a6.36085,6.36085,0,0,1-.14246,9.032,6.44017,6.44017,0,0,1-9.04931.03328q-6.5298-6.43007-12.96191-12.95917a6.46572,6.46572,0,0,1,4.28144-10.97745Z"/><path class="cls-1" d="M221.69106,229.77587a6.35086,6.35086,0,0,1-4.0022,5.92731,6.27682,6.27682,0,0,1-7.12251-1.47259c-3.86753-3.82015-7.69634-7.67952-11.53537-11.52843a20.08137,20.08137,0,0,1-1.80987-1.92693,6.451,6.451,0,0,1,9.52562-8.62431c4.452,4.35148,8.83018,8.77888,13.21339,13.20016A6.03512,6.03512,0,0,1,221.69106,229.77587Z"/><path class="cls-1" d="M249.33944,2.35829C111.949,2.35829.4432,113.73951.4432,251.13.4432,388.52117,111.949,500.0262,249.33944,500.0262c137.39121,0,248.77167-111.505,248.77167-248.89624C498.11111,113.73951,386.73065,2.35829,249.33944,2.35829Zm0,476.2632c-125.6923,0-227.49077-101.79847-227.49077-227.49153,0-125.56773,101.79847-227.3662,227.49077-227.3662,125.56849,0,227.367,101.79847,227.367,227.3662C476.7064,376.823,374.90793,478.62149,249.33944,478.62149Z"/></svg>