<?xml version="1.0" encoding="utf-8"?>
<!-- Generator: Adobe Illustrator 23.0.1, SVG Export Plug-In . SVG Version: 6.00 Build 0)  -->
<svg version="1.1" xmlns="http://www.w3.org/2000/svg" xmlns:xlink="http://www.w3.org/1999/xlink" x="0px" y="0px"
	 viewBox="0 0 500 500" style="enable-background:new 0 0 500 500;" xml:space="preserve">
<style type="text/css">
	.st0{display:none;}
	.st1{display:inline;fill:#00FF5D;}
	.st2{display:inline;fill:#9F0043;}
	.st3{fill:#2B4C67;}
</style>
<g id="Слой_4" class="st0">
	<circle class="st1" cx="250" cy="250" r="136.3"/>
	<circle class="st2" cx="250" cy="250" r="118.6"/>
</g>
<g id="circle">
	<path class="st3" d="M250.1,0C112.1,0,0,111.9,0,249.9C0,388,112.1,500,250.1,500c138,0,249.9-112,249.9-250.1
		C500,111.9,388.1,0,250.1,0z M250.1,478.5c-126.3,0-228.6-102.3-228.6-228.6c0-126.2,102.3-228.4,228.6-228.4
		c126.2,0,228.4,102.3,228.4,228.4C478.5,376.2,376.3,478.5,250.1,478.5z"/>
</g>
<g id="arrow">
	<g>
		<path class="st3" d="M92.3,216.5c1.7-0.3,3.5-0.5,5.2-0.6c6.9-0.1,13.7,0,20.7,0c0.3-0.9,0.5-1.7,0.7-2.5
			c10.2-36.6,32.1-64.3,65.6-83c14.6-8.1,30.6-13.3,47.1-15.4c58.7-7.5,112,21.5,137.9,69.8c1.1,1.9,1.9,4,2.5,6.1
			c1.2,4.6-2.2,8.9-6.9,9.5c-4.1,0.5-7.2-0.8-9.4-4.3c-1.4-2.3-2.9-4.6-4.3-6.9c-17.8-29.6-43.8-48-78-55.3
			c-13-2.8-26.4-3.3-39.7-1.5c-19.3,2.7-37.6,10.1-53.4,21.6c-20.5,14.9-34.8,34.4-42.6,58.3c-1,3.1-1,3.2,2.4,3.3
			c6.4,0.1,12.8,0.2,19.1,0.3c2.1,0,4.3,0.2,6.8,0.3c-0.5,1.1-0.8,2-1.3,2.8c-4.6,7.7-9.1,15.5-13.7,23.2
			c-6.5,10.7-13.1,21.3-19.7,31.9c-0.6,1-1.3,1.9-2.1,3.1c-0.5-0.7-1-1.3-1.4-1.9c-8.9-14.3-17.8-28.7-26.7-43.1
			c-3.1-5.1-6-10.3-9.1-15.4L92.3,216.5z"/>
		<path class="st3" d="M334.5,284.6c0.7-3.6,33.9-59.4,36.4-61.5c12.6,20,24.7,40.2,36.5,61.1c-1.9,0.1-3.4,0.3-4.8,0.4
			c-6.6,0.1-13.1,0.1-19.7,0.1c-0.8-0.2-1.6,0.4-1.8,1.2c0,0,0,0.1,0,0.1c-13.5,47.4-43.5,76.4-84.8,92.6c-16.7,6-36.2,8.8-54,7.6
			c-30.4-2.1-59.8-13.4-82.6-33.5c-11.9-11-22-23.8-30-38.4c-0.5-1-1.2-2.2-1.7-3.2c-2.1-4.6,1.7-11.5,8.4-11.2
			c3.3,0.2,5.7,1.1,7.5,3.9c1.4,2.3,2.9,4.5,4.3,6.8c16.4,28.5,45.6,48.3,75.6,54.8c55.8,13.8,110-17.4,132.1-61.9
			c2.6-5.3,4.5-11,6.6-16.6c0.7-1.7,0.4-2.1-1.5-2.1c-5.8-0.1-11.5-0.2-17.3-0.3C340.8,284.6,337.8,284.6,334.5,284.6z"/>
		<animateTransform attributeType="xml" attributeName="transform" type="rotate" from="360 250 250" to="0 250 250" dur="2s" additive="sum" repeatCount="indefinite" />
	</g>
</g>
<g id="link">
	<path class="st3" d="M319.9,269.6c-0.1,0.5-0.3,1-0.4,1.5c-0.9,2.6-3.3,4.3-6,4.4c-5.8,0.1-11.6,0-17.4,0c-1.2,0.1-2.4,0-3.5-0.2
		c-3.4-0.7-5.7-3.8-5.4-7.2c0.3-3.3,2.9-5.9,6.2-6.3c0.3,0,0.7-0.1,1-0.1c6.1,0,12.3,0,18.4,0c3.1-0.2,5.9,1.7,6.9,4.7
		c0.1,0.4,0.2,0.8,0.4,1.2V269.6z"/>
	<path class="st3" d="M237.6,249.1c-0.9,0.9-1.7,1.7-2.6,2.6c-1.6,1.6-3.2,3.2-4.7,4.7c-0.2,0.3-0.6,0.4-0.9,0.2
		c-2-0.9-4.4-0.4-6,1.2c-8.5,8.4-16.9,16.9-25.3,25.3c-2.2,2-2.3,5.5-0.2,7.6c0.1,0.1,0.1,0.1,0.2,0.2c4.8,4.8,9.5,9.5,14.3,14.3
		c2,2.2,5.5,2.3,7.7,0.2c0.1-0.1,0.2-0.2,0.3-0.3c8.3-8.2,16.5-16.5,24.8-24.7c2-2,3-4.6,1.3-7.5l7.7-7.7c1.8,2,3,4.3,3.6,6.9
		c1.4,5.5-0.2,11.3-4.3,15.3c-8.5,8.6-17,17.1-25.5,25.5c-6.3,6.3-16.5,6.3-22.8,0.1c0,0,0,0,0,0c-5-4.8-9.8-9.7-14.7-14.7
		c-6.2-6.3-6.2-16.4,0-22.6c8.6-8.7,17.3-17.4,26-26C222.1,244.2,231.3,243.9,237.6,249.1z"/>
	<path class="st3" d="M262.7,256.5l2.6-2.6c1.6-1.6,3.1-3.1,4.7-4.7c0.2-0.3,0.6-0.3,0.8-0.2c0,0,0,0,0,0c2.1,1.3,4.9,0.9,6.6-0.9
		c8.4-8.4,16.9-16.9,25.3-25.3c2.2-2,2.3-5.5,0.3-7.7c-0.1-0.1-0.2-0.2-0.3-0.3c-4.7-4.8-9.5-9.5-14.2-14.2c-2-2.2-5.5-2.3-7.7-0.3
		c-0.1,0.1-0.2,0.2-0.3,0.3c-8.4,8.4-16.7,16.7-25.1,25.1c-1.8,1.6-2.3,4.1-1.4,6.3c0.1,0.2,0,0.5-0.1,0.6c-2.4,2.4-4.8,4.8-7.2,7.3
		c-0.1,0.1-0.2,0.1-0.2,0.2c-2-2.4-3.2-5.4-3.5-8.5c-0.6-5.1,1.3-10.1,5-13.6c8.3-8.3,16.7-16.6,25-24.9c3.1-3.3,7.5-5.1,12.1-4.9
		c4,0,7.8,1.6,10.6,4.4c5.1,5,10.2,10.1,15.2,15.2c5.9,6.2,5.9,15.9,0,22.1c-4.8,5-9.7,9.8-14.6,14.7c-3.7,3.7-7.5,7.5-11.2,11.2
		c-5.8,5.9-15.1,6.4-21.6,1.2C263.1,256.9,262.9,256.7,262.7,256.5z"/>
	<path class="st3" d="M198,227.1c3.2,0,6.3-0.1,9.5,0c3.3,0.2,6,2.9,6,6.2c0.1,3.4-2.4,6.3-5.8,6.6c-0.4,0-0.7,0.1-1.1,0.1
		c-5.8,0-11.6,0-17.3,0c-3.1,0.2-5.9-1.9-6.7-4.9c-0.9-3.4,1.1-6.9,4.5-7.9c0.4-0.1,0.9-0.2,1.3-0.2
		C191.6,227,194.8,227.1,198,227.1L198,227.1z"/>
	<path class="st3" d="M277,306.2c0,3,0,6,0,8.9c0.1,3.5-2.7,6.5-6.2,6.6c-0.2,0-0.4,0-0.6,0c-3.1-0.2-5.6-2.5-6-5.6
		c-0.1-0.4-0.1-0.8-0.1-1.3c0-5.8,0-11.6,0-17.4c-0.2-3.6,2.5-6.6,6.1-6.8c3.6-0.2,6.6,2.5,6.8,6.1C277,299.8,276.9,303,277,306.2
		L277,306.2z"/>
	<path class="st3" d="M224.4,200.5c0-3,0-6,0-8.9c-0.1-3.6,2.8-6.5,6.4-6.6c3.6-0.1,6.5,2.8,6.6,6.4c0,0,0,0.1,0,0.1
		c0.1,6,0.1,12,0,18.1c0,3.6-2.8,6.5-6.4,6.5c-2.9,0-5.5-1.9-6.3-4.6c-0.2-0.7-0.3-1.5-0.3-2.3C224.4,206.3,224.4,203.4,224.4,200.5
		z"/>
	<path class="st3" d="M280.2,276.7c1.8-0.1,3.5,0.5,4.8,1.8c4.4,4.4,8.8,8.7,13.1,13.1c2.5,2.5,2.4,6.5-0.1,9c0,0,0,0,0,0
		c-2.5,2.5-6.5,2.5-9,0c-4.4-4.3-8.7-8.6-13-13c-2.5-2.6-2.5-6.6,0.1-9.1C277.2,277.5,278.6,276.8,280.2,276.7L280.2,276.7z"/>
	<path class="st3" d="M225.1,220.6c0,2.6-1.6,5-4,5.9c-2.4,1.1-5.3,0.5-7.1-1.5c-3.9-3.8-7.7-7.7-11.5-11.5
		c-0.6-0.6-1.2-1.2-1.8-1.9c-2.1-2.8-1.6-6.9,1.3-9c2.5-1.9,6-1.7,8.3,0.4c4.5,4.4,8.8,8.8,13.2,13.2
		C224.6,217.3,225.2,218.9,225.1,220.6z"/>
</g>
</svg>
