<svg id="Слой_1" data-name="Слой 1" xmlns="http://www.w3.org/2000/svg" viewBox="0 0 500 500"><defs><style>.cls-1{fill:#69ba55;}</style></defs><path class="cls-1" d="M170.94959,261.19729a35.7989,35.7989,0,0,1,.37854-6.578q.06213-.39679.12391-.79388c1.90567-1.6875,3.52469-3.8967,6.51328-3.61329l6.389-.00541,6.68072-.00562c1.87087.39461,1.72508-.95484,1.8059-2.10832a32.20969,32.20969,0,0,0,2.08768-6.47069c1.3119-2.57579,2.53851-5.20023,3.959-7.71406,1.50687-2.66667,1.437-3.10521-1.48443-4.724l-.66429-.75154a21.40242,21.40242,0,0,0-5.79046-5.81193l-.75471-.77858c-1.42175-1.93722-2.73312-3.91446-2.33742-6.51049a5.43566,5.43566,0,0,1,2.17179-4.08393c3.13367-2.55719,5.53978-5.83176,8.566-8.51537a8.07465,8.07465,0,0,1,5.49627-2.39651,6.67555,6.67555,0,0,1,5.89656,2.71843c2.37524,3.3849,5.96341,5.48111,8.32338,8.78784a1.1739,1.1739,0,0,0,1.8568.26013,65.15087,65.15087,0,0,1,10.01507-5.1214c2.154-.587,4.30559-1.18319,6.464-1.75349.44094-.11651.75575-.16567.75684-.79344.00513-2.95818.08187-5.91624.13319-8.87426q.00835-3.26789.01644-6.536a7.70479,7.70479,0,0,1,5.68075-5.7084c2.38455-.03018,4.77157-.14363,7.1531-.07228,4.25334.12743,8.7315-.87016,12.43394,2.29776.40758,1.334,1.38,2.47083,1.36587,3.9518q.03942,2.99291.07965,5.986-.03036,3.5773-.06075,7.15463c-.37442,1.82477.47716,2.647,2.215,2.87144.98984.12784,1.95708.43248,2.9345.6575q3.2665,1.27778,6.533,2.55551l1.23728.12315c1.22039,1.88091,3.22445,2.38937,5.17849,2.98544.21252.81719.59256.62923,1.01995.17285q1.54137-1.64593,3.08421-3.29043a10.28583,10.28583,0,0,0,2.537-2.6018,17.79129,17.79129,0,0,0,3.96192-3.95963q1.28671-.869,2.57343-1.73788a11.50929,11.50929,0,0,1,6.53068.843,1.46782,1.46782,0,0,0,.95525.90339,38.10208,38.10208,0,0,0,5.57862,5.62627,1.47409,1.47409,0,0,0,.92269.93273c1.48008,2.14745,4.13186,3.48224,4.43017,6.4493.29627,2.46262-.75226,4.52648-1.92469,6.5536a7.76224,7.76224,0,0,0-3.5354,3.56262,5.74271,5.74271,0,0,0-2.992,3.018c-1.0109.174-1.45145,1.09989-2.17352,1.65485-1.38583,1.06506-1.66584,2.22283-.458,3.62289a12.132,12.132,0,0,1,.92764,1.42511q1.51806,3.26421,3.03614,6.52839l1.40993,4.70392q.219.96521.43789,1.93023c.30225,1.697,1.27465,2.3357,2.98856,2.10471a27.787,27.787,0,0,1,3.39713-.06195l6.68053-.00442a14.47579,14.47579,0,0,1,6.45552,1.007,9.77925,9.77925,0,0,1,2.4542,3.91422q.10076,3.02842.19962,6.05639-.00116,3.32562-.00228,6.65126a13.30563,13.30563,0,0,1-1.06183,6.522L328.07,275.75357c-1.92594,1.47639-4.19846,1.20108-6.40116,1.27867l-6.64105-.00331c-1.4409-.01131-2.88182-.01752-4.32263-.036-.75891-.00975-1.46553.04126-1.653.99049-.64716,3.27749-2.18956,6.26155-3.07481,9.46113q-1.56678,3.25447-3.13361,6.50891c-1.26994.96811-1.00969,1.89373.02855,2.86414,1.65252,1.54457,3.73128,2.86693,5.01111,4.48909,1.65437,2.09687,3.66637,3.81092,5.29086,5.88913.64889.83012,1.27064.73389,1.89848-.01268a12.303,12.303,0,0,1-.10053,2.60567c-.3094,1.24567.225,2.79075-.69554,3.73039-3.96761,4.0501-8.1119,7.92576-12.06621,11.98842a4.49793,4.49793,0,0,1-3.00185,1.397,7.2125,7.2125,0,0,1-6.58007-2.5354c-1.10745-1.2371-2.37647-2.3282-3.573-3.48483q-.42774-.29205-.85636-.58412c-1.31577-2.20388-3.38977-3.6967-5.13139-5.49975-.20873-.21609-.53748-.05235-.72882.21011a42.34587,42.34587,0,0,0-6.452,3.50131,11.86542,11.86542,0,0,0-4.37433,1.78775q-1.0776.37807-2.15526.75719c-5.331.79429-5.331.79429-5.09315,5.69671a40.99592,40.99592,0,0,0-.00926,6.785c-.1938,2.13106.21643,4.31068-.50962,6.399-.264.60834-.95343.99116-.922,1.7561a10.15166,10.15166,0,0,1-6.51918,2.24887q-3.28026-.00173-6.56051-.00347l-6.53593-.02174a8.6799,8.6799,0,0,1-5.23184-3.94819,23.91105,23.91105,0,0,1-.4212-4.948c.04092-3.68858.03236-7.37815-.00682-11.06679-.00734-.69221.44913-1.69966-.82418-1.874q-3.25335-.91092-6.50638-1.82143c-.14507-.03311-.29014-.0662-.43546-.09837a16.0827,16.0827,0,0,0-6.03142-2.55312c-.42512-1.0937-1.5566-1.21682-2.39632-1.71767-2.562-1.52812-2.76618-1.44849-4.40179,1.27343a5.93317,5.93317,0,0,0-2.96247,3.0238,7.7125,7.7125,0,0,0-3.55319,3.552c-1.2565.86672-2.79261,1.41129-3.42305,2.99936q-1.4459.11792-2.89179.23579-1.17635-.06146-2.35188-.12286-2.13779-1.56042-4.27715-3.12105a21.50119,21.50119,0,0,0-3.39177-3.42938,7.815,7.815,0,0,0-3.137-3.17439l-2.65558-3.42418a8.93312,8.93312,0,0,1,.41379-6.52622q1.12-1.27425,2.24-2.549a19.99833,19.99833,0,0,0,3.92365-4.02022,9.09733,9.09733,0,0,0,2.60636-2.61281q1.0062-.79985,2.01214-1.60007c.50763-.40563.8151-.9703.32472-1.47812-2.05033-2.12322-2.41983-5.146-4.05348-7.4825q-1.13292-3.29055-2.26585-6.58108c-.1948-.82073-.43028-1.63435-.57442-2.464-.19533-1.12433-.77231-1.618-1.91241-1.34771l-6.65023-.00543q-3.20985-.00009-6.41971-.00015c-5.10012-.54566-7.03886-3.09689-7.002-9.214Q170.95043,264.50936,170.94959,261.19729Zm78.74086,43.27088c2.24787.34932,4.43906-.226,6.65415-.41175,2.01382-.11626,4.217-.21469,5.80336-1.29453a15.65509,15.65509,0,0,1,6.06373-2.18587,1.82581,1.82581,0,0,0,1.22739-.80033c3.71507-.99283,6.10883-3.97542,9.00333-6.169a27.22218,27.22218,0,0,0,4.79-5.40177,28.13588,28.13588,0,0,0,4.425-7.267c1.68593-4.25231,3.62743-8.43531,3.537-13.16932.78634-2.16609.22783-4.39778.31869-6.59779.21486-3.56954-1.079-6.83833-2.152-10.11927-.33459-1.023.12284-2.44359-1.20747-3.08564a13.098,13.098,0,0,0-3.14793-6.43455,6.94057,6.94057,0,0,0-2.58919-3.49071,7.28327,7.28327,0,0,0-2.64959-3.07659,10.81187,10.81187,0,0,0-3.88163-3.48579c-3.69673-3.59417-8.36391-5.3498-13.09707-6.98033-2.13464-.55826-4.223-1.34528-6.47528-1.32173-2.16651-.74328-4.398-.418-6.61045-.4059a18.094,18.094,0,0,0-6.48757.81531,23.57049,23.57049,0,0,0-6.55829,1.79012,14.80872,14.80872,0,0,0-6.04969,3.02455l-.5324.08746c-.4355.25378-.8877.48277-1.3037.76552a68.96211,68.96211,0,0,0-5.95266,5.14331,31.82076,31.82076,0,0,0-9.32957,13.734,15.295,15.295,0,0,0-2.0733,6.50016c-1.01842,2.09606-.77218,4.37941-.96764,6.59735a12.39869,12.39869,0,0,0,.09924,6.55631,20.63462,20.63462,0,0,0,1.28647,6.62023,15.73213,15.73213,0,0,0,2.50262,6.50935,14.14163,14.14163,0,0,0,2.35439,4.76094q.80294,1.13553,1.60587,2.27108a24.70443,24.70443,0,0,0,5.33175,5.7168l.44736.37974a15.16456,15.16456,0,0,0,6.08521,4.44925c3.85661,3.01908,8.3927,4.294,13.09189,5.14994A13.92869,13.92869,0,0,0,249.69045,304.46817Z"/><path class="cls-1" d="M249.69052,4.11691C112.30007,4.11691.79428,115.49813.79428,252.88858c0,137.39121,111.50579,248.89624,248.89624,248.89624,137.39121,0,248.77167-111.505,248.77167-248.89624C498.46219,115.49813,387.08173,4.11691,249.69052,4.11691Zm0,476.2632c-125.6923,0-227.49077-101.79847-227.49077-227.49153,0-125.56773,101.79847-227.3662,227.49077-227.3662,125.56849,0,227.367,101.79847,227.367,227.3662C477.05748,378.58164,375.259,480.38011,249.69052,480.38011Z"/><path class="cls-1" d="M247.25478,403.95275c-3.21588-.21733-6.43466-.39875-9.64719-.65769a140.68755,140.68755,0,0,1-64.06939-21.14052,143.13592,143.13592,0,0,1-50.89353-54.3105c-.246-.45541-.47444-.92094-.69188-1.39062-.04075-.088.01-.21833.03523-.545a70.49209,70.49209,0,0,0,8.90654-.07277c4.12678-.52859,6.30036,1.08282,8.54787,4.59848,16.115,25.20786,38.40252,42.8685,66.58442,52.92358a127.714,127.714,0,0,0,55.36018,6.81748,130.58543,130.58543,0,0,0,111.38634-87.35862,133.04968,133.04968,0,0,0,6.37266-28.45366c.0315-.27754.004-.56176.004-1.026H353.75256c11.0523-13.27424,21.79578-26.17762,32.66826-39.23589C397.259,247.115,407.98986,260.00016,419,273.22063H392.50489c-.61779,4.16822-1.10808,8.10756-1.79545,12.0122a140.20741,140.20741,0,0,1-32.14565,68.1402q-32.385,37.74831-81.24454,47.64842c-7.26033,1.46014-14.748,1.7912-22.13166,2.63573-1.02581.11735-2.05583.19795-3.08389.29557Z"/><path class="cls-1" d="M251.411,116.48117c3.21681.217,6.43654.39766,9.65.65666a141.258,141.258,0,0,1,69.56835,24.72172,142.75113,142.75113,0,0,1,37.80593,38.11879c.31337.46278.59114.94968,1.07537,1.73214-1.98393,0-3.6822,0-5.3805,0-2.88566,0-5.77422-.07648-8.65569.03331a3.2881,3.2881,0,0,1-3.01113-1.49937A130.17323,130.17323,0,0,0,237.18,130.276,130.52027,130.52027,0,0,0,121.97518,231.32039c-.19018.8306-.32039,1.67491-.51926,2.72828H144.9155L112.25181,273.27c-10.848-13.02177-21.57239-25.89514-32.51715-39.033.93035-.0487,1.53093-.10705,2.13156-.1075,8.13753-.00608,16.27521-.02786,24.41246.0202,1.28951.00761,1.851-.25135,2.16442-1.6849q15.88548-72.6651,83.46141-103.81827a134.70607,134.70607,0,0,1,52.44184-11.914,17.93391,17.93391,0,0,0,1.86938-.25133Z"/></svg>
