<?xml version="1.0" encoding="utf-8"?>
<!-- Generator: Adobe Illustrator 23.0.1, SVG Export Plug-In . SVG Version: 6.00 Build 0)  -->
<svg version="1.1" id="Слой_1" xmlns="http://www.w3.org/2000/svg" xmlns:xlink="http://www.w3.org/1999/xlink" x="0px" y="0px"
	 viewBox="0 0 40 40" style="enable-background:new 0 0 40 40;" xml:space="preserve">
<style type="text/css">
	.st0{fill:#FFFFFF;}
	.st1{fill:#1D472A;}
	.st2{fill-rule:evenodd;clip-rule:evenodd;fill:#DE981A;}
	.st3{fill:#DE981A;}
	.st4{fill:none;stroke:#659558;stroke-miterlimit:10;}
	.st5{fill:#B45092;}
	.st6{fill-rule:evenodd;clip-rule:evenodd;fill:#B45092;}
	.st7{fill:#0091C8;}
	.st8{fill:#659558;}
	.st9{fill:#639263;}
	.st10{opacity:0.1;clip-path:url(#SVGID_2_);fill:url(#SVGID_3_);}
	.st11{opacity:0.24;clip-path:url(#SVGID_2_);}
	.st12{opacity:0.24;}
	.st13{opacity:0.31;clip-path:url(#SVGID_5_);}
	.st14{opacity:0.31;}
	.st15{clip-path:url(#SVGID_7_);fill:#C2DBCB;}
	.st16{clip-path:url(#SVGID_7_);}
	.st17{fill:#C9E2F2;}
	.st18{opacity:0.67;clip-path:url(#SVGID_5_);}
	.st19{fill:none;}
	.st20{opacity:0.65;fill:#B8D5BC;}
	.st21{clip-path:url(#SVGID_5_);fill:none;}
	.st22{clip-path:url(#SVGID_2_);fill:#FFFFFF;stroke:#639263;stroke-miterlimit:10;}
	.st23{clip-path:url(#SVGID_2_);fill:none;}
	.st24{clip-path:url(#SVGID_2_);}
	.st25{clip-path:url(#SVGID_2_);fill:none;stroke:#608D61;stroke-miterlimit:10;}
	.st26{opacity:0.91;}
	.st27{opacity:0.68;}
	.st28{fill-rule:evenodd;clip-rule:evenodd;fill:#FFFFFF;}
	.st29{fill-rule:evenodd;clip-rule:evenodd;fill:#639263;}
	.st30{opacity:0.1;clip-path:url(#SVGID_9_);fill:url(#SVGID_10_);}
	.st31{opacity:0.24;clip-path:url(#SVGID_9_);}
	.st32{opacity:0.31;clip-path:url(#SVGID_12_);}
	.st33{clip-path:url(#SVGID_14_);fill:#C2DBCB;}
	.st34{clip-path:url(#SVGID_14_);}
	.st35{opacity:0.67;clip-path:url(#SVGID_12_);}
	.st36{clip-path:url(#SVGID_12_);fill:none;}
	.st37{clip-path:url(#SVGID_9_);fill:#FFFFFF;stroke:#639263;stroke-miterlimit:10;}
	.st38{clip-path:url(#SVGID_9_);fill:none;}
	.st39{clip-path:url(#SVGID_9_);}
	.st40{clip-path:url(#SVGID_9_);fill:none;stroke:#608D61;stroke-miterlimit:10;}
	.st41{fill:none;stroke:#638F56;stroke-miterlimit:10;}
	.st42{fill-rule:evenodd;clip-rule:evenodd;fill:#0091C8;}
	.st43{opacity:0.6;}
	.st44{opacity:0.1;clip-path:url(#SVGID_16_);fill:url(#SVGID_17_);stroke:url(#SVGID_18_);stroke-miterlimit:10;}
	.st45{opacity:0.24;clip-path:url(#SVGID_16_);}
	.st46{opacity:0.31;clip-path:url(#SVGID_20_);}
	.st47{clip-path:url(#SVGID_22_);fill:#C2DBCB;}
	.st48{clip-path:url(#SVGID_22_);}
	.st49{opacity:0.67;clip-path:url(#SVGID_20_);}
	.st50{clip-path:url(#SVGID_20_);fill:none;}
	.st51{opacity:0.31;clip-path:url(#SVGID_24_);}
	.st52{clip-path:url(#SVGID_26_);fill:#C2DBCB;}
	.st53{clip-path:url(#SVGID_26_);}
	.st54{opacity:0.67;clip-path:url(#SVGID_24_);}
	.st55{clip-path:url(#SVGID_24_);fill:none;}
	.st56{opacity:0.31;clip-path:url(#SVGID_28_);}
	.st57{clip-path:url(#SVGID_30_);fill:#C2DBCB;}
	.st58{clip-path:url(#SVGID_30_);}
	.st59{opacity:0.67;clip-path:url(#SVGID_28_);}
	.st60{clip-path:url(#SVGID_28_);fill:none;}
	.st61{opacity:0.31;clip-path:url(#SVGID_32_);}
	.st62{clip-path:url(#SVGID_34_);fill:#C2DBCB;}
	.st63{clip-path:url(#SVGID_34_);}
	.st64{opacity:0.67;clip-path:url(#SVGID_32_);}
	.st65{clip-path:url(#SVGID_32_);fill:none;}
	.st66{clip-path:url(#SVGID_16_);fill:none;}
	.st67{fill:#638F56;}
	.st68{opacity:0.1;clip-path:url(#SVGID_36_);fill:url(#SVGID_37_);stroke:url(#SVGID_38_);stroke-miterlimit:10;}
	.st69{opacity:0.24;clip-path:url(#SVGID_36_);}
	.st70{opacity:0.31;clip-path:url(#SVGID_40_);}
	.st71{clip-path:url(#SVGID_42_);fill:#C2DBCB;}
	.st72{clip-path:url(#SVGID_42_);}
	.st73{opacity:0.67;clip-path:url(#SVGID_40_);}
	.st74{clip-path:url(#SVGID_40_);fill:none;}
	.st75{opacity:0.31;clip-path:url(#SVGID_44_);}
	.st76{clip-path:url(#SVGID_46_);fill:#C2DBCB;}
	.st77{clip-path:url(#SVGID_46_);}
	.st78{opacity:0.67;clip-path:url(#SVGID_44_);}
	.st79{clip-path:url(#SVGID_44_);fill:none;}
	.st80{opacity:0.31;clip-path:url(#SVGID_48_);}
	.st81{clip-path:url(#SVGID_50_);fill:#C2DBCB;}
	.st82{clip-path:url(#SVGID_50_);}
	.st83{opacity:0.67;clip-path:url(#SVGID_48_);}
	.st84{clip-path:url(#SVGID_48_);fill:none;}
	.st85{opacity:0.31;clip-path:url(#SVGID_52_);}
	.st86{clip-path:url(#SVGID_54_);fill:#C2DBCB;}
	.st87{clip-path:url(#SVGID_54_);}
	.st88{opacity:0.67;clip-path:url(#SVGID_52_);}
	.st89{clip-path:url(#SVGID_52_);fill:none;}
	.st90{clip-path:url(#SVGID_36_);fill:none;}
	.st91{opacity:0.1;clip-path:url(#SVGID_56_);fill:url(#SVGID_57_);}
	.st92{opacity:0.24;clip-path:url(#SVGID_56_);}
	.st93{opacity:0.31;clip-path:url(#SVGID_59_);}
	.st94{clip-path:url(#SVGID_61_);fill:#C2DBCB;}
	.st95{clip-path:url(#SVGID_61_);}
	.st96{opacity:0.67;clip-path:url(#SVGID_59_);}
	.st97{clip-path:url(#SVGID_59_);fill:none;}
	.st98{clip-path:url(#SVGID_56_);fill:#FFFFFF;stroke:#639263;stroke-miterlimit:10;}
	.st99{clip-path:url(#SVGID_56_);fill:none;}
	.st100{clip-path:url(#SVGID_56_);}
	.st101{clip-path:url(#SVGID_56_);fill:none;stroke:#608D61;stroke-miterlimit:10;}
	.st102{fill:#5F9999;}
</style>
<g>
	<path class="st7" d="M39.8,13c0-0.3,0-0.7-0.3-1c-0.2-0.2-0.5-0.2-0.7-0.2c-1.5-0.1-2.9-0.3-4.4-0.4c0.5-1-0.1-2.2-0.7-3.1
		c-0.5-0.7-1-1.4-1.6-2.1c-1.2-1.5-2.5-2.8-3.9-4.1c-0.3-0.3-0.7-0.7-1.1-0.9C26.7,0.9,26.2,1,25.8,1c-1.1,0-2.1,0-3.2,0
		c-4.2,0-8.5-0.1-12.7-0.1c-0.3,0-0.6,0-0.8,0.2C8.9,1.4,8.9,1.6,8.9,1.9c0,7.4-0.1,14.9-0.1,22.3c-2.3,0.1-4.7,0.1-7,0.2
		c-0.3,0-0.7,0-0.9,0.3c0,0,0,0,0,0c-0.1,0.2-0.1,0.4-0.1,0.7c0,4.5,0.1,9,0.1,13.5c9,0.2,18.1,0.3,27.1,0.1c0.2,0,0.5,0,0.7-0.2
		c0.2-0.2,0.2-0.4,0.2-0.7c0.1-0.9,0.2-1.8,0.3-2.7c1.5-0.1,3-0.2,4.5-0.3c0.2,0,0.4,0,0.5-0.2c0.1-0.1,0.1-0.4,0.1-0.6
		c0-4.9,0.1-9.8,0.1-14.7c1.5-0.1,2.9-0.3,4.4-0.4c0.3,0,0.6-0.1,0.8-0.2c0.3-0.2,0.3-0.7,0.3-1.1C39.8,16.4,39.8,14.7,39.8,13z
		 M27.4,2.9c1.7,1.7,3.3,3.3,4.9,5c-1.6,0-3.2,0-4.9,0C27.4,6.2,27.4,4.5,27.4,2.9z M27.9,38.1c-8.7,0-17.4,0-26.1,0
		c0-4-0.1-8-0.1-12c0-0.2,0-0.5,0.2-0.6c0.1-0.1,0.4-0.1,0.5-0.1c0.6,0,1.3,0,1.9,0c4.3,0,8.6,0,12.8,0c2.1,0,4.3,0,6.4,0
		c1.1,0,2.1,0,3.2,0c0.4,0,0.7,0.1,0.8,0.3c0.2,0.2,0.3,0.6,0.3,1.2C27.9,30.6,27.9,34.3,27.9,38.1z M33.2,34.1
		c-1.4,0-2.7,0-4.1,0.1c-0.1-3-0.2-6-0.3-9c0-0.2,0-0.4-0.1-0.5c-0.2-0.2-0.4-0.2-0.7-0.2c-6,0-12.1-0.1-18.1-0.1
		c0-7.4,0-14.8-0.1-22.2c4.9-0.2,9.8-0.3,14.7-0.5c0.3,0,0.7,0,1,0.1c0.4,0.2,0.7,0.7,0.8,1.2c0.5,1.6-0.1,3.3,0,5
		c0,0.2,0.1,0.4,0.2,0.6c0.2,0.2,0.5,0.2,0.7,0.2c1.4,0.1,2.8,0.1,4.2,0.2c0.5,0,1.1-0.1,1.4,0.2c0.1,0,0.1,0.1,0.1,0.2
		c0.2,0.5,0,1.5,0,2c-1.9,0.1-3.8,0.3-5.6,0.4c-0.2,0-0.4,0-0.5,0.1c-0.2,0.2-0.2,0.5-0.2,0.7c0,1.9,0,3.9,0,5.8
		c0,0.2,0,0.4,0.1,0.6c0.2,0.3,0.6,0.3,0.9,0.3c1.9,0.1,3.7,0.3,5.6,0.4C33.2,24.6,33.2,29.3,33.2,34.1z M38,18.6
		c-1.6,0-3.2,0-4.9,0c-1.6,0-3.2,0-4.9,0c-0.6,0-0.8-0.2-0.8-0.8c0-1.5,0-3.1,0-4.6c0-0.5,0.2-0.7,0.7-0.7c3.3,0,6.7,0,10,0
		c0.5,0,0.7,0.2,0.7,0.7c0,1.6,0,3.2,0,4.8C38.9,18.6,38.5,18.6,38,18.6z"/>
	<path class="st7" d="M0.9,23.3c0.3,0.5,0.9,0.6,1.5,0.6c0.2,0,0.4,0,0.6-0.1c0.3-0.2,0.4-0.6,0.4-1c0.1-1.7,0.1-3.4,0.2-5.1
		c0.1-2.3,0.1-4.6,0-7c0-1.6-0.1-3.3-0.5-4.8C2.9,5.4,1.7,2.7,1.2,4.4C1.1,5.1,1,5.8,0.9,6.6C0.8,7.5,0.8,8.4,0.7,9.4
		c-0.1,2.2,0,4.5,0,6.8c0,2.1,0,4.3,0.1,6.4C0.8,22.8,0.8,23.1,0.9,23.3z M2.5,7.5c0,5.1,0,10.2,0,15.3c-0.7,0.1-0.8,0.1-0.8-0.5
		c0-4.7,0-9.5,0-14.2C1.7,7.5,1.8,7.2,2.5,7.5z"/>
	<path class="st7" d="M5.6,23.3c0.1,0.3,0.4,0.6,0.7,0.4c0.1-0.1,0.2-0.2,0.2-0.3c0.6-1.5,0.8-3.1,0.9-4.7c0.1-2.3,0.1-4.6,0.1-6.8
		c0-2.4,0-4.7,0-7.1c0-0.6-0.1-1.4-0.7-1.6c-0.6-0.2-1.5,0-1.8,0.6C4.8,4,4.8,4.3,4.8,4.6c0,2.5-0.1,5-0.1,7.5c0,0.8,0,1.6,0,2.4
		c0,1.9,0,3.9,0.2,5.8C5,21.3,5.2,22.3,5.6,23.3z M6.4,4.3c0,5.1,0,10.2,0,15.3c-0.8,0.1-0.8,0.1-0.8-0.6c0-4.7,0-9.4,0-14.1
		C5.6,4.4,5.7,4,6.4,4.3z"/>
	<path class="st7" d="M22.2,33.7c-0.8,0-1.6,0-2.3,0c-0.2,0-0.5,0.3-0.7,0.4c0.2,0.2,0.5,0.5,0.7,0.5c1.5,0,3,0,4.5,0
		c0.2,0,0.5-0.3,0.7-0.4c-0.2-0.2-0.5-0.5-0.7-0.5C23.6,33.7,22.9,33.7,22.2,33.7z"/>
	<path class="st7" d="M22.1,29.8c0.8,0,1.6,0,2.3,0c0.2,0,0.4-0.3,0.6-0.4c-0.2-0.2-0.4-0.5-0.6-0.5c-1.6,0-3.2,0-4.8,0
		c-0.2,0-0.4,0.3-0.6,0.5c0.2,0.1,0.4,0.4,0.6,0.4C20.5,29.9,21.3,29.8,22.1,29.8z"/>
	<path class="st7" d="M22.1,32.3c0.8,0,1.6,0,2.4,0c0.2,0,0.4-0.3,0.6-0.5c-0.2-0.1-0.4-0.4-0.5-0.4c-1.6,0-3.2,0-4.8,0
		c-0.2,0-0.4,0.3-0.6,0.4c0.2,0.2,0.4,0.4,0.7,0.4C20.6,32.3,21.3,32.3,22.1,32.3z"/>
	<path class="st7" d="M34.2,15.2c0.5,0.1,1,0,1.5,0c0.5,0,1,0.1,1.5,0c0.2,0,0.4-0.3,0.6-0.5c-0.2-0.2-0.4-0.5-0.6-0.5
		c-1-0.1-2,0-2.9,0c-0.2,0-0.4,0.3-0.6,0.4C33.8,14.9,34,15.2,34.2,15.2z"/>
	<path class="st7" d="M37.2,16c-1,0-2,0-3,0c-0.2,0-0.4,0.3-0.5,0.5c0.2,0.1,0.4,0.4,0.5,0.4c0.5,0.1,1,0,1.5,0c0.5,0,1,0,1.6,0
		c0.2,0,0.4-0.3,0.5-0.4C37.5,16.2,37.4,16,37.2,16z"/>
	<path class="st7" d="M31.5,16.6c-0.1,0.2-0.3,0.3-0.5,0.4c-0.1,0-0.4,0.1-0.6,0.2c-0.2,0.2-0.3,0.4-0.3,0.6c0,0.2,0.2,0.5,0.5,0.5
		c0.2,0,0.4,0,0.7-0.2c0.2-0.1,0.3-0.3,0.4-0.5c0.1-0.2,0.2-0.4,0.2-0.7c0-0.4-0.2-0.7-0.2-0.7S31.6,16.4,31.5,16.6z"/>
	<path class="st7" d="M29.6,17.2c0-0.2,0.1-0.3,0.2-0.5c0.3-0.4,0-0.6,0-0.7c0,0-0.1-0.2-0.2-0.3c-0.1-0.2-0.2-0.3-0.2-0.4
		c-0.1,0.2-0.3,0.4-0.4,0.6c-0.1,0.3-0.2,0.6-0.2,0.9c0,0.2,0,0.4,0.1,0.6c0.1,0.2,0.2,0.4,0.5,0.6c0.1,0.1,0.4,0.2,0.6,0.3
		c-0.1-0.2-0.2-0.4-0.3-0.5C29.6,17.6,29.5,17.4,29.6,17.2z"/>
	<path class="st7" d="M29.7,15.6c0.1,0.1,0.2,0.2,0.2,0.3c0,0,0.1,0.1,0.2,0.3c0,0.1,0,0.3-0.1,0.4c0,0,0.3-0.3,0.4-0.6
		c0.1-0.2,0.1-0.4,0.1-0.5c-0.1-0.2-0.3-0.3-0.4-0.5c-0.2-0.3-0.4-0.6-0.1-1.1c0,0-0.3,0.2-0.4,0.5c-0.1,0.2-0.1,0.4,0,0.7
		C29.5,15.3,29.6,15.5,29.7,15.6z"/>
	<path class="st7" d="M29.9,17.5c0.1-0.3,0.3-0.5,0.8-0.6c0.3-0.1,0.5-0.1,0.6-0.3c0.1-0.2,0.2-0.3,0.2-0.5c0-0.4-0.4-0.9-0.4-0.9
		c0,0.2,0,0.4,0,0.5c-0.1,0.3-0.2,0.5-0.5,0.7c-0.2,0.1-0.4,0.3-0.6,0.4c-0.3,0.2-0.3,0.5-0.3,0.7c0,0.3,0.3,0.6,0.3,0.6
		s0-0.2-0.1-0.3C29.9,17.7,29.9,17.6,29.9,17.5z"/>
	<path class="st7" d="M30.6,14c-0.1,0.1-0.3,0.3-0.3,0.5c0,0.1,0,0.2,0,0.3c0,0.1,0.1,0.4,0.2,0.5c0,0.1,0.1,0.2,0.1,0.4
		c0,0.1,0,0.3-0.1,0.5c-0.1,0.1-0.2,0.3-0.3,0.4c0,0,1.1-0.7,0.8-1.5c-0.1-0.3-0.2-0.5-0.2-0.7c0-0.3,0.1-0.5,0.3-0.6
		C31,13.8,30.8,13.8,30.6,14z"/>
	<path class="st7" d="M30,14.9c0.1,0.1,0.4,0.5,0.4,0.5s-0.1-0.1-0.1-0.2c0,0,0-0.1-0.1-0.2c0-0.2-0.1-0.3,0-0.5
		c0-0.1,0.1-0.3,0.2-0.4c0.2-0.2,0.2-0.3,0.3-0.5c0-0.1,0-0.2,0-0.3c0-0.2-0.1-0.4-0.1-0.4s0,0.2-0.1,0.6c-0.1,0.1-0.2,0.2-0.3,0.4
		c-0.2,0.3-0.3,0.5-0.4,0.7C29.9,14.6,29.9,14.7,30,14.9z"/>
	<path class="st7" d="M10.4,33.4c-0.3,0.4-0.6,0.6-1.1,0.7C9,34.2,8.4,34.3,8,34.5c-0.5,0.3-0.6,0.8-0.6,1.2c0.1,0.5,0.5,0.9,1,1
		c0.4,0.1,0.9-0.1,1.4-0.5c0.3-0.3,0.6-0.6,0.8-1c0.2-0.4,0.3-0.9,0.3-1.4c0-0.8-0.3-1.4-0.3-1.4S10.7,33,10.4,33.4z"/>
	<path class="st7" d="M6.5,34.7c0.1-0.3,0.2-0.7,0.5-1.1c0.6-0.8,0.1-1.3,0-1.4c-0.1-0.1-0.3-0.3-0.5-0.6C6.1,31.3,6,31.1,6,30.9
		c-0.3,0.4-0.5,0.8-0.7,1.2c-0.3,0.6-0.5,1.2-0.5,1.8c0,0.4,0.1,0.8,0.2,1.1c0.2,0.5,0.5,0.9,1,1.3c0.3,0.2,0.8,0.5,1.2,0.6
		c-0.2-0.4-0.4-0.7-0.6-1.1C6.5,35.5,6.4,35.1,6.5,34.7z"/>
	<path class="st7" d="M6.7,31.5c0.1,0.2,0.3,0.4,0.5,0.6c0,0,0.3,0.3,0.3,0.7c0,0.2,0,0.5-0.3,0.8c0,0,0.5-0.5,0.8-1.1
		c0.2-0.4,0.3-0.8,0.1-1.1c-0.2-0.3-0.5-0.6-0.9-1c-0.5-0.6-0.9-1.2-0.2-2.2c0,0-0.6,0.4-0.8,1c-0.2,0.4-0.2,0.9,0,1.4
		C6.3,30.9,6.4,31.2,6.7,31.5z"/>
	<path class="st7" d="M7.3,29.9C7.4,30.2,8,30.8,8,30.8s-0.1-0.2-0.2-0.4c0-0.1-0.1-0.2-0.2-0.4c-0.1-0.3-0.1-0.7,0-1.1
		c0.1-0.3,0.2-0.6,0.5-0.8c0.3-0.4,0.4-0.6,0.5-1c0.1-0.2,0.1-0.4,0.1-0.6c0-0.5-0.1-0.8-0.1-0.8s0.1,0.5-0.3,1.1
		c-0.1,0.3-0.3,0.5-0.6,0.8c-0.5,0.5-0.7,1-0.7,1.3C7,29.3,7.1,29.6,7.3,29.9z"/>
	<path class="st7" d="M9.4,27.7c0,0-0.5,0.1-0.9,0.4c-0.3,0.2-0.6,0.5-0.7,1c0,0.2,0,0.4,0,0.7c0.1,0.3,0.3,0.8,0.4,1
		c0.1,0.1,0.2,0.5,0.2,0.8c0,0.3,0,0.6-0.2,0.9c-0.1,0.3-0.3,0.6-0.6,0.9c0,0,2.3-1.4,1.6-3C9,29.8,8.9,29.3,8.8,29
		C8.8,28.4,9.1,28,9.4,27.7z"/>
	<path class="st7" d="M7.2,35.2c0.1-0.5,0.6-1,1.6-1.2c0.5-0.1,1-0.2,1.3-0.6c0.3-0.3,0.3-0.6,0.3-0.9c0-0.9-0.8-1.8-0.8-1.8
		c0.1,0.4,0,0.8-0.1,1.1c-0.2,0.5-0.5,0.9-1,1.4c-0.3,0.3-0.8,0.5-1.1,0.8c-0.6,0.4-0.7,0.9-0.6,1.4c0.1,0.6,0.5,1.2,0.5,1.2
		S7.2,36,7.1,35.8C7.1,35.6,7.1,35.4,7.2,35.2z"/>
	<path class="st7" d="M17.6,11.6c-0.3,0.4-0.7,0.7-1.2,0.8c-0.3,0.1-1,0.2-1.4,0.5c-0.5,0.4-0.7,0.9-0.6,1.4c0.1,0.5,0.5,1,1.1,1.1
		c0.4,0.1,1-0.1,1.6-0.5c0.4-0.3,0.7-0.6,0.9-1.1c0.2-0.4,0.4-1,0.4-1.5c0-0.9-0.3-1.6-0.3-1.6S17.9,11.2,17.6,11.6z"/>
	<path class="st7" d="M13.2,13.1c0.1-0.4,0.2-0.7,0.6-1.2c0.7-0.9,0.1-1.4,0-1.5c-0.1-0.1-0.3-0.3-0.6-0.7c-0.3-0.4-0.4-0.7-0.5-0.9
		c-0.3,0.4-0.6,0.9-0.8,1.3c-0.3,0.6-0.5,1.3-0.5,2c0,0.5,0.1,0.9,0.3,1.3c0.2,0.5,0.6,1,1.1,1.4c0.3,0.3,0.9,0.5,1.3,0.6
		c-0.2-0.4-0.5-0.8-0.6-1.2C13.3,13.9,13.2,13.6,13.2,13.1z"/>
	<path class="st7" d="M16.6,5.3c0,0-0.5,0.1-1,0.4c-0.3,0.2-0.7,0.6-0.8,1.1c0,0.2,0,0.5,0,0.8c0.1,0.3,0.3,0.9,0.4,1.1
		s0.3,0.5,0.3,0.9c0,0.3,0,0.6-0.2,1c-0.1,0.3-0.4,0.6-0.7,1c0,0,2.5-1.6,1.8-3.3c-0.3-0.7-0.4-1.2-0.5-1.6
		C15.9,6.1,16.1,5.7,16.6,5.3z"/>
	<path class="st7" d="M14,13.6c0.1-0.6,0.7-1.1,1.8-1.3c0.6-0.1,1.1-0.3,1.4-0.7c0.3-0.4,0.4-0.7,0.4-1c0-1-0.9-2-0.9-2
		c0.1,0.5,0,0.9-0.1,1.2c-0.2,0.6-0.5,1-1.1,1.5c-0.4,0.3-0.8,0.6-1.3,0.9c-0.6,0.5-0.7,1-0.6,1.6c0.1,0.6,0.6,1.3,0.6,1.3
		S14,14.6,14,14.4C14,14.1,14,13.8,14,13.6z"/>
	<path class="st7" d="M14.2,7.7c0.2,0.3,0.8,1,0.8,1s-0.1-0.2-0.2-0.4c0-0.1-0.1-0.2-0.2-0.5c-0.1-0.3-0.2-0.8,0-1.2
		c0.1-0.3,0.3-0.6,0.5-0.9c0.4-0.4,0.5-0.7,0.6-1.1c0.1-0.2,0.1-0.5,0.1-0.7c0-0.5-0.2-0.9-0.2-0.9s0.1,0.5-0.3,1.3
		c-0.1,0.3-0.4,0.5-0.6,0.8c-0.5,0.6-0.7,1.1-0.8,1.5C13.9,7.1,14,7.4,14.2,7.7z"/>
	<path class="st7" d="M13.5,9.5c0.2,0.2,0.4,0.4,0.6,0.7c0,0,0.3,0.3,0.4,0.7c0,0.3-0.1,0.6-0.3,0.9c0,0,0.6-0.6,0.9-1.3
		c0.2-0.4,0.3-0.9,0.2-1.2c-0.2-0.4-0.6-0.7-1-1.1c-0.6-0.6-1-1.4-0.2-2.4c0,0-0.6,0.4-0.9,1.2c-0.2,0.4-0.2,1,0,1.6
		C13.1,8.8,13.2,9.2,13.5,9.5z"/>
</g>
</svg>
