<?xml version="1.0" encoding="utf-8"?>
<!-- Generator: Adobe Illustrator 23.0.1, SVG Export Plug-In . SVG Version: 6.00 Build 0)  -->
<svg version="1.1" id="Слой_1" xmlns="http://www.w3.org/2000/svg" xmlns:xlink="http://www.w3.org/1999/xlink" x="0px" y="0px"
	 viewBox="0 0 40 40" style="enable-background:new 0 0 40 40;" xml:space="preserve">
<style type="text/css">
	.st0{fill:#FFFFFF;}
	.st1{fill:#1D472A;}
	.st2{fill-rule:evenodd;clip-rule:evenodd;fill:#DE981A;}
	.st3{fill:#DE981A;}
	.st4{fill:none;stroke:#659558;stroke-miterlimit:10;}
	.st5{fill:#B45092;}
	.st6{fill-rule:evenodd;clip-rule:evenodd;fill:#B45092;}
	.st7{fill:#0091C8;}
	.st8{fill:#659558;}
	.st9{fill:#639263;}
	.st10{opacity:0.1;clip-path:url(#SVGID_2_);fill:url(#SVGID_3_);}
	.st11{opacity:0.24;clip-path:url(#SVGID_2_);}
	.st12{opacity:0.24;}
	.st13{opacity:0.31;clip-path:url(#SVGID_5_);}
	.st14{opacity:0.31;}
	.st15{clip-path:url(#SVGID_7_);fill:#C2DBCB;}
	.st16{clip-path:url(#SVGID_7_);}
	.st17{fill:#C9E2F2;}
	.st18{opacity:0.67;clip-path:url(#SVGID_5_);}
	.st19{fill:none;}
	.st20{opacity:0.65;fill:#B8D5BC;}
	.st21{clip-path:url(#SVGID_5_);fill:none;}
	.st22{clip-path:url(#SVGID_2_);fill:#FFFFFF;stroke:#639263;stroke-miterlimit:10;}
	.st23{clip-path:url(#SVGID_2_);fill:none;}
	.st24{clip-path:url(#SVGID_2_);}
	.st25{clip-path:url(#SVGID_2_);fill:none;stroke:#608D61;stroke-miterlimit:10;}
	.st26{opacity:0.91;}
	.st27{opacity:0.68;}
	.st28{fill-rule:evenodd;clip-rule:evenodd;fill:#FFFFFF;}
	.st29{fill-rule:evenodd;clip-rule:evenodd;fill:#639263;}
	.st30{opacity:0.1;clip-path:url(#SVGID_9_);fill:url(#SVGID_10_);}
	.st31{opacity:0.24;clip-path:url(#SVGID_9_);}
	.st32{opacity:0.31;clip-path:url(#SVGID_12_);}
	.st33{clip-path:url(#SVGID_14_);fill:#C2DBCB;}
	.st34{clip-path:url(#SVGID_14_);}
	.st35{opacity:0.67;clip-path:url(#SVGID_12_);}
	.st36{clip-path:url(#SVGID_12_);fill:none;}
	.st37{clip-path:url(#SVGID_9_);fill:#FFFFFF;stroke:#639263;stroke-miterlimit:10;}
	.st38{clip-path:url(#SVGID_9_);fill:none;}
	.st39{clip-path:url(#SVGID_9_);}
	.st40{clip-path:url(#SVGID_9_);fill:none;stroke:#608D61;stroke-miterlimit:10;}
	.st41{fill:none;stroke:#638F56;stroke-miterlimit:10;}
	.st42{fill-rule:evenodd;clip-rule:evenodd;fill:#0091C8;}
	.st43{opacity:0.6;}
	.st44{opacity:0.1;clip-path:url(#SVGID_16_);fill:url(#SVGID_17_);stroke:url(#SVGID_18_);stroke-miterlimit:10;}
	.st45{opacity:0.24;clip-path:url(#SVGID_16_);}
	.st46{opacity:0.31;clip-path:url(#SVGID_20_);}
	.st47{clip-path:url(#SVGID_22_);fill:#C2DBCB;}
	.st48{clip-path:url(#SVGID_22_);}
	.st49{opacity:0.67;clip-path:url(#SVGID_20_);}
	.st50{clip-path:url(#SVGID_20_);fill:none;}
	.st51{opacity:0.31;clip-path:url(#SVGID_24_);}
	.st52{clip-path:url(#SVGID_26_);fill:#C2DBCB;}
	.st53{clip-path:url(#SVGID_26_);}
	.st54{opacity:0.67;clip-path:url(#SVGID_24_);}
	.st55{clip-path:url(#SVGID_24_);fill:none;}
	.st56{opacity:0.31;clip-path:url(#SVGID_28_);}
	.st57{clip-path:url(#SVGID_30_);fill:#C2DBCB;}
	.st58{clip-path:url(#SVGID_30_);}
	.st59{opacity:0.67;clip-path:url(#SVGID_28_);}
	.st60{clip-path:url(#SVGID_28_);fill:none;}
	.st61{opacity:0.31;clip-path:url(#SVGID_32_);}
	.st62{clip-path:url(#SVGID_34_);fill:#C2DBCB;}
	.st63{clip-path:url(#SVGID_34_);}
	.st64{opacity:0.67;clip-path:url(#SVGID_32_);}
	.st65{clip-path:url(#SVGID_32_);fill:none;}
	.st66{clip-path:url(#SVGID_16_);fill:none;}
	.st67{fill:#638F56;}
	.st68{opacity:0.1;clip-path:url(#SVGID_36_);fill:url(#SVGID_37_);stroke:url(#SVGID_38_);stroke-miterlimit:10;}
	.st69{opacity:0.24;clip-path:url(#SVGID_36_);}
	.st70{opacity:0.31;clip-path:url(#SVGID_40_);}
	.st71{clip-path:url(#SVGID_42_);fill:#C2DBCB;}
	.st72{clip-path:url(#SVGID_42_);}
	.st73{opacity:0.67;clip-path:url(#SVGID_40_);}
	.st74{clip-path:url(#SVGID_40_);fill:none;}
	.st75{opacity:0.31;clip-path:url(#SVGID_44_);}
	.st76{clip-path:url(#SVGID_46_);fill:#C2DBCB;}
	.st77{clip-path:url(#SVGID_46_);}
	.st78{opacity:0.67;clip-path:url(#SVGID_44_);}
	.st79{clip-path:url(#SVGID_44_);fill:none;}
	.st80{opacity:0.31;clip-path:url(#SVGID_48_);}
	.st81{clip-path:url(#SVGID_50_);fill:#C2DBCB;}
	.st82{clip-path:url(#SVGID_50_);}
	.st83{opacity:0.67;clip-path:url(#SVGID_48_);}
	.st84{clip-path:url(#SVGID_48_);fill:none;}
	.st85{opacity:0.31;clip-path:url(#SVGID_52_);}
	.st86{clip-path:url(#SVGID_54_);fill:#C2DBCB;}
	.st87{clip-path:url(#SVGID_54_);}
	.st88{opacity:0.67;clip-path:url(#SVGID_52_);}
	.st89{clip-path:url(#SVGID_52_);fill:none;}
	.st90{clip-path:url(#SVGID_36_);fill:none;}
	.st91{opacity:0.1;clip-path:url(#SVGID_56_);fill:url(#SVGID_57_);}
	.st92{opacity:0.24;clip-path:url(#SVGID_56_);}
	.st93{opacity:0.31;clip-path:url(#SVGID_59_);}
	.st94{clip-path:url(#SVGID_61_);fill:#C2DBCB;}
	.st95{clip-path:url(#SVGID_61_);}
	.st96{opacity:0.67;clip-path:url(#SVGID_59_);}
	.st97{clip-path:url(#SVGID_59_);fill:none;}
	.st98{clip-path:url(#SVGID_56_);fill:#FFFFFF;stroke:#639263;stroke-miterlimit:10;}
	.st99{clip-path:url(#SVGID_56_);fill:none;}
	.st100{clip-path:url(#SVGID_56_);}
	.st101{clip-path:url(#SVGID_56_);fill:none;stroke:#608D61;stroke-miterlimit:10;}
	.st102{fill:#5F9999;}
</style>
<g>
	<path class="st5" d="M0.3,11.7c0.1-0.6,0.2-1.2,0.3-1.8C1,8.3,1.9,7.3,3.4,6.7c1.4-0.6,2.8-0.9,4.2-1.2c1-0.2,2.1,0.4,2.5,1.4
		c1.1,2.6,2.2,5.1,3.2,7.7c0.4,1,0.1,2.2-0.7,2.9c-0.3,0.3-0.6,0.6-0.9,0.8c-0.8,0.7-0.9,1.6-0.6,2.5c0.3,1,0.9,1.8,1.6,2.6
		c1.4,1.7,3,3.3,4.8,4.5c0.6,0.4,1.2,0.7,1.9,0.9c0.8,0.3,1.6,0.1,2.2-0.5c0.3-0.3,0.6-0.7,1-1c0.8-0.9,1.9-1.1,3-0.7
		c2.6,1.1,5.2,2.1,7.8,3.2c0.9,0.4,1.5,1.4,1.3,2.5c-0.3,1.4-0.7,2.7-1.1,4c-0.6,1.9-2.1,2.8-4,3c-0.4,0.1-0.7,0.1-1.1,0.2
		c-0.6,0-1.1,0-1.7,0c-0.5-0.1-1-0.1-1.5-0.2c-3-0.5-5.7-1.5-8.3-3.1C11.3,33,6.9,28.6,3.6,23.1c-1.5-2.4-2.5-5.1-3-7.9
		c-0.1-0.6-0.2-1.2-0.3-1.9C0.3,12.8,0.3,12.2,0.3,11.7z"/>
	<path class="st5" d="M17.8,0.6c0.7,0.1,1.5,0.2,2.2,0.3c4.7,0.8,8.8,2.8,12.2,6.1c3.6,3.5,5.9,7.7,6.8,12.7c0.1,0.7,0.2,1.3,0.3,2
		c0,0.1,0.1,0.3,0.1,0.4c0,0.1,0,0.3,0,0.4c-1,0-2.1,0.1-3.1,0.1c-0.1,0-0.3,0-0.4,0c-0.4-5-2.3-9.2-5.8-12.8
		c-3.5-3.5-7.8-5.4-12.8-5.8c0.1-1.2,0.1-2.4,0.2-3.6C17.5,0.6,17.6,0.6,17.8,0.6z"/>
	<path class="st5" d="M16.9,9.8c0.1-1.2,0.2-2.3,0.3-3.5c3.8,0.3,7.2,1.7,10.1,4.1c4.3,3.6,6.1,8.7,6.3,12.3
		c-1.1,0.1-2.3,0.2-3.5,0.3c-0.3-3.5-1.7-6.5-4.2-9C23.5,11.5,20.5,10.1,16.9,9.8z"/>
	<path class="st5" d="M28,22.9c-1.2,0.1-2.3,0.3-3.4,0.4c-0.2-0.7-0.3-1.4-0.5-2c-1.2-3.3-3.6-5.2-7-5.8c-0.2,0-0.3,0-0.3-0.3
		c0.1-1.1,0.2-2.2,0.4-3.2C22.2,12.3,27.4,16.9,28,22.9z"/>
</g>
</svg>
