<?xml version="1.0" encoding="utf-8"?>
<!-- Generator: Adobe Illustrator 23.0.1, SVG Export Plug-In . SVG Version: 6.00 Build 0)  -->
<svg version="1.1" id="Слой_1" xmlns="http://www.w3.org/2000/svg" xmlns:xlink="http://www.w3.org/1999/xlink" x="0px" y="0px"
	 viewBox="0 0 40 40" style="enable-background:new 0 0 40 40;" xml:space="preserve">
<style type="text/css">
	.st0{fill:#FFFFFF;}
	.st1{fill:#1D472A;}
	.st2{fill-rule:evenodd;clip-rule:evenodd;fill:#DE981A;}
	.st3{fill:#DE981A;}
	.st4{fill:none;stroke:#659558;stroke-miterlimit:10;}
	.st5{fill:#B45092;}
	.st6{fill-rule:evenodd;clip-rule:evenodd;fill:#B45092;}
	.st7{fill:#0091C8;}
	.st8{fill:#659558;}
	.st9{fill:#639263;}
	.st10{opacity:0.1;clip-path:url(#SVGID_2_);fill:url(#SVGID_3_);}
	.st11{opacity:0.24;clip-path:url(#SVGID_2_);}
	.st12{opacity:0.24;}
	.st13{opacity:0.31;clip-path:url(#SVGID_5_);}
	.st14{opacity:0.31;}
	.st15{clip-path:url(#SVGID_7_);fill:#C2DBCB;}
	.st16{clip-path:url(#SVGID_7_);}
	.st17{fill:#C9E2F2;}
	.st18{opacity:0.67;clip-path:url(#SVGID_5_);}
	.st19{fill:none;}
	.st20{opacity:0.65;fill:#B8D5BC;}
	.st21{clip-path:url(#SVGID_5_);fill:none;}
	.st22{clip-path:url(#SVGID_2_);fill:#FFFFFF;stroke:#639263;stroke-miterlimit:10;}
	.st23{clip-path:url(#SVGID_2_);fill:none;}
	.st24{clip-path:url(#SVGID_2_);}
	.st25{clip-path:url(#SVGID_2_);fill:none;stroke:#608D61;stroke-miterlimit:10;}
	.st26{opacity:0.91;}
	.st27{opacity:0.68;}
	.st28{fill-rule:evenodd;clip-rule:evenodd;fill:#FFFFFF;}
	.st29{fill-rule:evenodd;clip-rule:evenodd;fill:#639263;}
	.st30{opacity:0.1;clip-path:url(#SVGID_9_);fill:url(#SVGID_10_);}
	.st31{opacity:0.24;clip-path:url(#SVGID_9_);}
	.st32{opacity:0.31;clip-path:url(#SVGID_12_);}
	.st33{clip-path:url(#SVGID_14_);fill:#C2DBCB;}
	.st34{clip-path:url(#SVGID_14_);}
	.st35{opacity:0.67;clip-path:url(#SVGID_12_);}
	.st36{clip-path:url(#SVGID_12_);fill:none;}
	.st37{clip-path:url(#SVGID_9_);fill:#FFFFFF;stroke:#639263;stroke-miterlimit:10;}
	.st38{clip-path:url(#SVGID_9_);fill:none;}
	.st39{clip-path:url(#SVGID_9_);}
	.st40{clip-path:url(#SVGID_9_);fill:none;stroke:#608D61;stroke-miterlimit:10;}
	.st41{fill:none;stroke:#638F56;stroke-miterlimit:10;}
	.st42{fill-rule:evenodd;clip-rule:evenodd;fill:#0091C8;}
	.st43{opacity:0.6;}
	.st44{opacity:0.1;clip-path:url(#SVGID_16_);fill:url(#SVGID_17_);stroke:url(#SVGID_18_);stroke-miterlimit:10;}
	.st45{opacity:0.24;clip-path:url(#SVGID_16_);}
	.st46{opacity:0.31;clip-path:url(#SVGID_20_);}
	.st47{clip-path:url(#SVGID_22_);fill:#C2DBCB;}
	.st48{clip-path:url(#SVGID_22_);}
	.st49{opacity:0.67;clip-path:url(#SVGID_20_);}
	.st50{clip-path:url(#SVGID_20_);fill:none;}
	.st51{opacity:0.31;clip-path:url(#SVGID_24_);}
	.st52{clip-path:url(#SVGID_26_);fill:#C2DBCB;}
	.st53{clip-path:url(#SVGID_26_);}
	.st54{opacity:0.67;clip-path:url(#SVGID_24_);}
	.st55{clip-path:url(#SVGID_24_);fill:none;}
	.st56{opacity:0.31;clip-path:url(#SVGID_28_);}
	.st57{clip-path:url(#SVGID_30_);fill:#C2DBCB;}
	.st58{clip-path:url(#SVGID_30_);}
	.st59{opacity:0.67;clip-path:url(#SVGID_28_);}
	.st60{clip-path:url(#SVGID_28_);fill:none;}
	.st61{opacity:0.31;clip-path:url(#SVGID_32_);}
	.st62{clip-path:url(#SVGID_34_);fill:#C2DBCB;}
	.st63{clip-path:url(#SVGID_34_);}
	.st64{opacity:0.67;clip-path:url(#SVGID_32_);}
	.st65{clip-path:url(#SVGID_32_);fill:none;}
	.st66{clip-path:url(#SVGID_16_);fill:none;}
	.st67{fill:#638F56;}
	.st68{opacity:0.1;clip-path:url(#SVGID_36_);fill:url(#SVGID_37_);stroke:url(#SVGID_38_);stroke-miterlimit:10;}
	.st69{opacity:0.24;clip-path:url(#SVGID_36_);}
	.st70{opacity:0.31;clip-path:url(#SVGID_40_);}
	.st71{clip-path:url(#SVGID_42_);fill:#C2DBCB;}
	.st72{clip-path:url(#SVGID_42_);}
	.st73{opacity:0.67;clip-path:url(#SVGID_40_);}
	.st74{clip-path:url(#SVGID_40_);fill:none;}
	.st75{opacity:0.31;clip-path:url(#SVGID_44_);}
	.st76{clip-path:url(#SVGID_46_);fill:#C2DBCB;}
	.st77{clip-path:url(#SVGID_46_);}
	.st78{opacity:0.67;clip-path:url(#SVGID_44_);}
	.st79{clip-path:url(#SVGID_44_);fill:none;}
	.st80{opacity:0.31;clip-path:url(#SVGID_48_);}
	.st81{clip-path:url(#SVGID_50_);fill:#C2DBCB;}
	.st82{clip-path:url(#SVGID_50_);}
	.st83{opacity:0.67;clip-path:url(#SVGID_48_);}
	.st84{clip-path:url(#SVGID_48_);fill:none;}
	.st85{opacity:0.31;clip-path:url(#SVGID_52_);}
	.st86{clip-path:url(#SVGID_54_);fill:#C2DBCB;}
	.st87{clip-path:url(#SVGID_54_);}
	.st88{opacity:0.67;clip-path:url(#SVGID_52_);}
	.st89{clip-path:url(#SVGID_52_);fill:none;}
	.st90{clip-path:url(#SVGID_36_);fill:none;}
	.st91{opacity:0.1;clip-path:url(#SVGID_56_);fill:url(#SVGID_57_);}
	.st92{opacity:0.24;clip-path:url(#SVGID_56_);}
	.st93{opacity:0.31;clip-path:url(#SVGID_59_);}
	.st94{clip-path:url(#SVGID_61_);fill:#C2DBCB;}
	.st95{clip-path:url(#SVGID_61_);}
	.st96{opacity:0.67;clip-path:url(#SVGID_59_);}
	.st97{clip-path:url(#SVGID_59_);fill:none;}
	.st98{clip-path:url(#SVGID_56_);fill:#FFFFFF;stroke:#639263;stroke-miterlimit:10;}
	.st99{clip-path:url(#SVGID_56_);fill:none;}
	.st100{clip-path:url(#SVGID_56_);}
	.st101{clip-path:url(#SVGID_56_);fill:none;stroke:#608D61;stroke-miterlimit:10;}
	.st102{fill:#5F9999;}
</style>
<g>
	<path class="st3" d="M16,12.7c0.5,0.5,1.2,0.6,1.9,0.6c1.4,0,2.8,0,4.1,0c0,0,0.1,0,0.1,0c0-0.3,0-0.5,0-0.8c-1.4,0-2.9,0-4.3,0
		c-0.1,0-0.3,0-0.4,0c-0.8-0.2-1.4-0.7-1.6-1.5c-0.2-0.8,0-1.6,0.7-2.1c0.7-0.6,1.4-0.7,2.2-0.3c0.7,0.3,1.1,0.9,1.2,1.8
		c0,0.1,0,0.1,0.1,0.1c0.2,0,0.4,0,0.6,0c0.1,0,0.1,0,0.1-0.1c0-0.1,0-0.2,0-0.3c-0.2-1.6-1.7-2.6-3.2-2.4c-1.2,0.2-2,0.9-2.3,2
		C14.7,10.9,15.1,11.9,16,12.7z"/>
	<path class="st3" d="M17.7,11.2c-0.5,0-0.8-0.5-0.7-1c0.1-0.3,0.4-0.6,0.8-0.5c0.4,0,0.6,0.3,0.7,0.7c0,0.1,0,0.1,0.1,0.1
		c0.2,0,0.4,0,0.6,0c0.1,0,0.1,0,0.1-0.1c-0.1-0.9-1-1.6-1.9-1.4c-0.8,0.2-1.3,0.9-1.2,1.7c0.1,0.7,0.8,1.3,1.5,1.3
		c1.5,0,2.9,0,4.4,0c0-0.3,0-0.5,0-0.8c0,0-0.1,0-0.1,0c-1.4,0-2.8,0-4.2,0C17.8,11.2,17.8,11.2,17.7,11.2z"/>
	<path class="st3" d="M12.7,8.4c0.3,0,0.5,0,0.8,0c0.1,0,0.1,0,0.1,0.1c0,0.4,0,0.7,0,1.1c0,1.2,0,2.4,0,3.5c0,0.1,0,0.1,0.1,0.1
		c0.2,0,0.3,0,0.5,0c0.1,0,0.1,0,0.1-0.1c0-0.9,0-1.8,0-2.7c0-0.9,0-1.8,0-2.7c0-0.1,0-0.1-0.1-0.1c-0.5,0-1.1,0-1.6,0
		c-0.1,0-0.1,0-0.1,0.1c0,0.2,0,0.4,0,0.6C12.6,8.4,12.6,8.4,12.7,8.4z"/>
	<path class="st3" d="M12,9.4c0.2,0,0.4,0,0.5,0c0.1,0,0.2,0,0.2,0.2c0,1.2,0,2.4,0,3.6c0,0.1,0,0.1,0.1,0.1c0.2,0,0.4,0,0.5,0
		c0.1,0,0.1,0,0.1-0.1c0-0.7,0-1.5,0-2.2c0-0.7,0-1.5,0-2.2c0-0.1,0-0.1-0.1-0.1c-0.4,0-0.9,0-1.3,0c-0.1,0-0.1,0-0.1,0.1
		C11.9,9,11.9,9.1,12,9.4C11.8,9.4,11.9,9.4,12,9.4z"/>
	<path class="st3" d="M7.3,9.9c0.3,0.2,0.5,0.4,0.5,0.8c0,0.3,0,0.6,0.1,0.9c0.1,0.4,0,0.7-0.3,0.9c-0.5,0.3-0.5,0.7-0.3,1.2
		c0.4,0.9,0.4,0.9,1.3,0.9c0.2,0,0.4,0.1,0.5,0.3c0.2,0.4,0.5,0.7,0.8,1.1c0.1,0.1,0.2,0.3,0.1,0.5c-0.4,0.8-0.1,1.3,0.6,1.7
		c0,0,0,0,0,0c0.3,0.4,0.6,0.3,1,0.1c0.4-0.3,0.8-0.3,1.2,0c0.3,0.2,0.6,0.2,0.9,0.4c0.1,0.1,0.3,0.2,0.3,0.4
		c0.1,0.8,0.5,1.1,1.3,1.1c0.5,0,0.8,0,1-0.5c0.2-0.4,0.5-0.6,0.9-0.6c0.3,0,0.6,0,0.9-0.1c0.3-0.1,0.6,0,0.8,0.3
		c0.4,0.5,0.8,0.5,1.4,0.3c0.6-0.2,0.9-0.6,0.8-1.2c0-0.3,0.1-0.5,0.3-0.6c0.4-0.2,0.7-0.5,1-0.7c0.1-0.1,0.4-0.2,0.5-0.1
		c0.7,0.3,1.2,0.1,1.6-0.5c0.3-0.4,0.4-0.7,0.1-1.1c-0.3-0.4-0.3-0.7,0-1.1c0.2-0.2,0.3-0.5,0.3-0.8c0.1-0.4,0.3-0.6,0.6-0.6
		c0.6,0,0.8-0.4,0.9-1c0.1-0.7,0-1.1-0.6-1.4c-0.3-0.1-0.4-0.3-0.4-0.6c0-0.3,0-0.7-0.1-1c-0.1-0.4,0-0.7,0.3-0.9
		c0.5-0.3,0.5-0.7,0.3-1.3c-0.2-0.7-0.6-1-1.3-0.9c-0.3,0-0.4-0.1-0.6-0.3c-0.2-0.4-0.5-0.7-0.8-1.1c-0.1-0.1-0.2-0.3-0.1-0.5
		c0.4-0.8,0.1-1.3-0.6-1.7c0,0-0.1,0-0.1-0.1C22.6,1.8,22.3,1.8,22,2c-0.5,0.4-0.9,0.4-1.4,0c-0.2-0.1-0.4-0.2-0.6-0.2
		c-0.4-0.1-0.6-0.4-0.7-0.8c-0.2-0.7-0.2-0.6-0.9-0.8c-0.7-0.2-1.2,0-1.5,0.7c-0.1,0.1-0.3,0.3-0.4,0.3c-0.5,0.1-0.9,0.1-1.4,0.2
		c-0.1,0-0.4,0-0.4-0.1c-0.5-0.8-1.2-0.7-1.9-0.3c0,0-0.1,0-0.1,0.1c-0.2,0.1-0.3,0.2-0.3,0.4c0.1,0.7-0.2,1.1-0.8,1.5
		c-0.6,0.4-1.1,0.7-1.9,0.4c0,0-0.1,0-0.1,0c0,0-0.2,0.1-0.2,0.2C9.1,3.7,8.9,4,8.7,4.2C8.4,4.5,8.4,4.7,8.6,5C9,5.5,9,5.9,8.7,6.4
		C8.5,6.6,8.4,6.9,8.3,7.2C8.3,7.5,8.1,7.6,7.9,7.6c-0.8,0.1-1,0.5-1.1,1.2C6.7,9.4,6.8,9.7,7.3,9.9z M16.8,3c4,0,7.2,3.3,7.2,7.2
		c0,4-3.3,7.2-7.2,7.2c-4,0-7.2-3.2-7.2-7.2C9.6,6.2,12.8,3,16.8,3z"/>
	<path class="st3" d="M38.9,25.5c-0.3-0.1-0.4-0.3-0.4-0.6c0-0.3,0-0.7-0.1-1c-0.1-0.4,0-0.7,0.3-0.9c0.5-0.3,0.5-0.7,0.3-1.3
		c-0.2-0.7-0.6-1-1.3-0.9c-0.3,0-0.4-0.1-0.6-0.3c-0.2-0.4-0.5-0.7-0.8-1.1c-0.1-0.1-0.2-0.3-0.1-0.5c0.4-0.8,0.1-1.3-0.6-1.7
		c0,0-0.1,0-0.1-0.1c-0.2-0.3-0.5-0.3-0.8-0.1c-0.5,0.4-0.9,0.4-1.4,0C33.2,17.1,33,17,32.8,17c-0.4-0.1-0.6-0.4-0.7-0.8
		c-0.2-0.7-0.2-0.6-0.9-0.8c-0.7-0.2-1.2,0-1.5,0.7c-0.1,0.1-0.3,0.3-0.4,0.3c-0.5,0.1-0.9,0.1-1.4,0.2c-0.1,0-0.4,0-0.4-0.1
		c-0.5-0.8-1.2-0.7-1.9-0.3c0,0-0.1,0-0.1,0.1c-0.2,0.1-0.3,0.2-0.3,0.4c0.1,0.7-0.2,1.1-0.8,1.5c-0.6,0.4-1.1,0.7-1.9,0.4
		c0,0-0.1,0-0.1,0c0,0-0.2,0.1-0.2,0.2c-0.2,0.2-0.4,0.5-0.6,0.7c-0.3,0.3-0.3,0.5-0.1,0.8c0.3,0.4,0.4,0.9,0,1.4
		c-0.2,0.2-0.2,0.5-0.3,0.8c-0.1,0.2-0.2,0.4-0.5,0.4c-0.8,0.1-1,0.5-1.1,1.2c-0.1,0.6,0,0.9,0.5,1.1c0.3,0.2,0.5,0.4,0.5,0.8
		c0,0.3,0,0.6,0.1,0.9c0.1,0.4,0,0.7-0.3,0.9c-0.5,0.3-0.5,0.7-0.3,1.2c0.4,0.9,0.4,0.9,1.3,0.9c0.2,0,0.4,0.1,0.5,0.3
		c0.2,0.4,0.5,0.7,0.8,1.1c0.1,0.1,0.2,0.3,0.1,0.5c-0.4,0.8-0.1,1.3,0.6,1.7c0,0,0,0,0,0c0.3,0.4,0.6,0.3,1,0.1
		c0.4-0.3,0.8-0.3,1.2,0c0.3,0.2,0.6,0.2,0.9,0.4c0.1,0.1,0.3,0.2,0.3,0.4c0.1,0.8,0.5,1.1,1.3,1.1c0.5,0,0.8,0,1-0.5
		c0.2-0.4,0.5-0.6,0.9-0.6c0.3,0,0.6,0,0.9-0.1c0.3-0.1,0.6,0,0.8,0.3c0.4,0.5,0.8,0.5,1.4,0.3c0.6-0.2,0.9-0.6,0.8-1.2
		c0-0.3,0.1-0.5,0.3-0.6c0.4-0.2,0.7-0.5,1-0.7c0.1-0.1,0.4-0.2,0.5-0.1c0.7,0.3,1.2,0.1,1.6-0.5c0.3-0.4,0.4-0.7,0.1-1.1
		c-0.3-0.4-0.3-0.7,0-1.1c0.2-0.2,0.3-0.5,0.3-0.8c0.1-0.4,0.3-0.6,0.6-0.6c0.6,0,0.8-0.4,0.9-1C39.7,26.2,39.6,25.8,38.9,25.5z
		 M29.6,32.6c-4,0-7.2-3.2-7.2-7.2c0-4,3.3-7.3,7.3-7.2c4,0,7.2,3.3,7.2,7.2C36.8,29.3,33.6,32.6,29.6,32.6z"/>
	<path class="st3" d="M26.3,24.9c0-0.1,0-0.3,0-0.4c0.1-0.7,0.8-1.4,1.5-1.4c1.2,0,2.4,0,3.6,0c0,0,0.1,0,0.1,0c0,0,0-0.1,0-0.1
		c-0.2-0.5-0.5-0.9-0.7-1.4c-0.3-0.6-0.9-0.8-1.5-0.5c-1.7,0.9-3.5,1.7-5.2,2.6c-0.2,0.1-0.4,0.2-0.5,0.4c-0.1,0.1-0.1,0.3-0.2,0.4
		c0,0.1,0,0.2,0,0.3c0,0.1,0.1,0.2,0.1,0.3c0.5,1.1,1.1,2.2,1.7,3.3c0.2,0.5,0.7,0.7,1.2,0.5c-0.3-0.4-0.2-0.8-0.2-1.3
		C26.3,26.8,26.3,25.9,26.3,24.9z"/>
	<path class="st3" d="M33.9,23.8c-1,0-1.9,0-2.9,0c-1,0-1.9,0-2.9,0c-0.1,0-0.2,0-0.3,0c-0.5,0.1-0.8,0.5-0.8,1c0,1.2,0,2.5,0,3.7
		c0,0.4,0.2,0.8,0.6,1c0.2,0.1,0.4,0.1,0.6,0.1c1.9,0,3.7,0,5.6,0c0.1,0,0.2,0,0.3,0c0.5,0,0.9-0.5,0.9-1c0-1.3,0-2.6,0-3.8
		c0-0.3-0.1-0.6-0.4-0.8C34.4,23.8,34.1,23.8,33.9,23.8z M28.1,24.4c2,0,3.9,0,5.9,0c0.3,0,0.5,0.2,0.4,0.5c-2.3,0-4.5,0-6.8,0
		C27.6,24.6,27.8,24.4,28.1,24.4z M34,29c-2,0-3.9,0-5.9,0c-0.3,0-0.5-0.2-0.5-0.5c0-0.8,0-1.6,0-2.4c0,0,0-0.1,0-0.1
		c2.3,0,4.5,0,6.8,0c0,0,0,0.1,0,0.1c0,0.8,0,1.6,0,2.4C34.4,28.8,34.2,29,34,29z"/>
	<path class="st3" d="M29.2,27.4c-0.4-0.3-0.7-0.3-1,0c-0.2,0.3-0.2,0.7,0,0.9c0.1,0.1,0.3,0.2,0.4,0.2c0.2,0,0.4-0.1,0.6-0.2
		c0.4,0.3,0.7,0.3,1,0c0.2-0.3,0.2-0.6,0-0.9C30,27.1,29.6,27.1,29.2,27.4z"/>
	<path class="st3" d="M19.8,29.9c-0.3-0.1-0.4-0.3-0.4-0.6c0-0.3,0-0.7-0.1-1c-0.1-0.4,0-0.7,0.3-0.9c0.5-0.3,0.5-0.7,0.3-1.3
		c-0.2-0.7-0.6-1-1.3-0.9c-0.3,0-0.4-0.1-0.6-0.3c-0.2-0.4-0.5-0.7-0.8-1.1c-0.1-0.1-0.2-0.3-0.1-0.5c0.4-0.8,0.1-1.3-0.6-1.7
		c0,0-0.1,0-0.1-0.1c-0.2-0.3-0.5-0.3-0.8-0.1c-0.5,0.4-0.9,0.4-1.4,0c-0.2-0.1-0.4-0.2-0.6-0.2c-0.4-0.1-0.6-0.4-0.7-0.8
		c-0.2-0.7-0.2-0.6-0.9-0.8c-0.7-0.2-1.2,0-1.5,0.7c-0.1,0.1-0.3,0.3-0.4,0.3c-0.5,0.1-0.9,0.1-1.4,0.2c-0.1,0-0.4,0-0.4-0.1
		c-0.5-0.8-1.2-0.7-1.9-0.3c0,0-0.1,0-0.1,0.1C6,20.6,5.9,20.7,6,21c0.1,0.7-0.2,1.1-0.8,1.5c-0.6,0.4-1.1,0.7-1.9,0.4
		c0,0-0.1,0-0.1,0c0,0-0.2,0.1-0.2,0.2c-0.2,0.2-0.4,0.5-0.6,0.7C2,24,2,24.3,2.3,24.6c0.3,0.4,0.4,0.9,0,1.4
		C2.1,26.2,2,26.5,2,26.7c-0.1,0.2-0.2,0.4-0.5,0.4c-0.8,0.1-1,0.5-1.1,1.2c-0.1,0.6,0,0.9,0.5,1.1c0.3,0.2,0.5,0.4,0.5,0.8
		c0,0.3,0,0.6,0.1,0.9c0.1,0.4,0,0.7-0.3,0.9c-0.5,0.3-0.5,0.7-0.3,1.2c0.4,0.9,0.4,0.9,1.3,0.9c0.2,0,0.4,0.1,0.5,0.3
		c0.2,0.4,0.5,0.7,0.8,1.1c0.1,0.1,0.2,0.3,0.1,0.5c-0.4,0.8-0.1,1.3,0.6,1.7c0,0,0,0,0,0c0.3,0.4,0.6,0.3,1,0.1
		c0.4-0.3,0.8-0.3,1.2,0c0.3,0.2,0.6,0.2,0.9,0.4c0.1,0.1,0.3,0.2,0.3,0.4c0.1,0.8,0.5,1.1,1.3,1.1c0.5,0,0.8,0,1-0.5
		c0.2-0.4,0.5-0.6,0.9-0.6c0.3,0,0.6,0,0.9-0.1c0.3-0.1,0.6,0,0.8,0.3c0.4,0.5,0.8,0.5,1.4,0.3c0.6-0.2,0.9-0.6,0.8-1.2
		c0-0.3,0.1-0.5,0.3-0.6c0.4-0.2,0.7-0.5,1-0.7c0.1-0.1,0.4-0.2,0.5-0.1c0.7,0.3,1.2,0.1,1.6-0.5c0.3-0.4,0.4-0.7,0.1-1.1
		c-0.3-0.4-0.3-0.7,0-1.1c0.2-0.2,0.3-0.5,0.3-0.8c0.1-0.4,0.3-0.6,0.6-0.6c0.6,0,0.8-0.4,0.9-1C20.5,30.6,20.4,30.2,19.8,29.9z
		 M10.4,37c-4,0-7.2-3.2-7.2-7.2c0-4,3.3-7.3,7.3-7.2c4,0,7.2,3.3,7.2,7.2C17.6,33.7,14.4,37,10.4,37z"/>
	<path class="st3" d="M11.6,31.4c0,0.1,0,0.2,0.1,0.3c0,0.1,0.1,0.2,0.1,0.2c0,0,0,0,0,0.1c0,0.1,0,0.1,0.1,0.2
		c0.1,0.2,0.2,0.4,0.4,0.5c0.1,0.1,0.3,0.1,0.4,0.1c0.2,0,0.3-0.1,0.4-0.2c0.2-0.1,0.3-0.3,0.3-0.5c0,0,0,0,0-0.1c0,0,0,0,0.1-0.1
		c0.1-0.1,0.1-0.3,0.1-0.5c0-0.1,0-0.1-0.1-0.1c0,0,0,0,0-0.1c0,0,0,0,0,0c0-0.2,0.1-0.4,0-0.6c0-0.1-0.1-0.2-0.2-0.3
		c-0.1,0-0.1-0.1-0.1-0.1C13.2,30.1,13,30,12.9,30c0,0,0,0-0.1,0c-0.1,0-0.2,0-0.3,0c-0.1,0-0.1,0-0.2,0.1c-0.1,0.1-0.2,0.1-0.3,0.2
		c-0.2,0.1-0.3,0.3-0.3,0.5c-0.1,0.2,0,0.4,0,0.6C11.7,31.3,11.6,31.3,11.6,31.4z"/>
	<path class="st3" d="M14.2,33c-0.2-0.1-0.4-0.1-0.5-0.2c-0.1,0-0.2-0.1-0.3-0.2c-0.1,0.4-0.3,0.9-0.4,1.3c0,0,0,0,0,0
		c0-0.1-0.1-0.2-0.1-0.3c0-0.1,0-0.1,0-0.2c0-0.1,0.1-0.1,0.1-0.2c0-0.1,0-0.2,0-0.2c-0.1-0.1-0.3-0.1-0.4,0c-0.1,0-0.1,0.1-0.1,0.2
		c0,0.1,0.1,0.2,0.1,0.3c0,0.1,0.1,0.1,0,0.2c0,0,0,0.1,0,0.2c0,0.1-0.1,0.1-0.1,0.2c0,0,0,0,0,0c-0.1-0.4-0.3-0.9-0.4-1.3
		c-0.2,0.1-0.3,0.2-0.5,0.2c-0.1,0.1-0.3,0.1-0.4,0.2c-0.1,0-0.2,0.1-0.3,0.2c-0.1,0.1-0.1,0.3-0.1,0.4c0,0.2,0,0.3,0,0.5
		c0,0,0,0.1,0,0.1c0.1,0.1,0.3,0.1,0.4,0.2c0.1,0,0.3,0.1,0.4,0.1c0.1,0,0.2,0.1,0.3,0.1c0.1,0,0.3,0,0.4,0.1c0.2,0,0.4,0,0.6,0
		c0.2,0,0.4-0.1,0.7-0.1c0.2,0,0.3-0.1,0.5-0.1c0.1,0,0.3-0.1,0.4-0.2c0.1,0,0.1-0.1,0.1-0.2c0-0.1,0-0.2,0-0.2c0-0.2,0-0.4-0.1-0.6
		C14.5,33.1,14.3,33.1,14.2,33z"/>
	<path class="st3" d="M11.9,26.9C11.9,26.9,11.9,26.9,11.9,26.9c0,0.1,0.1,0.2,0.1,0.2c0.1,0.2,0.2,0.4,0.4,0.5
		c0.1,0.1,0.3,0.1,0.4,0.1c0.2,0,0.3-0.1,0.4-0.2c0.2-0.1,0.3-0.3,0.3-0.5c0,0,0,0,0-0.1c0,0,0,0,0.1-0.1c0.1-0.1,0.1-0.3,0.1-0.5
		c0-0.1,0-0.1-0.1-0.1c0,0,0,0,0-0.1c0,0,0,0,0,0c0-0.2,0.1-0.4,0-0.6c0-0.1-0.1-0.2-0.2-0.3c-0.1,0-0.1-0.1-0.1-0.1
		c-0.1-0.1-0.2-0.2-0.4-0.2c0,0,0,0-0.1,0c-0.1,0-0.2,0-0.3,0c-0.1,0-0.1,0-0.2,0.1c-0.1,0.1-0.2,0.1-0.3,0.2
		c-0.2,0.1-0.3,0.3-0.3,0.5c-0.1,0.2,0,0.4,0,0.6c-0.1,0-0.1,0.1-0.1,0.1c0,0.1,0,0.2,0.1,0.3C11.8,26.8,11.8,26.8,11.9,26.9z"/>
	<path class="st3" d="M14.3,27.9c-0.2-0.1-0.4-0.1-0.5-0.2c-0.1,0-0.2-0.1-0.3-0.2c-0.1,0.4-0.3,0.9-0.4,1.3c0,0,0,0,0,0
		c0-0.1-0.1-0.2-0.1-0.3c0-0.1,0-0.1,0-0.2c0-0.1,0.1-0.1,0.1-0.2c0-0.1,0-0.2,0-0.2c-0.1-0.1-0.3-0.1-0.4,0c-0.1,0-0.1,0.1-0.1,0.2
		c0,0.1,0.1,0.2,0.1,0.3c0,0.1,0.1,0.1,0,0.2c0,0,0,0.1,0,0.2c0,0.1-0.1,0.1-0.1,0.2c0,0,0,0,0,0c-0.1-0.4-0.3-0.9-0.4-1.3
		c-0.2,0.1-0.3,0.2-0.5,0.2c-0.1,0.1-0.3,0.1-0.4,0.2c-0.1,0-0.2,0.1-0.3,0.2c-0.1,0.1-0.1,0.3-0.1,0.4c0,0.2,0,0.3,0,0.5
		c0,0,0,0.1,0,0.1c0.1,0.1,0.3,0.1,0.4,0.2c0.1,0,0.3,0.1,0.4,0.1c0.1,0,0.2,0.1,0.3,0.1c0.1,0,0.3,0,0.4,0.1c0.2,0,0.4,0,0.6,0
		c0.2,0,0.4-0.1,0.7-0.1c0.2,0,0.3-0.1,0.5-0.1c0.1,0,0.3-0.1,0.4-0.2c0.1,0,0.1-0.1,0.1-0.2c0-0.1,0-0.2,0-0.2c0-0.2,0-0.4-0.1-0.6
		C14.6,28.1,14.4,28,14.3,27.9z"/>
	<path class="st3" d="M7.4,26.9C7.5,26.9,7.5,26.9,7.4,26.9c0,0.1,0.1,0.2,0.1,0.2c0.1,0.2,0.2,0.4,0.4,0.5c0.1,0.1,0.3,0.1,0.4,0.1
		c0.2,0,0.3-0.1,0.4-0.2c0.2-0.1,0.3-0.3,0.3-0.5c0,0,0,0,0-0.1c0,0,0,0,0.1-0.1c0.1-0.1,0.1-0.3,0.1-0.5c0-0.1,0-0.1-0.1-0.1
		c0,0,0,0,0-0.1c0,0,0,0,0,0c0-0.2,0.1-0.4,0-0.6c0-0.1-0.1-0.2-0.2-0.3c-0.1,0-0.1-0.1-0.1-0.1c-0.1-0.1-0.2-0.2-0.4-0.2
		c0,0,0,0-0.1,0c-0.1,0-0.2,0-0.3,0c-0.1,0-0.1,0-0.2,0.1c-0.1,0.1-0.2,0.1-0.3,0.2c-0.2,0.1-0.3,0.3-0.3,0.5c-0.1,0.2,0,0.4,0,0.6
		c-0.1,0-0.1,0.1-0.1,0.1c0,0.1,0,0.2,0.1,0.3C7.3,26.8,7.4,26.8,7.4,26.9z"/>
	<path class="st3" d="M9.8,27.9c-0.2-0.1-0.4-0.1-0.5-0.2c-0.1,0-0.2-0.1-0.3-0.2c-0.1,0.4-0.3,0.9-0.4,1.3c0,0,0,0,0,0
		c0-0.1-0.1-0.2-0.1-0.3c0-0.1,0-0.1,0-0.2c0-0.1,0.1-0.1,0.1-0.2c0-0.1,0-0.2,0-0.2c-0.1-0.1-0.3-0.1-0.4,0C8,28,8,28,8,28.1
		c0,0.1,0.1,0.2,0.1,0.3c0,0.1,0.1,0.1,0,0.2c0,0,0,0.1,0,0.2c0,0.1-0.1,0.1-0.1,0.2c0,0,0,0,0,0c-0.1-0.4-0.3-0.9-0.4-1.3
		c-0.2,0.1-0.3,0.2-0.5,0.2C7,27.9,6.8,27.9,6.7,28c-0.1,0-0.2,0.1-0.3,0.2c-0.1,0.1-0.1,0.3-0.1,0.4c0,0.2,0,0.3,0,0.5
		c0,0,0,0.1,0,0.1c0.1,0.1,0.3,0.1,0.4,0.2c0.1,0,0.3,0.1,0.4,0.1c0.1,0,0.2,0.1,0.3,0.1c0.1,0,0.3,0,0.4,0.1c0.2,0,0.4,0,0.6,0
		c0.2,0,0.4-0.1,0.7-0.1c0.2,0,0.3-0.1,0.5-0.1c0.1,0,0.3-0.1,0.4-0.2c0.1,0,0.1-0.1,0.1-0.2c0-0.1,0-0.2,0-0.2c0-0.2,0-0.4-0.1-0.6
		C10.1,28.1,10,28,9.8,27.9z"/>
	<path class="st3" d="M7,31.4c0,0.1,0,0.2,0.1,0.3c0,0.1,0.1,0.2,0.1,0.2c0,0,0,0,0,0.1c0,0.1,0,0.1,0.1,0.2
		c0.1,0.2,0.2,0.4,0.4,0.5c0.1,0.1,0.3,0.1,0.4,0.1c0.2,0,0.3-0.1,0.4-0.2c0.2-0.1,0.3-0.3,0.3-0.5c0,0,0,0,0-0.1c0,0,0,0,0.1-0.1
		c0.1-0.1,0.1-0.3,0.1-0.5c0-0.1,0-0.1-0.1-0.1c0,0,0,0,0-0.1c0,0,0,0,0,0c0-0.2,0.1-0.4,0-0.6c0-0.1-0.1-0.2-0.2-0.3
		c-0.1,0-0.1-0.1-0.1-0.1C8.6,30.1,8.5,30,8.3,30c0,0,0,0-0.1,0c-0.1,0-0.2,0-0.3,0c-0.1,0-0.1,0-0.2,0.1c-0.1,0.1-0.2,0.1-0.3,0.2
		c-0.2,0.1-0.3,0.3-0.3,0.5c-0.1,0.2,0,0.4,0,0.6C7.1,31.3,7,31.3,7,31.4z"/>
	<path class="st3" d="M9.6,33c-0.2-0.1-0.4-0.1-0.5-0.2c-0.1,0-0.2-0.1-0.3-0.2c-0.1,0.4-0.3,0.9-0.4,1.3c0,0,0,0,0,0
		c0-0.1-0.1-0.2-0.1-0.3c0-0.1,0-0.1,0-0.2c0-0.1,0.1-0.1,0.1-0.2c0-0.1,0-0.2,0-0.2c-0.1-0.1-0.3-0.1-0.4,0c-0.1,0-0.1,0.1-0.1,0.2
		c0,0.1,0.1,0.2,0.1,0.3c0,0.1,0.1,0.1,0,0.2c0,0,0,0.1,0,0.2c0,0.1-0.1,0.1-0.1,0.2c0,0,0,0,0,0c-0.1-0.4-0.3-0.9-0.4-1.3
		c-0.2,0.1-0.3,0.2-0.5,0.2C6.8,32.9,6.6,33,6.5,33c-0.1,0-0.2,0.1-0.3,0.2c-0.1,0.1-0.1,0.3-0.1,0.4c0,0.2,0,0.3,0,0.5
		c0,0,0,0.1,0,0.1c0.1,0.1,0.3,0.1,0.4,0.2c0.1,0,0.3,0.1,0.4,0.1c0.1,0,0.2,0.1,0.3,0.1c0.1,0,0.3,0,0.4,0.1c0.2,0,0.4,0,0.6,0
		c0.2,0,0.4-0.1,0.7-0.1c0.2,0,0.3-0.1,0.5-0.1c0.1,0,0.3-0.1,0.4-0.2c0.1,0,0.1-0.1,0.1-0.2c0-0.1,0-0.2,0-0.2c0-0.2,0-0.4-0.1-0.6
		C9.9,33.1,9.8,33.1,9.6,33z"/>
</g>
</svg>
