<?xml version="1.0" encoding="utf-8"?>
<!-- Generator: Adobe Illustrator 23.0.1, SVG Export Plug-In . SVG Version: 6.00 Build 0)  -->
<svg version="1.1" id="Слой_1" xmlns="http://www.w3.org/2000/svg" xmlns:xlink="http://www.w3.org/1999/xlink" x="0px" y="0px"
	 viewBox="0 0 40 40" style="enable-background:new 0 0 40 40;" xml:space="preserve">
<style type="text/css">
	.st0{fill:#FFFFFF;}
	.st1{fill:#1D472A;}
	.st2{fill-rule:evenodd;clip-rule:evenodd;fill:#DE981A;}
	.st3{fill:#DE981A;}
	.st4{fill:none;stroke:#659558;stroke-miterlimit:10;}
	.st5{fill:#B45092;}
	.st6{fill-rule:evenodd;clip-rule:evenodd;fill:#B45092;}
	.st7{fill:#0091C8;}
	.st8{fill:#659558;}
	.st9{fill:#639263;}
	.st10{opacity:0.1;clip-path:url(#SVGID_2_);fill:url(#SVGID_3_);}
	.st11{opacity:0.24;clip-path:url(#SVGID_2_);}
	.st12{opacity:0.24;}
	.st13{opacity:0.31;clip-path:url(#SVGID_5_);}
	.st14{opacity:0.31;}
	.st15{clip-path:url(#SVGID_7_);fill:#C2DBCB;}
	.st16{clip-path:url(#SVGID_7_);}
	.st17{fill:#C9E2F2;}
	.st18{opacity:0.67;clip-path:url(#SVGID_5_);}
	.st19{fill:none;}
	.st20{opacity:0.65;fill:#B8D5BC;}
	.st21{clip-path:url(#SVGID_5_);fill:none;}
	.st22{clip-path:url(#SVGID_2_);fill:#FFFFFF;stroke:#639263;stroke-miterlimit:10;}
	.st23{clip-path:url(#SVGID_2_);fill:none;}
	.st24{clip-path:url(#SVGID_2_);}
	.st25{clip-path:url(#SVGID_2_);fill:none;stroke:#608D61;stroke-miterlimit:10;}
	.st26{opacity:0.91;}
	.st27{opacity:0.68;}
	.st28{fill-rule:evenodd;clip-rule:evenodd;fill:#FFFFFF;}
	.st29{fill-rule:evenodd;clip-rule:evenodd;fill:#639263;}
	.st30{opacity:0.1;clip-path:url(#SVGID_9_);fill:url(#SVGID_10_);}
	.st31{opacity:0.24;clip-path:url(#SVGID_9_);}
	.st32{opacity:0.31;clip-path:url(#SVGID_12_);}
	.st33{clip-path:url(#SVGID_14_);fill:#C2DBCB;}
	.st34{clip-path:url(#SVGID_14_);}
	.st35{opacity:0.67;clip-path:url(#SVGID_12_);}
	.st36{clip-path:url(#SVGID_12_);fill:none;}
	.st37{clip-path:url(#SVGID_9_);fill:#FFFFFF;stroke:#639263;stroke-miterlimit:10;}
	.st38{clip-path:url(#SVGID_9_);fill:none;}
	.st39{clip-path:url(#SVGID_9_);}
	.st40{clip-path:url(#SVGID_9_);fill:none;stroke:#608D61;stroke-miterlimit:10;}
	.st41{fill:none;stroke:#638F56;stroke-miterlimit:10;}
	.st42{fill-rule:evenodd;clip-rule:evenodd;fill:#0091C8;}
	.st43{opacity:0.6;}
	.st44{opacity:0.1;clip-path:url(#SVGID_16_);fill:url(#SVGID_17_);stroke:url(#SVGID_18_);stroke-miterlimit:10;}
	.st45{opacity:0.24;clip-path:url(#SVGID_16_);}
	.st46{opacity:0.31;clip-path:url(#SVGID_20_);}
	.st47{clip-path:url(#SVGID_22_);fill:#C2DBCB;}
	.st48{clip-path:url(#SVGID_22_);}
	.st49{opacity:0.67;clip-path:url(#SVGID_20_);}
	.st50{clip-path:url(#SVGID_20_);fill:none;}
	.st51{opacity:0.31;clip-path:url(#SVGID_24_);}
	.st52{clip-path:url(#SVGID_26_);fill:#C2DBCB;}
	.st53{clip-path:url(#SVGID_26_);}
	.st54{opacity:0.67;clip-path:url(#SVGID_24_);}
	.st55{clip-path:url(#SVGID_24_);fill:none;}
	.st56{opacity:0.31;clip-path:url(#SVGID_28_);}
	.st57{clip-path:url(#SVGID_30_);fill:#C2DBCB;}
	.st58{clip-path:url(#SVGID_30_);}
	.st59{opacity:0.67;clip-path:url(#SVGID_28_);}
	.st60{clip-path:url(#SVGID_28_);fill:none;}
	.st61{opacity:0.31;clip-path:url(#SVGID_32_);}
	.st62{clip-path:url(#SVGID_34_);fill:#C2DBCB;}
	.st63{clip-path:url(#SVGID_34_);}
	.st64{opacity:0.67;clip-path:url(#SVGID_32_);}
	.st65{clip-path:url(#SVGID_32_);fill:none;}
	.st66{clip-path:url(#SVGID_16_);fill:none;}
	.st67{fill:#638F56;}
	.st68{opacity:0.1;clip-path:url(#SVGID_36_);fill:url(#SVGID_37_);stroke:url(#SVGID_38_);stroke-miterlimit:10;}
	.st69{opacity:0.24;clip-path:url(#SVGID_36_);}
	.st70{opacity:0.31;clip-path:url(#SVGID_40_);}
	.st71{clip-path:url(#SVGID_42_);fill:#C2DBCB;}
	.st72{clip-path:url(#SVGID_42_);}
	.st73{opacity:0.67;clip-path:url(#SVGID_40_);}
	.st74{clip-path:url(#SVGID_40_);fill:none;}
	.st75{opacity:0.31;clip-path:url(#SVGID_44_);}
	.st76{clip-path:url(#SVGID_46_);fill:#C2DBCB;}
	.st77{clip-path:url(#SVGID_46_);}
	.st78{opacity:0.67;clip-path:url(#SVGID_44_);}
	.st79{clip-path:url(#SVGID_44_);fill:none;}
	.st80{opacity:0.31;clip-path:url(#SVGID_48_);}
	.st81{clip-path:url(#SVGID_50_);fill:#C2DBCB;}
	.st82{clip-path:url(#SVGID_50_);}
	.st83{opacity:0.67;clip-path:url(#SVGID_48_);}
	.st84{clip-path:url(#SVGID_48_);fill:none;}
	.st85{opacity:0.31;clip-path:url(#SVGID_52_);}
	.st86{clip-path:url(#SVGID_54_);fill:#C2DBCB;}
	.st87{clip-path:url(#SVGID_54_);}
	.st88{opacity:0.67;clip-path:url(#SVGID_52_);}
	.st89{clip-path:url(#SVGID_52_);fill:none;}
	.st90{clip-path:url(#SVGID_36_);fill:none;}
	.st91{opacity:0.1;clip-path:url(#SVGID_56_);fill:url(#SVGID_57_);}
	.st92{opacity:0.24;clip-path:url(#SVGID_56_);}
	.st93{opacity:0.31;clip-path:url(#SVGID_59_);}
	.st94{clip-path:url(#SVGID_61_);fill:#C2DBCB;}
	.st95{clip-path:url(#SVGID_61_);}
	.st96{opacity:0.67;clip-path:url(#SVGID_59_);}
	.st97{clip-path:url(#SVGID_59_);fill:none;}
	.st98{clip-path:url(#SVGID_56_);fill:#FFFFFF;stroke:#639263;stroke-miterlimit:10;}
	.st99{clip-path:url(#SVGID_56_);fill:none;}
	.st100{clip-path:url(#SVGID_56_);}
	.st101{clip-path:url(#SVGID_56_);fill:none;stroke:#608D61;stroke-miterlimit:10;}
	.st102{fill:#5F9999;}
</style>
<g>
	<path class="st5" d="M9,32.1c-3.5-1.7-6-5.2-6-9.3C3,17,7.7,12.3,13.4,12.3c2.3,0,4.5,0.8,6.3,2.1c0,3.5,0,7,0,10.6
		c0,0-0.1,0-0.1,0.1c-0.1,0.1-0.1,0.2-0.1,0.2c-0.4,0.8-0.9,1.6-1.6,2.2c-2.6,1.2-5.1,2.5-7.7,3.7c-0.3,0.1-0.5,0.3-0.8,0.5
		C9.3,31.8,9.2,31.9,9,32.1c1.1,0.5,2.2,0.8,3.5,0.9c0.1-0.2,0.3-0.3,0.4-0.4c0.1-0.1,0.3-0.2,0.5-0.3c1-0.5,2.1-1,3.1-1.5
		c0.1,0.1,0.2,0.1,0.3,0.1c0,0,0.1,0,0.2-0.1c0.7-0.3,1.4-0.7,2-1.2c0.2-0.1,0.5-0.2,0.7-0.3c0,0,0,0,0.1,0c0,0.1,0,0.1,0,0.2
		c0.3-0.1,0.6-0.2,0.8-0.4c-0.1,0-0.1-0.1-0.2-0.2c0.6-0.3,1.2-0.6,1.9-0.9c-0.1,0.2-0.2,0.3-0.3,0.5c-0.4,0.2-0.7,0.4-1.1,0.5h0.7
		c-0.5,0.6-1.1,1.2-1.7,1.7h-0.2v-1.2c0,0-0.1,0-0.1,0.1c-2,1-4.1,1.9-6.1,2.9c-0.3,0.1-0.5,0.3-0.6,0.5c-0.1,0-0.3,0-0.4,0
		c-0.3,0.4-0.5,0.9-0.4,1.4c0.1,0,0.2,0,0.3,0c0,0.3,0.1,0.5,0.2,0.7c0.5,1,1.6,1.3,2.7,0.8c2.4-1.2,4.8-2.3,7.2-3.5
		c1.3-0.6,2.6-1.3,3.9-1.9h-4.2c0.5-0.5,1-1.1,1.3-1.7h5c0.1-0.3,0.1-0.6,0.1-0.9c0-0.2-0.1-0.4-0.2-0.6c0,0,0,0,0,0
		c0.1,0,0.1,0,0.2,0c-0.2-0.7-0.9-1.2-1.6-1.3s-1.5,0.2-2.1,0.4c0-0.2,0-0.4,0-0.6c0.1-0.3,0.2-0.7,0.3-1c0.1-0.3,0.2-0.5,0.4-0.8
		c0.5-0.7,1.3-1.2,2.1-1.2c0.5,0,1.1,0.2,1.6,0.2c0.5,0,1.2-0.1,1.5-0.6c0.2-0.3,0.2-0.7,0.2-1c0-3.7,0-7.3,0-11
		c0-0.2,0-0.5-0.2-0.6c-0.1-0.1-0.3-0.1-0.4-0.1c-2,0-4,0-6,0c-1,0-2,0-3,0.1c-0.4,0-0.9-0.1-1.2,0.2c0,0,0,0,0,0
		c-0.3,0.3-0.3,0.8-0.2,1.1c0,0.4,0,0.8,0,1.2c-1.8-1.1-4-1.8-6.3-1.8c-6.6,0-11.9,5.3-11.9,11.8c0,4.7,2.7,8.7,6.5,10.6
		C8.3,32.8,8.6,32.4,9,32.1z M19.7,26.5C19.7,26.5,19.7,26.5,19.7,26.5c0.3,0,0.5,0,0.8,0c-0.2,0.3-0.3,0.6-0.5,0.9
		c-0.1,0.2-0.2,0.4-0.4,0.5v-1.1c0,0-0.1,0-0.1,0.1c0,0,0,0,0,0C19.7,26.7,19.7,26.5,19.7,26.5z M20.9,27.5c0.2-0.3,0.4-0.7,0.6-1
		c0.1-0.2,0.3-0.3,0.4-0.5c0.2-0.3,0.4-0.5,0.7-0.7s0.6-0.3,0.9-0.2c-0.1,0.4-0.2,0.8-0.3,1.3c-0.2,0.4-0.3,0.8-0.5,1.2H20.9z
		 M23.4,11.8c1.7,0,3.5,0,5.2,0c0.4,0,0.9,0,1.2,0.3c0.3,0.2,0.5,0.8,0.1,1.1c-0.2,0.1-0.4,0.1-0.6,0.1c-2.9,0-5.8,0-8.7,0
		c-0.1-0.1-0.2-0.2-0.3-0.2c0,0,0,0,0,0C20.7,11.7,22.2,11.8,23.4,11.8z"/>
	<path class="st5" d="M13.4,27.1c2.5,0,4.4-2,4.4-4.4c0-2.5-2-4.4-4.4-4.5c-2.5,0-4.5,2-4.5,4.4C9,25.1,10.9,27.1,13.4,27.1z
		 M13.4,19.7c1.6,0,2.9,1.4,2.9,3c0,1.6-1.3,3-3,3c-1.6,0-3-1.4-3-3C10.5,21,11.8,19.7,13.4,19.7z"/>
	<path class="st5" d="M8.2,16.4c0.6-0.5,1.2-0.8,1.9-1.2c0.1-0.1,0.2-0.2,0.3-0.3c0-0.4-0.3-0.5-0.6-0.4c-2,0.9-3.5,2.3-4.5,4.3
		c-0.1,0.2-0.2,0.3-0.2,0.5c-0.1,0.2,0,0.4,0.2,0.5c0.2,0.1,0.3,0,0.5-0.2c0-0.1,0.1-0.1,0.1-0.2C6.4,18.3,7.2,17.2,8.2,16.4z"/>
	<path class="st5" d="M10.7,16.6c0.2-0.1,0.3-0.2,0.3-0.4c0-0.3-0.3-0.5-0.6-0.3c-1.2,0.5-2.2,1.3-2.9,2.3c-0.4,0.5-0.7,1.1-1,1.7
		c-0.1,0.2,0,0.4,0.2,0.5c0.2,0.1,0.4,0,0.5-0.2c0-0.1,0.1-0.1,0.1-0.2c0.3-0.7,0.7-1.3,1.3-1.9C9.2,17.5,9.9,17,10.7,16.6z"/>
	<path class="st5" d="M11.3,17.9c0.3-0.1,0.4-0.3,0.3-0.5c-0.1-0.2-0.3-0.3-0.6-0.1c-0.8,0.4-1.6,0.9-2.1,1.6
		c-0.4,0.5-0.6,1-0.9,1.5C7.8,20.7,8,21,8.2,21c0.3,0,0.4-0.1,0.5-0.3C9.2,19.4,10.1,18.5,11.3,17.9z"/>
	<path class="st5" d="M15.5,27.4c-0.2,0.1-0.3,0.3-0.2,0.5c0.1,0.2,0.3,0.3,0.5,0.2c1.4-0.6,2.4-1.7,3.1-3.1c0-0.1,0.1-0.2,0.1-0.2
		c0-0.2-0.1-0.3-0.3-0.4c-0.2,0-0.4,0-0.4,0.2C17.7,25.9,16.8,26.8,15.5,27.4z"/>
	<path class="st5" d="M13.4,24.2c0.8,0,1.5-0.7,1.5-1.5c0-0.8-0.7-1.5-1.5-1.5c-0.8,0-1.5,0.7-1.5,1.5
		C11.9,23.5,12.6,24.2,13.4,24.2z M13.4,21.9c0.4,0,0.7,0.3,0.7,0.7c0,0.4-0.4,0.8-0.8,0.7c-0.4,0-0.7-0.4-0.7-0.7
		C12.7,22.3,13,21.9,13.4,21.9z"/>
	<path class="st5" d="M30,29C30.1,29,30.1,29,30,29l0.1,0v-0.5c0-0.2,0-0.5,0-0.7c0,0,0,0,0,0v-0.2H30c-0.3-0.1-0.8-0.2-1.1,0h-0.3
		c0,0.1,0.1,0.2,0.1,0.3c0,0.1,0,0.1,0,0.2c0,0.3,0,0.5,0.1,0.8c0,0.1,0,0.1,0,0.2h0.3C29.4,29,29.7,29,30,29z"/>
	<path class="st5" d="M33.8,21.4c-0.8,0.2-1.5,0.5-2.2,0.9c-0.2,0.1-0.5,0.2-0.6,0.5c-0.2,0.3-0.2,0.7-0.2,1c0,2,0,3.9,0.1,5.9
		c0,0.2,0,0.4-0.1,0.6c-0.2,0.3-0.6,0.3-1,0.3c-2.5,0-4.9,1-7.2,2.1c-2.3,1.1-4.4,2.5-6.8,3.4c-0.7,0.3-1.5,0.5-2.2,0.2
		c-0.7-0.2-1.1-0.9-1.6-1.4c-0.9-0.9-3.3-2.3-4.2-0.8c-0.7,1.3-0.3,3.1,0.7,4.1c1.2,1.2,3,1.5,4.7,1.3c1.7-0.2,3.2-1,4.7-1.7
		c2.8-1.4,5.6-2.8,8.5-4.1c1.7-0.9,3.5-1.7,4.9-3c0.3-0.3,0.6-0.6,0.9-0.9c0.3-0.3,0.6-0.6,1-0.8c1-0.7,2.3-1.1,3.3-1.7
		C35.6,25.3,34.7,23.4,33.8,21.4z M9.4,37.9c-0.3-0.2-0.5-0.6-0.8-0.9c-0.1-0.4-0.2-0.8-0.2-1.1c0-0.5,0.4-0.7,0.7-0.4
		c0.7,0.5,1,1.2,1,2C10.2,38.1,9.8,38.2,9.4,37.9z M32.2,24.8c-0.2-0.4-0.4-0.7-0.5-1.1c0.4-0.2,0.7-0.4,1.1-0.5
		c0.2,0.4,0.4,0.7,0.5,1.1C33,24.4,32.6,24.6,32.2,24.8z M32.9,26.3c0.4-0.2,0.8-0.4,1.1-0.6c0.2,0.4,0.4,0.8,0.5,1.1
		c-0.4,0.2-0.8,0.4-1.1,0.6C33.3,27,33.1,26.7,32.9,26.3z"/>
	<path class="st5" d="M23,0.5c0.1,0,0.2,0,0.3,0c0.2,0,0.4,0.1,0.6,0.2c0.3,0.2,0.5,0.4,0.8,0.5c0.1,0.1,0.2,0.1,0.2,0.2
		c0,0.1,0,0.2-0.1,0.3c-0.1,0.2-0.1,0.5,0,0.7c0.1,0.9,0.2,1.8,0.4,2.7c0.1-1.1,0.3-2.3,0.4-3.4c0-0.3,0.1-0.6,0.5-0.9
		c0.3-0.2,0.8-0.2,1.2-0.2c0.5,0,1.1,0.2,1.3,0.5c0.1,0.2,0.1,0.4,0,0.6c-0.4,1.2-0.8,2.4-1.2,3.6c0.6-1.1,1.3-2.1,1.9-3.2
		c0.2-0.3,0.4-0.6,0.8-0.8c0.5-0.2,1.1-0.2,1.6-0.1c-1.5,2.1-3,4.2-4.5,6.2c0.2,0,0.3,0.1,0.5,0.1c1.6-2.2,3.2-4.3,4.8-6.5
		c-0.3-0.2-0.8-0.3-1.3-0.3c-0.6,0-1.2,0.3-1.8,0.2c-0.5-0.1-0.8-0.5-1.3-0.7c-0.4-0.2-1-0.2-1.5-0.1c-0.5,0.1-0.8,0.4-1.3,0.5
		c-0.5,0.1-1-0.1-1.4-0.3c-0.2-0.1-0.3-0.2-0.6-0.3c-0.2,0-0.4-0.1-0.6,0C22.8,0.3,22.8,0.4,23,0.5z"/>
	<path class="st5" d="M20.9,5.5c0.8,1.1,1.6,2.1,1.9,3.3c0,0.1,0,0.2,0.1,0.2c0.1,0.1,0.2,0.1,0.3,0.1c0.6,0.1,1.3,0.2,2,0.2
		c0.6,0,1.2,0,1.6-0.3c0.5-0.2,0.7-0.6,0.4-0.9c0,0-0.1-0.1-0.1-0.1c0,0,0,0,0,0c-0.1,0-0.2,0-0.2,0.1c-0.6,0.3-1.5,0.6-2.3,0.5
		c-0.7-0.1-1-0.5-1.4-0.9c-1.6-1.9-2.6-4-4.4-5.8c-0.1-0.1-0.3-0.3-0.2-0.5c0.1-0.2,0.7-0.3,1.1-0.2c0.7,0.2,1,0.7,1.2,1.1
		c0.6,1,1.2,2,1.9,3c-0.4-1.2-0.8-2.4-1.2-3.6c-0.1-0.2-0.1-0.4,0-0.6C21.6,1.1,21.8,1,22,0.9c0.1-0.1,0.2-0.3,0-0.4
		c-0.4,0.2-0.7,0.5-1.2,0.6c-0.3,0.1-0.7,0-1-0.1c-0.3-0.1-0.7-0.2-1-0.2c-0.3,0-0.7,0-0.9,0.2c-0.2,0.2,0.1,0.5,0.2,0.7
		C19,3,19.9,4.2,20.9,5.5z M21.2,1.2v0.5c0,0,0-0.1,0-0.2C21.2,1.4,21.2,1.2,21.2,1.2z"/>
	<path class="st5" d="M27.4,30.2c-0.3,0.2-0.7,0.3-1,0.5H27c0.2-0.1,0.3-0.2,0.5-0.2c0.4-0.2,0.8-0.5,1-0.9c0.1-0.2,0.2-0.4,0.3-0.6
		h-0.3C28.3,29.5,27.9,30,27.4,30.2z"/>
</g>
</svg>
