<?xml version="1.0" encoding="utf-8"?>
<!-- Generator: Adobe Illustrator 23.0.1, SVG Export Plug-In . SVG Version: 6.00 Build 0)  -->
<svg version="1.1" id="Слой_1" xmlns="http://www.w3.org/2000/svg" xmlns:xlink="http://www.w3.org/1999/xlink" x="0px" y="0px"
	 viewBox="0 0 40 40" style="enable-background:new 0 0 40 40;" xml:space="preserve">
<style type="text/css">
	.st0{fill:#FFFFFF;}
	.st1{fill:#1D472A;}
	.st2{fill-rule:evenodd;clip-rule:evenodd;fill:#DE981A;}
	.st3{fill:#DE981A;}
	.st4{fill:none;stroke:#659558;stroke-miterlimit:10;}
	.st5{fill:#B45092;}
	.st6{fill-rule:evenodd;clip-rule:evenodd;fill:#B45092;}
	.st7{fill:#0091C8;}
	.st8{font-family:'MyriadPro-Regular';}
	.st9{font-size:6.0477px;}
	.st10{fill:#659558;}
	.st11{fill:#639263;}
	.st12{opacity:0.1;clip-path:url(#SVGID_2_);fill:url(#SVGID_3_);}
	.st13{opacity:0.24;clip-path:url(#SVGID_2_);}
	.st14{opacity:0.24;}
	.st15{opacity:0.31;clip-path:url(#SVGID_5_);}
	.st16{opacity:0.31;}
	.st17{clip-path:url(#SVGID_7_);fill:#C2DBCB;}
	.st18{clip-path:url(#SVGID_7_);}
	.st19{fill:#C9E2F2;}
	.st20{opacity:0.67;clip-path:url(#SVGID_5_);}
	.st21{fill:none;}
	.st22{opacity:0.65;fill:#B8D5BC;}
	.st23{clip-path:url(#SVGID_5_);fill:none;}
	.st24{clip-path:url(#SVGID_2_);fill:#FFFFFF;stroke:#639263;stroke-miterlimit:10;}
	.st25{clip-path:url(#SVGID_2_);fill:none;}
	.st26{clip-path:url(#SVGID_2_);}
	.st27{clip-path:url(#SVGID_2_);fill:none;stroke:#608D61;stroke-miterlimit:10;}
	.st28{opacity:0.91;}
	.st29{opacity:0.68;}
	.st30{fill-rule:evenodd;clip-rule:evenodd;fill:#FFFFFF;}
	.st31{fill-rule:evenodd;clip-rule:evenodd;fill:#639263;}
	.st32{opacity:0.1;clip-path:url(#SVGID_9_);fill:url(#SVGID_10_);}
	.st33{opacity:0.24;clip-path:url(#SVGID_9_);}
	.st34{opacity:0.31;clip-path:url(#SVGID_12_);}
	.st35{clip-path:url(#SVGID_14_);fill:#C2DBCB;}
	.st36{clip-path:url(#SVGID_14_);}
	.st37{opacity:0.67;clip-path:url(#SVGID_12_);}
	.st38{clip-path:url(#SVGID_12_);fill:none;}
	.st39{clip-path:url(#SVGID_9_);fill:#FFFFFF;stroke:#639263;stroke-miterlimit:10;}
	.st40{clip-path:url(#SVGID_9_);fill:none;}
	.st41{clip-path:url(#SVGID_9_);}
	.st42{clip-path:url(#SVGID_9_);fill:none;stroke:#608D61;stroke-miterlimit:10;}
	.st43{fill:none;stroke:#638F56;stroke-miterlimit:10;}
	.st44{fill-rule:evenodd;clip-rule:evenodd;fill:#0091C8;}
	.st45{opacity:0.6;}
	.st46{opacity:0.1;clip-path:url(#SVGID_16_);fill:url(#SVGID_17_);stroke:url(#SVGID_18_);stroke-miterlimit:10;}
	.st47{opacity:0.24;clip-path:url(#SVGID_16_);}
	.st48{opacity:0.31;clip-path:url(#SVGID_20_);}
	.st49{clip-path:url(#SVGID_22_);fill:#C2DBCB;}
	.st50{clip-path:url(#SVGID_22_);}
	.st51{opacity:0.67;clip-path:url(#SVGID_20_);}
	.st52{clip-path:url(#SVGID_20_);fill:none;}
	.st53{opacity:0.31;clip-path:url(#SVGID_24_);}
	.st54{clip-path:url(#SVGID_26_);fill:#C2DBCB;}
	.st55{clip-path:url(#SVGID_26_);}
	.st56{opacity:0.67;clip-path:url(#SVGID_24_);}
	.st57{clip-path:url(#SVGID_24_);fill:none;}
	.st58{opacity:0.31;clip-path:url(#SVGID_28_);}
	.st59{clip-path:url(#SVGID_30_);fill:#C2DBCB;}
	.st60{clip-path:url(#SVGID_30_);}
	.st61{opacity:0.67;clip-path:url(#SVGID_28_);}
	.st62{clip-path:url(#SVGID_28_);fill:none;}
	.st63{opacity:0.31;clip-path:url(#SVGID_32_);}
	.st64{clip-path:url(#SVGID_34_);fill:#C2DBCB;}
	.st65{clip-path:url(#SVGID_34_);}
	.st66{opacity:0.67;clip-path:url(#SVGID_32_);}
	.st67{clip-path:url(#SVGID_32_);fill:none;}
	.st68{clip-path:url(#SVGID_16_);fill:none;}
	.st69{fill:#638F56;}
	.st70{opacity:0.1;clip-path:url(#SVGID_36_);fill:url(#SVGID_37_);stroke:url(#SVGID_38_);stroke-miterlimit:10;}
	.st71{opacity:0.24;clip-path:url(#SVGID_36_);}
	.st72{opacity:0.31;clip-path:url(#SVGID_40_);}
	.st73{clip-path:url(#SVGID_42_);fill:#C2DBCB;}
	.st74{clip-path:url(#SVGID_42_);}
	.st75{opacity:0.67;clip-path:url(#SVGID_40_);}
	.st76{clip-path:url(#SVGID_40_);fill:none;}
	.st77{opacity:0.31;clip-path:url(#SVGID_44_);}
	.st78{clip-path:url(#SVGID_46_);fill:#C2DBCB;}
	.st79{clip-path:url(#SVGID_46_);}
	.st80{opacity:0.67;clip-path:url(#SVGID_44_);}
	.st81{clip-path:url(#SVGID_44_);fill:none;}
	.st82{opacity:0.31;clip-path:url(#SVGID_48_);}
	.st83{clip-path:url(#SVGID_50_);fill:#C2DBCB;}
	.st84{clip-path:url(#SVGID_50_);}
	.st85{opacity:0.67;clip-path:url(#SVGID_48_);}
	.st86{clip-path:url(#SVGID_48_);fill:none;}
	.st87{opacity:0.31;clip-path:url(#SVGID_52_);}
	.st88{clip-path:url(#SVGID_54_);fill:#C2DBCB;}
	.st89{clip-path:url(#SVGID_54_);}
	.st90{opacity:0.67;clip-path:url(#SVGID_52_);}
	.st91{clip-path:url(#SVGID_52_);fill:none;}
	.st92{clip-path:url(#SVGID_36_);fill:none;}
	.st93{opacity:0.1;clip-path:url(#SVGID_56_);fill:url(#SVGID_57_);}
	.st94{opacity:0.24;clip-path:url(#SVGID_56_);}
	.st95{opacity:0.31;clip-path:url(#SVGID_59_);}
	.st96{clip-path:url(#SVGID_61_);fill:#C2DBCB;}
	.st97{clip-path:url(#SVGID_61_);}
	.st98{opacity:0.67;clip-path:url(#SVGID_59_);}
	.st99{clip-path:url(#SVGID_59_);fill:none;}
	.st100{clip-path:url(#SVGID_56_);fill:#FFFFFF;stroke:#639263;stroke-miterlimit:10;}
	.st101{clip-path:url(#SVGID_56_);fill:none;}
	.st102{clip-path:url(#SVGID_56_);}
	.st103{clip-path:url(#SVGID_56_);fill:none;stroke:#608D61;stroke-miterlimit:10;}
	.st104{fill:#5F9999;}
</style>
<g>
	<g>
		<g>
			<path class="st3" d="M18.9,15.3c-0.1,0-0.1,0-0.2,0c-1.6,0-3.2,0-4.8,0c-0.8,0-1.5-0.2-2.1-0.7c-1.1-0.9-1.4-2-1.1-3.4
				C11.1,9.8,12,9,13.3,8.8c1.8-0.3,3.4,0.9,3.7,2.7c0,0.1,0,0.3,0,0.4c0,0.1,0,0.1-0.1,0.1c-0.2,0-0.4,0-0.7,0
				c-0.1,0-0.1,0-0.1-0.1c-0.1-0.9-0.5-1.6-1.4-2c-0.9-0.4-1.7-0.3-2.5,0.3c-0.8,0.6-1,1.5-0.7,2.4c0.3,0.9,0.9,1.5,1.9,1.7
				c0.2,0,0.3,0,0.5,0c1.6,0,3.3,0,4.9,0C18.9,14.7,18.9,15,18.9,15.3z M16.1,15.1C16.1,15.1,16.1,15.1,16.1,15.1c0.7,0,1.5,0,2.2,0
				c0.1,0,0.3,0.1,0.4,0c0.1-0.1,0-0.2,0-0.4c0-0.2,0-0.2-0.2-0.2c-1.5,0-3.1,0-4.6,0c-0.8,0-1.4-0.3-1.9-0.8
				c-0.5-0.6-0.7-1.3-0.6-2.1c0.1-0.6,0.4-1,0.8-1.4c0.7-0.6,1.6-0.8,2.5-0.5c1,0.4,1.5,1.1,1.6,2.1c0,0.1,0,0.1,0.1,0.1
				c0.1,0,0.2,0,0.3,0c0.1,0,0.2,0,0.2-0.2c-0.1-0.7-0.4-1.3-0.9-1.9c-0.7-0.7-1.6-1-2.6-0.9c-0.7,0.1-1.3,0.4-1.8,0.8
				c-0.8,0.8-1.1,1.7-0.9,2.7c0.2,1.5,1.5,2.6,3,2.6C14.5,15.1,15.3,15.1,16.1,15.1z"/>
			<path class="st3" d="M18.9,13.8c-1.7,0-3.3,0-5,0c-0.9,0-1.7-0.7-1.8-1.5c-0.1-0.9,0.5-1.8,1.4-2c1.1-0.3,2.1,0.5,2.2,1.6
				c0,0.1,0,0.1-0.1,0.1c-0.2,0-0.4,0-0.7,0c-0.1,0-0.1,0-0.1-0.1c-0.1-0.4-0.4-0.7-0.8-0.8c-0.4,0-0.8,0.2-0.9,0.6
				c-0.2,0.5,0.2,1.1,0.8,1.2c0.1,0,0.1,0,0.2,0c1.6,0,3.2,0,4.8,0c0,0,0.1,0,0.1,0C18.9,13.2,18.9,13.5,18.9,13.8z M16.2,13.6
				c0.7,0,1.4,0,2.1,0c0.1,0,0.3,0.1,0.4,0c0.1-0.1,0-0.3,0-0.4c0-0.1,0-0.2-0.2-0.2c-1.5,0-3.1,0-4.6,0c-0.6,0-1.2-0.5-1.1-1.2
				c0-0.5,0.6-1,1.2-0.9c0.5,0.1,0.7,0.3,0.9,0.8c0,0.1,0.1,0.1,0.1,0.1c0.1,0,0.2,0,0.4,0c0.1,0,0.1,0,0.1-0.1
				c-0.2-0.9-1-1.5-1.9-1.3c-1,0.2-1.6,1.3-1.2,2.3c0.3,0.6,0.8,0.9,1.5,0.9C14.6,13.6,15.4,13.6,16.2,13.6z"/>
			<path class="st3" d="M10,12c0,1,0,2.1,0,3.1c0,0.1,0,0.2-0.1,0.1c-0.2,0-0.4,0-0.6,0c-0.1,0-0.2,0-0.2-0.2c0-1.4,0-2.7,0-4.1
				c0-0.4,0-0.8,0-1.3c0-0.1,0-0.1-0.1-0.1c-0.3,0-0.6,0-0.9,0c-0.1,0-0.1,0-0.1-0.1c0-0.2,0-0.4,0-0.7c0-0.1,0-0.1,0.1-0.1
				c0.6,0,1.2,0,1.8,0c0.1,0,0.1,0,0.1,0.1C10,9.9,10,11,10,12z M9.9,12c0-1,0-2,0-3c0-0.1,0-0.1-0.1-0.1c-0.5,0-1.1,0-1.6,0
				c-0.1,0-0.1,0-0.1,0.1c0,0.1,0,0.2,0,0.4c0,0.1,0,0.1,0.1,0.1c0.3,0,0.6,0,0.9,0c0.1,0,0.2,0,0.2,0.2c0,1.7,0,3.3,0,5
				c0,0.1-0.1,0.3,0,0.4c0.1,0.1,0.3,0,0.4,0c0.1,0,0.2,0,0.2-0.2C9.9,13.9,9.9,13,9.9,12z"/>
			<path class="st3" d="M8.8,12.6c0,0.8,0,1.7,0,2.5c0,0.1,0,0.1-0.1,0.1c-0.2,0-0.4,0-0.6,0c-0.1,0-0.2,0-0.2-0.2
				c0-1.4,0-2.7,0-4.1c0-0.1,0-0.2-0.2-0.2c-0.2,0-0.4,0-0.6,0c-0.1,0-0.1,0-0.1-0.1c0-0.2,0-0.4,0-0.7c0-0.1,0-0.1,0.1-0.1
				c0.5,0,1,0,1.5,0c0.1,0,0.1,0,0.1,0.1C8.8,10.9,8.8,11.7,8.8,12.6z M8.7,12.6c0-0.8,0-1.6,0-2.4c0-0.1,0-0.1-0.1-0.1
				c-0.4,0-0.9,0-1.3,0c-0.1,0-0.1,0-0.1,0.1c0,0.1,0,0.3,0,0.4c0,0.1,0,0.1,0.1,0.1c0.2,0,0.4,0,0.6,0c0.1,0,0.2,0,0.2,0.2
				c0,1.3,0,2.5,0,3.8c0,0.1-0.1,0.3,0,0.4c0.1,0.1,0.3,0,0.4,0c0.1,0,0.1,0,0.1-0.1C8.7,14.2,8.7,13.4,8.7,12.6z"/>
			<path class="st3" d="M16.1,15.1c-0.8,0-1.5,0-2.3,0c-1.5,0-2.8-1.1-3-2.6c-0.2-1.1,0.1-2,0.9-2.7c0.5-0.5,1.1-0.8,1.8-0.8
				c1-0.1,1.9,0.2,2.6,0.9c0.5,0.5,0.8,1.1,0.9,1.9c0,0.1,0,0.2-0.2,0.2c-0.1,0-0.2,0-0.3,0c-0.1,0-0.1,0-0.1-0.1
				c-0.1-1-0.7-1.7-1.6-2.1c-0.9-0.3-1.8-0.2-2.5,0.5c-0.4,0.4-0.7,0.8-0.8,1.4c-0.1,0.8,0,1.5,0.6,2.1c0.5,0.6,1.2,0.9,1.9,0.8
				c1.5,0,3.1,0,4.6,0c0.2,0,0.2,0,0.2,0.2c0,0.1,0.1,0.3,0,0.4c-0.1,0.1-0.2,0-0.4,0C17.6,15.1,16.8,15.1,16.1,15.1
				C16.1,15.1,16.1,15.1,16.1,15.1z"/>
			<path class="st3" d="M16.2,13.6c-0.8,0-1.6,0-2.3,0c-0.7,0-1.2-0.3-1.5-0.9c-0.5-0.9,0.1-2.1,1.2-2.3c0.9-0.1,1.7,0.4,1.9,1.3
				c0,0.1,0,0.1-0.1,0.1c-0.1,0-0.2,0-0.4,0c-0.1,0-0.1,0-0.1-0.1C14.7,11.3,14.4,11,14,11c-0.5-0.1-1.1,0.4-1.2,0.9
				c0,0.7,0.5,1.2,1.1,1.2c1.5,0,3.1,0,4.6,0c0.1,0,0.2,0,0.2,0.2c0,0.1,0.1,0.3,0,0.4c-0.1,0.1-0.3,0-0.4,0
				C17.6,13.6,16.9,13.6,16.2,13.6z"/>
			<path class="st3" d="M9.9,12c0,1,0,1.9,0,2.9c0,0.1,0,0.2-0.2,0.2c-0.1,0-0.3,0.1-0.4,0c-0.1-0.1,0-0.3,0-0.4c0-1.7,0-3.3,0-5
				c0-0.1,0-0.2-0.2-0.2c-0.3,0-0.6,0-0.9,0c-0.1,0-0.1,0-0.1-0.1c0-0.1,0-0.2,0-0.4c0-0.1,0-0.1,0.1-0.1c0.5,0,1.1,0,1.6,0
				C9.9,8.9,9.9,9,9.9,9C9.9,10,9.9,11,9.9,12z"/>
			<path class="st3" d="M8.7,12.6c0,0.8,0,1.6,0,2.3c0,0.1,0,0.2-0.1,0.1c-0.1,0-0.3,0.1-0.4,0c-0.1-0.1,0-0.3,0-0.4
				c0-1.3,0-2.5,0-3.8c0-0.1,0-0.2-0.2-0.2c-0.2,0-0.4,0-0.6,0c-0.1,0-0.1,0-0.1-0.1c0-0.1,0-0.3,0-0.4c0-0.1,0-0.1,0.1-0.1
				c0.4,0,0.9,0,1.3,0c0.1,0,0.1,0.1,0.1,0.1C8.7,11,8.7,11.8,8.7,12.6z"/>
		</g>
		<path class="st3" d="M4.4,3.8c0.1,0,0.1,0,0.2,0C5.4,4.2,6,3.9,6.7,3.4c0.7-0.5,1-1,0.9-1.7c0-0.3,0.1-0.4,0.4-0.5
			c0.1,0,0.1,0,0.2-0.1c0.8-0.5,1.6-0.6,2.2,0.4c0.1,0.1,0.3,0.1,0.5,0.1c0.5,0,1.1-0.1,1.6-0.2c0.2,0,0.4-0.2,0.5-0.3
			c0.3-0.8,0.9-1,1.7-0.8c0.8,0.2,0.8,0.1,1,0.9c0.1,0.5,0.3,0.8,0.8,0.9c0.2,0,0.5,0.1,0.7,0.3c0.6,0.4,1.1,0.4,1.7,0
			c0.3-0.2,0.6-0.2,0.9,0.1c0,0,0.1,0.1,0.1,0.1c0.8,0.4,1.1,1,0.7,1.9c-0.1,0.1,0,0.4,0.1,0.5c0.3,0.4,0.6,0.8,0.9,1.3
			c0.2,0.3,0.3,0.4,0.6,0.3c0.8-0.1,1.2,0.2,1.5,1c0.2,0.6,0.2,1.1-0.3,1.5c-0.4,0.2-0.4,0.6-0.3,1c0.1,0.4,0.1,0.8,0.1,1.2
			c0,0.3,0.1,0.6,0.4,0.7c0.7,0.3,0.9,0.8,0.7,1.6c-0.1,0.7-0.3,1.1-1.1,1.1c-0.4,0-0.6,0.3-0.7,0.7c-0.1,0.3-0.2,0.6-0.4,0.9
			c-0.3,0.4-0.3,0.8,0,1.2c0.4,0.5,0.2,0.8-0.1,1.3c-0.5,0.7-1,1-1.8,0.6c-0.1-0.1-0.4,0-0.6,0.1c-0.4,0.3-0.8,0.6-1.2,0.9
			c-0.3,0.2-0.4,0.4-0.4,0.7c0.1,0.8-0.2,1.1-1,1.4c-0.7,0.2-1.1,0.3-1.6-0.3c-0.2-0.3-0.5-0.4-0.9-0.3c-0.3,0.1-0.7,0.2-1,0.1
			c-0.5,0-0.9,0.2-1.1,0.7c-0.2,0.5-0.6,0.6-1.2,0.5c-0.9-0.1-1.4-0.4-1.5-1.3c0-0.2-0.2-0.3-0.4-0.4c-0.3-0.2-0.7-0.2-1-0.5
			c-0.5-0.3-1-0.3-1.4,0c-0.4,0.3-0.8,0.3-1.1-0.1c0,0,0,0,0,0c-0.8-0.4-1.1-1-0.7-1.9c0.1-0.1,0-0.4-0.1-0.5
			C4.6,18,4.3,17.6,4,17.2c-0.2-0.2-0.3-0.3-0.6-0.3c-1.1,0-1.1-0.1-1.5-1.1c-0.3-0.6-0.2-1,0.3-1.4c0.4-0.3,0.5-0.6,0.4-1.1
			c-0.1-0.3-0.1-0.7-0.1-1c0-0.5-0.2-0.8-0.6-0.9c-0.6-0.2-0.7-0.6-0.6-1.3c0.1-0.8,0.4-1.3,1.2-1.4c0.3,0,0.4-0.2,0.5-0.5
			C3.1,8,3.2,7.6,3.4,7.3c0.4-0.6,0.4-1.1,0-1.6c-0.3-0.3-0.2-0.6,0.1-1C3.7,4.6,3.9,4.2,4.1,4C4.2,3.9,4.3,3.8,4.4,3.8z M21,11.7
			c0-4.6-3.7-8.3-8.3-8.3c-4.6,0-8.3,3.7-8.3,8.3c0,4.6,3.7,8.3,8.3,8.3C17.3,20,21,16.3,21,11.7z"/>
	</g>
	<g>
		<path class="st3" d="M19.3,20.3c0.1,0,0.1,0,0.2,0c0.8,0.4,1.4,0.1,2.1-0.4c0.7-0.5,1-1,0.9-1.7c0-0.3,0.1-0.4,0.4-0.5
			c0.1,0,0.1,0,0.2-0.1c0.8-0.5,1.6-0.6,2.2,0.4c0.1,0.1,0.3,0.1,0.5,0.1c0.5,0,1.1-0.1,1.6-0.2c0.2,0,0.4-0.2,0.5-0.3
			c0.3-0.8,0.9-1,1.7-0.8c0.8,0.2,0.8,0.1,1,0.9c0.1,0.5,0.3,0.8,0.8,0.9c0.2,0,0.5,0.1,0.7,0.3c0.6,0.4,1.1,0.4,1.7,0
			c0.3-0.2,0.6-0.2,0.9,0.1c0,0,0.1,0.1,0.1,0.1c0.8,0.4,1.1,1,0.7,1.9c-0.1,0.1,0,0.4,0.1,0.5c0.3,0.4,0.6,0.8,0.9,1.3
			c0.2,0.3,0.3,0.4,0.6,0.3c0.8-0.1,1.2,0.2,1.5,1c0.2,0.6,0.2,1.1-0.3,1.5c-0.4,0.2-0.4,0.6-0.3,1c0.1,0.4,0.1,0.8,0.1,1.2
			c0,0.3,0.1,0.6,0.4,0.7c0.7,0.3,0.9,0.8,0.7,1.6c-0.1,0.7-0.3,1.1-1.1,1.1c-0.4,0-0.6,0.3-0.7,0.7c-0.1,0.3-0.2,0.6-0.4,0.9
			c-0.3,0.4-0.3,0.8,0,1.2c0.4,0.5,0.2,0.8-0.1,1.3c-0.5,0.7-1,1-1.8,0.6c-0.1-0.1-0.4,0-0.6,0.1c-0.4,0.3-0.8,0.6-1.2,0.9
			c-0.3,0.2-0.4,0.4-0.4,0.7c0.1,0.8-0.2,1.1-1,1.4c-0.7,0.2-1.1,0.3-1.6-0.3c-0.2-0.3-0.5-0.4-0.9-0.3c-0.3,0.1-0.7,0.2-1,0.1
			c-0.5,0-0.9,0.2-1.1,0.7c-0.2,0.5-0.6,0.6-1.2,0.5c-0.9-0.1-1.4-0.4-1.5-1.3c0-0.2-0.2-0.3-0.4-0.4c-0.3-0.2-0.7-0.2-1-0.5
			c-0.5-0.3-1-0.3-1.4,0c-0.4,0.3-0.8,0.3-1.1-0.1c0,0,0,0,0,0c-0.8-0.4-1.1-1-0.7-1.9c0.1-0.1,0-0.4-0.1-0.5
			c-0.3-0.4-0.6-0.8-0.9-1.3c-0.2-0.2-0.3-0.3-0.6-0.3c-1.1,0-1.1-0.1-1.5-1.1c-0.3-0.6-0.2-1,0.3-1.4c0.4-0.3,0.5-0.6,0.4-1.1
			c-0.1-0.3-0.1-0.7-0.1-1c0-0.5-0.2-0.8-0.6-0.9c-0.6-0.2-0.7-0.6-0.6-1.3c0.1-0.8,0.4-1.3,1.2-1.4c0.3,0,0.4-0.2,0.5-0.5
			c0.1-0.3,0.2-0.7,0.4-0.9c0.4-0.6,0.4-1.1,0-1.6c-0.3-0.3-0.2-0.6,0.1-1c0.3-0.3,0.5-0.6,0.7-0.9C19.1,20.4,19.2,20.4,19.3,20.3z
			 M35.9,28.3c0-4.6-3.7-8.3-8.3-8.3c-4.6,0-8.3,3.7-8.3,8.3c0,4.6,3.7,8.3,8.3,8.3C32.2,36.6,35.9,32.8,35.9,28.3z"/>
		<text transform="matrix(1 0 0 1 20.7256 30.499)" class="st3 st8 st9">КСУП</text>
	</g>
</g>
</svg>
