<?xml version="1.0" encoding="utf-8"?>
<!-- Generator: Adobe Illustrator 23.0.1, SVG Export Plug-In . SVG Version: 6.00 Build 0)  -->
<svg version="1.1" id="Слой_1" xmlns="http://www.w3.org/2000/svg" xmlns:xlink="http://www.w3.org/1999/xlink" x="0px" y="0px"
	 viewBox="0 0 40 40" style="enable-background:new 0 0 40 40;" xml:space="preserve">
<style type="text/css">
	.st0{fill:#FFFFFF;}
	.st1{fill:#1D472A;}
	.st2{fill-rule:evenodd;clip-rule:evenodd;fill:#DE981A;}
	.st3{fill:#DE981A;}
	.st4{fill:none;stroke:#659558;stroke-miterlimit:10;}
	.st5{fill:#B45092;}
	.st6{fill-rule:evenodd;clip-rule:evenodd;fill:#B45092;}
	.st7{fill:#0091C8;}
	.st8{fill:#659558;}
	.st9{fill:#639263;}
	.st10{opacity:0.1;clip-path:url(#SVGID_2_);fill:url(#SVGID_3_);}
	.st11{opacity:0.24;clip-path:url(#SVGID_2_);}
	.st12{opacity:0.24;}
	.st13{opacity:0.31;clip-path:url(#SVGID_5_);}
	.st14{opacity:0.31;}
	.st15{clip-path:url(#SVGID_7_);fill:#C2DBCB;}
	.st16{clip-path:url(#SVGID_7_);}
	.st17{fill:#C9E2F2;}
	.st18{opacity:0.67;clip-path:url(#SVGID_5_);}
	.st19{fill:none;}
	.st20{opacity:0.65;fill:#B8D5BC;}
	.st21{clip-path:url(#SVGID_5_);fill:none;}
	.st22{clip-path:url(#SVGID_2_);fill:#FFFFFF;stroke:#639263;stroke-miterlimit:10;}
	.st23{clip-path:url(#SVGID_2_);fill:none;}
	.st24{clip-path:url(#SVGID_2_);}
	.st25{clip-path:url(#SVGID_2_);fill:none;stroke:#608D61;stroke-miterlimit:10;}
	.st26{opacity:0.91;}
	.st27{opacity:0.68;}
	.st28{fill-rule:evenodd;clip-rule:evenodd;fill:#FFFFFF;}
	.st29{fill-rule:evenodd;clip-rule:evenodd;fill:#639263;}
	.st30{opacity:0.1;clip-path:url(#SVGID_9_);fill:url(#SVGID_10_);}
	.st31{opacity:0.24;clip-path:url(#SVGID_9_);}
	.st32{opacity:0.31;clip-path:url(#SVGID_12_);}
	.st33{clip-path:url(#SVGID_14_);fill:#C2DBCB;}
	.st34{clip-path:url(#SVGID_14_);}
	.st35{opacity:0.67;clip-path:url(#SVGID_12_);}
	.st36{clip-path:url(#SVGID_12_);fill:none;}
	.st37{clip-path:url(#SVGID_9_);fill:#FFFFFF;stroke:#639263;stroke-miterlimit:10;}
	.st38{clip-path:url(#SVGID_9_);fill:none;}
	.st39{clip-path:url(#SVGID_9_);}
	.st40{clip-path:url(#SVGID_9_);fill:none;stroke:#608D61;stroke-miterlimit:10;}
	.st41{fill:none;stroke:#638F56;stroke-miterlimit:10;}
	.st42{fill-rule:evenodd;clip-rule:evenodd;fill:#0091C8;}
	.st43{opacity:0.6;}
	.st44{opacity:0.1;clip-path:url(#SVGID_16_);fill:url(#SVGID_17_);stroke:url(#SVGID_18_);stroke-miterlimit:10;}
	.st45{opacity:0.24;clip-path:url(#SVGID_16_);}
	.st46{opacity:0.31;clip-path:url(#SVGID_20_);}
	.st47{clip-path:url(#SVGID_22_);fill:#C2DBCB;}
	.st48{clip-path:url(#SVGID_22_);}
	.st49{opacity:0.67;clip-path:url(#SVGID_20_);}
	.st50{clip-path:url(#SVGID_20_);fill:none;}
	.st51{opacity:0.31;clip-path:url(#SVGID_24_);}
	.st52{clip-path:url(#SVGID_26_);fill:#C2DBCB;}
	.st53{clip-path:url(#SVGID_26_);}
	.st54{opacity:0.67;clip-path:url(#SVGID_24_);}
	.st55{clip-path:url(#SVGID_24_);fill:none;}
	.st56{opacity:0.31;clip-path:url(#SVGID_28_);}
	.st57{clip-path:url(#SVGID_30_);fill:#C2DBCB;}
	.st58{clip-path:url(#SVGID_30_);}
	.st59{opacity:0.67;clip-path:url(#SVGID_28_);}
	.st60{clip-path:url(#SVGID_28_);fill:none;}
	.st61{opacity:0.31;clip-path:url(#SVGID_32_);}
	.st62{clip-path:url(#SVGID_34_);fill:#C2DBCB;}
	.st63{clip-path:url(#SVGID_34_);}
	.st64{opacity:0.67;clip-path:url(#SVGID_32_);}
	.st65{clip-path:url(#SVGID_32_);fill:none;}
	.st66{clip-path:url(#SVGID_16_);fill:none;}
	.st67{fill:#638F56;}
	.st68{opacity:0.1;clip-path:url(#SVGID_36_);fill:url(#SVGID_37_);stroke:url(#SVGID_38_);stroke-miterlimit:10;}
	.st69{opacity:0.24;clip-path:url(#SVGID_36_);}
	.st70{opacity:0.31;clip-path:url(#SVGID_40_);}
	.st71{clip-path:url(#SVGID_42_);fill:#C2DBCB;}
	.st72{clip-path:url(#SVGID_42_);}
	.st73{opacity:0.67;clip-path:url(#SVGID_40_);}
	.st74{clip-path:url(#SVGID_40_);fill:none;}
	.st75{opacity:0.31;clip-path:url(#SVGID_44_);}
	.st76{clip-path:url(#SVGID_46_);fill:#C2DBCB;}
	.st77{clip-path:url(#SVGID_46_);}
	.st78{opacity:0.67;clip-path:url(#SVGID_44_);}
	.st79{clip-path:url(#SVGID_44_);fill:none;}
	.st80{opacity:0.31;clip-path:url(#SVGID_48_);}
	.st81{clip-path:url(#SVGID_50_);fill:#C2DBCB;}
	.st82{clip-path:url(#SVGID_50_);}
	.st83{opacity:0.67;clip-path:url(#SVGID_48_);}
	.st84{clip-path:url(#SVGID_48_);fill:none;}
	.st85{opacity:0.31;clip-path:url(#SVGID_52_);}
	.st86{clip-path:url(#SVGID_54_);fill:#C2DBCB;}
	.st87{clip-path:url(#SVGID_54_);}
	.st88{opacity:0.67;clip-path:url(#SVGID_52_);}
	.st89{clip-path:url(#SVGID_52_);fill:none;}
	.st90{clip-path:url(#SVGID_36_);fill:none;}
	.st91{opacity:0.1;clip-path:url(#SVGID_56_);fill:url(#SVGID_57_);}
	.st92{opacity:0.24;clip-path:url(#SVGID_56_);}
	.st93{opacity:0.31;clip-path:url(#SVGID_59_);}
	.st94{clip-path:url(#SVGID_61_);fill:#C2DBCB;}
	.st95{clip-path:url(#SVGID_61_);}
	.st96{opacity:0.67;clip-path:url(#SVGID_59_);}
	.st97{clip-path:url(#SVGID_59_);fill:none;}
	.st98{clip-path:url(#SVGID_56_);fill:#FFFFFF;stroke:#639263;stroke-miterlimit:10;}
	.st99{clip-path:url(#SVGID_56_);fill:none;}
	.st100{clip-path:url(#SVGID_56_);}
	.st101{clip-path:url(#SVGID_56_);fill:none;stroke:#608D61;stroke-miterlimit:10;}
	.st102{fill:#5F9999;}
	.st103{fill:#563B80;}
</style>
<g>
	<path class="st5" d="M19.2,29c-0.1,0-0.1,0-0.2,0c0,0.3,0.2,0.4,0.5,0.4H20V29H19.2z"/>
	<path class="st5" d="M38.7,26.3c-0.2-0.7-0.5-1.3-1-1.9c-2.1-2.2-5.9-1.5-7,1.4C30.7,26,30.6,26,30.4,26c-3.6,0-7.2,0-10.9,0
		c-0.3,0-0.5,0.1-0.5,0.5c0,0.5,0,0.9,0,1.4c0,0.4,0.1,0.5,0.5,0.5h0.7c0,0.2,0,0.5,0,0.7c0,0.3,0.2,0.4,0.4,0.4c0.3,0,0.6,0,0.9,0
		c0.3,0,0.4-0.2,0.4-0.4c0-0.1,0-0.2,0-0.2v-0.5h0.7c0,0.1,0,0.1,0,0.2c0,0.3,0.2,0.4,0.5,0.4c0.2,0,0.4,0,0.7,0
		c0.3,0,0.4-0.2,0.4-0.4c0-0.1,0-0.1,0-0.2h0.2c2,0,4,0,5.9,0c0.1,0,0.2,0,0.2,0.1c0.7,1.9,2.7,3,4.7,2.6
		C37.7,30.7,39.2,28.6,38.7,26.3z M34.6,28.8c-0.9,0-1.7-0.7-1.7-1.6c0-0.9,0.7-1.6,1.7-1.6c0.9,0,1.7,0.7,1.7,1.6
		C36.3,28.1,35.5,28.8,34.6,28.8z"/>
	<g>
		<path class="st5" d="M23.1,25.7c0.7,0,1.5,0,2.2,0V10.1c0-0.1,0-0.2,0-0.3c-0.1-1.9-1.5-3.3-3.3-3.3H5.3C3.5,6.5,2,8,2,9.9v12
			c0,3.9,0,7.9,0,11.8c0,1.7,1.4,3.5,3.4,3.5c5.5,0,11,0,16.5,0c0.2,0,0.4,0,0.5,0c1.8-0.3,2.9-1.7,2.9-3.6v-4.1h-0.9
			c0,0.1,0,0.2,0,0.2c0,0.2-0.2,0.4-0.4,0.4h-0.7c0,0-0.1,0-0.1,0c0,1.1,0,2.3,0,3.4c0,1-0.5,1.5-1.4,1.5c-5.4,0-10.7,0-16.1,0
			c-1,0-1.4-0.4-1.4-1.4V10.2c0-1,0.4-1.4,1.4-1.4h16.2c1,0,1.4,0.4,1.4,1.4v11.7C23.2,23.1,23.1,24.4,23.1,25.7z"/>
		<path class="st5" d="M29.2,25.7c-0.7,0-1.5,0-2.2,0c0-1.8,0-3.6,0-5.4c0-3.6,0-7.2,0-10.8c0-2.6-1.9-4.6-4.5-4.6
			c-4.9,0-9.8,0-14.7,0c-0.2,0-0.4,0-0.5,0C6.7,4.6,6.3,4.2,6.4,3.6c0-0.6,0.5-1,1.1-1c5.1,0,10.3-0.1,15.4,0
			c3.2,0.1,5.6,2.5,6.1,5.4c0.1,0.5,0.1,1.1,0.1,1.6C29.2,15,29.2,20.3,29.2,25.7z"/>
		<path class="st5" d="M29.2,29.4v1.8c0,0.2,0,0.4-0.1,0.6c-0.1,0.6-0.6,0.9-1.2,0.8c-0.5-0.1-0.9-0.5-1-1c0-0.1,0-0.3,0-0.4v-1.8
			C27.8,29.4,28.5,29.4,29.2,29.4z"/>
		<path class="st5" d="M12.6,10.6c-2,0-4.1,0-6.1,0c-0.5,0-0.7,0.1-0.7,0.7v4.6c0,1.5,0,3,0,4.6c0,0.5,0.1,0.6,0.6,0.6h6.1
			c0.5,0,0.7-0.1,0.7-0.7c0-3,0-6.1,0-9.1C13.2,10.8,13.1,10.6,12.6,10.6z M10.6,14.8c0.5,1.3-1.2,2.4-1.3,2.5
			c0.2-0.3,0.4-0.5,0.5-0.7C9.9,16.3,10,16,10,15.8c0-0.3-0.1-0.6-0.2-0.7c-0.1-0.1-0.3-0.6-0.3-0.8c0-0.2,0-0.4,0-0.6
			c0.1-0.4,0.3-0.7,0.6-0.8c0.4-0.2,0.7-0.3,0.7-0.3c-0.3,0.2-0.5,0.6-0.5,1C10.3,13.9,10.4,14.3,10.6,14.8z M9.9,11.8
			c0.3-0.6,0.2-1,0.2-1s0.1,0.3,0.1,0.7c0,0.2,0,0.4-0.1,0.5c-0.1,0.3-0.2,0.5-0.4,0.8c-0.2,0.2-0.3,0.5-0.4,0.7
			c-0.1,0.3-0.1,0.7,0,0.9c0.1,0.2,0.1,0.3,0.1,0.3c0.1,0.1,0.1,0.3,0.1,0.3S9.1,14.6,9,14.4c-0.1-0.2-0.2-0.5-0.2-0.8
			c0-0.3,0.2-0.7,0.6-1.2C9.6,12.2,9.8,12,9.9,11.8z M8.1,13.7c0.2-0.5,0.6-0.9,0.7-0.9c-0.6,0.8-0.2,1.4,0.2,1.9
			c0.3,0.3,0.6,0.6,0.7,0.9c0.1,0.3,0,0.6-0.1,0.9c-0.2,0.5-0.6,0.9-0.7,1c0.2-0.3,0.2-0.5,0.2-0.7c0-0.3-0.3-0.6-0.3-0.6
			c-0.1-0.2-0.3-0.3-0.4-0.5c-0.2-0.3-0.3-0.5-0.4-0.8C7.9,14.5,8,14.1,8.1,13.7z M7.9,19.9c-0.4-0.3-0.7-0.7-0.9-1.1
			c-0.1-0.3-0.2-0.6-0.2-1c0-0.6,0.1-1.1,0.4-1.6c0.2-0.3,0.4-0.7,0.6-1c0.1,0.1,0.2,0.4,0.4,0.7c0.2,0.2,0.4,0.4,0.4,0.5
			c0.1,0.1,0.5,0.5,0,1.2c-0.2,0.3-0.4,0.6-0.4,0.9c-0.1,0.3,0,0.6,0.1,0.9c0.1,0.3,0.3,0.6,0.5,0.9C8.6,20.3,8.2,20.1,7.9,19.9z
			 M8.5,19c-0.1-0.4,0-0.9,0.5-1.2c0.3-0.3,0.7-0.5,1-0.7c0.4-0.4,0.7-0.7,0.8-1.2c0.1-0.3,0.1-0.6,0.1-0.9c0,0,0.7,0.8,0.7,1.6
			c0,0.2-0.1,0.5-0.3,0.8c-0.3,0.3-0.6,0.4-1.1,0.5c-0.8,0.2-1.2,0.6-1.3,1c0,0.2,0,0.4,0,0.6C8.9,19.6,9,19.9,9,20
			C8.9,19.9,8.6,19.4,8.5,19z M11.8,19c-0.2,0.3-0.4,0.6-0.7,0.8c-0.4,0.4-0.9,0.5-1.2,0.4c-0.5-0.1-0.8-0.4-0.9-0.8
			C9,19,9.1,18.6,9.5,18.3c0.3-0.2,0.9-0.3,1.1-0.4c0.4-0.1,0.7-0.3,0.9-0.6c0.3-0.4,0.3-0.8,0.3-0.8s0.3,0.6,0.3,1.2
			C12.1,18.3,12,18.7,11.8,19z"/>
		<path class="st5" d="M21.6,25.7h-2.4c-0.3,0-0.5,0.1-0.5,0.5v0.3c-1.7,0-3.4,0-5.1,0c-2.3,0-4.7,0-7,0c-0.5,0-0.8-0.3-0.9-0.7
			c-0.1-0.4,0.2-0.8,0.6-0.9c0.1,0,0.2,0,0.3,0c4.7,0,9.4,0,14.1,0c0.4,0,0.6,0.1,0.8,0.5C21.5,25.4,21.6,25.5,21.6,25.7z"/>
		<path class="st5" d="M20,29v0.4c0,0.1,0,0.3,0,0.4v0h-6.4c-2.3,0-4.7,0-7,0c-0.4,0-0.7-0.1-0.8-0.4c-0.1-0.3-0.1-0.6,0.1-0.8
			c0.1-0.2,0.4-0.3,0.6-0.4c0.1-0.1,0.3,0,0.4,0c4,0,7.9,0,11.9,0v0.3c0,0.3,0.1,0.5,0.4,0.5c0,0,0.1,0,0.2,0H20z"/>
		<path class="st5" d="M13.6,31.5c2.3,0,4.6,0,7,0c0.6,0,1,0.3,1,0.8c0,0.5-0.4,0.8-1,0.8c-4.6,0-9.3,0-13.9,0
			c-0.5,0-0.8-0.2-0.9-0.6c-0.1-0.4,0.1-0.8,0.4-0.9c0.2-0.1,0.3-0.1,0.5-0.1C9,31.5,11.3,31.5,13.6,31.5z"/>
		<path class="st5" d="M18.1,15.6c-0.8,0-1.7,0-2.5,0c-0.4,0-0.7-0.2-0.8-0.6c-0.1-0.4,0-0.7,0.4-0.9c0.2-0.1,0.4-0.1,0.5-0.1
			c1.6,0,3.3,0,4.9,0c0.6,0,0.9,0.4,0.9,0.8c0,0.5-0.4,0.8-1,0.8C19.8,15.6,18.9,15.6,18.1,15.6z"/>
		<path class="st5" d="M18.1,12.2c-0.8,0-1.6,0-2.4,0c-0.5,0-0.9-0.3-0.9-0.8c0-0.5,0.4-0.9,0.9-0.9c1.7,0,3.3,0,5,0
			c0.5,0,0.9,0.4,0.9,0.8c0,0.5-0.4,0.8-0.9,0.8C19.8,12.2,19,12.2,18.1,12.2z"/>
	</g>
</g>
</svg>
