<?xml version="1.0" encoding="utf-8"?>
<!-- Generator: Adobe Illustrator 23.0.1, SVG Export Plug-In . SVG Version: 6.00 Build 0)  -->
<svg version="1.1" id="Слой_1" xmlns="http://www.w3.org/2000/svg" xmlns:xlink="http://www.w3.org/1999/xlink" x="0px" y="0px"
	 viewBox="0 0 40 40" style="enable-background:new 0 0 40 40;" xml:space="preserve">
<style type="text/css">
	.st0{fill:#FFFFFF;}
	.st1{fill:#1D472A;}
	.st2{fill-rule:evenodd;clip-rule:evenodd;fill:#DE981A;}
	.st3{fill:#DE981A;}
	.st4{fill:none;stroke:#659558;stroke-miterlimit:10;}
	.st5{fill:#B45092;}
	.st6{fill-rule:evenodd;clip-rule:evenodd;fill:#B45092;}
	.st7{fill:#0091C8;}
	.st8{fill:#659558;}
	.st9{fill:#639263;}
	.st10{opacity:0.1;clip-path:url(#SVGID_2_);fill:url(#SVGID_3_);}
	.st11{opacity:0.24;clip-path:url(#SVGID_2_);}
	.st12{opacity:0.24;}
	.st13{opacity:0.31;clip-path:url(#SVGID_5_);}
	.st14{opacity:0.31;}
	.st15{clip-path:url(#SVGID_7_);fill:#C2DBCB;}
	.st16{clip-path:url(#SVGID_7_);}
	.st17{fill:#C9E2F2;}
	.st18{opacity:0.67;clip-path:url(#SVGID_5_);}
	.st19{fill:none;}
	.st20{opacity:0.65;fill:#B8D5BC;}
	.st21{clip-path:url(#SVGID_5_);fill:none;}
	.st22{clip-path:url(#SVGID_2_);fill:#FFFFFF;stroke:#639263;stroke-miterlimit:10;}
	.st23{clip-path:url(#SVGID_2_);fill:none;}
	.st24{clip-path:url(#SVGID_2_);}
	.st25{clip-path:url(#SVGID_2_);fill:none;stroke:#608D61;stroke-miterlimit:10;}
	.st26{opacity:0.91;}
	.st27{opacity:0.68;}
	.st28{fill-rule:evenodd;clip-rule:evenodd;fill:#FFFFFF;}
	.st29{fill-rule:evenodd;clip-rule:evenodd;fill:#639263;}
	.st30{opacity:0.1;clip-path:url(#SVGID_9_);fill:url(#SVGID_10_);}
	.st31{opacity:0.24;clip-path:url(#SVGID_9_);}
	.st32{opacity:0.31;clip-path:url(#SVGID_12_);}
	.st33{clip-path:url(#SVGID_14_);fill:#C2DBCB;}
	.st34{clip-path:url(#SVGID_14_);}
	.st35{opacity:0.67;clip-path:url(#SVGID_12_);}
	.st36{clip-path:url(#SVGID_12_);fill:none;}
	.st37{clip-path:url(#SVGID_9_);fill:#FFFFFF;stroke:#639263;stroke-miterlimit:10;}
	.st38{clip-path:url(#SVGID_9_);fill:none;}
	.st39{clip-path:url(#SVGID_9_);}
	.st40{clip-path:url(#SVGID_9_);fill:none;stroke:#608D61;stroke-miterlimit:10;}
	.st41{fill:none;stroke:#638F56;stroke-miterlimit:10;}
	.st42{fill-rule:evenodd;clip-rule:evenodd;fill:#0091C8;}
	.st43{opacity:0.6;}
	.st44{opacity:0.1;clip-path:url(#SVGID_16_);fill:url(#SVGID_17_);stroke:url(#SVGID_18_);stroke-miterlimit:10;}
	.st45{opacity:0.24;clip-path:url(#SVGID_16_);}
	.st46{opacity:0.31;clip-path:url(#SVGID_20_);}
	.st47{clip-path:url(#SVGID_22_);fill:#C2DBCB;}
	.st48{clip-path:url(#SVGID_22_);}
	.st49{opacity:0.67;clip-path:url(#SVGID_20_);}
	.st50{clip-path:url(#SVGID_20_);fill:none;}
	.st51{opacity:0.31;clip-path:url(#SVGID_24_);}
	.st52{clip-path:url(#SVGID_26_);fill:#C2DBCB;}
	.st53{clip-path:url(#SVGID_26_);}
	.st54{opacity:0.67;clip-path:url(#SVGID_24_);}
	.st55{clip-path:url(#SVGID_24_);fill:none;}
	.st56{opacity:0.31;clip-path:url(#SVGID_28_);}
	.st57{clip-path:url(#SVGID_30_);fill:#C2DBCB;}
	.st58{clip-path:url(#SVGID_30_);}
	.st59{opacity:0.67;clip-path:url(#SVGID_28_);}
	.st60{clip-path:url(#SVGID_28_);fill:none;}
	.st61{opacity:0.31;clip-path:url(#SVGID_32_);}
	.st62{clip-path:url(#SVGID_34_);fill:#C2DBCB;}
	.st63{clip-path:url(#SVGID_34_);}
	.st64{opacity:0.67;clip-path:url(#SVGID_32_);}
	.st65{clip-path:url(#SVGID_32_);fill:none;}
	.st66{clip-path:url(#SVGID_16_);fill:none;}
	.st67{fill:#638F56;}
	.st68{opacity:0.1;clip-path:url(#SVGID_36_);fill:url(#SVGID_37_);stroke:url(#SVGID_38_);stroke-miterlimit:10;}
	.st69{opacity:0.24;clip-path:url(#SVGID_36_);}
	.st70{opacity:0.31;clip-path:url(#SVGID_40_);}
	.st71{clip-path:url(#SVGID_42_);fill:#C2DBCB;}
	.st72{clip-path:url(#SVGID_42_);}
	.st73{opacity:0.67;clip-path:url(#SVGID_40_);}
	.st74{clip-path:url(#SVGID_40_);fill:none;}
	.st75{opacity:0.31;clip-path:url(#SVGID_44_);}
	.st76{clip-path:url(#SVGID_46_);fill:#C2DBCB;}
	.st77{clip-path:url(#SVGID_46_);}
	.st78{opacity:0.67;clip-path:url(#SVGID_44_);}
	.st79{clip-path:url(#SVGID_44_);fill:none;}
	.st80{opacity:0.31;clip-path:url(#SVGID_48_);}
	.st81{clip-path:url(#SVGID_50_);fill:#C2DBCB;}
	.st82{clip-path:url(#SVGID_50_);}
	.st83{opacity:0.67;clip-path:url(#SVGID_48_);}
	.st84{clip-path:url(#SVGID_48_);fill:none;}
	.st85{opacity:0.31;clip-path:url(#SVGID_52_);}
	.st86{clip-path:url(#SVGID_54_);fill:#C2DBCB;}
	.st87{clip-path:url(#SVGID_54_);}
	.st88{opacity:0.67;clip-path:url(#SVGID_52_);}
	.st89{clip-path:url(#SVGID_52_);fill:none;}
	.st90{clip-path:url(#SVGID_36_);fill:none;}
	.st91{opacity:0.1;clip-path:url(#SVGID_56_);fill:url(#SVGID_57_);}
	.st92{opacity:0.24;clip-path:url(#SVGID_56_);}
	.st93{opacity:0.31;clip-path:url(#SVGID_59_);}
	.st94{clip-path:url(#SVGID_61_);fill:#C2DBCB;}
	.st95{clip-path:url(#SVGID_61_);}
	.st96{opacity:0.67;clip-path:url(#SVGID_59_);}
	.st97{clip-path:url(#SVGID_59_);fill:none;}
	.st98{clip-path:url(#SVGID_56_);fill:#FFFFFF;stroke:#639263;stroke-miterlimit:10;}
	.st99{clip-path:url(#SVGID_56_);fill:none;}
	.st100{clip-path:url(#SVGID_56_);}
	.st101{clip-path:url(#SVGID_56_);fill:none;stroke:#608D61;stroke-miterlimit:10;}
	.st102{fill:#5F9999;}
</style>
<g>
	<path class="st3" d="M13.6,14.4c-1-0.2-1.6-0.8-1.9-1.7c-0.3-1,0-1.8,0.8-2.4c0.8-0.6,1.6-0.8,2.5-0.3c0.9,0.4,1.3,1.1,1.4,2
		c0,0.1,0,0.1,0.1,0.1c0.2,0,0.4,0,0.7,0c0.1,0,0.1,0,0.1-0.1c0-0.1,0-0.3,0-0.4c-0.3-1.8-1.9-3-3.7-2.7c-1.4,0.2-2.3,1-2.7,2.4
		c-0.4,1.3,0,2.5,1.1,3.4c0.6,0.5,1.4,0.7,2.2,0.7c1.6,0,3.2,0,4.8,0c0.1,0,0.1,0,0.2,0c0-0.3,0-0.6,0-0.9c-1.7,0-3.3,0-5,0
		C13.9,14.4,13.8,14.4,13.6,14.4z"/>
	<path class="st3" d="M18.9,12.9c-1.6,0-3.2,0-4.8,0c-0.1,0-0.1,0-0.2,0c-0.6,0-1-0.6-0.8-1.2c0.1-0.4,0.5-0.6,0.9-0.6
		c0.4,0,0.7,0.3,0.8,0.8c0,0.1,0,0.1,0.1,0.1c0.2,0,0.4,0,0.7,0c0.1,0,0.1,0,0.1-0.1c-0.1-1.1-1.1-1.9-2.2-1.6c-0.9,0.2-1.5,1-1.4,2
		c0.1,0.9,0.9,1.5,1.8,1.5c1.7,0,3.4,0,5,0c0-0.3,0-0.6,0-0.9C19,12.9,19,12.9,18.9,12.9z M16.4,13.7c-0.8,0-1.6,0-2.3,0
		C14.8,13.7,15.6,13.7,16.4,13.7c0.7,0,1.4,0,2.1,0C17.8,13.7,17.1,13.7,16.4,13.7z"/>
	<path class="st3" d="M10.1,8.9c0-0.1,0-0.1-0.1-0.1c-0.6,0-1.2,0-1.9,0c-0.1,0-0.1,0-0.1,0.1c0,0.2,0,0.4,0,0.7
		c0,0.1,0,0.1,0.1,0.1c0.3,0,0.6,0,0.9,0c0.1,0,0.1,0,0.1,0.1c0,0.4,0,0.8,0,1.3c0,1.4,0,2.7,0,4.1c0,0.1,0,0.2,0.2,0.2
		c0.2,0,0.4,0,0.6,0c0.1,0,0.1,0,0.1-0.1c0-1,0-2.1,0-3.1C10.1,11,10.1,9.9,10.1,8.9z"/>
	<path class="st3" d="M9,10.1c0-0.1,0-0.1-0.1-0.1c-0.5,0-1,0-1.6,0c-0.1,0-0.1,0-0.1,0.1c0,0.2,0,0.5,0,0.7c0,0.1,0,0.1,0.1,0.1
		c0.2,0,0.4,0,0.6,0c0.2,0,0.2,0,0.2,0.2c0,1.4,0,2.8,0,4.1c0,0.1,0,0.2,0.2,0.2c0.2,0,0.4,0,0.6,0c0.1,0,0.1,0,0.1-0.1
		c0-0.8,0-1.7,0-2.5C9,11.8,9,10.9,9,10.1z"/>
	<path class="st3" d="M17.1,22.6c0.7-0.3,1.1-0.6,1-1.4c-0.1-0.3,0.1-0.5,0.4-0.7c0.4-0.3,0.8-0.6,1.2-0.9c0.2-0.1,0.5-0.2,0.6-0.1
		c0.8,0.4,1.3,0.1,1.9-0.6c0.3-0.5,0.5-0.8,0.1-1.3c-0.3-0.4-0.3-0.8,0-1.3c0.2-0.3,0.3-0.6,0.4-0.9c0.1-0.4,0.3-0.6,0.7-0.7
		c0.7-0.1,0.9-0.4,1.1-1.1c0.1-0.8,0-1.3-0.7-1.6c-0.3-0.1-0.4-0.4-0.4-0.7c0-0.4,0-0.8-0.1-1.2c-0.1-0.4,0-0.8,0.3-1
		C24,8.6,24,8.2,23.8,7.6c-0.3-0.8-0.7-1.1-1.5-1c-0.3,0-0.5-0.1-0.6-0.3c-0.3-0.4-0.6-0.8-0.9-1.3c-0.1-0.1-0.2-0.4-0.1-0.5
		c0.4-0.9,0.1-1.5-0.7-1.9c0,0-0.1-0.1-0.1-0.1c-0.3-0.3-0.6-0.3-0.9-0.1c-0.5,0.4-1.1,0.5-1.7,0c-0.2-0.1-0.4-0.2-0.7-0.3
		c-0.5-0.1-0.7-0.4-0.8-0.9c-0.2-0.8-0.2-0.7-1-0.9C13.9,0,13.4,0.2,13,1c-0.1,0.2-0.3,0.3-0.5,0.3c-0.5,0.1-1.1,0.1-1.6,0.2
		c-0.2,0-0.4,0-0.5-0.1C9.8,0.5,9.1,0.6,8.2,1.1c-0.1,0-0.1,0-0.2,0.1C7.8,1.2,7.7,1.4,7.7,1.6c0.1,0.8-0.3,1.3-0.9,1.8
		C6.1,3.9,5.5,4.2,4.7,3.8c0,0-0.1,0-0.2,0c-0.1,0-0.2,0.1-0.3,0.2C4,4.2,3.8,4.5,3.5,4.8c-0.3,0.3-0.3,0.6-0.1,1
		c0.4,0.5,0.4,1,0,1.6C3.3,7.6,3.2,8,3.1,8.3C3,8.6,2.9,8.7,2.6,8.8c-0.9,0.1-1.1,0.6-1.2,1.4c-0.1,0.6,0.1,1,0.6,1.3
		c0.4,0.2,0.6,0.5,0.6,0.9c0,0.3,0,0.7,0.1,1c0.1,0.5,0,0.8-0.4,1.1c-0.5,0.4-0.6,0.8-0.3,1.4c0.5,1,0.4,1,1.5,1.1
		c0.3,0,0.4,0.1,0.6,0.3c0.3,0.4,0.6,0.8,0.9,1.3c0.1,0.1,0.2,0.4,0.1,0.5C4.7,19.9,5,20.6,5.8,21c0,0,0,0,0,0
		c0.3,0.4,0.7,0.4,1.1,0.1c0.5-0.4,0.9-0.4,1.4,0c0.3,0.2,0.7,0.3,1.1,0.5c0.2,0.1,0.4,0.3,0.4,0.4c0.1,0.9,0.6,1.3,1.5,1.3
		c0.6,0,0.9,0,1.2-0.6c0.2-0.5,0.5-0.7,1.1-0.7c0.3,0,0.7,0,1-0.1c0.4-0.1,0.7,0,0.9,0.3C16,22.9,16.4,22.8,17.1,22.6z M12.9,20.1
		c-4.6,0-8.3-3.8-8.3-8.3c0-4.6,3.8-8.4,8.4-8.4c4.6,0,8.3,3.8,8.3,8.4C21.2,16.3,17.5,20.1,12.9,20.1z"/>
	<path class="st3" d="M38.6,28.6c-0.3-0.1-0.4-0.4-0.4-0.7c0-0.4,0-0.8-0.1-1.2c-0.1-0.4,0-0.8,0.3-1c0.6-0.4,0.6-0.8,0.3-1.5
		c-0.3-0.8-0.7-1.1-1.5-1c-0.3,0-0.5-0.1-0.6-0.3c-0.3-0.4-0.6-0.8-0.9-1.3c-0.1-0.1-0.2-0.4-0.1-0.5c0.4-0.9,0.1-1.5-0.7-1.9
		c0,0-0.1-0.1-0.1-0.1c-0.3-0.3-0.6-0.3-0.9-0.1c-0.5,0.4-1.1,0.5-1.7,0c-0.2-0.1-0.4-0.2-0.7-0.3c-0.5-0.1-0.7-0.4-0.8-0.9
		c-0.2-0.8-0.2-0.7-1-0.9c-0.8-0.2-1.4,0-1.7,0.8C28,17.8,27.7,18,27.6,18c-0.5,0.1-1.1,0.1-1.6,0.2c-0.2,0-0.4,0-0.5-0.1
		c-0.6-0.9-1.4-0.9-2.2-0.4c-0.1,0-0.1,0-0.2,0.1c-0.3,0.1-0.4,0.2-0.4,0.5c0.1,0.8-0.3,1.3-0.9,1.8c-0.7,0.5-1.3,0.8-2.1,0.4
		c0,0-0.1,0-0.2,0c-0.1,0-0.2,0.1-0.3,0.2c-0.2,0.3-0.4,0.6-0.7,0.9c-0.3,0.3-0.3,0.6-0.1,1c0.4,0.5,0.4,1,0,1.6
		c-0.2,0.3-0.3,0.6-0.4,0.9c-0.1,0.3-0.2,0.5-0.5,0.5c-0.9,0.1-1.1,0.6-1.2,1.4c-0.1,0.6,0.1,1,0.6,1.3c0.4,0.2,0.6,0.5,0.6,0.9
		c0,0.3,0,0.7,0.1,1c0.1,0.5,0,0.8-0.4,1.1c-0.5,0.4-0.6,0.8-0.3,1.4c0.5,1,0.4,1,1.5,1.1c0.3,0,0.4,0.1,0.6,0.3
		c0.3,0.4,0.6,0.8,0.9,1.3c0.1,0.1,0.2,0.4,0.1,0.5c-0.4,0.9-0.2,1.5,0.7,1.9c0,0,0,0,0,0c0.3,0.4,0.7,0.4,1.1,0.1
		c0.5-0.4,0.9-0.4,1.4,0c0.3,0.2,0.7,0.3,1.1,0.5c0.2,0.1,0.4,0.3,0.4,0.4c0.1,0.9,0.6,1.3,1.5,1.3c0.6,0,0.9,0,1.2-0.6
		c0.2-0.5,0.5-0.7,1.1-0.7c0.3,0,0.7,0,1-0.1c0.4-0.1,0.7,0,0.9,0.3c0.4,0.6,0.9,0.6,1.6,0.3c0.7-0.3,1.1-0.6,1-1.4
		c-0.1-0.3,0.1-0.5,0.4-0.7c0.4-0.3,0.8-0.6,1.2-0.9c0.2-0.1,0.5-0.2,0.6-0.1c0.8,0.4,1.3,0.1,1.9-0.6c0.3-0.5,0.5-0.8,0.1-1.3
		c-0.3-0.4-0.3-0.8,0-1.3c0.2-0.3,0.3-0.6,0.4-0.9c0.1-0.4,0.3-0.6,0.7-0.7c0.7-0.1,0.9-0.4,1.1-1.1C39.5,29.4,39.4,28.9,38.6,28.6z
		 M27.9,36.7c-4.6,0-8.3-3.8-8.3-8.3c0-4.6,3.8-8.4,8.4-8.4c4.6,0,8.3,3.8,8.3,8.4C36.2,33,32.5,36.7,27.9,36.7z"/>
	<path class="st3" d="M33.1,30.3c-0.6,0-1.2,0-1.7,0c-0.3,0-0.4,0.1-0.4,0.4c0,0.1,0,0.3,0,0.4c0,0,0,0-0.1,0
		c-0.7-0.2-1.3-0.5-1.8-0.9c-0.2-0.2-0.5-0.5-0.6-0.7c0,0,0-0.1,0-0.1c0-0.5,0-1,0-1.5c0,0,0,0,0-0.1c0,0,0,0,0,0
		c0.7,0.7,1.5,1.1,2.4,1.2c0.1,0,0.1,0,0.1,0.1c0,0.2,0,0.4,0,0.5c0,0.2,0.1,0.4,0.4,0.4c0.6,0,1.2,0,1.8,0c0.2,0,0.4-0.1,0.4-0.4
		c0-0.6,0-1.2,0-1.8c0-0.2-0.2-0.4-0.4-0.4c-0.6,0-1.2,0-1.8,0c-0.2,0-0.4,0.1-0.4,0.4c0,0.1,0,0.2,0,0.3c0,0.1,0,0.2,0,0.2
		c0,0,0,0,0,0c-1-0.2-1.8-0.8-2.4-1.6c0-0.1-0.1-0.1-0.1-0.2c0-0.8,0-1.5,0-2.3c0,0,0-0.1,0-0.1c0.2,0,0.4,0,0.6,0
		c0.2,0,0.2-0.1,0.1-0.2c-0.3-0.5-0.6-1.1-0.9-1.6c-0.1-0.1-0.3-0.2-0.3,0c-0.1,0.1-0.1,0.2-0.2,0.3c-0.3,0.4-0.5,0.9-0.8,1.3
		c-0.1,0.1,0,0.2,0.1,0.2c0.1,0,0.3,0,0.4,0c0.1,0,0.2,0,0.2,0c0,0,0,0,0,0.1c0,0.8,0,1.6,0,2.4c0,0,0,0.1,0,0.1
		c-0.4,0.7-1,1.1-1.7,1.4c-0.2,0.1-0.5,0.2-0.7,0.2c0-0.2,0-0.3,0-0.5c0-0.3-0.1-0.4-0.4-0.4c-0.6,0-1.2,0-1.8,0
		c-0.2,0-0.4,0.2-0.4,0.4c0,0.6,0,1.2,0,1.8c0,0.2,0.1,0.4,0.4,0.4c0.6,0,1.2,0,1.8,0c0.3,0,0.4-0.1,0.4-0.4c0-0.2,0-0.4,0-0.6
		c1-0.2,1.8-0.6,2.5-1.3c0,0,0,0,0,0.1c0,0.5,0,1,0,1.5c0,0,0,0.1,0,0.1c-0.5,0.8-1.3,1.3-2.2,1.6c-0.1,0-0.2,0-0.2,0.1
		c0-0.2,0-0.3,0-0.5c0-0.2-0.2-0.4-0.4-0.4c-0.6,0-1.2,0-1.9,0c-0.2,0-0.4,0.2-0.4,0.4c0,0.6,0,1.2,0,1.8c0,0.3,0.1,0.4,0.4,0.4
		c0.6,0,1.2,0,1.8,0c0.2,0,0.4-0.1,0.4-0.4c0-0.2,0-0.4,0-0.6c1-0.2,1.8-0.6,2.5-1.3c0,0.5,0,1,0,1.6c-0.2,0-0.3,0-0.5,0
		c-0.3,0-0.4,0.1-0.4,0.4c0,0.6,0,1.2,0,1.8c0,0.3,0.1,0.4,0.4,0.4c0.4,0,0.8,0,1.2,0c0.2,0,0.4,0,0.6,0c0.2,0,0.4-0.1,0.4-0.4
		c0-0.6,0-1.2,0-1.9c0-0.2-0.1-0.4-0.4-0.4c-0.2,0-0.3,0-0.5,0c0,0-0.1,0-0.1,0c0-0.5,0-1,0-1.6c0.7,0.7,1.5,1.1,2.5,1.3
		c0,0,0,0.1,0,0.1c0,0.2,0,0.3,0,0.5c0,0.2,0.1,0.4,0.4,0.4c0.6,0,1.2,0,1.9,0c0.3,0,0.4-0.1,0.4-0.4c0-0.6,0-1.2,0-1.8
		C33.5,30.4,33.3,30.3,33.1,30.3z M31.6,28.2c0.4,0,0.8,0,1.2,0c0,0.4,0,0.8,0,1.2c-0.4,0-0.8,0-1.2,0
		C31.6,28.9,31.6,28.6,31.6,28.2z M24.4,29.3c-0.4,0-0.8,0-1.2,0c0-0.4,0-0.8,0-1.2c0.4,0,0.8,0,1.2,0
		C24.4,28.6,24.4,28.9,24.4,29.3z M24.4,32.1c-0.4,0-0.8,0-1.2,0c0-0.4,0-0.8,0-1.2c0.4,0,0.8,0,1.2,0
		C24.4,31.4,24.4,31.8,24.4,32.1z M28.6,32.9c0,0.4,0,0.8,0,1.2c-0.4,0-0.8,0-1.2,0c0-0.4,0-0.8,0-1.2
		C27.8,32.9,28.2,32.9,28.6,32.9z M32.8,32.1c-0.4,0-0.8,0-1.2,0c0-0.4,0-0.8,0-1.2c0.4,0,0.8,0,1.2,0
		C32.8,31.4,32.8,31.7,32.8,32.1z"/>
</g>
</svg>
