<svg xmlns="http://www.w3.org/2000/svg" viewBox="0 0 330.48 181.32"><defs><style>.cls-1{fill:#5c9191;}</style></defs><title>Ресурс 7</title><g id="Слой_2" data-name="Слой 2"><g id="Слой_1-2" data-name="Слой 1"><path class="cls-1" d="M217.87,112.24C211,110.48,204,110.43,197,109.49c-1.31-.18-1.68.85-2.22,1.85-5.12,9.41-12.06,17.21-18.61,25.35-.64.8-1.65,1.69-1.9-.09-.74-5.17-4.3-10.16-.82-15.71.75-1.19.69-3,1-4.55.31-1.79-.42-2.44-2-2.38-2.44.08-4.89,0-7.33,0-6.06,0-6.73,1.16-4.3,7.54a12.34,12.34,0,0,0,1,2.06,3.53,3.53,0,0,1,.37,2.88c-.75,3.15-1.41,6.32-2.13,9.48-.33,1.47-.81,2.38-2.13.77-6.65-8.05-13.47-16-18.6-25.35-.71-1.3-1.35-2-2.85-1.86-4,.48-8.1.71-12.14,1.21-8.22,1-15.94,3.23-22,10.27-6.21,7.26-9.55,16.1-12.31,25.32-2.66,8.89,0,16.81,7.16,21.91,5,3.55,10.47,5.48,16.1,7,17.58,4.87,35.55,5.73,52.41,6.06,17.65-.15,34.09-1.08,50.29-4.81,8.18-1.89,16.28-4.18,23.05-10.09a16.21,16.21,0,0,0,5.78-13.13c-.22-9.07-3.76-17-7.78-24.53C232.69,120.58,226.63,114.48,217.87,112.24Z"/><path class="cls-1" d="M330.17,138.6c-1.64-8.69-5-16.61-10.92-22.93-2.39-2.55-5.13-4.75-8.37-5.28-4.88-.8-6.63-4.31-7.36-8.93-1.56-9.85-1.12-19.76.17-29.54a70.37,70.37,0,0,0-3.83-34c-3.75-10.2-10.41-17-20.4-19.37-3.52-.83-7.08-.46-10.62-.61-10.73-.45-19.2,4.08-25.18,14-5,8.32-6.55,17.76-7.19,27.52-.61,9.15,1.54,18.09,1.58,27.18,0,6.41-.07,12.81-2.12,18.93-.76,2.26-2,3.81-4.32,4.17a18.31,18.31,0,0,0-4.34,1.54c-.71.3-1.7.51-1.69,1.65,0,.94.89,1.15,1.49,1.51a26.42,26.42,0,0,1,6.69,5.81c6.87,8.37,10.93,18.31,13.22,29.22a18.23,18.23,0,0,1-.54,8.63c-1,3.63-.89,3.85,2.67,4.18a165.37,165.37,0,0,0,20.56.75,159.7,159.7,0,0,0,31.5-2.09c7.85-1.25,15.65-2.94,22.63-7.57C328.91,150,331.38,145,330.17,138.6Zm-39.85-27.34c-4.23,5.24-12.8,9.09-20.09,9-7.26.07-13.54-2.75-18.94-8-2.73-2.63-2.63-3.41.07-5.8a5.24,5.24,0,0,0,1.66-1.93c1.08-3.35,2.31-2.66,4.41-.84,8.51,7.35,17.87,7.19,26.61-.34,1.51-1.29,2.43-2.25,3.31.54a5,5,0,0,0,2.57,2.78C292.6,108,291.72,109.53,290.32,111.26Zm3.44-33.67c-1.13.74-1.37,1.87-1.78,3a43,43,0,0,1-9.83,16c-3.35,3.33-7.14,5.53-12,5.39-5.42-.07-9.69-3.19-13.36-7.43a41.45,41.45,0,0,1-6.69-11.19c-1-2.45-1.77-4.88-4.22-6.6-3.18-2.22-3-9.55-.18-12.42a5.08,5.08,0,0,0,1-2.71c.83-3.49,1.83-6.9,4-9.73,2.94-3.89,6.5-4.78,10.58-2.48q14.54,8.16,29,16.46c1.71,1,3.21,1.92,4.87-.13,1.18-1.46,1.67-.24,2,.93C298.29,70,296.55,75.76,293.76,77.59Z"/><path class="cls-1" d="M87.51,147a76.63,76.63,0,0,1,8.29-20.53,34.82,34.82,0,0,1,10.76-11.74c.93-.61,2.52-.85,2.51-2.16,0-1.47-1.6-1.88-2.65-2.45a19.47,19.47,0,0,0-3.73-1.45c-4.64-1.36-9.43-1.49-14.17-2.05-2.55-.31-4.67-.49-6,2.69-.67,1.59-2.4,2.35-3.87,3.15-7.41,4.06-15.29,4.21-23.25,3.23-5-.61-10.6-1.16-13.64-5.68-2.71-4-5.57-3.48-8.88-3.28-1.93.12-3.85.36-5.77.59-7.57.91-14.21,3.83-18.85,10.9A56.17,56.17,0,0,0,.48,136.74c-1.48,6.56.49,12,5.57,15.79a34.75,34.75,0,0,0,10.26,5.08c14.92,4.66,30.22,5.46,45.6,5.49a182.92,182.92,0,0,0,23.74-1.2c2.5-.32,2.83-1.31,2-3.68A18.89,18.89,0,0,1,87.51,147Z"/><path class="cls-1" d="M128.8,73a11.52,11.52,0,0,1,3.1,4.83,66.25,66.25,0,0,0,14.54,23.46c12.33,12.44,25.58,12.88,38.48,1.35,7.64-6.83,12.51-15.85,16.42-25.61a13.13,13.13,0,0,1,2-3.67c5.47-6.49,6.79-14.49,4.66-22.56a61.25,61.25,0,0,1-1.84-12c-1-16-6.94-28.5-20.77-35.25A37,37,0,0,0,167.26.06a46.72,46.72,0,0,0-4.88,0c-13.1,1.42-23.84,7.17-30.44,20.43-3.44,6.89-3.7,14.63-4.76,22.15-.23,1.66,0,3.51-1.2,4.76C121.24,52.44,124.13,68.86,128.8,73ZM132,55.25c0-.5.41-1.35.71-1.39,3.07-.43,2.72-3.38,3.42-5.53,3.15-9.61,9.18-13.18,18.18-10.87,6.71,1.72,13.42,2.18,20.24.36A15.87,15.87,0,0,1,188,40.19c.82.56,1.81,1.55,2.77,1,1.11-.7-.29-2,.25-3.25,3.19,3.55,4.48,8,6,12.43.47,1.38.43,3.21,2.56,3.1.84,0,1.26,1,1.5,1.92,1.25,4.87,1,10.65-2.26,13.22-4.39,3.48-5.1,8.55-7.41,12.88a56.08,56.08,0,0,1-10.27,14.13c-9,8.71-20.31,8.71-29.36,0a53.5,53.5,0,0,1-13.39-21.83c-.58-1.69-1-3.37-3.07-3.68-1.15-.17-1.73-1.46-2.24-2.58C131.28,63.57,131.66,59.4,132,55.25Z"/><path class="cls-1" d="M36.7,87.76a52.26,52.26,0,0,0,9.56,13c9.44,9,20,9.13,29.56.32a49.38,49.38,0,0,0,12-17.62,33.5,33.5,0,0,1,3.56-6.58,19.32,19.32,0,0,0,2.7-17.77,18.86,18.86,0,0,1-1.19-8.22C92.3,40.18,89.14,30.12,80,23.41c-6.76-5-14.24-5.95-22.17-5.26-12.6,1.1-25.2,9.61-26.61,27.08-.31,3.78-.12,8.13-1.76,11.15-3.8,6.95-2.54,13.46.85,19.28C32.6,79.61,34.53,83.75,36.7,87.76Zm-.85-25.9c.87-.72.91-1.71,1.17-2.62,2.56-9,6.93-11.75,15.32-9.69a29.86,29.86,0,0,0,16-.08c3.7-1.11,7,.38,10.22,2.21,1.39.8,2.67,1.48,2.38-1.69a24.27,24.27,0,0,1,4,7.95c.6,1.77.48,4.11,3,4.46.56.08.81,1,.81,1.7,0,4.42.76,9.17-4,11.6-.82.42-.85,1.48-1.17,2.28-2.45,6.11-5.39,11.81-9.9,16.43-7.74,7.93-16.38,8.13-24.31.43A42,42,0,0,1,39.22,78.57a5.58,5.58,0,0,0-2.53-3.43C33,73,32.54,64.61,35.85,61.86Z"/></g></g></svg>