<?xml version="1.0" encoding="utf-8"?>
<!-- Generator: Adobe Illustrator 23.0.1, SVG Export Plug-In . SVG Version: 6.00 Build 0)  -->
<svg version="1.1" id="Слой_1" xmlns="http://www.w3.org/2000/svg" xmlns:xlink="http://www.w3.org/1999/xlink" x="0px" y="0px"
	 viewBox="0 0 566 565" style="enable-background:new 0 0 566 565;" xml:space="preserve">
<style type="text/css">
	.st0{display:none;}
	.st1{display:inline;}
	.st2{fill:none;stroke:#000000;stroke-miterlimit:10;}
	.st3{fill:#447776;}
	.st4{fill:#578685;}
	.st5{fill:#5F9898;}
	.st6{fill-rule:evenodd;clip-rule:evenodd;fill:#578685;}
	.st7{fill-rule:evenodd;clip-rule:evenodd;fill:#447776;}
	.st8{fill:#C20C1E;}
	.st9{fill:#FCC000;}
	.st10{fill:#21CC21;}
	.st11{fill:#4D4D4D;}
	.st12{fill:#F21B16;}
</style>
<g>
	<path class="st12" d="M21.9,281.3C22,131.9,143.9,9.9,293.2,10C443.1,10,565.4,132.2,565,281.6c-0.4,150.1-122.1,271.5-272,271.4
		C143.6,552.9,21.8,430.8,21.9,281.3z M293.2,45.6C162.9,45.8,57.6,151.2,57.6,281.5c0,130.3,105.5,235.9,235.7,235.8
		c130.9-0.1,236.2-105.5,236-236.2C529,150.7,423.6,45.5,293.2,45.6z"/>
	<path class="st12" d="M310.4,291.4c37.5,36.8,75,73.5,112.5,110.3c4,3.9,8.1,8.1,9.2,13.6c1.8,9.4-8.6,18.7-17.7,15.9
		c-4.2-1.3-7.6-4.6-10.7-7.7c-37-37.1-74-74.2-111-111.3c-35.5,35.3-70.9,70.5-106.4,105.8c-5.1,5.1-10.6,10.4-17.7,11.6
		c-6.4,1.2-13.5-2.5-15.1-9c-2-8.1,4.4-15.6,9.7-20.8c37.1-36.4,74.2-72.7,111.3-109.1c-38.2-36.6-76-73.6-113.5-111
		c-3.9-3.8-7.9-8-9-13.3c-1.9-9.3,8.5-18.7,17.6-16c4.3,1.3,7.7,4.6,10.8,7.7c37.2,36.9,74.5,73.8,111.7,110.6
		c37.1-36.8,74.3-73.7,111.4-110.5c3.2-3.2,6.5-6.4,10.8-7.7c8.6-2.6,18.5,5.5,17.7,14.4c-0.6,6.4-5.5,11.5-10,16.1
		C384.9,217.9,347.7,254.6,310.4,291.4z"/>
</g>
</svg>
