<?xml version="1.0" encoding="utf-8"?>
<!-- Generator: Adobe Illustrator 23.0.1, SVG Export Plug-In . SVG Version: 6.00 Build 0)  -->
<svg version="1.1" id="Слой_1" xmlns="http://www.w3.org/2000/svg" xmlns:xlink="http://www.w3.org/1999/xlink" x="0px" y="0px"
	 viewBox="0 0 566 565" style="enable-background:new 0 0 566 565;" xml:space="preserve">
<style type="text/css">
	.st0{display:none;}
	.st1{display:inline;}
	.st2{fill:none;stroke:#000000;stroke-miterlimit:10;}
	.st3{fill:#447776;}
	.st4{fill:#578685;}
	.st5{fill:#5F9898;}
	.st6{fill-rule:evenodd;clip-rule:evenodd;fill:#578685;}
	.st7{fill-rule:evenodd;clip-rule:evenodd;fill:#447776;}
	.st8{fill:#C20C1E;}
	.st9{fill:#FCC000;}
	.st10{fill:#21CC21;}
	.st11{fill:#4D4D4D;}
	.st12{fill:#F21B16;}
	.st13{fill:#F97000;}
</style>
<g>
	<path class="st13" d="M15.5,284.9c0.1-149.4,122-271.4,271.3-271.4c149.9,0,272.1,122.2,271.7,271.7
		c-0.4,150.1-122.1,271.5-272,271.4C137.1,556.4,15.4,434.4,15.5,284.9z M286.8,49.2C156.4,49.3,51.1,154.7,51.1,285.1
		c0,130.3,105.5,235.9,235.7,235.8c130.9-0.1,236.2-105.5,236-236.2C522.6,154.3,417.2,49.1,286.8,49.2z"/>
	<path class="st13" d="M154.6,287.4c12,0.9,23.2,4.4,33.9,9.1c15.7,6.9,31.1,14.4,46.6,21.9c2.1,1,3.1,0.8,4.6-0.9
		c33.9-40,69.2-78.6,107.1-114.9c18.8-18,38-35.5,60.1-49.5c7.1-4.5,14.5-8.4,22.9-10.1c5.3-1,10.5-1,15.4,1.6
		c6.3,3.2,8.8,9.5,5.8,15.9c-1.6,3.4-3.9,6.6-6.6,9.3c-11.7,11.8-23.8,23.3-35.6,35.1c-39.4,39.6-72.5,84.1-100.5,132.4
		c-20.5,35.4-38,72.3-53.2,110.2c-2.2,5.6-7.2,8.1-12.1,5.7c-2.1-1-3.9-3.1-5.1-5.1c-12-19.6-23.5-39.4-35.9-58.8
		c-17.6-27.5-38.5-52.5-63.2-73.8c-9.5-8.1-3.8-22.6,4.8-25.6C147.1,288.7,150.9,288.2,154.6,287.4z"/>
</g>
</svg>
