<svg id="Слой_1" data-name="Слой 1" xmlns="http://www.w3.org/2000/svg" xmlns:xlink="http://www.w3.org/1999/xlink" viewBox="0 0 1920 1080"><defs><style>.cls-1{opacity:0.2;}.cls-2{fill:url(#Безымянный_градиент_10);}.cls-3{fill:url(#Безымянный_градиент_10-2);}.cls-4{fill:url(#Безымянный_градиент_10-3);}.cls-5{fill:url(#Безымянный_градиент_7);}.cls-6{fill:url(#Безымянный_градиент_7-2);}.cls-7{fill:url(#Безымянный_градиент_7-3);}</style><linearGradient id="Безымянный_градиент_10" x1="-164.55092" y1="1081.10857" x2="547.19557" y2="1081.10857" gradientTransform="translate(-969.38044 785.12555) rotate(-52.51224)" gradientUnits="userSpaceOnUse"><stop offset="0" stop-color="#3c6aa3"/><stop offset="1" stop-color="#f5fdff"/></linearGradient><linearGradient id="Безымянный_градиент_10-2" x1="-123.83469" y1="1205.01624" x2="912.42925" y2="1205.01624" xlink:href="#Безымянный_градиент_10"/><linearGradient id="Безымянный_градиент_10-3" x1="294.46284" y1="907.54802" x2="1044.00767" y2="907.54802" xlink:href="#Безымянный_градиент_10"/><linearGradient id="Безымянный_градиент_7" x1="1567.44484" y1="518.96492" x2="1918.44987" y2="167.95988" gradientTransform="matrix(1, 0, 0, 1, 0, 0)" xlink:href="#Безымянный_градиент_10"/><linearGradient id="Безымянный_градиент_7-2" x1="1480.51894" y1="-3.99194" x2="1526.63618" y2="774.62996" gradientTransform="matrix(1, 0, 0, 1, 0, 0)" xlink:href="#Безымянный_градиент_10"/><linearGradient id="Безымянный_градиент_7-3" x1="2738.50157" y1="2896.42164" x2="3249.95004" y2="2384.97317" gradientTransform="translate(4602.57581 3334.37274) rotate(179.35164)" xlink:href="#Безымянный_градиент_10"/></defs><title>2020_06_05_Авторизация 2</title><g class="cls-1"><path class="cls-2" d="M188.96,1369.35c-23.98-38.25-65.45-70.25-113.47-107.29993-21.26-16.41-43.25-33.37012-64.92-51.89014C-30.7,1174.87-80.92,1126.23-103.09,1062.7-125.66,998.03-116.12,927.6-73.93,847.39l24.39-46.37-39.81,34.06c-.92.79-22.97,19.78-49.25,54.05-24.82,32.36-57.98,84.73-75,150.45-22.05,85-12.52,171.22009,28.34,256.27A537.36158,537.36158,0,0,0-83.11,1441.58c24.68,25.19006,54,51.41,82.34,76.77q8.97,8.025,17.91,16.04l.6.5c.56.43006,56.01,43.55994,68.01,101.25989,9.13,43.9801-.54,92.29-28.73,143.59009l16.9,10.77c3.16-4.31006,77.8-106.77,117.55-217.42C220.09,1493.26,219.14,1417.08,188.96,1369.35Zm6.64,174.1C187.53,1575.79,177.28,1597.28,156.78,1640.27c-28.17,59.08-52.17,94.92993-57.72,103.13989C88.19,1759.47,78.4,1772.47,71.2,1781.67993c-3.7-.88989-5.15-2.44995-5.79-3.68994-1.97-3.82007,1.86005-8.22,7.24-19.96,1.25-2.73,2.65-6.31006,5.44-13.45007,0,0,3.86-9.87,7.06-19.72,11.92-36.66,7.12-74.80994,7.12-74.80994C86.61,1605.11,63.03,1574.72,50.8,1559.36c-4.4-5.53-7.24-8.53-44.67-42.51-63.48-57.64-66.75-59.39-81.87-75.18006A614.67335,614.67335,0,0,1-131.86,1373.5c-10.94-15.39-25.97-36.71-41.57-67.33008-8.27-16.24-21.93-43.42993-32.42-81.68994-4.95-18.05005-12.98-48.08008-13.66-88.31006-.71-42.09,6.9-73.5,11.81-93.15991a418.67231,418.67231,0,0,1,37.46-95.8,432.59953,432.59953,0,0,1,43.93-66.08,436.90617,436.90617,0,0,1,64.86-65.12,363.843,363.843,0,0,0-41.52,87.15c-7.59,23.59-16.87,52.44-16.41,89.25.81,65.96,32.33,114.21,48.59,139.11,26.03,39.84,56.49,66.37,80.26,87.05994,5.4,4.71008,19.38,15.49011,47.34,37.06005,29.17,22.50989,79.64,60.99,110.18,95.00989A152.16736,152.16736,0,0,1,189.56,1382.96a151.04325,151.04325,0,0,1,10.69,26.77c3.7,12.66,6.52,28.69995,5.45,58.18994C205.08,1484.93994,204.04,1509.6,195.6,1543.45Z"/></g><g class="cls-1"><path class="cls-3" d="M389.66,1157.80005Q365,1116.88,346.2,1080c-31.02-60.82-50.32-113.83-58.58-160.63-12.61-71.34.25-128.99,40.45-181.41a315.13927,315.13927,0,0,1,30.18-33.72l29.09-28.43-38.98,11.62c-3.22.96-79.46,24.15-146.75,83.38a326.88022,326.88022,0,0,0-43.39,46.11C124.83,860.47,106.23,909.82,102.96,963.61c-2.22,36.64,2.71,75.75,14.69,116.39.89,3.02,1.81,6.05005,2.78,9.08,15.76,49.37,71.62,141.46008,85.73,163.43l.67005,1.05005c14.94,23.18994,49.93,77.51,56.71,129.11987,7.3,55.78,2.64,105.56006-15.1,161.43006-15.09,47.54992-44.66,101.44006-87.91,160.17L111.81,1770.45l63.23-52.49c.7-.58,70.68-59.03,135.91-144.08C395.18,1464.07007,477.2,1302.74,389.66,1157.80005Zm11.82,239.73c-2.97,8.99-16.67,49.6499-45.65,100.59-15.93,27.99-43.07,70.70007-81.31,112.61-16.02,17.57007-22.16,22.02-56.92,59.3-9.31995,9.99-17.66,19.1-30.4,30.71a401.60512,401.60512,0,0,1-41.34,32.99,670.94572,670.94572,0,0,0,40.7-55.99c27.77-42.66992,68.74-106.97,83.1-195.64,4.15-25.63,8.61005-54.66,3.05-92.75-7.39-50.68006-28.27-88.28992-42.48-109.66q-18.645-30.345-37.3-60.67993a492.90046,492.90046,0,0,1-44.69-75.72c-7.83-16.48-17.41-36.9-25.32-63.29-2.67-8.86-5.13995-18.4-7.29-28.67993C105.59,1003.37,108.17,966.39,108.77,958.66c1.18-15.14,3.24-39.5,13.82-69.48a261.2008,261.2008,0,0,1,40.62-73.02c16.77-21.36,32.51-34.62,48.29-47.93a425.064,425.064,0,0,1,53.8-38.72,402.84333,402.84333,0,0,1,104.07-43.87c-4.33,4.2-10.23,10.09-16.97,17.37a436.80489,436.80489,0,0,0-30.53,36.5c-3.94,5.4-24.76,33.9-36.31,71.18-15.21,49.07-7.47,91.12-.89,126.85,7.48,40.67,20.28,70.95,29.95,93.48,7.6,17.72,15.13,32.53,24.06,48.98,4.04,7.46,8.37,15.25,13.13,23.81006,19.45,34.99,30.18,50.23,46,84.78992,8.4,18.37,12.69,27.84,16.57,41.97009,1.76,6.40991,8.96,33.83984,6.56,75.54993C418.74,1344.57007,409.66,1372.71,401.48,1397.53Z"/></g><g class="cls-1"><path class="cls-4" d="M164.4,1255.5c-.25-.3501-24.67-35.42993-37.53-57.68994-1.59-2.74-3.13-5.31006-4.71-7.94006-6.75-11.29-14.41-24.08-30.28-57.80994A337.59946,337.59946,0,0,1,72.51,1080c-12.1-42.8501-16.17-88.31-11.19-130.4,5.44-45.82,28.73-103.71,60.78-151.08,51.26-75.86,64.9-122.02,72.14-180.69,4.26-34.72,3.01-71.06-3.93-114.35-12.79-79.57-41.52-133.62-42.74-135.88l-38-70.66,19.41,77.85c.2.79,19.27,80.4-19.05,196.57-15.46,46.76-44.35,87.87-80.97,139.99Q13.12,734.255,0,756.3c-45.41,76.3-66.64,145.28-64.7,209.75,1.71,56.97,21.71,109.39,61.15,160.25006C30.5,1170.18994,144.9,1264.97,149.75,1268.99l56.75,46.91992Zm-62.84-33.99C50.21,1176.52,24,1153.26-2.49,1115.82007c-18.34-25.92017-39.6-56.6001-50.15-102.6001-8.61-37.58-6.07-67.91-4.46-85.38,4.83-52.52,22.26-90.76,36.12-120.46C-14.05,792.53-7.01,779.55,0,767.63c6.93-11.77,13.83-22.51,20.58-33.02,20.58-32.03,27.07-37.2,45.41-65.32,15.11-23.16,33.4-51.19,47.67-86.84C136.39,525.66,138.15,476.49,138.78,453.36a402.78771,402.78771,0,0,0-16.71-125.91,532.61324,532.61324,0,0,1,40.91,92.15c9.6,28.66,26.55005,80.69,26.72,150.27.06,26.28-.18,68.05-16.84,117.81-8.55,25.53-18.98,45.85-25.85,59.13-19.19,37.07-34.16,54.73-46.7,74.08C62.88,878.7,54.88,939.71,52.96,959.18c0,0-5.68,57.29,12.3,120.82a283.12361,283.12361,0,0,0,13.17,36.93994c2.08,4.74,10.2,22.73,22.49,45,11.91,21.57007,22.98,38.55005,29.01,47.76,6.74,10.29,8.81,12.96,18.7,27.47,8.02,11.76,19.55,28.92,33.39,50.36011C162.63,1272.65991,134.42,1250.30005,101.56,1221.51Z"/></g><g class="cls-1"><path class="cls-5" d="M1953.37,563.89A398.3853,398.3853,0,0,1,1920,629.88c-50.86,81.25-116.58008,125.06-116.58008,125.06,120.84009-175.12,49.64014-297.69-43.11987-398.53C1695.72,286.22,1625.51,231.8,1597.48,172.29c-22.71-47.72-14.95-111.85,9.34009-172.29H1750.49A239.1865,239.1865,0,0,0,1778.29,34.41c31.83,36.38,64.86987,73.06,91.6499,107.89a550.44339,550.44339,0,0,1,85.86011,160.36C1991.02,406.15,1980.79,493.95,1953.37,563.89Z"/><path class="cls-6" d="M1657.77,579.35c-15.64,85.69-67.05,142.81-121.59009,180.27C1460.26,811.79,1378.27,825.86,1378.27,825.86c68.98-52.89,109.59-118.48,103.85-222.46-3.77-68.52-27.63-153.69-76.72-262.87C1349.95,217.53,1402.28,96.28,1476.79,0H1563.95C1547.53,48.22,1543.37,89.84,1543.76,128.16c.62,57.42,31.92993,120.97,44.16992,146.16,12.19007,25.17,57.54,125.41,67.41016,177C1664.61,499.84,1664.55005,542.27,1657.77,579.35Z"/><path class="cls-7" d="M1577.42862,981.65086c21.98118-46.79777,56.40036-85.56032,102.75156-137.11015C1763.51787,750.423,1799.7358,669.62,1806.10256,598.91179c5.65436-62.83307-12.32876-117.71989-41.8192-166.94215C1734.8,382.78422,1624.95441,267.22669,1624.95441,267.22669s21.17167,39.791,31.98777,65.08208c7.04319,16.3747,13.174,27.50951,28.31128,73.15768,18.26927,55.06709,26.27714,127.26643,9.12087,198.1779-11.64459,47.97025-43.04287,105.89894-83.88815,152.98584-60.37675,69.66465-79.90929,113.25431-94.80355,173.44793-10.06893,40.81779-11.25193,80.54725-9.87279,115.77314,3.29467,83.04646,26.55617,142.37475,26.55617,142.37475s-10.916-87.1792,45.06261-206.57515Z"/></g></svg>