<?xml version="1.0" encoding="utf-8"?>
<!-- Generator: Adobe Illustrator 16.0.0, SVG Export Plug-In . SVG Version: 6.00 Build 0)  -->
<!DOCTYPE svg PUBLIC "-//W3C//DTD SVG 1.0//EN" "http://www.w3.org/TR/2001/REC-SVG-20010904/DTD/svg10.dtd">
<svg version="1.0" xmlns="http://www.w3.org/2000/svg" xmlns:xlink="http://www.w3.org/1999/xlink" x="0px" y="0px" width="566px"
	 height="565px" viewBox="0 0 566 565" enable-background="new 0 0 566 565" xml:space="preserve">
<g id="Слой_1" display="none">
	<g display="inline">
		<rect x="126.258" y="117.484" fill="none" stroke="#000000" stroke-miterlimit="10" width="423.871" height="423.871"/>
		<line fill="none" stroke="#000000" stroke-miterlimit="10" x1="126.258" y1="502.858" x2="550.129" y2="502.858"/>
		<line fill="none" stroke="#000000" stroke-miterlimit="10" x1="126.258" y1="464.259" x2="550.129" y2="464.259"/>
		<line fill="none" stroke="#000000" stroke-miterlimit="10" x1="126.258" y1="425.763" x2="550.129" y2="425.763"/>
		<line fill="none" stroke="#000000" stroke-miterlimit="10" x1="126.258" y1="387.267" x2="550.129" y2="387.267"/>
		<line fill="none" stroke="#000000" stroke-miterlimit="10" x1="126.258" y1="348.667" x2="550.129" y2="348.667"/>
		<line fill="none" stroke="#000000" stroke-miterlimit="10" x1="126.258" y1="310.171" x2="550.129" y2="310.171"/>
		<line fill="none" stroke="#000000" stroke-miterlimit="10" x1="126.258" y1="271.572" x2="550.129" y2="271.572"/>
		<line fill="none" stroke="#000000" stroke-miterlimit="10" x1="126.258" y1="233.076" x2="550.129" y2="233.076"/>
		<line fill="none" stroke="#000000" stroke-miterlimit="10" x1="126.258" y1="194.58" x2="550.129" y2="194.58"/>
		<line fill="none" stroke="#000000" stroke-miterlimit="10" x1="126.258" y1="155.98" x2="550.129" y2="155.98"/>
		<line fill="none" stroke="#000000" stroke-miterlimit="10" x1="511.633" y1="117.484" x2="511.633" y2="541.354"/>
		<line fill="none" stroke="#000000" stroke-miterlimit="10" x1="473.033" y1="117.484" x2="473.033" y2="541.354"/>
		<line fill="none" stroke="#000000" stroke-miterlimit="10" x1="434.537" y1="117.484" x2="434.537" y2="541.354"/>
		<line fill="none" stroke="#000000" stroke-miterlimit="10" x1="396.041" y1="117.484" x2="396.041" y2="541.354"/>
		<line fill="none" stroke="#000000" stroke-miterlimit="10" x1="357.441" y1="117.484" x2="357.441" y2="541.354"/>
		<line fill="none" stroke="#000000" stroke-miterlimit="10" x1="318.946" y1="117.484" x2="318.946" y2="541.354"/>
		<line fill="none" stroke="#000000" stroke-miterlimit="10" x1="280.346" y1="117.484" x2="280.346" y2="541.354"/>
		<line fill="none" stroke="#000000" stroke-miterlimit="10" x1="241.85" y1="117.484" x2="241.85" y2="541.354"/>
		<line fill="none" stroke="#000000" stroke-miterlimit="10" x1="203.354" y1="117.484" x2="203.354" y2="541.354"/>
		<line fill="none" stroke="#000000" stroke-miterlimit="10" x1="164.754" y1="117.484" x2="164.754" y2="541.354"/>
	</g>
</g>
<g id="Слой_2">
	<polygon fill="#808285" points="164.208,155.767 209.872,155.767 209.859,315.56 255.474,224.232 301.137,224.232 301.137,384.022 
		255.796,384.346 255.757,292.302 210.134,384.022 164.662,384.022 	"/>
</g>
<g id="Слой_3">
	<polygon fill="#A7A9AC" points="301.199,384.022 301.199,201.431 210.166,201.431 210.166,155.767 415.266,155.767 
		415.266,201.431 346.801,201.087 346.801,384.022 	"/>
</g>
<g id="Слой_4">
	<g>
		<path fill="#BCBEC0" d="M522.824,273.246c0,0-0.08,1.209-0.233,3.553c-0.077,1.172-0.173,2.627-0.286,4.357
			c-0.028,0.432-0.059,0.882-0.089,1.348c-0.016,0.233-0.031,0.471-0.047,0.712c-0.027,0.31-0.055,0.625-0.082,0.946
			c-0.132,1.371-0.273,2.835-0.423,4.389c-0.16,1.552-0.33,3.193-0.509,4.924c-0.192,1.703-0.36,3.632-0.653,5.278
			c-0.55,3.446-1.116,7.208-1.836,11.251c-0.423,2.012-0.861,4.099-1.315,6.259c-0.23,1.078-0.466,2.175-0.704,3.289
			c-0.233,1.115-0.482,2.246-0.798,3.383c-0.602,2.275-1.222,4.622-1.86,7.038c-0.329,1.205-0.637,2.434-1.002,3.664
			c-0.387,1.226-0.779,2.468-1.178,3.727c-0.804,2.514-1.615,5.098-2.495,7.729c-0.972,2.599-1.967,5.264-2.985,7.99
			c-0.98,2.739-2.189,5.461-3.392,8.252c-1.222,2.783-2.392,5.656-3.834,8.479c-5.386,11.453-12.233,23.328-20.601,35.204
			c-8.368,11.873-18.316,23.726-29.964,34.963c-11.65,11.222-24.958,21.888-39.96,31.191c-14.998,9.295-31.617,17.302-49.518,23.398
			c-2.211,0.83-4.511,1.442-6.783,2.153c-2.283,0.679-4.562,1.397-6.874,2.031c-2.326,0.58-4.662,1.162-7.007,1.747
			c-1.172,0.287-2.346,0.575-3.522,0.863c-1.183,0.26-2.377,0.481-3.569,0.722c-2.384,0.465-4.777,0.931-7.179,1.398
			c-2.403,0.45-4.844,0.742-7.275,1.111c-1.217,0.174-2.437,0.348-3.659,0.521l-1.833,0.258l-1.846,0.179
			c-2.462,0.229-4.932,0.46-7.411,0.69c-2.474,0.271-4.968,0.337-7.465,0.451c-2.498,0.1-5.001,0.225-7.511,0.286
			c-2.509-0.019-5.025-0.037-7.55-0.056c-1.26-0.015-2.523-0.028-3.787-0.043c0.698,0.007-1.49-0.014-1.404-0.022l-0.399-0.026
			l-0.798-0.053l-1.599-0.104c-2.134-0.141-4.273-0.281-6.42-0.422l-0.805-0.053l-1.023-0.099l-2.059-0.205
			c-1.373-0.142-2.747-0.283-4.123-0.426c-5.683-0.506-10.561-1.423-15.708-2.244c-10.176-1.938-20.382-4.313-30.379-7.67
			c-5.045-1.518-9.955-3.515-14.919-5.368c-2.455-1.004-4.882-2.09-7.324-3.144l-3.657-1.602l-3.591-1.765
			c-19.224-9.279-37.293-21.458-53.46-35.958c-1.988-1.847-3.978-3.697-5.972-5.55c-1.965-1.879-3.833-3.865-5.748-5.801
			c-0.947-0.979-1.91-1.941-2.842-2.936l-2.725-3.054l-2.718-3.061c-0.907-1.02-1.817-2.035-2.661-3.112
			c-1.714-2.125-3.43-4.253-5.148-6.383c-1.696-2.145-3.263-4.396-4.892-6.595l-2.408-3.327l-2.271-3.429l-2.263-3.435
			c-0.756-1.144-1.513-2.286-2.197-3.478c-1.398-2.36-2.797-4.722-4.198-7.086c-1.37-2.379-2.605-4.84-3.904-7.26
			c-0.636-1.218-1.295-2.423-1.906-3.653l-1.758-3.734l-1.748-3.736c-0.589-1.242-1.166-2.489-1.671-3.771
			c-1.043-2.544-2.087-5.09-3.132-7.638c-1.005-2.561-1.873-5.179-2.806-7.767c-0.451-1.3-0.931-2.589-1.353-3.898l-1.191-3.955
			l-1.182-3.955c-0.399-1.316-0.79-2.634-1.1-3.978l-1.971-8.014c-0.628-2.677-1.087-5.394-1.628-8.087l-0.771-4.048l-0.588-4.079
			c-0.364-2.723-0.826-5.429-1.091-8.16c-1.213-10.912-1.508-21.873-1.241-32.766c0.026-1.417,0.024-0.653,0.038-1.087l0.03-0.454
			l0.06-0.907l0.119-1.814l0.238-3.629l0.119-1.814l0.06-0.907c0.018-0.296,0.068-0.698,0.101-1.042l0.452-4.287l0.469-4.278
			l0.241-2.135c0.087-0.702,0.211-1.352,0.315-2.03l1.318-8.042c0.454-2.674,1.103-5.316,1.652-7.968l0.864-3.968l1.043-3.926
			c0.722-2.608,1.36-5.234,2.163-7.812l2.489-7.699c0.395-1.287,0.869-2.548,1.352-3.805l1.429-3.773l1.433-3.763
			c0.501-1.245,1.06-2.466,1.588-3.698c1.088-2.451,2.107-4.926,3.259-7.338c1.188-2.393,2.375-4.785,3.561-7.174
			c0.575-1.202,1.219-2.368,1.875-3.528l1.945-3.484l1.947-3.473c0.674-1.143,1.394-2.258,2.089-3.386
			c1.419-2.238,2.768-4.513,4.247-6.701c1.504-2.168,3.007-4.334,4.508-6.499c0.733-1.092,1.537-2.134,2.339-3.175l2.397-3.125
			l2.396-3.113l2.523-3.005c1.704-1.982,3.34-4.013,5.098-5.934c1.774-1.903,3.546-3.804,5.316-5.702
			c0.869-0.961,1.802-1.862,2.73-2.765l2.778-2.708l2.774-2.697c0.947-0.875,1.923-1.718,2.882-2.576
			c1.938-1.694,3.823-3.437,5.797-5.07c1.996-1.605,3.989-3.207,5.979-4.807c16.135-12.503,33.713-22.574,51.976-29.825l3.406-1.385
			l3.46-1.225c2.308-0.802,4.594-1.64,6.9-2.397c4.668-1.359,9.254-2.871,13.948-3.913c9.296-2.407,18.696-3.876,27.979-4.972
			c4.664-0.4,9.28-0.918,13.898-0.999c2.306-0.069,4.599-0.215,6.888-0.215c2.288,0.028,4.568,0.056,6.842,0.084l1.702,0.023
			l0.85,0.012l0.424,0.006c0.077-0.002,0.87,0.021,0.722,0.025l3.186,0.209c2.12,0.139,4.234,0.278,6.341,0.417
			c2.236,0.215,4.561,0.493,6.819,0.741c2.267,0.263,4.556,0.479,6.703,0.882c2.174,0.361,4.341,0.721,6.501,1.08l1.615,0.271
			l1.6,0.347c1.065,0.232,2.128,0.463,3.189,0.694c2.117,0.482,4.24,0.88,6.321,1.431c2.077,0.563,4.145,1.124,6.206,1.683
			c1.028,0.285,2.058,0.549,3.076,0.85c1.011,0.328,2.019,0.656,3.026,0.983c2.009,0.655,4.01,1.308,6.003,1.958
			c1.976,0.698,3.916,1.476,5.858,2.206c1.931,0.763,3.889,1.422,5.758,2.292c15.156,6.417,28.955,14.345,41.202,23.207
			c12.25,8.872,22.874,18.753,32.005,28.912c9.128,10.175,16.72,20.688,22.956,31.046c6.233,10.362,11.173,20.549,14.897,30.26
			c1.026,2.387,1.797,4.82,2.633,7.164c0.817,2.351,1.656,4.632,2.281,6.93c0.671,2.277,1.326,4.501,1.965,6.672
			c0.535,2.196,1.057,4.338,1.564,6.424c3.943,16.712,4.876,30.168,5.103,39.266c0.041,1.138,0.079,2.209,0.114,3.213
			c0.042,1.003-0.013,1.943-0.013,2.811c-0.026,1.735-0.048,3.195-0.065,4.371c-0.035,2.348-0.054,3.56-0.054,3.56L522.824,273.246z
			 M472.84,271.979c0,0-0.079-1.21-0.233-3.555c-0.077-1.17-0.173-2.624-0.286-4.351c-0.069-0.862-0.089-1.795-0.212-2.79
			c-0.116-0.994-0.239-2.055-0.371-3.182c-0.95-8.995-2.957-22.21-8.125-38.201c-0.657-1.99-1.333-4.034-2.025-6.129
			c-0.792-2.058-1.603-4.168-2.434-6.328c-0.782-2.174-1.778-4.323-2.753-6.533c-0.992-2.202-1.918-4.484-3.099-6.71
			c-4.343-9.068-9.876-18.45-16.604-27.829c-13.424-18.729-32.042-37.451-55.938-52.037c-11.945-7.25-25.136-13.452-39.292-18.143
			c-1.744-0.654-3.571-1.097-5.365-1.645c-1.806-0.515-3.602-1.078-5.429-1.562c-1.838-0.438-3.684-0.877-5.537-1.318
			c-0.924-0.221-1.85-0.443-2.778-0.665c-0.934-0.195-1.879-0.354-2.82-0.534c-1.881-0.351-3.769-0.704-5.664-1.057
			c-1.895-0.343-3.825-0.536-5.742-0.815c-0.96-0.13-1.922-0.26-2.885-0.39l-1.445-0.197l-1.458-0.121
			c-1.942-0.163-3.892-0.326-5.848-0.489c-1.975-0.213-3.86-0.22-5.772-0.289c-1.915-0.061-3.836-0.121-5.764-0.182
			c-2.111,0.032-4.229,0.063-6.354,0.096l-3.192,0.048c-0.414,0,0.113,0.004-0.077,0.015l-0.375,0.026l-0.749,0.052l-1.5,0.104
			c-1.998,0.136-4.001,0.272-6.01,0.409c-2.005,0.16-4.004,0.461-6.012,0.682c-4.023,0.383-8.012,1.185-12.026,1.846
			c-7.981,1.618-15.978,3.521-23.785,6.249c-3.95,1.203-7.77,2.846-11.654,4.307c-1.915,0.808-3.804,1.688-5.711,2.526l-2.855,1.271
			l-2.796,1.419c-14.992,7.402-29.05,17.091-41.609,28.563c-1.543,1.461-3.089,2.924-4.637,4.389
			c-1.526,1.484-2.962,3.067-4.452,4.591c-0.735,0.772-1.487,1.527-2.209,2.312l-2.102,2.418l-2.106,2.413
			c-0.705,0.802-1.415,1.599-2.06,2.454c-1.325,1.675-2.651,3.351-3.979,5.03c-1.313,1.686-2.506,3.471-3.769,5.196l-1.863,2.612
			l-1.739,2.702l-1.743,2.697c-0.585,0.896-1.173,1.789-1.69,2.73c-1.073,1.851-2.147,3.704-3.222,5.559
			c-1.054,1.863-1.98,3.801-2.981,5.692c-0.486,0.954-0.999,1.893-1.465,2.857l-1.33,2.926l-1.335,2.92
			c-0.454,0.969-0.897,1.942-1.272,2.948l-2.379,5.963c-0.764,1.998-1.4,4.046-2.112,6.061c-0.34,1.014-0.712,2.015-1.029,3.036
			l-0.884,3.085l-0.89,3.079c-0.305,1.023-0.604,2.048-0.824,3.096l-1.468,6.235c-0.471,2.081-0.785,4.199-1.191,6.291l-0.578,3.144
			l-0.412,3.174c-0.252,2.118-0.613,4.215-0.789,6.34l-0.513,6.367c-0.038,0.524-0.102,1.072-0.12,1.576l-0.034,1.487L103,258.886
			l-0.099,2.958c-0.006,0.26-0.026,0.46-0.02,0.771l0.014,0.909l0.027,1.818l0.055,3.636l0.027,1.818l0.014,0.909l0.007,0.455
			c0.006-0.131-0.004,0.935,0.015-0.179c0.515,8.484,1.416,16.898,3.027,25.151c0.365,2.068,0.914,4.101,1.351,6.149l0.688,3.063
			l0.851,3.021c0.587,2.007,1.08,4.033,1.726,6.016l1.986,5.92c0.306,0.992,0.688,1.959,1.076,2.924l1.137,2.896l1.125,2.894
			c0.396,0.956,0.847,1.89,1.265,2.835c0.868,1.878,1.655,3.784,2.566,5.633l2.808,5.5c0.443,0.926,0.956,1.817,1.476,2.703
			l1.532,2.668l1.52,2.666c0.529,0.875,1.102,1.725,1.648,2.588c1.12,1.71,2.161,3.462,3.323,5.134l3.532,4.972
			c0.565,0.841,1.201,1.633,1.833,2.427l1.877,2.387l1.864,2.387l1.98,2.29c1.337,1.509,2.598,3.073,3.974,4.535
			c1.384,1.451,2.766,2.901,4.147,4.349c0.67,0.74,1.403,1.421,2.129,2.106l2.166,2.062l2.152,2.062
			c0.737,0.665,1.502,1.3,2.249,1.952c1.513,1.282,2.965,2.622,4.501,3.859c1.55,1.218,3.099,2.433,4.645,3.646
			c12.526,9.475,26.095,17.055,40.125,22.429l2.611,1.04l2.66,0.894c1.773,0.587,3.521,1.219,5.288,1.779
			c3.587,0.967,7.084,2.124,10.684,2.852c7.105,1.777,14.297,2.774,21.385,3.55c3.531,0.24,7.257,0.644,10.216,0.601l2.334,0.065
			l1.162,0.04l0.586,0.021l0.807-0.012c2.151-0.032,4.295-0.064,6.433-0.097l1.602-0.024l0.8-0.012l0.399-0.006
			c0.352,0.004-1.569-0.037-0.605-0.033l2.59-0.203c1.72-0.126,3.435-0.252,5.145-0.377c1.696-0.213,3.386-0.426,5.071-0.638
			c1.681-0.217,3.362-0.374,5.01-0.72c1.652-0.294,3.298-0.587,4.938-0.879l1.228-0.213l1.212-0.286l2.415-0.563
			c1.603-0.391,3.215-0.69,4.789-1.135c1.57-0.448,3.133-0.896,4.691-1.341c0.777-0.224,1.558-0.426,2.327-0.662l2.282-0.784
			c1.517-0.512,3.028-1.021,4.533-1.529c1.49-0.549,2.948-1.169,4.414-1.736c1.454-0.6,2.939-1.089,4.34-1.783
			c11.411-5.01,21.781-11.135,30.975-17.952c18.382-13.73,31.805-30.149,40.973-45.842c4.595-7.865,8.22-15.56,10.9-22.885
			c0.765-1.792,1.291-3.635,1.897-5.396c0.589-1.77,1.216-3.479,1.643-5.211c0.482-1.71,0.954-3.38,1.413-5.009
			c0.374-1.65,0.738-3.259,1.094-4.825c0.181-0.78,0.36-1.55,0.536-2.309c0.158-0.764,0.266-1.528,0.4-2.274
			c0.263-1.49,0.519-2.938,0.766-4.342c0.145-0.696,0.229-1.394,0.303-2.081c0.083-0.686,0.164-1.359,0.244-2.022
			c0.168-1.321,0.33-2.597,0.486-3.828c0.186-2.474,0.357-4.763,0.515-6.859c0.12-1.117,0.063-1.853,0.084-2.675
			c0.013-0.795,0.025-1.55,0.038-2.263c0.022-0.71,0.044-1.379,0.063-2.006l0.01-0.233l0.005-0.115l-0.003-0.181
			c-0.004-0.242-0.007-0.48-0.011-0.714c-0.007-0.467-0.014-0.918-0.021-1.351c-0.025-1.733-0.048-3.191-0.065-4.366
			c-0.035-2.348-0.054-3.561-0.054-3.561L472.84,271.979z"/>
	</g>
	<circle fill="none" stroke="#D1D3D4" stroke-width="10" stroke-miterlimit="10" cx="282.729" cy="283.606" r="270.74"/>
</g>
</svg>
