<?xml version="1.0" encoding="utf-8"?>
<!-- Generator: Adobe Illustrator 23.0.1, SVG Export Plug-In . SVG Version: 6.00 Build 0)  -->
<svg version="1.1" id="Слой_1" xmlns="http://www.w3.org/2000/svg" xmlns:xlink="http://www.w3.org/1999/xlink" x="0px" y="0px"
	 viewBox="0 0 40 40" style="enable-background:new 0 0 40 40;" xml:space="preserve">
<style type="text/css">
	.st0{fill:#FFFFFF;}
	.st1{fill:#1D472A;}
	.st2{fill-rule:evenodd;clip-rule:evenodd;fill:#DE981A;}
	.st3{fill:#DE981A;}
	.st4{fill:none;stroke:#659558;stroke-miterlimit:10;}
	.st5{fill:#B45092;}
	.st6{fill-rule:evenodd;clip-rule:evenodd;fill:#B45092;}
	.st7{fill:#0091C8;}
	.st8{fill:#659558;}
	.st9{fill:#639263;}
	.st10{opacity:0.1;clip-path:url(#SVGID_2_);fill:url(#SVGID_3_);}
	.st11{opacity:0.24;clip-path:url(#SVGID_2_);}
	.st12{opacity:0.24;}
	.st13{opacity:0.31;clip-path:url(#SVGID_5_);}
	.st14{opacity:0.31;}
	.st15{clip-path:url(#SVGID_7_);fill:#C2DBCB;}
	.st16{clip-path:url(#SVGID_7_);}
	.st17{fill:#C9E2F2;}
	.st18{opacity:0.67;clip-path:url(#SVGID_5_);}
	.st19{fill:none;}
	.st20{opacity:0.65;fill:#B8D5BC;}
	.st21{clip-path:url(#SVGID_5_);fill:none;}
	.st22{clip-path:url(#SVGID_2_);fill:#FFFFFF;stroke:#639263;stroke-miterlimit:10;}
	.st23{clip-path:url(#SVGID_2_);fill:none;}
	.st24{clip-path:url(#SVGID_2_);}
	.st25{clip-path:url(#SVGID_2_);fill:none;stroke:#608D61;stroke-miterlimit:10;}
	.st26{opacity:0.91;}
	.st27{opacity:0.68;}
	.st28{fill-rule:evenodd;clip-rule:evenodd;fill:#FFFFFF;}
	.st29{fill-rule:evenodd;clip-rule:evenodd;fill:#639263;}
	.st30{opacity:0.1;clip-path:url(#SVGID_9_);fill:url(#SVGID_10_);}
	.st31{opacity:0.24;clip-path:url(#SVGID_9_);}
	.st32{opacity:0.31;clip-path:url(#SVGID_12_);}
	.st33{clip-path:url(#SVGID_14_);fill:#C2DBCB;}
	.st34{clip-path:url(#SVGID_14_);}
	.st35{opacity:0.67;clip-path:url(#SVGID_12_);}
	.st36{clip-path:url(#SVGID_12_);fill:none;}
	.st37{clip-path:url(#SVGID_9_);fill:#FFFFFF;stroke:#639263;stroke-miterlimit:10;}
	.st38{clip-path:url(#SVGID_9_);fill:none;}
	.st39{clip-path:url(#SVGID_9_);}
	.st40{clip-path:url(#SVGID_9_);fill:none;stroke:#608D61;stroke-miterlimit:10;}
	.st41{fill:none;stroke:#638F56;stroke-miterlimit:10;}
	.st42{fill-rule:evenodd;clip-rule:evenodd;fill:#0091C8;}
	.st43{opacity:0.6;}
	.st44{opacity:0.1;clip-path:url(#SVGID_16_);fill:url(#SVGID_17_);stroke:url(#SVGID_18_);stroke-miterlimit:10;}
	.st45{opacity:0.24;clip-path:url(#SVGID_16_);}
	.st46{opacity:0.31;clip-path:url(#SVGID_20_);}
	.st47{clip-path:url(#SVGID_22_);fill:#C2DBCB;}
	.st48{clip-path:url(#SVGID_22_);}
	.st49{opacity:0.67;clip-path:url(#SVGID_20_);}
	.st50{clip-path:url(#SVGID_20_);fill:none;}
	.st51{opacity:0.31;clip-path:url(#SVGID_24_);}
	.st52{clip-path:url(#SVGID_26_);fill:#C2DBCB;}
	.st53{clip-path:url(#SVGID_26_);}
	.st54{opacity:0.67;clip-path:url(#SVGID_24_);}
	.st55{clip-path:url(#SVGID_24_);fill:none;}
	.st56{opacity:0.31;clip-path:url(#SVGID_28_);}
	.st57{clip-path:url(#SVGID_30_);fill:#C2DBCB;}
	.st58{clip-path:url(#SVGID_30_);}
	.st59{opacity:0.67;clip-path:url(#SVGID_28_);}
	.st60{clip-path:url(#SVGID_28_);fill:none;}
	.st61{opacity:0.31;clip-path:url(#SVGID_32_);}
	.st62{clip-path:url(#SVGID_34_);fill:#C2DBCB;}
	.st63{clip-path:url(#SVGID_34_);}
	.st64{opacity:0.67;clip-path:url(#SVGID_32_);}
	.st65{clip-path:url(#SVGID_32_);fill:none;}
	.st66{clip-path:url(#SVGID_16_);fill:none;}
	.st67{fill:#638F56;}
	.st68{opacity:0.1;clip-path:url(#SVGID_36_);fill:url(#SVGID_37_);stroke:url(#SVGID_38_);stroke-miterlimit:10;}
	.st69{opacity:0.24;clip-path:url(#SVGID_36_);}
	.st70{opacity:0.31;clip-path:url(#SVGID_40_);}
	.st71{clip-path:url(#SVGID_42_);fill:#C2DBCB;}
	.st72{clip-path:url(#SVGID_42_);}
	.st73{opacity:0.67;clip-path:url(#SVGID_40_);}
	.st74{clip-path:url(#SVGID_40_);fill:none;}
	.st75{opacity:0.31;clip-path:url(#SVGID_44_);}
	.st76{clip-path:url(#SVGID_46_);fill:#C2DBCB;}
	.st77{clip-path:url(#SVGID_46_);}
	.st78{opacity:0.67;clip-path:url(#SVGID_44_);}
	.st79{clip-path:url(#SVGID_44_);fill:none;}
	.st80{opacity:0.31;clip-path:url(#SVGID_48_);}
	.st81{clip-path:url(#SVGID_50_);fill:#C2DBCB;}
	.st82{clip-path:url(#SVGID_50_);}
	.st83{opacity:0.67;clip-path:url(#SVGID_48_);}
	.st84{clip-path:url(#SVGID_48_);fill:none;}
	.st85{opacity:0.31;clip-path:url(#SVGID_52_);}
	.st86{clip-path:url(#SVGID_54_);fill:#C2DBCB;}
	.st87{clip-path:url(#SVGID_54_);}
	.st88{opacity:0.67;clip-path:url(#SVGID_52_);}
	.st89{clip-path:url(#SVGID_52_);fill:none;}
	.st90{clip-path:url(#SVGID_36_);fill:none;}
	.st91{opacity:0.1;clip-path:url(#SVGID_56_);fill:url(#SVGID_57_);}
	.st92{opacity:0.24;clip-path:url(#SVGID_56_);}
	.st93{opacity:0.31;clip-path:url(#SVGID_59_);}
	.st94{clip-path:url(#SVGID_61_);fill:#C2DBCB;}
	.st95{clip-path:url(#SVGID_61_);}
	.st96{opacity:0.67;clip-path:url(#SVGID_59_);}
	.st97{clip-path:url(#SVGID_59_);fill:none;}
	.st98{clip-path:url(#SVGID_56_);fill:#FFFFFF;stroke:#639263;stroke-miterlimit:10;}
	.st99{clip-path:url(#SVGID_56_);fill:none;}
	.st100{clip-path:url(#SVGID_56_);}
	.st101{clip-path:url(#SVGID_56_);fill:none;stroke:#608D61;stroke-miterlimit:10;}
	.st102{fill:#5F9999;}
	.st103{fill:#563B80;}
</style>
<g>
	<path class="st7" d="M30.5,30.1c-0.3,0.5-0.8,0.8-1.4,0.9c-0.3,0.1-1.1,0.2-1.7,0.5c-0.6,0.4-0.8,1.1-0.7,1.6
		c0.1,0.6,0.6,1.2,1.3,1.3c0.5,0.1,1.2-0.1,1.8-0.6c0.4-0.3,0.8-0.8,1.1-1.3c0.3-0.5,0.4-1.1,0.4-1.8c0-1-0.4-1.8-0.4-1.8
		S30.9,29.5,30.5,30.1z"/>
	<path class="st7" d="M25.4,31.8c0.1-0.4,0.3-0.9,0.6-1.4c0.8-1,0.1-1.6,0-1.8c-0.1-0.1-0.4-0.4-0.7-0.8c-0.4-0.5-0.5-0.8-0.6-1
		c-0.4,0.5-0.7,1-1,1.5c-0.4,0.7-0.6,1.5-0.6,2.4c0,0.5,0.1,1,0.3,1.5c0.3,0.6,0.7,1.1,1.3,1.7c0.4,0.3,1.1,0.6,1.5,0.7
		c-0.3-0.5-0.6-1-0.7-1.4C25.5,32.8,25.4,32.3,25.4,31.8z"/>
	<path class="st7" d="M29.3,22.7c0,0-0.6,0.1-1.1,0.5c-0.4,0.3-0.8,0.7-0.9,1.3c-0.1,0.3-0.1,0.6,0,0.9c0.1,0.4,0.4,1.1,0.5,1.3
		s0.3,0.6,0.3,1.1c0,0.4-0.1,0.7-0.3,1.2c-0.2,0.4-0.4,0.7-0.8,1.1c0,0,3-1.9,2.1-3.8c-0.3-0.8-0.5-1.4-0.5-1.9
		C28.5,23.6,28.8,23.1,29.3,22.7z"/>
	<path class="st7" d="M26.4,32.4c0.2-0.7,0.8-1.3,2.1-1.5c0.7-0.1,1.2-0.3,1.7-0.8c0.3-0.4,0.4-0.8,0.4-1.2c0-1.2-1.1-2.4-1.1-2.4
		c0.1,0.5,0,1-0.1,1.4c-0.2,0.7-0.6,1.2-1.3,1.8c-0.4,0.4-1,0.7-1.5,1.1c-0.7,0.6-0.9,1.2-0.8,1.9c0.1,0.7,0.7,1.5,0.7,1.5
		s-0.1-0.5-0.2-0.8C26.3,32.9,26.3,32.6,26.4,32.4z"/>
	<path class="st7" d="M26.5,25.5c0.2,0.4,1,1.2,1,1.2s-0.1-0.3-0.2-0.5c0-0.1-0.1-0.2-0.2-0.5c-0.1-0.4-0.2-0.9,0-1.4
		c0.1-0.3,0.3-0.8,0.6-1.1c0.4-0.5,0.6-0.8,0.7-1.2c0.1-0.3,0.1-0.6,0.1-0.8c0-0.6-0.2-1-0.2-1s0.1,0.6-0.3,1.5
		c-0.2,0.3-0.4,0.6-0.7,1c-0.6,0.7-0.9,1.2-0.9,1.8C26.2,24.8,26.3,25.2,26.5,25.5z"/>
	<path class="st7" d="M25.7,27.6c0.2,0.3,0.4,0.5,0.6,0.8c0,0,0.4,0.4,0.4,0.9c0,0.3-0.1,0.7-0.4,1.1c0,0,0.7-0.7,1.1-1.5
		c0.3-0.5,0.4-1,0.2-1.4c-0.2-0.4-0.7-0.8-1.2-1.3c-0.7-0.7-1.2-1.6-0.3-2.9c0,0-0.7,0.5-1.1,1.4c-0.2,0.5-0.3,1.1,0,1.9
		C25.3,26.8,25.4,27.2,25.7,27.6z"/>
</g>
<path class="st7" d="M38.7,28c-0.1,0.4-0.1,0.9-0.2,1.3c-0.7,3.1-2.3,5.6-5,7.3c-3,2-6.3,2.3-9.7,1.2c-1.8-0.6-3.3-1.6-4.6-3
	c-1.3-1.4-2.2-3-2.6-4.8c-0.8-3.3-0.3-6.3,1.6-9.1c1.4-2.1,3.4-3.6,5.9-4.4c2.8-0.9,5.5-0.7,8.2,0.5c2.4,1.1,4.1,2.8,5.3,5.2
	c0.6,1.2,1,2.6,1.1,4c0,0.1,0,0.2,0,0.2C38.7,26.9,38.7,27.5,38.7,28z M36.2,27.2c0-4.9-4-8.9-9-8.7c-4.9,0.2-8.5,4.1-8.5,8.9
	c0.1,4.9,4.1,8.8,9,8.7C32.5,35.8,36.2,31.8,36.2,27.2z"/>
<path class="st7" d="M13.7,28.4c0.2,0.9,0.3,1.7,0.5,2.5c0,0-0.1,0-0.1,0c-1.9,0-3.7,0-5.6,0c-1.2,0-2.3,0-3.5,0
	c-1.8,0-3.2-1.2-3.6-2.6c-0.1-0.4-0.2-0.9-0.2-1.3c0-2.5,0-5.1,0-7.6c0-2.5,0-4.9,0-7.4c0-0.9,0-1.8,0-2.7C1.2,7.6,2.8,6,4.5,5.9
	c1.6,0,3.2,0,4.8,0c0.6,0,1.2,0,1.7,0c0.1,0,0.2-0.1,0.2-0.2C11.5,5,11.9,4.5,12.5,4c0.6-0.4,1.2-0.6,1.9-0.6c1.9,0,3.8,0,5.7,0
	c0.8,0,1.7,0,2.5,0c1.7-0.1,2.8,0.7,3.4,2.2c0.1,0.3,0.3,0.3,0.5,0.3c1.9,0,3.8,0,5.8,0c2.1,0,3.5,1.4,3.8,3.1
	c0.1,0.3,0.1,0.7,0.1,1.1c0,1.4,0,2.7,0,4.1c0,0.7,0,1.4,0,2.1c0,0.1,0,0.1,0,0.2c-0.5-0.3-0.9-0.6-1.4-0.9
	c-0.3-0.2-0.6-0.4-0.9-0.5c-0.2-0.1-0.2-0.2-0.2-0.4c0-1.6,0-3.3,0-4.9c0-0.8-0.5-1.3-1.4-1.3c-2.5,0-5,0-7.5,0
	c-0.2,0-0.3,0-0.4-0.3c-0.2-0.6-0.5-1.2-0.8-1.7c-0.2-0.4-0.4-0.5-0.8-0.5c-2.2,0-4.4,0-6.5,0c-0.5,0-1.1,0-1.6,0
	c-0.5,0-0.7,0.2-0.9,0.6c-0.3,0.6-0.5,1.1-0.8,1.7c-0.1,0.2-0.1,0.2-0.3,0.2c-2.5,0-5.1,0-7.6,0c-0.8,0-1.3,0.5-1.3,1.3
	c0,3.1,0,6.3,0,9.4c0,2.6,0,5.2,0,7.8c0,1,0.5,1.5,1.4,1.5c2.7,0,5.4,0,8.1,0C13.3,28.4,13.5,28.4,13.7,28.4z"/>
<path class="st7" d="M13.9,24.2c-2-1.5-3.3-4.4-2.6-7.5c0.7-3,3.1-5.2,6.1-5.7c3.1-0.5,5.8,1,7,2.7c-0.3,0.1-0.7,0.2-1,0.3
	c-0.5,0.2-0.9,0.3-1.4,0.5c-0.1,0-0.3,0-0.3-0.1c-1.5-1.1-3.1-1.4-4.9-0.7c-1.8,0.7-2.9,2.1-3.1,4c-0.2,1.4,0.2,2.6,1,3.7
	c0,0.1,0.1,0.2,0.1,0.2C14.5,22.5,14.2,23.3,13.9,24.2z"/>
<path class="st7" d="M8.6,13.4c-0.8,0-1.7,0-2.5,0c0-0.8,0-1.6,0-2.5c0.8,0,1.6,0,2.5,0C8.6,11.7,8.6,12.5,8.6,13.4z"/>
</svg>
