<?xml version="1.0" encoding="utf-8"?>
<!-- Generator: Adobe Illustrator 23.0.1, SVG Export Plug-In . SVG Version: 6.00 Build 0)  -->
<svg version="1.1" id="Слой_1" xmlns="http://www.w3.org/2000/svg" xmlns:xlink="http://www.w3.org/1999/xlink" x="0px" y="0px"
	 viewBox="0 0 40 40" style="enable-background:new 0 0 40 40;" xml:space="preserve">
<style type="text/css">
	.st0{fill:#FFFFFF;}
	.st1{fill:#1D472A;}
	.st2{fill-rule:evenodd;clip-rule:evenodd;fill:#DE981A;}
	.st3{fill:#DE981A;}
	.st4{fill:none;stroke:#659558;stroke-miterlimit:10;}
	.st5{fill:#B45092;}
	.st6{fill-rule:evenodd;clip-rule:evenodd;fill:#B45092;}
	.st7{fill:#0091C8;}
	.st8{fill:#659558;}
	.st9{fill:#639263;}
	.st10{opacity:0.1;clip-path:url(#SVGID_2_);fill:url(#SVGID_3_);}
	.st11{opacity:0.24;clip-path:url(#SVGID_2_);}
	.st12{opacity:0.24;}
	.st13{opacity:0.31;clip-path:url(#SVGID_5_);}
	.st14{opacity:0.31;}
	.st15{clip-path:url(#SVGID_7_);fill:#C2DBCB;}
	.st16{clip-path:url(#SVGID_7_);}
	.st17{fill:#C9E2F2;}
	.st18{opacity:0.67;clip-path:url(#SVGID_5_);}
	.st19{fill:none;}
	.st20{opacity:0.65;fill:#B8D5BC;}
	.st21{clip-path:url(#SVGID_5_);fill:none;}
	.st22{clip-path:url(#SVGID_2_);fill:#FFFFFF;stroke:#639263;stroke-miterlimit:10;}
	.st23{clip-path:url(#SVGID_2_);fill:none;}
	.st24{clip-path:url(#SVGID_2_);}
	.st25{clip-path:url(#SVGID_2_);fill:none;stroke:#608D61;stroke-miterlimit:10;}
	.st26{opacity:0.91;}
	.st27{opacity:0.68;}
	.st28{fill-rule:evenodd;clip-rule:evenodd;fill:#FFFFFF;}
	.st29{fill-rule:evenodd;clip-rule:evenodd;fill:#639263;}
	.st30{opacity:0.1;clip-path:url(#SVGID_9_);fill:url(#SVGID_10_);}
	.st31{opacity:0.24;clip-path:url(#SVGID_9_);}
	.st32{opacity:0.31;clip-path:url(#SVGID_12_);}
	.st33{clip-path:url(#SVGID_14_);fill:#C2DBCB;}
	.st34{clip-path:url(#SVGID_14_);}
	.st35{opacity:0.67;clip-path:url(#SVGID_12_);}
	.st36{clip-path:url(#SVGID_12_);fill:none;}
	.st37{clip-path:url(#SVGID_9_);fill:#FFFFFF;stroke:#639263;stroke-miterlimit:10;}
	.st38{clip-path:url(#SVGID_9_);fill:none;}
	.st39{clip-path:url(#SVGID_9_);}
	.st40{clip-path:url(#SVGID_9_);fill:none;stroke:#608D61;stroke-miterlimit:10;}
	.st41{fill:none;stroke:#638F56;stroke-miterlimit:10;}
	.st42{fill-rule:evenodd;clip-rule:evenodd;fill:#0091C8;}
	.st43{opacity:0.6;}
	.st44{opacity:0.1;clip-path:url(#SVGID_16_);fill:url(#SVGID_17_);stroke:url(#SVGID_18_);stroke-miterlimit:10;}
	.st45{opacity:0.24;clip-path:url(#SVGID_16_);}
	.st46{opacity:0.31;clip-path:url(#SVGID_20_);}
	.st47{clip-path:url(#SVGID_22_);fill:#C2DBCB;}
	.st48{clip-path:url(#SVGID_22_);}
	.st49{opacity:0.67;clip-path:url(#SVGID_20_);}
	.st50{clip-path:url(#SVGID_20_);fill:none;}
	.st51{opacity:0.31;clip-path:url(#SVGID_24_);}
	.st52{clip-path:url(#SVGID_26_);fill:#C2DBCB;}
	.st53{clip-path:url(#SVGID_26_);}
	.st54{opacity:0.67;clip-path:url(#SVGID_24_);}
	.st55{clip-path:url(#SVGID_24_);fill:none;}
	.st56{opacity:0.31;clip-path:url(#SVGID_28_);}
	.st57{clip-path:url(#SVGID_30_);fill:#C2DBCB;}
	.st58{clip-path:url(#SVGID_30_);}
	.st59{opacity:0.67;clip-path:url(#SVGID_28_);}
	.st60{clip-path:url(#SVGID_28_);fill:none;}
	.st61{opacity:0.31;clip-path:url(#SVGID_32_);}
	.st62{clip-path:url(#SVGID_34_);fill:#C2DBCB;}
	.st63{clip-path:url(#SVGID_34_);}
	.st64{opacity:0.67;clip-path:url(#SVGID_32_);}
	.st65{clip-path:url(#SVGID_32_);fill:none;}
	.st66{clip-path:url(#SVGID_16_);fill:none;}
	.st67{fill:#638F56;}
	.st68{opacity:0.1;clip-path:url(#SVGID_36_);fill:url(#SVGID_37_);stroke:url(#SVGID_38_);stroke-miterlimit:10;}
	.st69{opacity:0.24;clip-path:url(#SVGID_36_);}
	.st70{opacity:0.31;clip-path:url(#SVGID_40_);}
	.st71{clip-path:url(#SVGID_42_);fill:#C2DBCB;}
	.st72{clip-path:url(#SVGID_42_);}
	.st73{opacity:0.67;clip-path:url(#SVGID_40_);}
	.st74{clip-path:url(#SVGID_40_);fill:none;}
	.st75{opacity:0.31;clip-path:url(#SVGID_44_);}
	.st76{clip-path:url(#SVGID_46_);fill:#C2DBCB;}
	.st77{clip-path:url(#SVGID_46_);}
	.st78{opacity:0.67;clip-path:url(#SVGID_44_);}
	.st79{clip-path:url(#SVGID_44_);fill:none;}
	.st80{opacity:0.31;clip-path:url(#SVGID_48_);}
	.st81{clip-path:url(#SVGID_50_);fill:#C2DBCB;}
	.st82{clip-path:url(#SVGID_50_);}
	.st83{opacity:0.67;clip-path:url(#SVGID_48_);}
	.st84{clip-path:url(#SVGID_48_);fill:none;}
	.st85{opacity:0.31;clip-path:url(#SVGID_52_);}
	.st86{clip-path:url(#SVGID_54_);fill:#C2DBCB;}
	.st87{clip-path:url(#SVGID_54_);}
	.st88{opacity:0.67;clip-path:url(#SVGID_52_);}
	.st89{clip-path:url(#SVGID_52_);fill:none;}
	.st90{clip-path:url(#SVGID_36_);fill:none;}
	.st91{opacity:0.1;clip-path:url(#SVGID_56_);fill:url(#SVGID_57_);}
	.st92{opacity:0.24;clip-path:url(#SVGID_56_);}
	.st93{opacity:0.31;clip-path:url(#SVGID_59_);}
	.st94{clip-path:url(#SVGID_61_);fill:#C2DBCB;}
	.st95{clip-path:url(#SVGID_61_);}
	.st96{opacity:0.67;clip-path:url(#SVGID_59_);}
	.st97{clip-path:url(#SVGID_59_);fill:none;}
	.st98{clip-path:url(#SVGID_56_);fill:#FFFFFF;stroke:#639263;stroke-miterlimit:10;}
	.st99{clip-path:url(#SVGID_56_);fill:none;}
	.st100{clip-path:url(#SVGID_56_);}
	.st101{clip-path:url(#SVGID_56_);fill:none;stroke:#608D61;stroke-miterlimit:10;}
	.st102{fill:#5F9999;}
</style>
<g>
	<g>
		<g>
			<path class="st8" d="M20.7,14.9c0,0,0.1,0.1,0.1,0.1c0.3,0.1,0.6,0.2,0.8,0.4c0.1,0.1,0.2,0.2,0.3,0.2c0.2,0.1,0.3,0.3,0.4,0.5
				c0.1,0.4,0,0.8,0,1.1c0,0,0,0.1,0,0.1c0,0.1,0,0.1,0,0.1c0.1,0,0.1,0.1,0.1,0.2c0,0.3-0.1,0.6-0.2,0.9c0,0-0.1,0.1-0.1,0.1
				c0,0-0.1,0.1-0.1,0.1c-0.1,0.4-0.3,0.7-0.6,1c-0.2,0.2-0.5,0.4-0.8,0.4c-0.3,0.1-0.5,0-0.8-0.2c-0.4-0.2-0.7-0.5-0.8-0.9
				c0-0.1-0.1-0.2-0.1-0.3c0,0,0-0.1-0.1-0.1c-0.2-0.1-0.2-0.3-0.3-0.4c-0.1-0.2-0.1-0.4-0.1-0.6c0-0.2,0.1-0.2,0.2-0.3
				c-0.1-0.4-0.2-0.7,0-1.1c0.1-0.4,0.3-0.7,0.6-0.9c0.2-0.2,0.4-0.3,0.7-0.4c0.1-0.1,0.2-0.1,0.3-0.1
				C20.4,14.9,20.6,14.9,20.7,14.9z"/>
			<path class="st8" d="M19,20.1c0.3,0.9,0.5,1.7,0.8,2.6c0,0,0,0,0,0c0.1-0.1,0.1-0.3,0.2-0.4c0-0.1,0-0.2,0.1-0.3
				c0.1-0.1,0-0.2,0-0.3c-0.1-0.2-0.2-0.3-0.2-0.5c0-0.1,0.1-0.2,0.2-0.3c0.2-0.1,0.6-0.1,0.8,0c0.1,0.1,0.1,0.3,0.1,0.5
				c-0.1,0.1-0.1,0.2-0.2,0.4c-0.1,0.1-0.1,0.2,0,0.3c0.1,0.2,0.2,0.4,0.2,0.6c0,0,0,0,0.1,0.1c0.3-0.9,0.6-1.7,0.8-2.6
				c0.2,0.1,0.4,0.2,0.5,0.3c0.3,0.1,0.7,0.3,1,0.4c0.3,0.1,0.6,0.2,0.8,0.5c0.2,0.4,0.2,0.7,0.1,1.1c0,0.2-0.1,0.3,0,0.5
				c0,0.2-0.1,0.3-0.3,0.3c-0.3,0.1-0.5,0.2-0.8,0.3c-0.3,0.1-0.6,0.2-0.9,0.2C21.8,24,21.4,24,21,24.1c-0.4,0-0.8,0-1.2,0
				c-0.3,0-0.5-0.1-0.8-0.1c-0.2,0-0.4-0.1-0.6-0.1c-0.3-0.1-0.5-0.1-0.8-0.2c-0.3-0.1-0.6-0.2-0.9-0.4c0,0-0.1-0.1-0.1-0.1
				c0-0.3-0.1-0.7-0.1-1c0-0.3,0.1-0.5,0.2-0.8c0.1-0.2,0.3-0.3,0.6-0.4c0.3-0.1,0.6-0.2,0.8-0.3C18.5,20.5,18.7,20.3,19,20.1z"/>
		</g>
	</g>
	<g>
		<g>
			<path class="st8" d="M8.2,6.3C8.3,6.3,8.3,6.3,8.2,6.3c0.2,0,0.3,0.1,0.3,0.2c0,0,0.1,0.1,0.1,0.1c0.1,0,0.1,0.1,0.1,0.2
				c0,0.1,0,0.3,0,0.4c0,0,0,0,0,0c0,0,0,0,0,0.1c0,0,0.1,0,0.1,0.1c0,0.1,0,0.2-0.1,0.4c0,0,0,0,0,0c0,0,0,0,0,0.1
				c0,0.2-0.1,0.3-0.2,0.4C8.4,8.3,8.3,8.3,8.2,8.3c-0.1,0-0.2,0-0.3-0.1C7.7,8.2,7.6,8.1,7.6,7.9c0,0,0-0.1,0-0.1c0,0,0,0,0-0.1
				c-0.1,0-0.1-0.1-0.1-0.2c0-0.1,0-0.2,0-0.2c0-0.1,0-0.1,0.1-0.1c0-0.1-0.1-0.3,0-0.4c0-0.1,0.1-0.3,0.2-0.4
				c0.1-0.1,0.2-0.1,0.3-0.2c0,0,0.1,0,0.1,0C8.1,6.3,8.2,6.3,8.2,6.3z"/>
			<path class="st8" d="M7.6,8.3c0.1,0.3,0.2,0.6,0.3,1c0,0,0,0,0,0c0-0.1,0-0.1,0.1-0.2C8,9,8,9,8,9c0-0.1,0-0.1,0-0.1
				c0-0.1-0.1-0.1-0.1-0.2c0-0.1,0-0.1,0.1-0.1c0.1-0.1,0.2,0,0.3,0c0,0,0.1,0.1,0,0.2c0,0,0,0.1-0.1,0.1c0,0,0,0.1,0,0.1
				c0,0.1,0.1,0.2,0.1,0.2c0,0,0,0,0,0c0.1-0.3,0.2-0.7,0.3-1c0.1,0,0.1,0.1,0.2,0.1C9,8.4,9.1,8.5,9.2,8.5c0.1,0,0.2,0.1,0.3,0.2
				C9.6,8.9,9.6,9,9.6,9.2c0,0.1,0,0.1,0,0.2c0,0.1-0.1,0.1-0.1,0.1c-0.1,0-0.2,0.1-0.3,0.1c-0.1,0-0.2,0.1-0.3,0.1
				c-0.2,0-0.3,0.1-0.5,0.1c-0.2,0-0.3,0-0.5,0c-0.1,0-0.2,0-0.3,0c-0.1,0-0.2,0-0.2,0C7.2,9.6,7.1,9.6,7,9.6
				c-0.1,0-0.2-0.1-0.3-0.1c0,0,0,0,0-0.1c0-0.1,0-0.3,0-0.4c0-0.1,0-0.2,0.1-0.3c0-0.1,0.1-0.1,0.2-0.1c0.1,0,0.2-0.1,0.3-0.1
				C7.4,8.4,7.5,8.3,7.6,8.3z"/>
		</g>
	</g>
	<g>
		<path class="st8" d="M32.5,20c-0.2,0-0.2-0.1-0.2-0.3c0-0.2,0.1-0.3,0.3-0.3c0.3,0,0.3,0.2,0.3,0.3C32.9,20.1,32.7,20,32.5,20z"/>
		<path class="st8" d="M30.9,20c-0.2,0-0.2-0.1-0.2-0.3c0-0.2,0.1-0.3,0.3-0.3c0.3,0,0.3,0.2,0.3,0.3C31.2,20.1,31,20,30.9,20z"/>
		<path class="st8" d="M29.2,20c-0.2,0-0.2-0.1-0.2-0.3c0-0.2,0.1-0.3,0.3-0.3c0.3,0,0.3,0.2,0.3,0.3C29.6,20.1,29.4,20,29.2,20z"/>
	</g>
	<g>
		<path class="st8" d="M11.2,20c-0.2,0-0.2-0.1-0.2-0.3c0-0.2,0.1-0.3,0.3-0.3c0.3,0,0.3,0.2,0.3,0.3C11.6,20.1,11.4,20,11.2,20z"/>
		<path class="st8" d="M9.6,20c-0.2,0-0.2-0.1-0.2-0.3c0-0.2,0.1-0.3,0.3-0.3c0.3,0,0.3,0.2,0.3,0.3C9.9,20.1,9.8,20,9.6,20z"/>
		<path class="st8" d="M7.9,20c-0.2,0-0.2-0.1-0.2-0.3c0-0.2,0.1-0.3,0.3-0.3c0.3,0,0.3,0.2,0.3,0.3C8.3,20.1,8.1,20,7.9,20z"/>
	</g>
	<g>
		<path class="st8" d="M20.7,7.9c0,0.2-0.1,0.2-0.3,0.2c-0.2,0-0.3-0.1-0.3-0.3c0-0.3,0.2-0.3,0.3-0.3C20.7,7.6,20.7,7.7,20.7,7.9z"
			/>
		<path class="st8" d="M20.7,9.6c0,0.2-0.1,0.2-0.3,0.2c-0.2,0-0.3-0.1-0.3-0.3c0-0.3,0.2-0.3,0.3-0.3C20.7,9.2,20.7,9.4,20.7,9.6z"
			/>
		<path class="st8" d="M20.7,11.2c0,0.2-0.1,0.2-0.3,0.2c-0.2,0-0.3-0.1-0.3-0.3c0-0.3,0.2-0.3,0.3-0.3C20.7,10.9,20.7,11,20.7,11.2
			z"/>
	</g>
	<g>
		<path class="st8" d="M21,28.9c0,0.2-0.1,0.2-0.3,0.2c-0.2,0-0.3-0.1-0.3-0.3c0-0.3,0.2-0.3,0.3-0.3C21,28.6,21,28.7,21,28.9z"/>
		<path class="st8" d="M21,30.6c0,0.2-0.1,0.2-0.3,0.2c-0.2,0-0.3-0.1-0.3-0.3c0-0.3,0.2-0.3,0.3-0.3C21,30.2,21,30.4,21,30.6z"/>
		<path class="st8" d="M21,32.2c0,0.2-0.1,0.2-0.3,0.2c-0.2,0-0.3-0.1-0.3-0.3c0-0.3,0.2-0.3,0.3-0.3C21,31.9,21,32.1,21,32.2z"/>
	</g>
	<g>
		<path class="st8" d="M11.7,11.1c0.2,0.2,0,0.3-0.1,0.4c-0.2,0.2-0.3,0.1-0.4,0c-0.2-0.2-0.1-0.3,0.1-0.4
			C11.5,10.8,11.6,11,11.7,11.1z"/>
		<path class="st8" d="M12.8,12.3c0.2,0.2,0,0.3-0.1,0.4c-0.2,0.2-0.3,0.1-0.4,0c-0.2-0.2-0.1-0.3,0.1-0.4
			C12.6,12.1,12.7,12.2,12.8,12.3z"/>
		<path class="st8" d="M14,13.5c0.2,0.2,0,0.3-0.1,0.4c-0.2,0.2-0.3,0.1-0.4,0c-0.2-0.2-0.1-0.3,0.1-0.4
			C13.7,13.3,13.8,13.4,14,13.5z"/>
	</g>
	<g>
		<path class="st8" d="M27.4,25.9c0.2,0.2,0,0.3-0.1,0.4c-0.2,0.2-0.3,0.1-0.4,0c-0.2-0.2-0.1-0.3,0.1-0.4
			C27.1,25.7,27.2,25.8,27.4,25.9z"/>
		<path class="st8" d="M28.5,27.1c0.2,0.2,0,0.3-0.1,0.4c-0.2,0.2-0.3,0.1-0.4,0c-0.2-0.2-0.1-0.3,0.1-0.4
			C28.2,26.9,28.4,27,28.5,27.1z"/>
		<path class="st8" d="M29.6,28.4c0.2,0.2,0,0.3-0.1,0.4c-0.2,0.2-0.3,0.1-0.4,0c-0.2-0.2-0.1-0.3,0.1-0.4
			C29.4,28.1,29.5,28.2,29.6,28.4z"/>
	</g>
	<g>
		<path class="st8" d="M27.4,13.8c0.2-0.2,0.3,0,0.4,0.1c0.2,0.2,0.1,0.3-0.1,0.4c-0.2,0.2-0.3,0.1-0.4-0.1
			C27.1,14,27.2,13.9,27.4,13.8z"/>
		<path class="st8" d="M28.6,12.8c0.2-0.2,0.3,0,0.4,0.1c0.2,0.2,0.1,0.3-0.1,0.4c-0.2,0.2-0.3,0.1-0.4-0.1
			C28.3,13,28.5,12.9,28.6,12.8z"/>
		<path class="st8" d="M29.9,11.7c0.2-0.2,0.3,0,0.4,0.1c0.2,0.2,0.1,0.3-0.1,0.4c-0.2,0.2-0.3,0.1-0.4-0.1
			C29.6,11.9,29.7,11.8,29.9,11.7z"/>
	</g>
	<g>
		<path class="st8" d="M11.7,28.1c0.2-0.2,0.3,0,0.4,0.1c0.2,0.2,0.1,0.3-0.1,0.4c-0.2,0.2-0.3,0.1-0.4-0.1
			C11.5,28.3,11.6,28.2,11.7,28.1z"/>
		<path class="st8" d="M13,27c0.2-0.2,0.3,0,0.4,0.1c0.2,0.2,0.1,0.3-0.1,0.4c-0.2,0.2-0.3,0.1-0.4-0.1C12.7,27.3,12.8,27.2,13,27z"
			/>
		<path class="st8" d="M14.2,26c0.2-0.2,0.3,0,0.4,0.1c0.2,0.2,0.1,0.3-0.1,0.4c-0.2,0.2-0.3,0.1-0.4-0.1C14,26.2,14.1,26.1,14.2,26
			z"/>
	</g>
	<path class="st8" d="M20.4,12.5c-4.1,0-7.4,3.3-7.4,7.4s3.3,7.4,7.4,7.4s7.4-3.3,7.4-7.4S24.5,12.5,20.4,12.5z M20.4,25.9
		c-3.3,0-6-2.7-6-6s2.7-6,6-6s6,2.7,6,6S23.7,25.9,20.4,25.9z"/>
	<path class="st8" d="M8.2,4.9c-1.8,0-3.2,1.4-3.2,3.2s1.4,3.2,3.2,3.2s3.2-1.4,3.2-3.2S9.9,4.9,8.2,4.9z M8.2,10.8
		c-1.4,0-2.6-1.2-2.6-2.6s1.2-2.6,2.6-2.6s2.6,1.2,2.6,2.6S9.6,10.8,8.2,10.8z"/>
	<g>
		<g>
			<path class="st8" d="M20.6,1.4C20.7,1.4,20.7,1.4,20.6,1.4c0.2,0,0.3,0.1,0.3,0.2c0,0,0.1,0.1,0.1,0.1c0.1,0,0.1,0.1,0.1,0.2
				c0,0.1,0,0.3,0,0.4c0,0,0,0,0,0c0,0,0,0,0,0.1c0,0,0.1,0,0.1,0.1c0,0.1,0,0.2-0.1,0.4c0,0,0,0,0,0c0,0,0,0,0,0.1
				c0,0.2-0.1,0.3-0.2,0.4c-0.1,0.1-0.2,0.1-0.3,0.2c-0.1,0-0.2,0-0.3-0.1c-0.2-0.1-0.2-0.2-0.3-0.3c0,0,0-0.1,0-0.1c0,0,0,0,0-0.1
				c-0.1,0-0.1-0.1-0.1-0.2c0-0.1,0-0.2,0-0.2c0-0.1,0-0.1,0.1-0.1c0-0.1-0.1-0.3,0-0.4c0-0.1,0.1-0.3,0.2-0.4
				c0.1-0.1,0.2-0.1,0.3-0.2c0,0,0.1,0,0.1,0C20.5,1.4,20.6,1.4,20.6,1.4z"/>
			<path class="st8" d="M20,3.4c0.1,0.3,0.2,0.6,0.3,1c0,0,0,0,0,0c0-0.1,0-0.1,0.1-0.2c0,0,0-0.1,0-0.1c0-0.1,0-0.1,0-0.1
				c0-0.1-0.1-0.1-0.1-0.2c0-0.1,0-0.1,0.1-0.1c0.1-0.1,0.2,0,0.3,0c0,0,0.1,0.1,0,0.2c0,0,0,0.1-0.1,0.1c0,0,0,0.1,0,0.1
				c0,0.1,0.1,0.2,0.1,0.2c0,0,0,0,0,0c0.1-0.3,0.2-0.7,0.3-1c0.1,0,0.1,0.1,0.2,0.1c0.1,0.1,0.3,0.1,0.4,0.2c0.1,0,0.2,0.1,0.3,0.2
				C22,4,22,4.2,22,4.3c0,0.1,0,0.1,0,0.2c0,0.1-0.1,0.1-0.1,0.1c-0.1,0-0.2,0.1-0.3,0.1c-0.1,0-0.2,0.1-0.3,0.1
				c-0.2,0-0.3,0.1-0.5,0.1c-0.2,0-0.3,0-0.5,0c-0.1,0-0.2,0-0.3,0c-0.1,0-0.2,0-0.2,0c-0.1,0-0.2-0.1-0.3-0.1
				c-0.1,0-0.2-0.1-0.3-0.1c0,0,0,0,0-0.1c0-0.1,0-0.3,0-0.4c0-0.1,0-0.2,0.1-0.3c0-0.1,0.1-0.1,0.2-0.1c0.1,0,0.2-0.1,0.3-0.1
				C19.8,3.5,19.9,3.5,20,3.4z"/>
		</g>
	</g>
	<path class="st8" d="M20.5,0.1c-1.8,0-3.2,1.4-3.2,3.2s1.4,3.2,3.2,3.2s3.2-1.4,3.2-3.2S22.3,0.1,20.5,0.1z M20.5,5.9
		c-1.4,0-2.6-1.2-2.6-2.6s1.2-2.6,2.6-2.6s2.6,1.2,2.6,2.6S22,5.9,20.5,5.9z"/>
	<g>
		<g>
			<path class="st8" d="M33.6,7.1C33.6,7.1,33.6,7.1,33.6,7.1c0.2,0,0.3,0.1,0.3,0.2c0,0,0.1,0.1,0.1,0.1c0.1,0,0.1,0.1,0.1,0.2
				c0,0.1,0,0.3,0,0.4c0,0,0,0,0,0c0,0,0,0,0,0.1c0,0,0.1,0,0.1,0.1c0,0.1,0,0.2-0.1,0.4c0,0,0,0,0,0c0,0,0,0,0,0.1
				c0,0.2-0.1,0.3-0.2,0.4c-0.1,0.1-0.2,0.1-0.3,0.2c-0.1,0-0.2,0-0.3-0.1C33.1,9,33,8.9,32.9,8.7c0,0,0-0.1,0-0.1c0,0,0,0,0-0.1
				c-0.1,0-0.1-0.1-0.1-0.2c0-0.1,0-0.2,0-0.2c0-0.1,0-0.1,0.1-0.1c0-0.1-0.1-0.3,0-0.4c0-0.1,0.1-0.3,0.2-0.4
				c0.1-0.1,0.2-0.1,0.3-0.2c0,0,0.1,0,0.1,0C33.4,7.1,33.5,7.1,33.6,7.1z"/>
			<path class="st8" d="M32.9,9.1c0.1,0.3,0.2,0.6,0.3,1c0,0,0,0,0,0c0-0.1,0-0.1,0.1-0.2c0,0,0-0.1,0-0.1c0-0.1,0-0.1,0-0.1
				c0-0.1-0.1-0.1-0.1-0.2c0-0.1,0-0.1,0.1-0.1c0.1-0.1,0.2,0,0.3,0c0,0,0.1,0.1,0,0.2c0,0,0,0.1-0.1,0.1c0,0,0,0.1,0,0.1
				c0,0.1,0.1,0.2,0.1,0.2c0,0,0,0,0,0c0.1-0.3,0.2-0.7,0.3-1c0.1,0,0.1,0.1,0.2,0.1c0.1,0.1,0.3,0.1,0.4,0.2c0.1,0,0.2,0.1,0.3,0.2
				c0.1,0.1,0.1,0.3,0.1,0.4c0,0.1,0,0.1,0,0.2c0,0.1-0.1,0.1-0.1,0.1c-0.1,0-0.2,0.1-0.3,0.1c-0.1,0-0.2,0.1-0.3,0.1
				c-0.2,0-0.3,0.1-0.5,0.1c-0.2,0-0.3,0-0.5,0c-0.1,0-0.2,0-0.3,0c-0.1,0-0.2,0-0.2,0c-0.1,0-0.2-0.1-0.3-0.1
				c-0.1,0-0.2-0.1-0.3-0.1c0,0,0,0,0-0.1c0-0.1,0-0.3,0-0.4c0-0.1,0-0.2,0.1-0.3c0-0.1,0.1-0.1,0.2-0.1c0.1,0,0.2-0.1,0.3-0.1
				C32.7,9.2,32.8,9.1,32.9,9.1z"/>
		</g>
	</g>
	<path class="st8" d="M33.5,5.7c-1.8,0-3.2,1.4-3.2,3.2s1.4,3.2,3.2,3.2c1.8,0,3.2-1.4,3.2-3.2S35.3,5.7,33.5,5.7z M33.5,11.6
		c-1.4,0-2.6-1.2-2.6-2.6s1.2-2.6,2.6-2.6c1.4,0,2.6,1.2,2.6,2.6S34.9,11.6,33.5,11.6z"/>
	<g>
		<g>
			<path class="st8" d="M36.8,17.6C36.8,17.6,36.8,17.6,36.8,17.6c0.2,0,0.3,0.1,0.3,0.2c0,0,0.1,0.1,0.1,0.1c0.1,0,0.1,0.1,0.1,0.2
				c0,0.1,0,0.3,0,0.4c0,0,0,0,0,0c0,0,0,0,0,0.1c0,0,0.1,0,0.1,0.1c0,0.1,0,0.2-0.1,0.4c0,0,0,0,0,0c0,0,0,0,0,0.1
				c0,0.2-0.1,0.3-0.2,0.4c-0.1,0.1-0.2,0.1-0.3,0.2c-0.1,0-0.2,0-0.3-0.1c-0.2-0.1-0.2-0.2-0.3-0.3c0,0,0-0.1,0-0.1c0,0,0,0,0-0.1
				C36,19,36,19,36,18.9c0-0.1,0-0.2,0-0.2c0-0.1,0-0.1,0.1-0.1c0-0.1-0.1-0.3,0-0.4c0-0.1,0.1-0.3,0.2-0.4c0.1-0.1,0.2-0.1,0.3-0.2
				c0,0,0.1,0,0.1,0C36.7,17.6,36.7,17.6,36.8,17.6z"/>
			<path class="st8" d="M36.2,19.6c0.1,0.3,0.2,0.6,0.3,1c0,0,0,0,0,0c0-0.1,0-0.1,0.1-0.2c0,0,0-0.1,0-0.1c0-0.1,0-0.1,0-0.1
				c0-0.1-0.1-0.1-0.1-0.2c0-0.1,0-0.1,0.1-0.1c0.1-0.1,0.2,0,0.3,0c0,0,0.1,0.1,0,0.2c0,0,0,0.1-0.1,0.1c0,0,0,0.1,0,0.1
				c0,0.1,0.1,0.2,0.1,0.2c0,0,0,0,0,0c0.1-0.3,0.2-0.7,0.3-1c0.1,0,0.1,0.1,0.2,0.1c0.1,0.1,0.3,0.1,0.4,0.2c0.1,0,0.2,0.1,0.3,0.2
				c0.1,0.1,0.1,0.3,0.1,0.4c0,0.1,0,0.1,0,0.2c0,0.1-0.1,0.1-0.1,0.1c-0.1,0-0.2,0.1-0.3,0.1c-0.1,0-0.2,0.1-0.3,0.1
				c-0.2,0-0.3,0.1-0.5,0.1c-0.2,0-0.3,0-0.5,0c-0.1,0-0.2,0-0.3,0c-0.1,0-0.2,0-0.2,0c-0.1,0-0.2-0.1-0.3-0.1
				c-0.1,0-0.2-0.1-0.3-0.1c0,0,0,0,0-0.1c0-0.1,0-0.3,0-0.4c0-0.1,0-0.2,0.1-0.3c0-0.1,0.1-0.1,0.2-0.1c0.1,0,0.2-0.1,0.3-0.1
				C35.9,19.7,36,19.6,36.2,19.6z"/>
		</g>
	</g>
	<path class="st8" d="M36.7,16.2c-1.8,0-3.2,1.4-3.2,3.2s1.4,3.2,3.2,3.2s3.2-1.4,3.2-3.2S38.5,16.2,36.7,16.2z M36.7,22.1
		c-1.4,0-2.6-1.2-2.6-2.6c0-1.4,1.2-2.6,2.6-2.6s2.6,1.2,2.6,2.6C39.3,20.9,38.2,22.1,36.7,22.1z"/>
	<g>
		<g>
			<path class="st8" d="M33,28.6C33.1,28.6,33.1,28.7,33,28.6c0.2,0,0.3,0.1,0.3,0.2c0,0,0.1,0.1,0.1,0.1c0.1,0,0.1,0.1,0.1,0.2
				c0,0.1,0,0.3,0,0.4c0,0,0,0,0,0c0,0,0,0,0,0.1c0,0,0.1,0,0.1,0.1c0,0.1,0,0.2-0.1,0.4c0,0,0,0,0,0c0,0,0,0,0,0.1
				c0,0.2-0.1,0.3-0.2,0.4c-0.1,0.1-0.2,0.1-0.3,0.2c-0.1,0-0.2,0-0.3-0.1c-0.2-0.1-0.2-0.2-0.3-0.3c0,0,0-0.1,0-0.1c0,0,0,0,0-0.1
				c-0.1,0-0.1-0.1-0.1-0.2c0-0.1,0-0.2,0-0.2c0-0.1,0-0.1,0.1-0.1c0-0.1-0.1-0.3,0-0.4c0-0.1,0.1-0.3,0.2-0.4
				c0.1-0.1,0.2-0.1,0.3-0.2c0,0,0.1,0,0.1,0C32.9,28.6,33,28.6,33,28.6z"/>
			<path class="st8" d="M32.4,30.6c0.1,0.3,0.2,0.6,0.3,1c0,0,0,0,0,0c0-0.1,0-0.1,0.1-0.2c0,0,0-0.1,0-0.1c0-0.1,0-0.1,0-0.1
				c0-0.1-0.1-0.1-0.1-0.2c0-0.1,0-0.1,0.1-0.1c0.1-0.1,0.2,0,0.3,0c0,0,0.1,0.1,0,0.2c0,0,0,0.1-0.1,0.1c0,0,0,0.1,0,0.1
				c0,0.1,0.1,0.2,0.1,0.2c0,0,0,0,0,0c0.1-0.3,0.2-0.7,0.3-1c0.1,0,0.1,0.1,0.2,0.1c0.1,0.1,0.3,0.1,0.4,0.2c0.1,0,0.2,0.1,0.3,0.2
				c0.1,0.1,0.1,0.3,0.1,0.4c0,0.1,0,0.1,0,0.2c0,0.1-0.1,0.1-0.1,0.1c-0.1,0-0.2,0.1-0.3,0.1c-0.1,0-0.2,0.1-0.3,0.1
				c-0.2,0-0.3,0.1-0.5,0.1c-0.2,0-0.3,0-0.5,0c-0.1,0-0.2,0-0.3,0c-0.1,0-0.2,0-0.2,0c-0.1,0-0.2-0.1-0.3-0.1
				c-0.1,0-0.2-0.1-0.3-0.1c0,0,0,0,0-0.1c0-0.1,0-0.3,0-0.4c0-0.1,0-0.2,0.1-0.3c0-0.1,0.1-0.1,0.2-0.1c0.1,0,0.2-0.1,0.3-0.1
				C32.2,30.8,32.3,30.7,32.4,30.6z"/>
		</g>
	</g>
	<path class="st8" d="M32.9,27.3c-1.8,0-3.2,1.4-3.2,3.2s1.4,3.2,3.2,3.2c1.8,0,3.2-1.4,3.2-3.2S34.7,27.3,32.9,27.3z M32.9,33.1
		c-1.4,0-2.6-1.2-2.6-2.6c0-1.4,1.2-2.6,2.6-2.6c1.4,0,2.6,1.2,2.6,2.6C35.6,32,34.4,33.1,32.9,33.1z"/>
	<g>
		<g>
			<path class="st8" d="M20.9,34.8C20.9,34.8,20.9,34.8,20.9,34.8c0.2,0,0.3,0.1,0.3,0.2c0,0,0.1,0.1,0.1,0.1c0.1,0,0.1,0.1,0.1,0.2
				c0,0.1,0,0.3,0,0.4c0,0,0,0,0,0c0,0,0,0,0,0.1c0,0,0.1,0,0.1,0.1c0,0.1,0,0.2-0.1,0.4c0,0,0,0,0,0c0,0,0,0,0,0.1
				c0,0.2-0.1,0.3-0.2,0.4c-0.1,0.1-0.2,0.1-0.3,0.2c-0.1,0-0.2,0-0.3-0.1c-0.2-0.1-0.2-0.2-0.3-0.3c0,0,0-0.1,0-0.1c0,0,0,0,0-0.1
				c-0.1,0-0.1-0.1-0.1-0.2c0-0.1,0-0.2,0-0.2c0-0.1,0-0.1,0.1-0.1c0-0.1-0.1-0.3,0-0.4c0-0.1,0.1-0.3,0.2-0.4
				c0.1-0.1,0.2-0.1,0.3-0.2c0,0,0.1,0,0.1,0C20.8,34.8,20.8,34.8,20.9,34.8z"/>
			<path class="st8" d="M20.3,36.8c0.1,0.3,0.2,0.6,0.3,1c0,0,0,0,0,0c0-0.1,0-0.1,0.1-0.2c0,0,0-0.1,0-0.1c0-0.1,0-0.1,0-0.1
				c0-0.1-0.1-0.1-0.1-0.2c0-0.1,0-0.1,0.1-0.1c0.1-0.1,0.2,0,0.3,0c0,0,0.1,0.1,0,0.2c0,0,0,0.1-0.1,0.1c0,0,0,0.1,0,0.1
				c0,0.1,0.1,0.2,0.1,0.2c0,0,0,0,0,0c0.1-0.3,0.2-0.7,0.3-1c0.1,0,0.1,0.1,0.2,0.1c0.1,0.1,0.3,0.1,0.4,0.2c0.1,0,0.2,0.1,0.3,0.2
				c0.1,0.1,0.1,0.3,0.1,0.4c0,0.1,0,0.1,0,0.2c0,0.1-0.1,0.1-0.1,0.1c-0.1,0-0.2,0.1-0.3,0.1c-0.1,0-0.2,0.1-0.3,0.1
				c-0.2,0-0.3,0.1-0.5,0.1c-0.2,0-0.3,0-0.5,0c-0.1,0-0.2,0-0.3,0c-0.1,0-0.2,0-0.2,0c-0.1,0-0.2-0.1-0.3-0.1
				c-0.1,0-0.2-0.1-0.3-0.1c0,0,0,0,0-0.1c0-0.1,0-0.3,0-0.4c0-0.1,0-0.2,0.1-0.3c0-0.1,0.1-0.1,0.2-0.1c0.1,0,0.2-0.1,0.3-0.1
				C20,37,20.1,36.9,20.3,36.8z"/>
		</g>
	</g>
	<path class="st8" d="M20.8,33.5c-1.8,0-3.2,1.4-3.2,3.2s1.4,3.2,3.2,3.2s3.2-1.4,3.2-3.2S22.6,33.5,20.8,33.5z M20.8,39.3
		c-1.4,0-2.6-1.2-2.6-2.6s1.2-2.6,2.6-2.6s2.6,1.2,2.6,2.6S22.3,39.3,20.8,39.3z"/>
	<g>
		<g>
			<path class="st8" d="M8.2,28.9C8.3,28.9,8.3,28.9,8.2,28.9c0.2,0,0.3,0.1,0.3,0.2c0,0,0.1,0.1,0.1,0.1c0.1,0,0.1,0.1,0.1,0.2
				c0,0.1,0,0.3,0,0.4c0,0,0,0,0,0c0,0,0,0,0,0.1c0,0,0.1,0,0.1,0.1c0,0.1,0,0.2-0.1,0.4c0,0,0,0,0,0c0,0,0,0,0,0.1
				c0,0.2-0.1,0.3-0.2,0.4C8.4,30.9,8.3,31,8.2,31c-0.1,0-0.2,0-0.3-0.1c-0.2-0.1-0.2-0.2-0.3-0.3c0,0,0-0.1,0-0.1c0,0,0,0,0-0.1
				c-0.1,0-0.1-0.1-0.1-0.2c0-0.1,0-0.2,0-0.2c0-0.1,0-0.1,0.1-0.1c0-0.1-0.1-0.3,0-0.4c0-0.1,0.1-0.3,0.2-0.4
				C7.7,29,7.8,29,7.9,28.9c0,0,0.1,0,0.1,0C8.1,28.9,8.2,28.9,8.2,28.9z"/>
			<path class="st8" d="M7.6,30.9c0.1,0.3,0.2,0.6,0.3,1c0,0,0,0,0,0c0-0.1,0-0.1,0.1-0.2c0,0,0-0.1,0-0.1c0-0.1,0-0.1,0-0.1
				c0-0.1-0.1-0.1-0.1-0.2c0-0.1,0-0.1,0.1-0.1c0.1-0.1,0.2,0,0.3,0c0,0,0.1,0.1,0,0.2c0,0,0,0.1-0.1,0.1c0,0,0,0.1,0,0.1
				c0,0.1,0.1,0.2,0.1,0.2c0,0,0,0,0,0c0.1-0.3,0.2-0.7,0.3-1c0.1,0,0.1,0.1,0.2,0.1c0.1,0.1,0.3,0.1,0.4,0.2c0.1,0,0.2,0.1,0.3,0.2
				c0.1,0.1,0.1,0.3,0.1,0.4c0,0.1,0,0.1,0,0.2c0,0.1-0.1,0.1-0.1,0.1c-0.1,0-0.2,0.1-0.3,0.1c-0.1,0-0.2,0.1-0.3,0.1
				c-0.2,0-0.3,0.1-0.5,0.1c-0.2,0-0.3,0-0.5,0c-0.1,0-0.2,0-0.3,0c-0.1,0-0.2,0-0.2,0c-0.1,0-0.2-0.1-0.3-0.1
				c-0.1,0-0.2-0.1-0.3-0.1c0,0,0,0,0-0.1c0-0.1,0-0.3,0-0.4c0-0.1,0-0.2,0.1-0.3c0-0.1,0.1-0.1,0.2-0.1c0.1,0,0.2-0.1,0.3-0.1
				C7.4,31,7.5,31,7.6,30.9z"/>
		</g>
	</g>
	<path class="st8" d="M8.2,27.5c-1.8,0-3.2,1.4-3.2,3.2c0,1.8,1.4,3.2,3.2,3.2s3.2-1.4,3.2-3.2C11.4,29,9.9,27.5,8.2,27.5z
		 M8.2,33.4c-1.4,0-2.6-1.2-2.6-2.6s1.2-2.6,2.6-2.6s2.6,1.2,2.6,2.6S9.6,33.4,8.2,33.4z"/>
	<g>
		<g>
			<path class="st8" d="M3.4,17.6C3.4,17.6,3.4,17.6,3.4,17.6c0.2,0,0.3,0.1,0.3,0.2c0,0,0.1,0.1,0.1,0.1C3.9,17.9,4,18,4,18.1
				c0,0.1,0,0.3,0,0.4c0,0,0,0,0,0c0,0,0,0,0,0.1c0,0,0.1,0,0.1,0.1C4,18.8,4,18.9,4,19c0,0,0,0,0,0c0,0,0,0,0,0.1
				c0,0.2-0.1,0.3-0.2,0.4c-0.1,0.1-0.2,0.1-0.3,0.2c-0.1,0-0.2,0-0.3-0.1c-0.2-0.1-0.2-0.2-0.3-0.3c0,0,0-0.1,0-0.1c0,0,0,0,0-0.1
				c-0.1,0-0.1-0.1-0.1-0.2c0-0.1,0-0.2,0-0.2c0-0.1,0-0.1,0.1-0.1c0-0.1-0.1-0.3,0-0.4c0-0.1,0.1-0.3,0.2-0.4
				c0.1-0.1,0.2-0.1,0.3-0.2c0,0,0.1,0,0.1,0C3.2,17.6,3.3,17.6,3.4,17.6z"/>
			<path class="st8" d="M2.7,19.6c0.1,0.3,0.2,0.6,0.3,1c0,0,0,0,0,0c0-0.1,0-0.1,0.1-0.2c0,0,0-0.1,0-0.1c0-0.1,0-0.1,0-0.1
				c0-0.1-0.1-0.1-0.1-0.2c0-0.1,0-0.1,0.1-0.1c0.1-0.1,0.2,0,0.3,0c0,0,0.1,0.1,0,0.2c0,0,0,0.1-0.1,0.1c0,0,0,0.1,0,0.1
				c0,0.1,0.1,0.2,0.1,0.2c0,0,0,0,0,0c0.1-0.3,0.2-0.7,0.3-1c0.1,0,0.1,0.1,0.2,0.1c0.1,0.1,0.3,0.1,0.4,0.2c0.1,0,0.2,0.1,0.3,0.2
				c0.1,0.1,0.1,0.3,0.1,0.4c0,0.1,0,0.1,0,0.2c0,0.1-0.1,0.1-0.1,0.1c-0.1,0-0.2,0.1-0.3,0.1C4.2,20.9,4.1,21,4,21
				c-0.2,0-0.3,0.1-0.5,0.1c-0.2,0-0.3,0-0.5,0c-0.1,0-0.2,0-0.3,0c-0.1,0-0.2,0-0.2,0c-0.1,0-0.2-0.1-0.3-0.1
				c-0.1,0-0.2-0.1-0.3-0.1c0,0,0,0,0-0.1c0-0.1,0-0.3,0-0.4c0-0.1,0-0.2,0.1-0.3c0-0.1,0.1-0.1,0.2-0.1c0.1,0,0.2-0.1,0.3-0.1
				C2.5,19.7,2.6,19.6,2.7,19.6z"/>
		</g>
	</g>
	<path class="st8" d="M3.3,16.2c-1.8,0-3.2,1.4-3.2,3.2s1.4,3.2,3.2,3.2s3.2-1.4,3.2-3.2S5.1,16.2,3.3,16.2z M3.3,22.1
		c-1.4,0-2.6-1.2-2.6-2.6c0-1.4,1.2-2.6,2.6-2.6s2.6,1.2,2.6,2.6C5.9,20.9,4.7,22.1,3.3,22.1z"/>
</g>
</svg>
