<?xml version="1.0" encoding="utf-8"?>
<!-- Generator: Adobe Illustrator 23.0.1, SVG Export Plug-In . SVG Version: 6.00 Build 0)  -->
<svg version="1.1" id="Слой_1" xmlns="http://www.w3.org/2000/svg" xmlns:xlink="http://www.w3.org/1999/xlink" x="0px" y="0px"
	 viewBox="0 0 40 40" style="enable-background:new 0 0 40 40;" xml:space="preserve">
<style type="text/css">
	.st0{fill:#FFFFFF;}
	.st1{fill:#1D472A;}
	.st2{fill-rule:evenodd;clip-rule:evenodd;fill:#DE981A;}
	.st3{fill:#DE981A;}
	.st4{fill:none;stroke:#659558;stroke-miterlimit:10;}
	.st5{fill:#B45092;}
	.st6{fill-rule:evenodd;clip-rule:evenodd;fill:#B45092;}
	.st7{fill:#0091C8;}
	.st8{fill:#659558;}
	.st9{fill:#639263;}
	.st10{opacity:0.1;clip-path:url(#SVGID_2_);fill:url(#SVGID_3_);}
	.st11{opacity:0.24;clip-path:url(#SVGID_2_);}
	.st12{opacity:0.24;}
	.st13{opacity:0.31;clip-path:url(#SVGID_5_);}
	.st14{opacity:0.31;}
	.st15{clip-path:url(#SVGID_7_);fill:#C2DBCB;}
	.st16{clip-path:url(#SVGID_7_);}
	.st17{fill:#C9E2F2;}
	.st18{opacity:0.67;clip-path:url(#SVGID_5_);}
	.st19{fill:none;}
	.st20{opacity:0.65;fill:#B8D5BC;}
	.st21{clip-path:url(#SVGID_5_);fill:none;}
	.st22{clip-path:url(#SVGID_2_);fill:#FFFFFF;stroke:#639263;stroke-miterlimit:10;}
	.st23{clip-path:url(#SVGID_2_);fill:none;}
	.st24{clip-path:url(#SVGID_2_);}
	.st25{clip-path:url(#SVGID_2_);fill:none;stroke:#608D61;stroke-miterlimit:10;}
	.st26{opacity:0.91;}
	.st27{opacity:0.68;}
	.st28{fill-rule:evenodd;clip-rule:evenodd;fill:#FFFFFF;}
	.st29{fill-rule:evenodd;clip-rule:evenodd;fill:#639263;}
	.st30{opacity:0.1;clip-path:url(#SVGID_9_);fill:url(#SVGID_10_);}
	.st31{opacity:0.24;clip-path:url(#SVGID_9_);}
	.st32{opacity:0.31;clip-path:url(#SVGID_12_);}
	.st33{clip-path:url(#SVGID_14_);fill:#C2DBCB;}
	.st34{clip-path:url(#SVGID_14_);}
	.st35{opacity:0.67;clip-path:url(#SVGID_12_);}
	.st36{clip-path:url(#SVGID_12_);fill:none;}
	.st37{clip-path:url(#SVGID_9_);fill:#FFFFFF;stroke:#639263;stroke-miterlimit:10;}
	.st38{clip-path:url(#SVGID_9_);fill:none;}
	.st39{clip-path:url(#SVGID_9_);}
	.st40{clip-path:url(#SVGID_9_);fill:none;stroke:#608D61;stroke-miterlimit:10;}
	.st41{fill:none;stroke:#638F56;stroke-miterlimit:10;}
	.st42{fill-rule:evenodd;clip-rule:evenodd;fill:#0091C8;}
	.st43{opacity:0.6;}
	.st44{opacity:0.1;clip-path:url(#SVGID_16_);fill:url(#SVGID_17_);stroke:url(#SVGID_18_);stroke-miterlimit:10;}
	.st45{opacity:0.24;clip-path:url(#SVGID_16_);}
	.st46{opacity:0.31;clip-path:url(#SVGID_20_);}
	.st47{clip-path:url(#SVGID_22_);fill:#C2DBCB;}
	.st48{clip-path:url(#SVGID_22_);}
	.st49{opacity:0.67;clip-path:url(#SVGID_20_);}
	.st50{clip-path:url(#SVGID_20_);fill:none;}
	.st51{opacity:0.31;clip-path:url(#SVGID_24_);}
	.st52{clip-path:url(#SVGID_26_);fill:#C2DBCB;}
	.st53{clip-path:url(#SVGID_26_);}
	.st54{opacity:0.67;clip-path:url(#SVGID_24_);}
	.st55{clip-path:url(#SVGID_24_);fill:none;}
	.st56{opacity:0.31;clip-path:url(#SVGID_28_);}
	.st57{clip-path:url(#SVGID_30_);fill:#C2DBCB;}
	.st58{clip-path:url(#SVGID_30_);}
	.st59{opacity:0.67;clip-path:url(#SVGID_28_);}
	.st60{clip-path:url(#SVGID_28_);fill:none;}
	.st61{opacity:0.31;clip-path:url(#SVGID_32_);}
	.st62{clip-path:url(#SVGID_34_);fill:#C2DBCB;}
	.st63{clip-path:url(#SVGID_34_);}
	.st64{opacity:0.67;clip-path:url(#SVGID_32_);}
	.st65{clip-path:url(#SVGID_32_);fill:none;}
	.st66{clip-path:url(#SVGID_16_);fill:none;}
	.st67{fill:#638F56;}
	.st68{opacity:0.1;clip-path:url(#SVGID_36_);fill:url(#SVGID_37_);stroke:url(#SVGID_38_);stroke-miterlimit:10;}
	.st69{opacity:0.24;clip-path:url(#SVGID_36_);}
	.st70{opacity:0.31;clip-path:url(#SVGID_40_);}
	.st71{clip-path:url(#SVGID_42_);fill:#C2DBCB;}
	.st72{clip-path:url(#SVGID_42_);}
	.st73{opacity:0.67;clip-path:url(#SVGID_40_);}
	.st74{clip-path:url(#SVGID_40_);fill:none;}
	.st75{opacity:0.31;clip-path:url(#SVGID_44_);}
	.st76{clip-path:url(#SVGID_46_);fill:#C2DBCB;}
	.st77{clip-path:url(#SVGID_46_);}
	.st78{opacity:0.67;clip-path:url(#SVGID_44_);}
	.st79{clip-path:url(#SVGID_44_);fill:none;}
	.st80{opacity:0.31;clip-path:url(#SVGID_48_);}
	.st81{clip-path:url(#SVGID_50_);fill:#C2DBCB;}
	.st82{clip-path:url(#SVGID_50_);}
	.st83{opacity:0.67;clip-path:url(#SVGID_48_);}
	.st84{clip-path:url(#SVGID_48_);fill:none;}
	.st85{opacity:0.31;clip-path:url(#SVGID_52_);}
	.st86{clip-path:url(#SVGID_54_);fill:#C2DBCB;}
	.st87{clip-path:url(#SVGID_54_);}
	.st88{opacity:0.67;clip-path:url(#SVGID_52_);}
	.st89{clip-path:url(#SVGID_52_);fill:none;}
	.st90{clip-path:url(#SVGID_36_);fill:none;}
	.st91{opacity:0.1;clip-path:url(#SVGID_56_);fill:url(#SVGID_57_);}
	.st92{opacity:0.24;clip-path:url(#SVGID_56_);}
	.st93{opacity:0.31;clip-path:url(#SVGID_59_);}
	.st94{clip-path:url(#SVGID_61_);fill:#C2DBCB;}
	.st95{clip-path:url(#SVGID_61_);}
	.st96{opacity:0.67;clip-path:url(#SVGID_59_);}
	.st97{clip-path:url(#SVGID_59_);fill:none;}
	.st98{clip-path:url(#SVGID_56_);fill:#FFFFFF;stroke:#639263;stroke-miterlimit:10;}
	.st99{clip-path:url(#SVGID_56_);fill:none;}
	.st100{clip-path:url(#SVGID_56_);}
	.st101{clip-path:url(#SVGID_56_);fill:none;stroke:#608D61;stroke-miterlimit:10;}
	.st102{fill:#5F9999;}
</style>
<path class="st7" d="M38.7,10.7c-0.4-0.7-1.2-1.3-2-1c0-0.6,0.1-2.1-0.8-3.7C35,4.5,34,3.8,33.4,3.5c0.6,0,1.2,0,1.7,0
	c0.1,0.4,0.2,0.7,0.3,1.1h3.5V1.1h-3.6l-0.2,1H23c-0.1-0.3-0.2-0.6-0.3-1v0h-3.5v3.5c1.1,0,2.3,0,3.4,0c0.1-0.3,0.2-0.7,0.3-1
	c0.5,0,1,0,1.5,0c-0.5,0.4-1.3,1-2,2.1c-1.1,1.7-1.2,3.3-1.1,4C15.6,9.6,9.9,9.7,4.2,9.7c-0.6,0-1.3,0.1-1.6,0.6
	c-0.2,0.3-0.2,0.6-0.2,0.9c-0.1,2.6-0.1,5.3-0.2,7.9c-0.6-0.2-1.3,0.2-1.5,0.7c-0.3,0.5-0.3,1.2-0.3,1.8c0,5.4,0.1,10.9,0.1,16.3
	c0,0.1,0,0.1,0,0.2c0,0.3,0,0.6,0.2,0.9c0.3,0.4,0.9,0.5,1.5,0.5c6,0,12.1,0.1,18.1,0.1c0.5,0,0.9,0,1.3-0.3
	c0.6-0.5,0.2-1.5-0.2-2.2c5.3-0.1,10.7-0.1,16-0.2c0.6,0,1.3-0.1,1.5-0.6c0.1-0.2,0.1-0.5,0.1-0.7c0-7.5,0-15,0.1-22.5
	C39.1,12.3,39.1,11.5,38.7,10.7z M36.3,1.8h1.8v1.8h-1.8V1.8z M21.9,3.7H20V1.9h1.8V3.7z M23.2,7.4c1-2.5,3.7-4.2,6.2-4
	c3,0.3,5.4,2.4,5.8,5.2c0.3,2.6-0.5,4.7-2.7,6.2c-0.6,0.4-1.2,0.8-1,1.7h-1.9c0-1.4,0-2.8,0-4.1c0-0.2,0.3-0.4,0.6-0.5
	c1-0.6,1.4-1.4,1.2-2.5c-0.1-1-0.7-1.7-1.7-2c-1-0.3-2,0-2.7,0.8c-0.9,1.1-0.6,2.9,0.7,3.6c0.5,0.3,0.7,0.6,0.7,1.2
	c0,1.1,0,2.2,0,3.3c0,0.1,0,0.2-0.1,0.3h-1.8c0.4-1.1-0.5-1.4-1.2-1.8C23.1,13,22.2,10,23.2,7.4z M32,18.1c0,0.3-1.3,0.5-3,0.5
	c-1.7,0-3-0.2-3-0.5c0,0,0-0.1,0-0.1h0c0.2-0.2,1.4-0.4,3-0.4c1.4,0,2.7,0.2,2.9,0.4c0.1,0,0.2,0,0.2,0L32,18.1
	C32,18.1,32,18.1,32,18.1z M32,20.2c0,0.3-1.3,0.5-3,0.5c-1.7,0-3-0.2-3-0.5c0-0.3,1.3-0.5,3-0.5C30.6,19.7,32,19.9,32,20.2z
	 M27.8,9.6c0-0.7,0.5-1.3,1.2-1.3c0.7,0,1.2,0.5,1.2,1.3c0,0.7-0.5,1.2-1.2,1.2C28.3,10.9,27.8,10.4,27.8,9.6z M3.5,11.8
	c0-0.7,0.3-0.9,0.9-0.9c0.7,0,1.5,0,2.2,0h14.9c0.1,0.5,0.4,1.3,0.8,2c0.4,0.7,0.8,1.3,1.2,1.7c-6.7,0-13.3,0-20,0
	C3.5,13.6,3.5,12.7,3.5,11.8z M19.8,38.3H2.7c-1,0-1.2-0.2-1-1.2c0.2,0,0.3,0,0.5-0.1c0.2,0,0.3,0,0.6,0v-1.2c-0.4,0-0.7,0-1.1-0.1
	v-1.1c0.3,0,0.7-0.1,1.1-0.1v-1.1c-0.4,0-0.7-0.1-1.1-0.1v-1.2C2,32.1,2.4,32,2.8,32v-1.2c-0.4,0-0.8,0-1.2-0.1v-1.1
	c0.4,0,0.7-0.1,1.1-0.1v-1.1c-0.3,0-0.7-0.1-1.1-0.1v-1.2C2,27.1,2.4,27,2.8,27v-1.1c-0.4,0-0.7,0-1.1-0.1v-1.1
	c0.3,0,0.7-0.1,1.1-0.1v-1.1c-0.4,0-0.7-0.1-1.1-0.1v-2.9c6.3,6,12.6,11.8,18.9,17.8C20.2,38.3,20,38.3,19.8,38.3z M5.9,20.8
	c0-0.8,0.2-1.6,0.1-2.4c0,0,0,0,0,0c2.4,0,4.9,0,7.3-0.1c1.2,0,2.4,0,3.7,0c0.8,0,2.3-0.4,2.6,0.6c0.1,0.3,0.1,0.6,0.1,0.9
	c0,2.4-0.1,4.8-0.1,7.3c-2.4,0-4.8,0-7.2,0.1c-0.5,0-1.2,0.1-2-0.3c-0.7-0.3-0.8-0.6-2.3-2c-1.3-1.2-1.4-1.2-1.7-1.7
	C5.9,22.1,5.9,21,5.9,20.8z M37.8,34.6c0,1.2-0.1,1.2-1.2,1.2c-5.4,0-10.7,0-16.1,0c-0.4,0-1-0.2-1.3-0.5c-2.2-2-4.4-4.1-6.5-6.1
	c-0.2-0.2-0.4-0.4-0.7-0.8h8.9V17.2H4.7v4.4c-0.9-0.6-1.4-1.2-1.3-2.3c0.1-1.1,0-2.2,0-3.4c0.3,0,0.6,0,0.9,0c6.6,0,13.2,0,19.8,0
	c0.3,0,0.7,0.2,1,0.2c0,0.2,0,0.5-0.1,0.8c-0.1,0.6-0.3,0.7-0.3,1.1c0,0.5,0.3,0.5,0.4,1.1c0.1,0.7-0.4,1-0.2,1.5
	c0.1,0.3,0.4,0.5,1.4,0.8c0.5,0.1,1.8,0.4,5.3,0c0.6-0.1,1.1-0.1,1.3-0.5c0.2-0.4-0.2-0.8-0.1-1.6c0.1-0.5,0.3-0.6,0.3-1
	c0-0.4-0.3-0.5-0.4-1c-0.1-0.2-0.2-0.8,0-1.2c0.2-0.3,0.7-0.3,0.9-0.3c1.3,0,2.6,0,4,0V34.6z M37.8,14.6h-3.1c0.5-0.4,0.8-0.8,1-1
	c0.2-0.3,0.4-0.7,0.6-1.3c0.1-0.5,0.2-1.2,0.4-1.3c0,0,0.1,0,0.3-0.1c0.1,0,0.2,0,0.2-0.1c0.2,0,0.7,0.4,0.7,0.6
	C37.9,12.5,37.8,13.5,37.8,14.6z"/>
<path class="st7" d="M27.3,24.6c0-0.4,0-0.7,0-1.1c3,0,6.1,0,9.1,0c0,0.4,0,0.7,0,1.1C33.4,24.6,30.4,24.6,27.3,24.6z"/>
<path class="st7" d="M36.5,25.9c0,0.4,0,0.7,0,1.1c-4.7,0-9.4,0-14.2,0c0-0.3,0-0.7,0-1.1C27,25.9,31.7,25.9,36.5,25.9z"/>
<path class="st7" d="M36.5,28.4c0,0.4,0,0.7,0,1.1c-4.7,0-9.4,0-14.2,0c0-0.3,0-0.7,0-1.1C27,28.4,31.7,28.4,36.5,28.4z"/>
<path class="st7" d="M36.5,30.9c0,0.4,0,0.8,0,1.1c-4.8,0-9.5,0-14.2,0c0-0.4,0-0.7,0-1.1C27,30.9,31.7,30.9,36.5,30.9z"/>
<g>
	<path class="st42" d="M14.9,24.3c-0.2,0.3-0.4,0.4-0.8,0.5c-0.2,0-0.6,0.1-0.9,0.3c-0.3,0.2-0.5,0.6-0.4,0.9
		c0.1,0.4,0.3,0.7,0.7,0.7c0.3,0,0.6-0.1,1-0.4c0.2-0.2,0.4-0.4,0.6-0.7c0.1-0.3,0.2-0.6,0.2-1c0-0.5-0.2-1-0.2-1S15.1,24,14.9,24.3
		z"/>
	<path class="st42" d="M12.6,26.8c-0.2-0.3-0.3-0.5-0.4-0.8c-0.1-0.3-0.2-0.5-0.1-0.8c0-0.2,0.1-0.5,0.4-0.8c0.4-0.6,0.1-0.9,0-1
		c0,0-0.2-0.2-0.4-0.4c-0.2-0.3-0.3-0.4-0.3-0.6c-0.2,0.3-0.4,0.6-0.5,0.9c-0.2,0.4-0.3,0.8-0.3,1.3c0,0.3,0.1,0.6,0.2,0.8
		c0.1,0.3,0.4,0.6,0.7,0.9C12,26.6,12.4,26.7,12.6,26.8z"/>
	<path class="st42" d="M14.3,22.2c0.1,0.3,0,0.5-0.1,0.8c-0.1,0.4-0.4,0.7-0.7,1c-0.3,0.2-0.6,0.4-0.8,0.6c-0.4,0.3-0.5,0.7-0.4,1
		c0.1,0.3,0.3,0.7,0.4,0.8c0-0.1-0.1-0.3-0.1-0.4c0-0.2,0-0.3,0-0.5c0.1-0.4,0.4-0.7,1.1-0.8c0.4-0.1,0.7-0.2,0.9-0.5
		c0.2-0.2,0.2-0.5,0.2-0.7C14.9,22.9,14.3,22.2,14.3,22.2z M13.6,18.8c0,0,0,0.3-0.2,0.8c-0.1,0.2-0.2,0.3-0.4,0.5
		c-0.3,0.4-0.5,0.7-0.5,1c0,0.3,0,0.5,0.2,0.7c0.1,0.2,0.5,0.7,0.5,0.7s-0.1-0.2-0.1-0.3c0-0.1-0.1-0.1-0.1-0.3
		c-0.1-0.2-0.1-0.5,0-0.8c0-0.2,0.2-0.4,0.3-0.6c0.2-0.3,0.3-0.5,0.4-0.7c0-0.2,0-0.3,0-0.5C13.7,19,13.6,18.8,13.6,18.8z
		 M13.3,22.8c-0.1-0.2-0.4-0.5-0.6-0.7c-0.4-0.4-0.6-0.9-0.1-1.6c0,0-0.4,0.3-0.6,0.8c-0.1,0.3-0.2,0.6,0,1c0.1,0.2,0.2,0.4,0.3,0.6
		c0.1,0.1,0.2,0.3,0.4,0.4c0,0,0.2,0.2,0.2,0.5c0,0.2,0,0.4-0.2,0.6c0.1-0.1,0.4-0.4,0.6-0.8C13.4,23.3,13.4,23,13.3,22.8z
		 M13.8,21.1c0-0.4,0.1-0.7,0.4-0.9c0,0-0.3,0.1-0.6,0.3c-0.2,0.1-0.4,0.4-0.5,0.7c0,0.1,0,0.3,0,0.5c0,0.2,0.2,0.6,0.3,0.7
		c0,0.1,0.2,0.3,0.2,0.6c0,0.2,0,0.4-0.2,0.7c-0.1,0.2-0.2,0.4-0.5,0.6c0.2-0.1,1.6-1.1,1.2-2.1C13.9,21.7,13.8,21.4,13.8,21.1z"/>
</g>
<g>
	<circle class="st7" cx="5.9" cy="12.8" r="0.7"/>
	<circle class="st7" cx="8.4" cy="12.8" r="0.7"/>
	<circle class="st7" cx="10.9" cy="12.9" r="0.7"/>
	<circle class="st7" cx="13.3" cy="12.9" r="0.7"/>
	<circle class="st7" cx="15.8" cy="12.9" r="0.7"/>
	<circle class="st7" cx="18.3" cy="12.9" r="0.7"/>
</g>
<rect x="19.2" y="1" class="st0" width="3.5" height="0"/>
<path class="st7" d="M4.7,27.1v9h9.1L4.7,27.1z M5.8,29.8l5.1,5.1H5.8V29.8z"/>
<path class="st19" d="M31.9,18C31.9,18,31.9,18,31.9,18"/>
</svg>
