<?xml version="1.0" encoding="utf-8"?>
<!-- Generator: Adobe Illustrator 23.0.1, SVG Export Plug-In . SVG Version: 6.00 Build 0)  -->
<svg version="1.1" id="Слой_1" xmlns="http://www.w3.org/2000/svg" xmlns:xlink="http://www.w3.org/1999/xlink" x="0px" y="0px"
	 viewBox="0 0 40 40" style="enable-background:new 0 0 40 40;" xml:space="preserve">
<style type="text/css">
	.st0{fill:#FFFFFF;}
	.st1{fill:#1D472A;}
	.st2{fill-rule:evenodd;clip-rule:evenodd;fill:#DE981A;}
	.st3{fill:#DE981A;}
	.st4{fill:none;stroke:#659558;stroke-miterlimit:10;}
	.st5{fill:#B45092;}
	.st6{fill-rule:evenodd;clip-rule:evenodd;fill:#B45092;}
	.st7{fill:#0091C8;}
	.st8{fill:#659558;}
	.st9{fill:#639263;}
	.st10{opacity:0.1;clip-path:url(#SVGID_2_);fill:url(#SVGID_3_);}
	.st11{opacity:0.24;clip-path:url(#SVGID_2_);}
	.st12{opacity:0.24;}
	.st13{opacity:0.31;clip-path:url(#SVGID_5_);}
	.st14{opacity:0.31;}
	.st15{clip-path:url(#SVGID_7_);fill:#C2DBCB;}
	.st16{clip-path:url(#SVGID_7_);}
	.st17{fill:#C9E2F2;}
	.st18{opacity:0.67;clip-path:url(#SVGID_5_);}
	.st19{fill:none;}
	.st20{opacity:0.65;fill:#B8D5BC;}
	.st21{clip-path:url(#SVGID_5_);fill:none;}
	.st22{clip-path:url(#SVGID_2_);fill:#FFFFFF;stroke:#639263;stroke-miterlimit:10;}
	.st23{clip-path:url(#SVGID_2_);fill:none;}
	.st24{clip-path:url(#SVGID_2_);}
	.st25{clip-path:url(#SVGID_2_);fill:none;stroke:#608D61;stroke-miterlimit:10;}
	.st26{opacity:0.91;}
	.st27{opacity:0.68;}
	.st28{fill-rule:evenodd;clip-rule:evenodd;fill:#FFFFFF;}
	.st29{fill-rule:evenodd;clip-rule:evenodd;fill:#639263;}
	.st30{opacity:0.1;clip-path:url(#SVGID_9_);fill:url(#SVGID_10_);}
	.st31{opacity:0.24;clip-path:url(#SVGID_9_);}
	.st32{opacity:0.31;clip-path:url(#SVGID_12_);}
	.st33{clip-path:url(#SVGID_14_);fill:#C2DBCB;}
	.st34{clip-path:url(#SVGID_14_);}
	.st35{opacity:0.67;clip-path:url(#SVGID_12_);}
	.st36{clip-path:url(#SVGID_12_);fill:none;}
	.st37{clip-path:url(#SVGID_9_);fill:#FFFFFF;stroke:#639263;stroke-miterlimit:10;}
	.st38{clip-path:url(#SVGID_9_);fill:none;}
	.st39{clip-path:url(#SVGID_9_);}
	.st40{clip-path:url(#SVGID_9_);fill:none;stroke:#608D61;stroke-miterlimit:10;}
	.st41{fill:none;stroke:#638F56;stroke-miterlimit:10;}
	.st42{fill-rule:evenodd;clip-rule:evenodd;fill:#0091C8;}
	.st43{opacity:0.6;}
	.st44{opacity:0.1;clip-path:url(#SVGID_16_);fill:url(#SVGID_17_);stroke:url(#SVGID_18_);stroke-miterlimit:10;}
	.st45{opacity:0.24;clip-path:url(#SVGID_16_);}
	.st46{opacity:0.31;clip-path:url(#SVGID_20_);}
	.st47{clip-path:url(#SVGID_22_);fill:#C2DBCB;}
	.st48{clip-path:url(#SVGID_22_);}
	.st49{opacity:0.67;clip-path:url(#SVGID_20_);}
	.st50{clip-path:url(#SVGID_20_);fill:none;}
	.st51{opacity:0.31;clip-path:url(#SVGID_24_);}
	.st52{clip-path:url(#SVGID_26_);fill:#C2DBCB;}
	.st53{clip-path:url(#SVGID_26_);}
	.st54{opacity:0.67;clip-path:url(#SVGID_24_);}
	.st55{clip-path:url(#SVGID_24_);fill:none;}
	.st56{opacity:0.31;clip-path:url(#SVGID_28_);}
	.st57{clip-path:url(#SVGID_30_);fill:#C2DBCB;}
	.st58{clip-path:url(#SVGID_30_);}
	.st59{opacity:0.67;clip-path:url(#SVGID_28_);}
	.st60{clip-path:url(#SVGID_28_);fill:none;}
	.st61{opacity:0.31;clip-path:url(#SVGID_32_);}
	.st62{clip-path:url(#SVGID_34_);fill:#C2DBCB;}
	.st63{clip-path:url(#SVGID_34_);}
	.st64{opacity:0.67;clip-path:url(#SVGID_32_);}
	.st65{clip-path:url(#SVGID_32_);fill:none;}
	.st66{clip-path:url(#SVGID_16_);fill:none;}
	.st67{fill:#638F56;}
	.st68{opacity:0.1;clip-path:url(#SVGID_36_);fill:url(#SVGID_37_);stroke:url(#SVGID_38_);stroke-miterlimit:10;}
	.st69{opacity:0.24;clip-path:url(#SVGID_36_);}
	.st70{opacity:0.31;clip-path:url(#SVGID_40_);}
	.st71{clip-path:url(#SVGID_42_);fill:#C2DBCB;}
	.st72{clip-path:url(#SVGID_42_);}
	.st73{opacity:0.67;clip-path:url(#SVGID_40_);}
	.st74{clip-path:url(#SVGID_40_);fill:none;}
	.st75{opacity:0.31;clip-path:url(#SVGID_44_);}
	.st76{clip-path:url(#SVGID_46_);fill:#C2DBCB;}
	.st77{clip-path:url(#SVGID_46_);}
	.st78{opacity:0.67;clip-path:url(#SVGID_44_);}
	.st79{clip-path:url(#SVGID_44_);fill:none;}
	.st80{opacity:0.31;clip-path:url(#SVGID_48_);}
	.st81{clip-path:url(#SVGID_50_);fill:#C2DBCB;}
	.st82{clip-path:url(#SVGID_50_);}
	.st83{opacity:0.67;clip-path:url(#SVGID_48_);}
	.st84{clip-path:url(#SVGID_48_);fill:none;}
	.st85{opacity:0.31;clip-path:url(#SVGID_52_);}
	.st86{clip-path:url(#SVGID_54_);fill:#C2DBCB;}
	.st87{clip-path:url(#SVGID_54_);}
	.st88{opacity:0.67;clip-path:url(#SVGID_52_);}
	.st89{clip-path:url(#SVGID_52_);fill:none;}
	.st90{clip-path:url(#SVGID_36_);fill:none;}
	.st91{opacity:0.1;clip-path:url(#SVGID_56_);fill:url(#SVGID_57_);}
	.st92{opacity:0.24;clip-path:url(#SVGID_56_);}
	.st93{opacity:0.31;clip-path:url(#SVGID_59_);}
	.st94{clip-path:url(#SVGID_61_);fill:#C2DBCB;}
	.st95{clip-path:url(#SVGID_61_);}
	.st96{opacity:0.67;clip-path:url(#SVGID_59_);}
	.st97{clip-path:url(#SVGID_59_);fill:none;}
	.st98{clip-path:url(#SVGID_56_);fill:#FFFFFF;stroke:#639263;stroke-miterlimit:10;}
	.st99{clip-path:url(#SVGID_56_);fill:none;}
	.st100{clip-path:url(#SVGID_56_);}
	.st101{clip-path:url(#SVGID_56_);fill:none;stroke:#608D61;stroke-miterlimit:10;}
	.st102{fill:#5F9999;}
</style>
<g>
	<path class="st3" d="M13,2c0.4-0.8,1-1.4,1.9-1.6c1.1-0.2,2.2,0.2,2.7,1.2C17.8,2,18,2,18.4,2c3,0,5.9,0,8.9,0
		c1.6,0,2.7,1.1,2.7,2.7c0,3.2,0,6.3,0,9.5c0,0.2,0,0.4,0,0.6c0.2,0,0.4,0,0.6,0c2.1,0,4.1,0,6.2,0c1.5,0,2.6,1.1,2.6,2.6
		c0,6.5,0,13,0,19.5c0,1.5-1.2,2.7-2.7,2.7c-5.1,0-10.1,0-15.2,0c-1.4,0-2.4-0.9-2.6-2.2c0-0.3-0.2-0.4-0.4-0.4c-1,0-1.9,0-2.9,0
		c-3.9,0-7.8,0-11.8,0c-1.8,0-2.9-1-2.9-2.8c0-9.8,0-19.6,0-29.4C0.9,3.1,2.3,2,3.7,2c3.1,0.1,6.1,0,9.2,0C12.9,2,13,2,13,2z
		 M7.7,3.7c-1.4,0-2.7,0-4,0C2.9,3.7,2.7,4,2.7,4.8c0,9.8,0,19.5,0,29.3c0,0.9,0.3,1.1,1.1,1.1c4.8,0,9.7,0,14.5,0
		c0.2,0,0.4,0,0.6,0c0-0.3,0-0.5,0-0.7c0-5.5,0-11.1,0-16.6c0-0.3,0-0.5,0-0.8c0.2-1.4,1.2-2.3,2.6-2.3c2,0,4.1,0,6.1,0
		c0.2,0,0.4,0,0.5,0c0-0.1,0-0.2,0-0.2c0-3.3,0-6.7,0-10c0-0.5-0.3-0.8-0.9-0.8c-1.1,0-2.3,0-3.4,0c-0.3,0-0.5,0-0.8,0
		c0,0.8,0,1.6,0,2.3c0,1.7-1.1,2.8-2.8,2.8c-3.3,0-6.5,0-9.8,0c-1.6,0-2.7-1.1-2.7-2.7C7.7,5.4,7.7,4.6,7.7,3.7z M37.6,27.1
		c0-3.2,0-6.3,0-9.5c0-0.9-0.2-1.1-1.1-1.1c-4.9,0-9.8,0-14.7,0c-0.9,0-1.2,0.2-1.2,1.1c0,6.3,0,12.7,0,19c0,0.9,0.3,1.1,1.2,1.1
		c4.9,0,9.8,0,14.7,0c0.9,0,1.2-0.3,1.2-1.2C37.6,33.5,37.6,30.3,37.6,27.1z M9.5,3.7c0,0.8,0,1.6,0,2.3c0,0.8,0.3,1.1,1.1,1.1
		c1.7,0,3.3,0,5,0c1.6,0,3.2,0,4.9,0c0.6,0,0.9-0.2,1-0.7c0-0.9,0-1.8,0-2.7c-1.1,0-2.2,0-3.3,0c-0.1,0-0.2,0.1-0.3,0.2
		c-1.1,2.1-3.8,1.8-4.6,0c-0.1-0.1-0.2-0.2-0.4-0.2C11.7,3.7,10.6,3.7,9.5,3.7z M16.2,2.9c0-0.5-0.3-0.9-0.8-0.9
		c-0.5,0-0.9,0.4-0.9,0.9c0,0.4,0.4,0.8,0.8,0.8C15.9,3.7,16.2,3.4,16.2,2.9z"/>
	<path class="st3" d="M15.4,27.6c0,2.8-2.3,5.1-5.1,5.1c-2.8,0-5.1-2.3-5.1-5.1c0-2.8,2.3-5.1,5.1-5.1
		C13.1,22.5,15.4,24.8,15.4,27.6z M10.3,27.6c0-0.6,0-1.2,0-1.7c0-0.6,0-1.1,0-1.7c-1.8-0.1-3.4,1.5-3.4,3.4c0,2,1.7,3.5,3.8,3.4
		c1.7-0.1,3.1-1.8,2.9-3.4C12.5,27.6,11.5,27.6,10.3,27.6z"/>
	<path class="st3" d="M10.3,12.3c0.6,0,1.1,0,1.7,0c0,1.7,0,3.4,0,5.1c0.6,0,1.1,0,1.7,0c0-1.1,0-2.2,0-3.4c0.6,0,1.1,0,1.7,0
		c0,1.1,0,2.2,0,3.4c0.6,0,1.1,0,1.7,0c0,0.6,0,1.1,0,1.7c-4,0-7.9,0-11.9,0c0-0.5,0-1.1,0-1.7c0.5,0,1.1,0,1.7,0c0-0.9,0-1.7,0-2.5
		c0.6,0,1.1,0,1.7,0c0,0.8,0,1.6,0,2.5c0.6,0,1.1,0,1.7,0C10.3,15.7,10.3,14,10.3,12.3z"/>
	<path class="st3" d="M29,18.2c1.9,0,3.9,0,5.8,0c0.8,0,1.1,0.3,1.1,1.1c0,1,0,1.9,0,2.9c0,0.8-0.3,1.1-1.2,1.1c-3.8,0-7.6,0-11.4,0
		c-0.8,0-1.1-0.3-1.1-1.1c0-1,0-2,0-3.1c0-0.7,0.3-1,1-1C25.1,18.2,27.1,18.2,29,18.2z M34.1,20c-3.4,0-6.8,0-10.1,0
		c0,0.6,0,1.1,0,1.6c3.4,0,6.8,0,10.1,0C34.1,21,34.1,20.5,34.1,20z"/>
	<path class="st3" d="M24,25c0.1,0,0.2,0,0.3,0c1.3,0,1.8,0.7,1.4,2c-0.1,0.3-0.5,0.5-0.7,0.6c-0.6,0.1-1.2,0-1.8,0
		c-0.1,0-0.1,0-0.2,0c-0.6-0.1-0.7-0.6-0.7-1.7c0-0.5,0.3-0.8,0.9-0.8C23.4,25,23.7,25,24,25z"/>
	<path class="st3" d="M29.1,25c0.1,0,0.2,0,0.3,0c1.3,0,1.8,0.7,1.4,2c-0.1,0.3-0.5,0.5-0.7,0.6c-0.6,0.1-1.2,0-1.8,0
		c-0.1,0-0.1,0-0.2,0c-0.6-0.1-0.7-0.6-0.7-1.7c0-0.5,0.3-0.8,0.9-0.8C28.5,25,28.8,25,29.1,25z"/>
	<path class="st3" d="M34.2,27.6c0,0-0.1,0-0.1,0c-1.8,0.1-1.6-0.5-1.6-1.8c0-0.5,0.3-0.8,0.8-0.8c0.6,0,1.2,0,1.8,0
		c0.1,0,0.1,0,0.2,0c0.5,0.1,0.7,0.6,0.7,1.6c0,0.6-0.3,0.9-0.8,1C34.8,27.6,34.5,27.6,34.2,27.6z"/>
	<path class="st3" d="M24,31.9c0,0-0.1,0-0.1,0c-1.8,0.1-1.6-0.6-1.6-1.8c0-0.4,0.3-0.7,0.7-0.7c0.7,0,1.3,0,2,0
		c0.4,0,0.6,0.3,0.7,0.7c0,0.3,0.1,0.6,0,1c0,0.6-0.4,0.9-1,0.9C24.4,31.9,24.2,31.9,24,31.9z"/>
	<path class="st3" d="M29.1,31.9c0,0-0.1,0-0.1,0c-1.5,0-1.8-0.4-1.6-1.8c0.1-0.4,0.3-0.7,0.7-0.7c0.6,0,1.3,0,1.9,0
		c0.4,0,0.6,0.3,0.7,0.7c0,0.2,0,0.3,0,0.5c0,1.1-0.2,1.4-1.4,1.4C29.3,31.9,29.2,31.9,29.1,31.9z"/>
	<path class="st3" d="M34.2,31.9c0,0-0.1,0-0.1,0c-1.5,0-1.8-0.4-1.6-1.8c0.1-0.4,0.3-0.7,0.7-0.7c0.6,0,1.3,0,1.9,0
		c0.4,0,0.6,0.3,0.7,0.7c0,0.3,0.1,0.6,0,0.9c0,0.6-0.4,0.9-1,1C34.7,31.9,34.4,31.9,34.2,31.9z"/>
	<path class="st3" d="M23.9,36.1c0,0-0.1,0-0.1,0c-1.5,0-1.6-0.1-1.6-1.6c0-0.6,0.3-0.9,0.9-0.9c0.5,0,1.1,0,1.6,0
		c0.5,0,0.8,0.3,0.9,0.8c0,0.2,0,0.5,0,0.7c0,0.8-0.3,1.1-1.1,1.1C24.4,36.2,24.1,36.1,23.9,36.1z"/>
	<path class="st3" d="M29.1,36.1c-0.3,0-0.5,0-0.8,0c-0.1,0-0.3,0-0.4-0.1c-0.4-0.2-0.6-1-0.4-1.8c0.1-0.5,0.5-0.7,1-0.7
		c0.5,0,1,0,1.5,0c0.6,0,0.9,0.3,1,0.9c0,0.2,0,0.3,0,0.5c0,0.9-0.3,1.2-1.2,1.2C29.4,36.1,29.3,36.1,29.1,36.1
		C29.1,36.1,29.1,36.1,29.1,36.1z"/>
	<path class="st3" d="M34.2,33.6c0.1,0,0.2,0,0.3,0c1.3,0,1.9,0.8,1.4,2c-0.1,0.2-0.4,0.5-0.6,0.5c-0.7,0.1-1.3,0.1-2,0
		c-0.5,0-0.7-0.4-0.7-0.8C32.5,34,32.3,33.5,34.2,33.6z"/>
</g>
</svg>
