<?xml version="1.0" encoding="utf-8"?>
<!-- Generator: Adobe Illustrator 23.0.1, SVG Export Plug-In . SVG Version: 6.00 Build 0)  -->
<svg version="1.1" id="Слой_1" xmlns="http://www.w3.org/2000/svg" xmlns:xlink="http://www.w3.org/1999/xlink" x="0px" y="0px"
	 viewBox="0 0 566 565" style="enable-background:new 0 0 566 565;" xml:space="preserve">
<style type="text/css">
	.st0{display:none;}
	.st1{display:inline;}
	.st2{fill:none;stroke:#000000;stroke-miterlimit:10;}
	.st3{fill:#447776;}
	.st4{fill:#578685;}
	.st5{fill:#5F9898;}
	.st6{fill-rule:evenodd;clip-rule:evenodd;fill:#578685;}
	.st7{fill-rule:evenodd;clip-rule:evenodd;fill:#447776;}
	.st8{fill:#C20C1E;}
	.st9{fill:#FCC000;}
	.st10{fill:#21CC21;}
	.st11{fill:#4D4D4D;}
</style>
<path class="st10" d="M13.6,280C13.6,130.6,135.6,8.6,284.9,8.7c149.9,0,272.1,122.2,271.7,271.7c-0.4,150.1-122.1,271.5-272,271.4
	C135.2,551.6,13.5,429.5,13.6,280z M284.9,44.3C154.5,44.5,49.2,149.9,49.2,280.2c0,130.3,105.5,235.9,235.7,235.8
	c130.9-0.1,236.2-105.5,236-236.2C520.7,149.4,415.2,44.2,284.9,44.3z"/>
<g>
	<path class="st10" d="M297.3,355.5c-8.6,0-16.3,0-24.6,0c-1.7-14.1-3.6-27.9-5.1-41.7c-4.5-40.4-8.9-80.9-13.2-121.4
		c-1.3-12-2.5-24.1-3.2-36.2c-1.3-20.1,13.6-35.7,33.9-35.7c20.5-0.1,36,15.9,34,36.2c-4,42.1-8.5,84.2-13,126.2
		c-2.2,21.1-4.8,42.2-7.3,63.4C298.4,349.2,297.8,352.1,297.3,355.5z"/>
	<path class="st10" d="M284.7,439.9c-18.7-0.1-33.8-15.4-33.7-34.3c0.1-18.7,15.4-33.8,34.2-33.8c18.9,0.1,34.1,15.2,34.1,33.9
		C319.3,424.8,304,440,284.7,439.9z"/>
</g>
</svg>
