<?xml version="1.0" encoding="utf-8"?>
<!-- Generator: Adobe Illustrator 23.0.1, SVG Export Plug-In . SVG Version: 6.00 Build 0)  -->
<svg version="1.1" id="Слой_1" xmlns="http://www.w3.org/2000/svg" xmlns:xlink="http://www.w3.org/1999/xlink" x="0px" y="0px"
	 viewBox="0 0 566 565" style="enable-background:new 0 0 566 565;" xml:space="preserve">
<style type="text/css">
	.st0{display:none;}
	.st1{display:inline;}
	.st2{fill:none;stroke:#000000;stroke-miterlimit:10;}
	.st3{fill:#447776;}
	.st4{fill:#578685;}
	.st5{fill:#5F9898;}
	.st6{fill-rule:evenodd;clip-rule:evenodd;fill:#578685;}
	.st7{fill-rule:evenodd;clip-rule:evenodd;fill:#447776;}
	.st8{fill:#C20C1E;}
	.st9{fill:#4D4D4D;}
</style>
<g class="st0">
	<g class="st1">
		<rect x="126.3" y="117.5" class="st2" width="423.9" height="423.9"/>
		<line class="st2" x1="126.3" y1="502.9" x2="550.1" y2="502.9"/>
		<line class="st2" x1="126.3" y1="464.3" x2="550.1" y2="464.3"/>
		<line class="st2" x1="126.3" y1="425.8" x2="550.1" y2="425.8"/>
		<line class="st2" x1="126.3" y1="387.3" x2="550.1" y2="387.3"/>
		<line class="st2" x1="126.3" y1="348.7" x2="550.1" y2="348.7"/>
		<line class="st2" x1="126.3" y1="310.2" x2="550.1" y2="310.2"/>
		<line class="st2" x1="126.3" y1="271.6" x2="550.1" y2="271.6"/>
		<line class="st2" x1="126.3" y1="233.1" x2="550.1" y2="233.1"/>
		<line class="st2" x1="126.3" y1="194.6" x2="550.1" y2="194.6"/>
		<line class="st2" x1="126.3" y1="156" x2="550.1" y2="156"/>
		<line class="st2" x1="511.6" y1="117.5" x2="511.6" y2="541.4"/>
		<line class="st2" x1="473" y1="117.5" x2="473" y2="541.4"/>
		<line class="st2" x1="434.5" y1="117.5" x2="434.5" y2="541.4"/>
		<line class="st2" x1="396" y1="117.5" x2="396" y2="541.4"/>
		<line class="st2" x1="357.4" y1="117.5" x2="357.4" y2="541.4"/>
		<line class="st2" x1="318.9" y1="117.5" x2="318.9" y2="541.4"/>
		<line class="st2" x1="280.3" y1="117.5" x2="280.3" y2="541.4"/>
		<line class="st2" x1="241.9" y1="117.5" x2="241.9" y2="541.4"/>
		<line class="st2" x1="203.4" y1="117.5" x2="203.4" y2="541.4"/>
		<line class="st2" x1="164.8" y1="117.5" x2="164.8" y2="541.4"/>
	</g>
</g>
<path class="st8" d="M12,278.3C12.1,128.8,134,6.8,283.3,6.9c149.9,0,272.1,122.2,271.7,271.7C554.6,428.7,433,550.1,283,549.9
	C133.7,549.8,11.9,427.8,12,278.3z M283.3,42.6C153,42.7,47.7,148.1,47.7,278.5c0,130.3,105.5,235.9,235.7,235.8
	c130.9-0.1,236.2-105.5,236-236.2C519.1,147.6,413.7,42.4,283.3,42.6z"/>
<g>
	<path class="st8" d="M295.7,353.7c-8.6,0-16.3,0-24.6,0c-1.7-14.1-3.6-27.9-5.1-41.7c-4.5-40.4-8.9-80.9-13.2-121.4
		c-1.3-12-2.5-24.1-3.2-36.2c-1.3-20.1,13.6-35.7,33.9-35.7c20.5-0.1,36,15.9,34,36.2c-4,42.1-8.5,84.2-13,126.2
		c-2.2,21.1-4.8,42.2-7.3,63.4C296.8,347.4,296.2,350.3,295.7,353.7z"/>
	<path class="st8" d="M283.1,438.1c-18.7-0.1-33.8-15.4-33.7-34.3c0.1-18.7,15.4-33.8,34.2-33.8c18.9,0.1,34.1,15.2,34.1,33.9
		C317.7,423.1,302.4,438.2,283.1,438.1z"/>
</g>
</svg>
