<?xml version="1.0" encoding="utf-8"?>
<!-- Generator: Adobe Illustrator 23.0.1, SVG Export Plug-In . SVG Version: 6.00 Build 0)  -->
<svg version="1.1" id="Слой_1" xmlns="http://www.w3.org/2000/svg" xmlns:xlink="http://www.w3.org/1999/xlink" x="0px" y="0px"
	 viewBox="0 0 566 565" style="enable-background:new 0 0 566 565;" xml:space="preserve">
<style type="text/css">
	.st0{fill:#5F9898;}
</style>
<path class="st0" d="M516.2,53.2c6.9,0,13.6,1.2,20,4.5c12.5,6.5,20.1,17.8,23.6,33.1c1.1,5,1.6,10.1,1.6,15.3
	c0,11-0.2,222.6-0.4,317.5c0,7.1-0.7,13.9-2.7,20.6c-4,13.2-11.7,22.2-22.8,27.5c-5.8,2.7-11.8,3.5-18,3.5H49.6
	c-5.4,0-10.8-0.3-16-1.9c-16-4.8-25.4-17.2-29.4-35.8c-0.4-1.7-0.6-3.3-0.6-5.1c-0.1-7-0.3-14-0.3-20.9
	C3.2,343.3,3.2,111.3,3.6,97.9C4,81.4,10.6,69,22.5,60.6c5.8-4.1,12.1-6.3,18.9-6.8C45,53.5,490.2,53.3,516.2,53.2z M514.7,449.6
	c2.9,0,5.8-0.1,8.7-0.7c7.9-1.6,13.2-6.4,15-16.3c0.8-4.3,1-8.7,1-13.1V109c0-3.4-0.1-6.9-0.5-10.3c-1.2-9.8-5.3-16.6-14.2-18.7
	c-3-0.7-6.1-1-9.2-1H50.6c-3.1,0-6.2,0-9.3,0.6c-8.6,1.7-13.6,6.4-15.6,16.3c-0.7,3.4-0.8,6.8-0.8,10.2V422c0,3.1,0.2,6.2,0.6,9.3
	c1.3,8.5,5.1,14.3,12.4,16.7c3.7,1.2,7.5,1.4,11.4,1.4C126.9,449.6,514.7,449.6,514.7,449.6z M163.1,249.9c-1.7,2.4-4,3.9-7.3,4.8
	c-1.8,0.4-5.8,1-8.6,2.8c-3.2,2.2-4.3,5.4-3.8,8.2c0.5,3.2,3.1,6.1,6.8,6.5c2.6,0.3,5.9-0.5,9.4-3.2c2.2-1.7,4.1-3.9,5.5-6.5
	c1.3-2.6,2.2-5.7,2.2-9.2c0-5.1-2-9.4-2-9.4S165.1,247,163.1,249.9L163.1,249.9z M142.2,273.1c-1.5-2.6-2.8-4.9-3.8-7.1
	c-1-2.4-1.5-4.7-1.1-7.2c0.3-2.2,1.4-4.5,3.3-7.1c3.9-5.4,0.6-8.4-0.1-9.2c-0.3-0.4-1.9-2-3.4-3.9c-1.8-2.4-2.6-4.1-3.1-5.2
	c-1.9,2.6-3.6,5.2-4.9,7.8c-1.9,3.8-3.2,7.7-3,12c0.1,2.8,0.6,5.3,1.5,7.5c1.3,3,3.3,5.8,6.8,8.6
	C136.3,270.8,139.9,272.4,142.2,273.1z M157.3,238.3c-1.1,3.5-3.3,6.1-6.7,9c-2.3,1.9-5,3.5-7.6,5.5c-3.8,2.9-4.5,6.2-3.9,9.6
	c0.6,3.7,3.5,7.7,3.5,7.7s-0.6-2.7-0.8-3.9c-0.2-1.6-0.2-3.1,0.1-4.5c0.9-3.5,3.9-6.4,10.7-7.9c3.4-0.7,6.3-1.5,8.5-4.2
	c1.8-2.2,2.2-4.3,2.3-6.1c0-6-5.6-12.2-5.6-12.2C158.4,233.9,158,236.2,157.3,238.3L157.3,238.3z M149.8,206.6
	c2.1-4.3,1.7-7.5,1.7-7.5s0.8,2.2,0.9,5.2c0,1.3,0,2.7-0.4,4.2c-0.6,2.2-1.3,3.8-3.5,6.3c-1.5,1.7-2.7,3.8-3.1,5.6
	c-0.7,2.6-0.4,5.2,0.3,7.3c0.5,1.7,0.8,2.1,1,2.7c0.4,0.9,1.1,2.4,1.1,2.4s-4-4.3-5-6.1c-1.1-1.8-1.7-3.8-1.5-6.1
	c0.3-2.6,1.6-5.5,4.7-8.9C147.7,209.7,149,208.3,149.8,206.6L149.8,206.6z M135.9,221.7c1.8-4.5,5.6-6.9,5.6-6.9
	c-4.5,6.4-1.9,10.9,1.4,14.6c2.3,2.6,4.9,4.6,5.9,6.8c0.9,2,0.4,4.9-0.9,7.4c-2,4-5.5,7.5-5.5,7.5c1.6-2.1,2-4,1.9-5.5
	c-0.2-2.4-2.2-4.4-2.2-4.4c-1.1-1.3-2.3-2.7-3.3-4c-1.5-2.1-2.5-4.1-3.1-5.9C134.4,227.5,134.9,224.2,135.9,221.7L135.9,221.7z
	 M151.2,214.7c2.8-1.9,5.8-2.4,5.8-2.4c-2.5,1.9-4.1,4.3-3.9,8.1c0.1,2.5,0.9,5.6,2.7,9.6c4.4,10.1-10.7,19.6-10.7,19.6
	c1.9-2,3.3-3.9,4.2-5.7c1.1-2.4,1.4-4.4,1.4-6.2c0-2.1-1.1-4.4-1.6-5.4c-0.4-0.9-2.1-4.6-2.4-6.5c-0.3-1.8-0.3-3.3,0-4.7
	C147.3,218.1,149.2,216.1,151.2,214.7L151.2,214.7z M47.2,228.2c0.6-2.2,1.3-4.4,2.8-6.3c2.7-3.3,6.2-5.1,10.5-5.1h7.8
	c4.9,0,9.3-2.9,11.1-7.4c1.9-4.7,1-9.4-2.7-13.1l-5.3-5.3c-5.1-5.2-5.1-13.2,0-18.4c3.8-3.9,7.7-7.7,11.6-11.5
	c5.1-4.9,13.3-4.9,18.4,0c1.9,1.8,3.7,3.7,5.6,5.5c3.8,3.5,8.2,4.4,12.9,2.4c4.7-2,7.3-5.7,7.5-11c0.1-2.6,0-5.1,0-7.7
	c0-7.7,5.8-13.4,13.4-13.4h15c7.4,0,13.1,5.7,13.2,13.1v7.7c0,4.9,2.8,9.3,7.5,11.2c4.8,2,9.3,1.3,13.2-2.3c1.9-1.8,3.7-3.7,5.6-5.5
	c5.3-5.1,13.5-5.1,18.7,0.1c3.8,3.7,7.5,7.5,11.3,11.2c5.4,5.4,5.3,13.4-0.1,18.8c-1.7,1.7-3.4,3.3-5.1,5c-3.6,3.5-4.6,8.3-2.8,13
	c1.8,4.5,6.1,7.5,11,7.6c2.5,0,5.1,0.1,7.6,0c6.7-0.2,12.4,4.9,12.6,12.2c0.2,5.9,0.2,11.8,0,17.7c-0.2,6.7-5.4,11.7-12.1,11.8
	c-3.2,0-6.5-0.2-9.7,0.2c-4.9,0.6-8.1,3.7-9.7,8.3c-1.5,4.5-0.6,8.7,2.8,12.2c1.8,1.9,3.7,3.6,5.6,5.5c5.1,5.1,5.1,13.2,0,18.3
	c-3.8,3.9-7.7,7.7-11.6,11.5c-5.3,5.1-13.5,5.1-18.8-0.1c-1.8-1.7-3.5-3.5-5.2-5.2c-3.8-3.6-8.2-4.5-13-2.6
	c-4.6,1.8-7.5,6.2-7.5,11.2v7.4c0,7.7-5.8,13.6-13.5,13.6h-15c-7.6,0-13.5-5.8-13.5-13.4v-7.6c-0.1-5.1-3-9.3-7.7-11.2
	c-4.7-1.9-9.5-0.8-13.1,2.9c-1.7,1.7-3.4,3.4-5.2,5.1c-5.3,5-13.4,4.9-18.6-0.2l-11.1-11.1c-5.7-5.7-5.6-13.6,0.1-19.2
	c1.6-1.6,3.3-3.2,4.9-4.8c3.5-3.5,4.6-8.3,2.7-12.9c-1.8-4.6-6.1-7.6-11-7.6c-3.1,0-6.2,0.1-9.3-0.1c-6-0.6-10.6-4.8-11.8-10.7
	c-0.1-0.3-0.1-0.5-0.2-0.7C47.2,240.8,47.2,234.5,47.2,228.2L47.2,228.2z M148.4,145.3h-7.1c-3.6,0-5.4,1.8-5.4,5.4
	c0,2.6,0.1,5.2,0,7.8c-0.5,8.9-5,15.1-13.1,18.3s-15.5,1.5-21.8-4.5c-1.8-1.7-3.4-3.4-5.1-5.1c-2.1-2.1-5.1-2.1-7.2-0.1l-11.1,11.1
	c-2.2,2.2-2.2,4.8,0,7c1.7,1.7,3.5,3.4,5.2,5.2c5.6,5.9,7.4,12.8,4.9,20.5c-2.6,7.9-8.2,12.7-16.5,13.9c-3.4,0.5-6.9,0.2-10.4,0.3
	c-3.1,0-5.2,2-5.2,5.1v15.1c0,3,2,5,5.1,5.1h7.7c8.5,0,15.8,5,19,12.8c3.1,7.6,1.3,16.1-4.6,22.1c-1.6,1.6-3.3,3.2-4.9,4.9
	c-2.3,2.3-2.3,4.9,0,7.2l10.9,10.9c2.2,2.2,5.2,2.2,7.4,0c1.6-1.6,3.2-3.3,4.9-4.9c6.1-5.8,13.2-7.7,21.1-4.9
	c8,2.8,12.8,8.7,13.7,17.3c0.3,3.2,0.1,6.5,0.2,9.7c0.1,2.9,2,4.8,4.9,4.8h15.2c3,0,5-2,5-5c0-2.5-0.1-5,0-7.5
	c0.2-2.2,0.3-4.5,1-6.6c4.4-13.5,22.2-19.3,33.8-7.9c1.7,1.6,3.3,3.3,5,5c2.2,2.2,5.1,2.2,7.4,0c3.7-3.6,7.4-7.3,11-11
	c2.2-2.2,2.2-4.9,0-7.1c-1.7-1.7-3.3-3.3-5-4.9c-6-5.9-7.8-14.3-4.7-22.3c3.1-7.7,10.7-13,18.8-13.1h7.3c3.2,0,4.5-1.3,4.6-4.6
	v-10.4c0-1.9,0-3.7-0.1-5.6c-0.3-2.9-1.7-4.1-4.6-4.1c-2.7,0-5.4,0.1-8.1-0.1c-8.7-0.5-14.9-5-18-13c-3.2-8.1-1.4-15.5,4.7-21.7
	c1.7-1.8,3.5-3.4,5.2-5.2c2-2.1,2-4.7,0-6.8c-3.7-3.7-7.5-7.4-11.2-11.1c-2.1-2.1-5.1-2.1-7.3,0c-1.7,1.6-3.3,3.3-5,5
	c-4.1,4-9,6.1-14.8,6.1c-11.4-0.2-20.9-9.6-20.5-21.1c0.1-2.6,0.1-5.2-0.1-7.8c-0.2-2.5-2-4.1-4.5-4.1
	C153.5,145.3,150.9,145.3,148.4,145.3L148.4,145.3z M149.4,179.8c32.3-0.1,58.7,26.3,58.8,58.7c0.1,32.5-26.2,59-58.7,59.1
	c-32.6,0.1-59-26.2-59.1-59C90.3,206.2,116.7,179.9,149.4,179.8z M149.3,189.5c-27-0.1-49,21.8-49.1,48.9
	c-0.2,26.9,21.8,49.1,48.6,49.2c27.5,0.1,49.4-21.6,49.6-49C198.5,211.7,176.5,189.6,149.3,189.5z M277.2,339.4
	c-3.8,0-6.9-1.6-8.8-5c-1.5-2.8-1.5-5.7-0.7-8.6c0.5-1.9,1.1-3.7,2.6-5.2c1.3-1.3,2.8-1.9,4.5-2.1c1.1-0.1,2.2-0.2,3.3-0.2h228.1
	c4.2,0,7.7,1.8,9.6,5.8c1.4,2.9,1.2,5.9,0.1,8.9c-0.5,1.3-1.2,2.5-2,3.6c-1.3,1.9-3.3,2.8-5.6,2.8L277.2,339.4z M274.7,251.5
	c-3.8,0-6.9-1.6-8.8-5c-1.5-2.8-1.5-5.7-0.7-8.6c0.5-1.9,1.1-3.7,2.6-5.2c1.3-1.3,2.8-1.9,4.5-2.1c1.1-0.1,2.2-0.2,3.3-0.2h228.1
	c4.2,0,7.7,1.8,9.6,5.8c1.4,2.9,1.2,5.9,0.1,8.9c-0.5,1.3-1.2,2.5-2,3.6c-1.3,1.9-3.3,2.8-5.6,2.8H274.7z M274.7,167.5
	c-3.8,0-6.9-1.6-8.8-5c-1.5-2.8-1.5-5.7-0.7-8.6c0.5-1.9,1.1-3.7,2.6-5.2c1.3-1.3,2.8-1.9,4.5-2.1c1.1-0.1,2.2-0.2,3.3-0.2h228.1
	c4.2,0,7.7,1.8,9.6,5.8c1.4,2.9,1.2,5.9,0.1,8.9c-0.5,1.3-1.2,2.5-2,3.6c-1.3,1.9-3.3,2.8-5.6,2.8H274.7z M175.2,384.4
	c11,0,20,9,20,20s-9,20-20,20s-20-9-20-20S164.2,384.4,175.2,384.4z M288.2,384.4c11,0,20,9,20,20s-9,20-20,20s-20-9-20-20
	S277.2,384.4,288.2,384.4z M392.6,384.4c11,0,20,9,20,20s-9,20-20,20s-20-9-20-20S381.6,384.4,392.6,384.4z"/>
</svg>
