<?xml version="1.0" encoding="utf-8"?>
<!-- Generator: Adobe Illustrator 24.1.3, SVG Export Plug-In . SVG Version: 6.00 Build 0)  -->
<svg version="1.1" id="Слой_1" xmlns="http://www.w3.org/2000/svg" xmlns:xlink="http://www.w3.org/1999/xlink" x="0px" y="0px"
	 viewBox="0 0 240.7 243.1" style="enable-background:new 0 0 240.7 243.1;" xml:space="preserve">
<style type="text/css">
	.st0{fill:#744479;}
	.st1{fill:#506887;}
	.st2{fill:#D45647;}
	.st3{fill:#77D15F;}
	.st4{fill:#EF8556;}
	.st5{fill-rule:evenodd;clip-rule:evenodd;fill:#EF8556;}
	.st6{fill:#FFFFFF;}
</style>
<path class="st4" d="M152.6,227.2c-0.7,0-1.1,0-1.5,0c-15.9,0-31.8,0-47.8,0c-14.7,0-29.4,0-44.2,0.1c-3.2,0-6.5,0.4-9.6-0.3
	c-7.2-1.7-12.9-5.6-17-11.8c-1.4-2.2-2.1-4.5-2.1-7.1c0.3-41.2,0.1-82.4,0.1-123.6c0-2.4,1.1-4.1,2.7-5.6
	c16.2-14.5,32.3-29.1,48.5-43.6c9.5-8.5,19-17.1,28.5-25.6c1.8-1.7,4-2.4,6.4-2.4c25.5,0,51,0,76.6,0c3.3,0,6.7,0,10,0.1
	c8.1,0.3,14.6,3.5,18.8,10.7c1.5,2.7,2.3,5.6,2.3,8.7c0,23.1,0.1,46.2,0,69.2c0,9-0.3,17.9-0.1,26.9c0.1,3.3,0.2,6.5,0.5,9.8
	c0.3,4.5-1.3,8.2-4.3,11.3c-1.9,2-4.1,3.7-6.4,5.4c-0.3-0.6-0.2-1.1-0.2-1.6c0-39.6,0-79.2,0-118.7c0-1.4-0.1-2.8-0.4-4.2
	c-1-4.8-4-7.4-9.3-8.3c-2-0.3-4-0.5-6-0.5c-19.2,0-38.4,0-57.6,0c-5.3,0-10.5-0.1-15.8,0c-3,0-4.1,1.2-4.1,4.2
	c0,7.2,0.1,14.4,0.1,21.6c0,11-0.1,21.9-0.1,32.9c0,1.6-0.2,3.2-0.6,4.8c-1.3,4.6-4.7,6.7-9.1,7.5c-1.7,0.3-3.5,0.5-5.3,0.5
	c-16.5,0.2-32.9,0.2-49.4,0.1c-3.1,0-6.3-0.1-9.4-0.1c-0.3,0-0.7,0-1,0c-3.5,0.1-4.7,1.3-4.7,4.8c0,37.8,0,75.5,0.1,113.3
	c0,1.6,0.2,3.2,0.5,4.8c1,4.5,4,6.6,8.3,7.4c2,0.4,3.9,0.5,5.9,0.5c6,0,12,0,18,0.1c12.1,0,24.2,0.1,36.3,0.1
	c7.2,0,14.5-0.1,21.7-0.3c3.8-0.1,7.4,0.1,10.9,1.6C146.9,221.4,149.7,224.1,152.6,227.2z M110.4,22.4c-0.4,0.3-0.6,0.4-0.7,0.6
	c-5.1,4.6-10.2,9.2-15.2,13.8c-8.1,7.4-16.2,14.7-24.3,22.1c-6.6,6-13.2,12-19.8,18c-0.3,0.2-0.9,0.4-0.6,0.9
	c0.2,0.5,0.6,0.9,1.3,0.8c0.3,0,0.6,0,0.9,0c13.6,0,27.3,0,40.9,0c4.6,0,9.2,0,13.8-0.1c2.7,0,3.8-1.2,3.8-3.9c0-16.9,0-33.8,0-50.7
	C110.4,23.5,110.4,23.1,110.4,22.4z"/>
<path class="st4" d="M182.1,243.1c-1.8-2.8-3.5-5.4-5.1-7.9c-3.9-6.3-8.5-12.2-12.4-18.5c-0.5-0.8-1.1-1.5-1.7-2.3
	c-1.1-1.4-1.1-1.6,0.4-2.6c2-1.3,4-2.6,6-3.9c7-4.2,13.3-9.5,20.3-13.8c1.8-1.1,3.5-2.3,5.6-3.6c-0.6,2.6-1.2,4.9-1.8,7.2
	c-0.3,1.2-0.7,2.3-1,3.5c-0.3,1.3,0,2,1.3,2.1c8,0.7,16,0.3,22.7-4.9c6.7-5.3,10.1-12.3,9.4-21c-0.4-4.4-2.5-8.2-5-11.9
	c-3.2-4.7-7.4-8.4-12.2-11.5c-0.5-0.3-1-0.6-1.4-1.1c-0.5-0.5-0.3-1.1,0.1-1.6c0.4-0.5,0.8-0.4,1.3-0.2c4.5,2.3,9,4.7,12.9,8
	c6.9,5.9,12.8,12.5,15.8,21.2c2.9,8.3,3.3,16.7-0.2,25c-2.7,6.3-7.2,11.2-12.6,15.2c-7.1,5.3-15.2,8.2-24,9.3
	c-4.5,0.6-9,0.6-13.5,0.3c-1.6-0.1-2.1,0.3-2.5,2.1C183.8,235.9,183,239.3,182.1,243.1z"/>
<path class="st4" d="M44.8,49.9c0.9-3,2.1-5.9,3.3-8.8c0.1-0.3,0.3-0.7,0.5-1c0.5-1.4,0.2-2-1.2-2.3c-1.6-0.4-3.2-0.6-4.7-0.8
	C36.9,36.3,31.3,36.6,26,39c-6.9,3.2-14.6,12.4-13.4,23c0.5,4.6,2.5,8.6,4.8,12.5c2.4,4.1,5.6,7.4,9.3,10.4c0.3,0.2,0.6,0.5,0.8,0.7
	c0.7,0.6,0.7,1.3,0.2,2c-0.6,0.7-1.1,0.2-1.7-0.2c-3.3-2.2-6.6-4.4-9.4-7.2C9,72.8,3,64.4,1.1,53.7c-2.5-14.4,2-26,14.1-34.5
	c7-4.9,14.8-7.5,23.3-8.4c6.1-0.6,12.2-0.2,18.3,1c2.1,0.4,2.6,0.1,3.3-1.9c1.2-3.2,2.5-6.5,3.7-9.7c0.6,0.1,0.6,0.6,0.8,1
	c4.1,9.1,9,17.7,13.3,26.7c0.5,1,1.1,1.9,1.6,2.8c0.9,1.4,0.9,1.7-0.6,2.4c-4.2,2.1-8.6,3.9-12.7,6.2c-6.6,3.6-13.3,7.1-20.1,10.4
	c-0.4,0.2-0.8,0.3-1.1,0.5C44.9,50,44.8,50,44.8,49.9z"/>
<path class="st4" d="M124.7,151.1c-15.9,0-31.8,0-47.8,0c-0.4,0-0.7,0-1.1,0c-2.1-0.1-3.3-0.9-3.4-2.5c-0.2-2.4,0.7-3.7,3-4
	c0.5-0.1,1.1-0.1,1.6-0.1c31.6,0,63.2,0,94.8,0c1.1,0,2.2,0.1,3.3,0.5c1.6,0.6,2.3,1.8,2.1,3.4c-0.2,1.6-1.1,2.6-2.8,2.8
	c-0.5,0.1-1.1,0.1-1.6,0.1C156.8,151.1,140.7,151.1,124.7,151.1z"/>
<path class="st4" d="M124.8,118.5c-15.7,0-31.3,0-47,0c-1,0-2,0-3-0.2c-1.5-0.3-2.3-1.1-2.4-2.4c-0.2-1.9,0.5-3.3,1.9-3.8
	c0.7-0.3,1.4-0.3,2.2-0.3c31.8,0,63.7,0,95.5,0c0.9,0,1.8,0.1,2.7,0.3c1.7,0.5,2.5,1.6,2.5,3.3c0,1.7-0.9,2.6-2.7,3
	c-0.7,0.1-1.5,0.2-2.2,0.2C156.5,118.5,140.6,118.5,124.8,118.5z"/>
<path class="st4" d="M124.7,182.1c-15.8,0-31.7,0-47.5,0c-0.6,0-1.2,0-1.7,0c-2.1-0.2-3-1.1-3-2.9c0-2.2,1-3.5,3-3.7
	c0.6-0.1,1.2-0.1,1.7-0.1c31.5,0,63,0,94.5,0c1.1,0,2.2,0,3.3,0.4c1.7,0.6,2.4,1.7,2.2,3.5c-0.2,1.6-1.1,2.5-2.9,2.7
	c-0.5,0.1-1,0.1-1.5,0.1C156.8,182.1,140.7,182.1,124.7,182.1z"/>
<path class="st4" d="M148.3,58c1.9,4.2,4.6,7.4,7.5,10.6c2.9,3.2,3.1,6.3,0.7,9.9c-1,1.6-2.1,3-3,4.7c-1.9,3.8-2.1,7.6-0.6,11.5
	c1,2.8,2.6,5.4,4.1,8.1c0.2,0.4,0.5,0.8,0.9,1.5c-4-1.3-7.6-2.9-10.6-5.6c-8.4-7.3-10-18-6.5-27.6C142.5,66.4,145.3,62.2,148.3,58z"
	/>
<path class="st4" d="M184.7,70.3c1.6,3.7,2.5,7.4,2.3,11.1c-0.3,9.4-4.6,16.3-13.1,20.6c-3.3,1.6-6.7,2-10.1,0.2
	c-6.1-3.4-6.3-11.8-0.4-16c2.7-1.9,5.8-2.5,8.9-3.1c3.8-0.8,7.2-2.3,9.6-5.6c1.3-1.8,2.1-3.8,2.5-5.9
	C184.4,71.2,184.5,70.8,184.7,70.3z"/>
<path class="st4" d="M176.3,55.8c2.3,2.6,4.2,5.4,5.3,8.7c2.7,7.4-0.5,13.8-8,16.2c-2,0.6-4.1,1-6.1,1.6c-1.2,0.3-2.4,0.8-3.6,1.4
	c-5.5,2.8-7.5,7.1-6.2,13.5c0.2,1,0.4,2,0.6,3.1c-1.3-1.2-3.4-5.3-3.9-8c-1-4.5,0.2-8.3,3.8-11.3c2.2-1.8,4.7-3.4,7.1-5.1
	c1.9-1.4,3.7-2.9,5.4-4.6C174.7,67,176.8,61.9,176.3,55.8z"/>
<path class="st4" d="M174.8,33.7c-3.5,2.7-4.6,6.4-4.1,10.6c0.2,1.9,0.7,3.7,1.3,5.5c0.4,1.2,0.8,2.4,1.4,3.6c1.9,4,1.5,8-0.6,11.8
	c-2.4,4.4-5.9,7.7-9.9,10.6c-0.2,0.2-0.5,0.3-0.9,0.2c1.1-1.3,2.2-2.6,3.1-4.1c2.7-4.6,3.4-9.4,0.9-14.4c-1.4-2.8-2.7-5.7-3.1-8.8
	c-0.8-6.1,1.7-10.8,7.2-13.5C171.6,34.5,173.1,33.9,174.8,33.7z"/>
<path class="st4" d="M156.6,36.9c-0.9,1.8-2,3.6-2.3,5.7c-0.5,3.8,1.1,6.9,3.4,9.7c1.6,2,3.4,3.7,5.2,5.5c3.1,3,3.8,6.5,2.2,10.4
	c-1.3,3.3-3.4,6.2-5.8,8.9c-0.1,0.1-0.3,0.2-0.6,0.4c0.6-1.2,1.1-2.2,1.3-3.2c0.6-2.8-0.5-5-2.3-7c-2.4-2.8-4.9-5.6-6.5-9
	c-3.6-7.6-2-15.3,4.4-20.8C155.9,37.2,156.1,36.8,156.6,36.9L156.6,36.9z"/>
<path class="st4" d="M164,56.7c-3.5-3.4-7-6.8-7.3-12.1c-0.2-2.6,0.7-5,2-7.2c1-1.7,2.1-3.4,3.5-4.8c3.9-3.9,6.4-8.5,6.6-14.1
	c1.6,6,1.5,11.8-2.8,16.9c-1.9,2.3-3.8,4.6-4.5,7.6c-0.9,3.6-0.3,7.1,1.1,10.5C163.1,54.6,163.6,55.7,164,56.7L164,56.7z"/>
<path class="st4" d="M164,56.7c0.1,0.1,0.1,0.1,0.2,0.2c0,0-0.1,0-0.1,0.1C164,56.9,164,56.8,164,56.7C164,56.7,164,56.7,164,56.7z"
	/>
<path class="st4" d="M156.5,36.9c0-0.1,0.1-0.1,0.1-0.2C156.8,36.8,156.7,36.8,156.5,36.9C156.6,36.9,156.5,36.9,156.5,36.9z"/>
<path class="st4" d="M44.9,50.1c-0.1,0-0.1,0.1-0.2,0.1c-0.1-0.1-0.1-0.2,0-0.3C44.8,50,44.9,50,44.9,50.1z"/>
</svg>
