<?xml version="1.0" encoding="utf-8"?>
<!-- Generator: Adobe Illustrator 23.0.1, SVG Export Plug-In . SVG Version: 6.00 Build 0)  -->
<svg version="1.1" id="Слой_1" xmlns="http://www.w3.org/2000/svg" xmlns:xlink="http://www.w3.org/1999/xlink" x="0px" y="0px"
	 viewBox="0 0 566 565" style="enable-background:new 0 0 566 565;" xml:space="preserve">
<style type="text/css">
	.st0{fill:#5F9898;}
</style>
<path class="st0" d="M560.7,80.8c-0.6-3.2-1.4-6.2-3.4-8.6c-0.6-0.3-0.8-0.6-1.4-1.2c-2.2-1.5-5.1-1.5-7.6-1.5H22.7
	c-2.5,0-5.3,0-7.6,1.5c-0.6,0.6-0.8,0.9-1.4,1.2c-2,2.4-2.8,5.3-3.4,8.6C4.7,108,5,136.3,11.1,163.2c0.6,2.7,1.4,5.6,3.4,7.4
	c2.2,2.1,5.6,2.1,8.7,2.1h111v-13h-99c-2.8,0-5.9,0-8.2-1.5c-1.7-1.5-2.5-3.5-3.1-5.6c-5.9-20.1-6.2-41-0.8-61.4
	c0.6-2.4,1.4-4.7,3.1-6.5c0.6-0.3,0.8-0.3,1.4-0.9c2.2-1.2,4.8-1.2,7.3-1.2h496.4c2.2,0,4.8,0,7,1.2c0.6,0.6,0.8,0.6,1.4,0.9
	c1.7,1.8,2.5,4.1,3.1,6.5c5.3,20.4,5.1,41.3-0.8,61.4c-0.6,2.1-1.1,4.1-3.1,5.6c-2.2,1.5-5.3,1.5-8.2,1.5h-94.5v13h111.3
	c3.1,0,6.5,0,8.7-2.1c2-1.8,2.8-4.7,3.4-7.4C566,136.3,566.3,108,560.7,80.8z M24.4,192.5c0.6-0.3,0.8-0.3,1.4-0.9
	c2.2-1.2,4.8-1.2,7.3-1.2h101.2v-13H20.7c-2.5,0-5.3,0-7.6,1.5c-0.6,0.6-0.8,0.9-1.4,1.2c-2,2.4-2.8,5.3-3.4,8.6
	C2.7,215.8,3,244.1,9.2,271c0.6,2.7,1.4,5.6,3.4,7.4c2.2,2.1,5.6,2.1,8.7,2.1h113v-13H33.4c-2.8,0-5.9,0-8.2-1.5
	c-1.7-1.5-2.5-3.5-3.1-5.6c-5.9-20.1-6.2-41-0.8-61.4C21.8,196.6,22.7,194.2,24.4,192.5z M558.7,188.6c-0.6-3.2-1.4-6.2-3.4-8.6
	c-0.6-0.3-0.8-0.6-1.4-1.2c-2.2-1.5-5.1-1.5-7.6-1.5H436.5v13h93c2.2,0,4.8,0,7,1.2c0.6,0.6,0.8,0.6,1.4,0.9
	c1.7,1.8,2.5,4.1,3.1,6.5c5.3,20.4,5.1,41.3-0.8,61.4c-0.6,2.1-1.1,4.1-3.1,5.6c-2.2,1.5-5.3,1.5-8.2,1.5h-92.5v13h109.4
	c3.1,0,6.5,0,8.7-2.1c2-1.8,2.8-4.7,3.4-7.4C564.1,244.1,564.4,215.8,558.7,188.6L558.7,188.6z M24.4,303.8c0.6-0.3,0.8-0.3,1.4-0.9
	c2.2-1.2,4.8-1.2,7.3-1.2h101.2v-13H20.7c-2.5,0-5.3,0-7.6,1.5c-0.6,0.6-0.8,0.9-1.4,1.2c-2,2.4-2.8,5.3-3.4,8.6
	c-5.6,27.2-5.3,55.5,0.8,82.4c0.6,2.7,1.4,5.6,3.4,7.4c2.2,2.1,5.6,2.1,8.7,2.1h113v-13H33.4c-2.8,0-5.9,0-8.2-1.5
	c-1.7-1.5-2.5-3.5-3.1-5.6c-5.9-20.1-6.2-41-0.8-61.4C21.8,307.9,22.7,305.6,24.4,303.8z M558.7,300c-0.6-3.2-1.4-6.2-3.4-8.6
	c-0.6-0.3-0.8-0.6-1.4-1.2c-2.2-1.5-5.1-1.5-7.6-1.5H436.5v13h93c2.2,0,4.8,0,7,1.2c0.6,0.6,0.8,0.6,1.4,0.9
	c1.7,1.8,2.5,4.1,3.1,6.5c5.3,20.4,5.1,41.3-0.8,61.4c-0.6,2.1-1.1,4.1-3.1,5.6c-2.2,1.5-5.3,1.5-8.2,1.5h-92.5v13h109.4
	c3.1,0,6.5,0,8.7-2.1c2-1.8,2.8-4.7,3.4-7.4C564.1,355.5,564.4,327.1,558.7,300L558.7,300z M560.7,411c-0.6-3.2-1.4-6.2-3.4-8.6
	c-0.6-0.3-0.8-0.6-1.4-1.2c-2.2-1.5-5.1-1.5-7.6-1.5H436.5v13h95c2.2,0,4.8,0,7,1.2c0.6,0.6,0.8,0.6,1.4,0.9
	c1.7,1.8,2.5,4.1,3.1,6.5c5.3,20.4,5.1,41.3-0.8,61.4c-0.6,2.1-1.1,4.1-3.1,5.6c-2.2,1.5-5.3,1.5-8.2,1.5c-82.6,0-413,0-495.6,0
	c-2.8,0-5.9,0-8.2-1.5c-1.7-1.5-2.5-3.5-3.1-5.6c-5.9-20.1-6.2-41-0.8-61.4c0.6-2.4,1.4-4.7,3.1-6.5c0.6-0.3,0.8-0.3,1.4-0.9
	c2.2-1.2,4.8-1.2,7.3-1.2h99.2v-13H22.7c-2.5,0-5.3,0-7.6,1.5c-0.6,0.6-0.8,0.9-1.4,1.2c-2,2.4-2.8,5.3-3.4,8.6
	c-5.6,27.2-5.3,55.5,0.8,82.4c0.6,2.7,1.4,5.6,3.4,7.4c2.2,2.1,5.6,2.1,8.7,2.1c87.4,0,437.1,0,524.6,0c3.1,0,6.5,0,8.7-2.1
	c2-1.8,2.8-4.7,3.4-7.4C566,466.5,566.3,438.2,560.7,411z M311.9,340.2c-0.1,21.4-21.2,34.8-39.7,25.4
	c-10.1-5.1-15.1-13.7-15.2-25.1c-0.1-14.6-0.1-196.4-0.1-196.4c0-14.5,7.1-25.1,19.7-28.9c16.9-5.2,34.5,6.8,35.3,24.5
	C312.4,150.6,312,307.2,311.9,340.2z M313.6,430c0,15.5-12.6,28.1-28.1,28.1c-15.5,0-28.1-12.6-28.1-28.1
	c0-15.5,12.6-28.1,28.1-28.1C301,401.9,313.6,414.5,313.6,430z"/>
</svg>
