<?xml version="1.0" encoding="utf-8"?>
<!-- Generator: Adobe Illustrator 24.1.3, SVG Export Plug-In . SVG Version: 6.00 Build 0)  -->
<svg version="1.1" id="Слой_1" xmlns="http://www.w3.org/2000/svg" xmlns:xlink="http://www.w3.org/1999/xlink" x="0px" y="0px"
	 viewBox="0 0 250 250" style="enable-background:new 0 0 250 250;" xml:space="preserve">
<style type="text/css">
	.st0{fill:#744479;}
	.st1{fill:#506887;}
	.st2{fill:#D45647;}
	.st3{fill:#77D15F;}
	.st4{fill:#EF8556;}
	.st5{fill-rule:evenodd;clip-rule:evenodd;fill:#EF8556;}
</style>
<g>
	<path class="st5" d="M166.5,160.3c-4.2,6.2-10,10-18.4,12c-4.4,1.1-14.7,2.4-21.6,7.1c-8.1,5.5-10.8,13.6-9.6,20.8
		c1.4,8.2,7.7,15.3,17.1,16.5c6.7,0.9,14.8-1.3,23.8-8.2c5.6-4.3,10.4-9.7,13.9-16.5c3.4-6.6,5.5-14.4,5.5-23.3
		c0-12.8-5.2-23.8-5.2-23.8S171.5,152.9,166.5,160.3z"/>
	<path class="st5" d="M113.6,218.8c-3.7-6.5-7.2-12.3-9.6-17.9c-2.6-6.1-3.9-11.9-2.9-18.2c0.9-5.5,3.4-11.3,8.3-17.9
		c10-13.5,1.5-21.1-0.3-23.3c-0.9-1.1-4.9-5.1-8.5-9.9c-4.6-6.1-6.5-10.2-7.8-13.1c-4.7,6.6-9.1,13.1-12.5,19.8
		c-4.9,9.5-8,19.4-7.6,30.4c0.3,7,1.4,13.5,3.8,18.9c3.3,7.6,8.4,14.8,17.2,21.6C98.9,213.3,107.9,217.2,113.6,218.8z"/>
	<path class="st5" d="M151.8,131c-2.9,8.7-8.3,15.3-17,22.6c-5.8,4.8-12.7,8.8-19.1,13.8c-9.6,7.4-11.3,15.7-9.8,24.2
		c1.6,9.3,8.9,19.4,8.9,19.4s-1.6-6.8-2-9.9c-0.5-4-0.6-7.8,0.3-11.4c2.2-8.7,9.9-16.2,26.9-19.9c8.6-1.9,15.9-3.8,21.5-10.6
		c4.5-5.5,5.7-10.9,5.7-15.5c0.1-15.2-14.1-30.8-14.1-30.8C154.7,119.8,153.5,125.6,151.8,131L151.8,131z M132.9,50.8L132.9,50.8
		c5.3-11,4.4-19.1,4.4-19.1s2.1,5.5,2.3,13.2c0.1,3.3-0.1,6.9-1,10.7c-1.4,5.6-3.3,9.6-8.9,15.9c-3.8,4.3-6.8,9.6-7.9,14.1
		c-1.7,6.5-1,13.2,0.6,18.3c1.4,4.2,1.9,5.3,2.5,6.8c1,2.3,2.9,6.1,2.9,6.1s-10-10.8-12.7-15.4c-2.7-4.6-4.3-9.7-3.7-15.5
		c0.7-6.5,4.1-14,11.9-22.6C127.6,58.6,130.8,55.1,132.9,50.8L132.9,50.8z M97.7,89L97.7,89c4.6-11.4,14.1-17.5,14.1-17.5
		c-11.4,16.1-4.9,27.5,3.6,36.9c5.9,6.6,12.3,11.7,14.9,17.2c2.4,5.2,0.9,12.4-2.3,18.6c-5.2,10.1-13.8,19.1-13.8,19.1
		c4-5.4,5-10.1,4.7-14c-0.5-6.1-5.5-11.1-5.5-11.1c-2.9-3.4-5.9-6.8-8.4-10.1c-3.9-5.2-6.3-10.3-7.8-14.9
		C94.1,103.6,95.1,95.5,97.7,89L97.7,89z M136.5,71.4L136.5,71.4c7.1-4.7,14.7-6,14.7-6c-6.4,4.8-10.3,10.8-9.8,20.5
		c0.3,6.3,2.4,14.2,6.8,24.4c11.1,25.5-27.2,49.6-27.2,49.6c4.9-5.1,8.5-9.9,10.6-14.4c2.9-6.1,3.6-11.1,3.6-15.6
		c0-5.3-2.8-11.2-3.9-13.6c-1.1-2.3-5.2-11.7-6.1-16.4c-0.8-4.5-0.8-8.4-0.1-11.8C126.6,80,131.4,74.8,136.5,71.4z"/>
</g>
<path class="st4" d="M222.6,1h-95V0.7c-20.3-0.1-40.6,0-60.9,0c-0.9,0-1.8,0.1-2.6,0.4c-0.9,0.3-1.7,0.7-2.4,1.4
	c-3.3,3-6.6,5.9-9.9,8.9c-3.7,3.3-7.4,6.7-11.2,10c-10.1,9-20.1,18.1-30.2,27.1v0c-1.7,1.5-3.4,3.1-5.1,4.6
	c-0.9,0.8-1.8,1.6-2.7,2.4c-1.5,1.3-2.5,2.6-2.5,4.4v163.1c0,14.9,12.1,27,27,27h195.4c14.9,0,27-12.1,27-27V28
	C249.7,13.1,237.6,1,222.6,1z M61.7,12.1c0,14.3,0,27.5,0,40.8c0,2.3-1.8,2.7-3.7,2.7c-14.2,0.1-28.4,0-42.6,0
	c-0.2-0.3-0.5-0.5-0.7-0.8C30.1,40.8,45.5,26.8,61.7,12.1z M239.4,212.6c0,14.9-12.1,27-27,27H37.6c-14.9,0-27-12.1-27-27V62.5
	c0.7-0.2,1.5-0.2,2.6-0.2c14.7,0.2,29.4,0.2,44.1,0c8.9-0.1,12.4-3.1,12.4-10.5c0-13.5,0.1-27.1-0.1-40.6H76h83.1h53.2
	c14.9,0,27,12.1,27,27V212.6z"/>
</svg>
