<?xml version="1.0" encoding="utf-8"?>
<!-- Generator: Adobe Illustrator 23.0.1, SVG Export Plug-In . SVG Version: 6.00 Build 0)  -->
<svg version="1.1" id="Слой_1" xmlns="http://www.w3.org/2000/svg" xmlns:xlink="http://www.w3.org/1999/xlink" x="0px" y="0px"
	 viewBox="0 0 566 565" style="enable-background:new 0 0 566 565;" xml:space="preserve">
<style type="text/css">
	.st0{fill:#5F9898;}
</style>
<path class="st0" d="M559.9,472.4c-7.6,19.4-21.9,26.7-42.5,25.7c-22.4-1.1-44.9-0.2-67.9-0.2c-0.4-7.8-0.7-14.2-1-21.4
	c-1.9-4.7-6.6-7.7-11.4-7.4c-4.3,0.3-8.1,3.2-9.7,7.4c-0.3,6.9-0.7,13.8-1,20.7H139.1c-0.4-6.6-0.8-13.4-1.2-20.8
	c-1.6-4.4-5.8-7.3-10.5-7.3s-8.8,2.9-10.5,7.3c-0.4,6.8-0.8,13.6-1.2,20.3c-2.9,0.4-6,1.1-9.1,1.1c-21.4,0.1-42.7,0.2-64.1,0
	C18,497.6,5.3,484.9,5.3,460.4c-0.1-71.5,0-143,0-214.4V119.1c0-30.3,11.4-41.9,41.3-41.9h205.8c29.3,0,39.6,9.9,41.4,39.4
	c0.1,1.2,0.5,2.3,1.1,4.9h14.3c69.4,0,138.9,0.5,208.3-0.3c20.6-0.2,34.8,6.4,42.4,25.8V472.4z M271.5,142.8v-24.5
	c-0.1-17.2-2.6-19.9-19.9-19.9H48.3c-18.7,0-20.9,2.3-20.9,21.5V455c0,3.3-1,7.2,0.4,9.7c2.3,4.2,6.1,10.5,9.5,10.7
	c18.6,1.1,37.4,0.5,56.3,0.5c0.4-7.9,0.7-14.3,1-20.6c2.3-2.3,13.8-13.4,32.1-13.6c19.2-0.3,31.3,11.5,33.5,13.6
	c0.4,6.8,0.7,13.6,1.1,20.3H404c0.5-7.4,1-14.1,1.5-20.6c3.9-2.8,17.1-11.7,35.8-10.6c14.9,0.8,25.3,7.6,29.5,10.6
	c0.3,7.1,0.7,14.2,1,21.3h45.8c18.2,0,20.3-2.2,20.3-20.7v-292c0-18.6-2.3-20.9-21.5-20.9H287.2
	C282.3,142.8,277.5,142.8,271.5,142.8L271.5,142.8z M294.2,264.5v-20.7h198.6v20.7H294.2z M492.4,375.7h-198V355h198V375.7z
	 M492.8,299.9v19.7H294.7v-19.7H492.8z M207.3,319.5c-5.8,8.5-13.7,13.7-25.3,16.5c-6.1,1.5-20.2,3.4-29.7,9.7
	c-11.1,7.6-14.9,18.6-13.2,28.6c1.9,11.2,10.6,21,23.5,22.7c9.2,1.2,20.4-1.8,32.7-11.2c7.6-5.8,14.4-13.4,19.1-22.6
	c4.7-9.1,7.5-19.7,7.5-32c0-17.6-7.1-32.7-7.1-32.7S214.2,309.3,207.3,319.5z M134.7,399.9c-5.1-9-9.9-16.9-13.1-24.6
	c-3.5-8.3-5.3-16.3-3.9-25c1.2-7.5,4.7-15.5,11.4-24.6c13.7-18.6,2-29-0.4-32.1c-1.2-1.5-6.7-7.1-11.7-13.5
	c-6.4-8.3-8.9-14.1-10.7-17.9c-6.4,9.1-12.4,18-17.2,27.2c-6.7,13.1-11,26.6-10.4,41.8c0.4,9.6,1.9,18.5,5.2,26
	c4.5,10.4,11.6,20.3,23.6,29.7C114.4,392.2,126.9,397.7,134.7,399.9z M187.1,279.2c-3.9,12-11.3,21-23.3,31.1
	c-7.9,6.6-17.4,12.1-26.3,19c-13.1,10.2-15.5,21.6-13.4,33.2c2.2,12.8,12.2,26.7,12.2,26.7s-2.2-9.3-2.7-13.6
	c-0.7-5.5-0.8-10.7,0.5-15.7c3-12,13.7-22.3,37-27.4c11.8-2.6,21.9-5.2,29.6-14.6c6.2-7.5,7.8-14.9,7.8-21.3
	c0.2-20.8-19.3-42.3-19.3-42.3C191.1,263.8,189.5,271.8,187.1,279.2L187.1,279.2z M161.2,169.1c7.3-15.1,6-26.2,6-26.2
	s2.9,7.6,3.2,18.1c0.1,4.5-0.1,9.5-1.4,14.7c-2,7.6-4.5,13.1-12.3,21.9c-5.3,5.9-9.3,13.2-10.9,19.3c-2.3,9-1.4,18.2,0.9,25.2
	c1.9,5.8,2.6,7.2,3.5,9.3c1.3,3.2,4,8.3,4,8.3s-13.8-14.8-17.5-21.1s-5.9-13.3-5.1-21.3c0.9-9,5.6-19.2,16.3-31
	C153.9,179.9,158.3,175,161.2,169.1z M112.8,221.6c6.3-15.6,19.3-24.1,19.3-24.1c-15.6,22.1-6.7,37.7,4.9,50.7
	c8.1,9,16.9,16,20.4,23.6c3.3,7.1,1.3,17-3.2,25.6c-7.1,13.8-18.9,26.2-18.9,26.2c5.4-7.4,6.9-13.9,6.5-19.2
	c-0.6-8.4-7.6-15.3-7.6-15.3c-4-4.7-8.1-9.4-11.5-13.8c-5.4-7.1-8.6-14.1-10.7-20.5C107.8,241.6,109.2,230.4,112.8,221.6
	L112.8,221.6z M166.1,197.3c9.7-6.5,20.2-8.2,20.2-8.2c-8.8,6.6-14.1,14.9-13.5,28.1c0.4,8.7,3.3,19.6,9.4,33.5
	c15.3,35-37.3,68.1-37.3,68.1c6.7-7,11.6-13.6,14.5-19.8c3.9-8.4,4.9-15.3,4.9-21.5c0-7.3-3.9-15.4-5.4-18.6s-7.1-16-8.3-22.6
	c-1.1-6.2-1-11.6-0.1-16.3C152.5,209.2,159.1,202,166.1,197.3L166.1,197.3z"/>
</svg>
