<svg id="Слой_1" data-name="Слой 1" xmlns="http://www.w3.org/2000/svg" viewBox="0 0 250 250"><defs><style>.cls-1{fill:#5f9898;}.cls-2{fill:#578685;}</style></defs><title>Создать заявку цвет</title><path class="cls-1" d="M215.60785,117.54151c.02008,2.89712.02811,5.79667-.004,8.69621-.02,2.21817-1.26008,2.93341-4.97222,2.93341q-43.63065.00358-87.2614.00239H36.30563c-3.96491,0-5.14083-.6838-5.16885-3.07835q-.04821-4.28769,0-8.5754c.03194-2.36795,1.26-3.07351,5.20491-3.07351q87.06261-.00363,174.12542,0C214.39989,114.44626,215.59188,115.15182,215.60785,117.54151Z"/><path class="cls-1" d="M126.283,150.28225q.01556,4.34568-.00207,8.69621c-.01031,2.21817-.65,2.93341-2.5649,2.93341q-22.50669.00359-45.01345.00239H33.79069c-2.04529,0-2.65188-.6838-2.66634-3.07835q-.02487-4.28769,0-8.5754c.01648-2.36794.65-3.07351,2.68493-3.07351q44.91092-.00363,89.82193,0C125.65992,147.187,126.2748,147.89257,126.283,150.28225Z"/><path class="cls-1" d="M126.283,190.21984q.01556,4.3457-.00207,8.69622c-.01031,2.21816-.65,2.9334-2.5649,2.9334q-22.50669.00359-45.01345.00239H33.79069c-2.04529,0-2.65188-.6838-2.66634-3.07835q-.02487-4.28768,0-8.5754c.01648-2.36794.65-3.0735,2.68493-3.0735q44.91092-.00363,89.82193,0C125.65992,187.1246,126.2748,187.83016,126.283,190.21984Z"/><path class="cls-2" d="M125.62709,97.13866c2.7221.35227,6.05979-.5218,9.70756-3.3415a20.0868,20.0868,0,0,0,5.68516-6.72368,20.49455,20.49455,0,0,0,2.22979-9.521A25.54445,25.54445,0,0,0,141.14,67.83754,13.40166,13.40166,0,0,1,138.939,74.106a11.86334,11.86334,0,0,1-7.52378,4.91453c-1.81067.445-6.0049.9981-8.83451,2.88909a8.47041,8.47041,0,0,0-3.92913,8.48986A8.077,8.077,0,0,0,125.62709,97.13866Z"/><path class="cls-2" d="M103.81721,65.15025a24.58131,24.58131,0,0,0-3.0853,12.42027,21.26265,21.26265,0,0,0,1.54481,7.72228,22.269,22.269,0,0,0,7.017,8.833,27.86548,27.86548,0,0,0,8.06439,3.87144,73.09214,73.09214,0,0,1-3.89863-7.305,13.23621,13.23621,0,0,1-1.16662-7.42949,16.90686,16.90686,0,0,1,3.3992-7.3235c4.0646-5.52046.59475-8.6266-.12225-9.52736-.35888-.4514-1.99773-2.10017-3.463-4.0214a25.14067,25.14067,0,0,1-3.18393-5.33161A68.135,68.135,0,0,0,103.81721,65.15025Z"/><path class="cls-2" d="M132.68168,35.3652a16.80254,16.80254,0,0,0-5.9899,2.43236,10.435,10.435,0,0,0-4.66646,6.75341,13.11449,13.11449,0,0,0,.03736,4.83446,38.62578,38.62578,0,0,0,2.47,6.70995,14.24957,14.24957,0,0,1,1.60353,5.53672,14.38082,14.38082,0,0,1-1.45408,6.37979A22.87391,22.87391,0,0,1,120.36,73.907s15.636-9.83846,11.08972-20.23329a29.03687,29.03687,0,0,1-2.78285-9.95538A9.10872,9.10872,0,0,1,132.68168,35.3652Z"/><path class="cls-2" d="M128.13544,77.95151c3.5034-.762,6.49874-1.55879,8.79-4.334a9.70367,9.70367,0,0,0,2.33247-6.3381c.045-6.195-5.74438-12.58141-5.74438-12.58141a13.6936,13.6936,0,0,1-.58483,7.44118c-1.17272,3.56949-3.36921,6.24635-6.927,9.23635-2.34976,1.9741-5.17175,3.60278-7.80744,5.64728-3.906,3.03905-4.59224,6.42046-3.99013,9.85854.66515,3.79494,3.6216,7.92181,3.6216,7.92181s-.6494-2.76582-.81765-4.04554a12.40106,12.40106,0,0,1,.13826-4.66875C118.0418,82.52648,121.20691,79.45744,128.13544,77.95151Z"/><path class="cls-2" d="M121.29256,34.53078c-3.18621,3.51738-4.58843,6.55185-4.85861,9.218a10.2258,10.2258,0,0,0,1.50745,6.31955,61.05233,61.05233,0,0,0,5.18954,6.27965s-.78207-1.51177-1.18009-2.47048a23.82261,23.82261,0,0,1-1.03674-2.77446,13.91971,13.91971,0,0,1-.25976-7.48541,14.8465,14.8465,0,0,1,3.232-5.739,13.95474,13.95474,0,0,0,3.6521-6.50687,15.5229,15.5229,0,0,0,.42191-4.36629,18.13453,18.13453,0,0,0-.94143-5.386,15.52878,15.52878,0,0,1-1.78957,7.779A22.13742,22.13742,0,0,1,121.29256,34.53078Z"/><path class="cls-2" d="M110.86063,45.00846a13.97638,13.97638,0,0,0-.20283,9.86032,20.776,20.776,0,0,0,3.17172,6.08979c.99633,1.32648,2.2275,2.72541,3.41369,4.11238a8.28954,8.28954,0,0,1,2.24453,4.5465,8.49988,8.49988,0,0,1-1.93242,5.70956,38.82183,38.82183,0,0,0,5.63052-7.77643c1.32191-2.56579,1.91589-5.49783.94218-7.60816-1.03292-2.25724-3.65971-4.34164-6.06818-7.01952-3.45842-3.846-6.09283-8.50385-1.45789-15.06307A16.84163,16.84163,0,0,0,110.86063,45.00846Z"/><path class="cls-1" d="M249.99286,124.9239q-.00009,52.34289.021,104.68576a18.1073,18.1073,0,0,1-6.07319,14.04859c-4.61633,4.22391-10.38019,6.30576-17.19045,6.30471q-63.94549-.00986-127.891-.0033-37.82307,0-75.64616-.00228c-11.23059-.00325-20.44754-6.36291-22.7159-15.70688a16.61418,16.61418,0,0,1-.42306-3.89906q-.02932-105.379-.008-210.75811C.06889,8.86613,9.7418.44668,22.34027.08485q.95156-.02733,1.90407-.02869Q125.06054.05424,225.87673.037c8.57254-.00412,15.41453,2.69687,20.29289,8.72807a17.67025,17.67025,0,0,1,3.839,11.58848q-.04923,35.35745-.01573,70.715Q249.993,107.99624,249.99286,124.9239Zm-232.61875.11083q0,48.70158.02049,97.40317a15.6463,15.6463,0,0,0,.49957,4.34878c1.72524,5.91872,7.84681,9.74128,15.42447,9.74165q85.57539.00432,171.15077.00158,6.32631,0,12.65265-.00206a16.97051,16.97051,0,0,0,9.16528-2.46506,12.64168,12.64168,0,0,0,6.42173-11.38674q-.02435-97.692-.01194-195.384c0-.42354,0-.84775-.026-1.2705a11.34015,11.34015,0,0,0-2.20064-6.23366c-3.26685-4.38533-8.03112-6.29733-14.08737-6.295q-91.35748.03451-182.715.015c-.54406,0-1.08867.00431-1.63209.02462a16.37857,16.37857,0,0,0-9.20477,3.01641,12.47428,12.47428,0,0,0-5.47592,10.73613Q17.40692,76.15979,17.37411,125.03473Z"/><path class="cls-2" d="M195.20321,147.47732c-2.60769,3.3814-5.1457,6.70514-7.74534,9.98a1.50251,1.50251,0,0,1-1.26485.22063c-9.81512-2.51269-18.68218-.57707-26.15454,6.21711-8.012,7.28479-10.90587,16.5562-8.42035,27.07875,2.43871,10.32436,9.01478,17.25693,19.21614,20.30323a27.78374,27.78374,0,0,0,35.48365-22.52c.24425-1.58482.18545-3.2149.31-4.82063a1.87386,1.87386,0,0,1,.36969-1.12025c3.39263-3.34246,6.81842-6.65128,10.24007-9.96422a1.06146,1.06146,0,0,1,.301-.14254c5.16939,15.39761-.08824,35.792-17.658,46.64119a40.69274,40.69274,0,1,1-4.6775-71.87326Z"/><path class="cls-2" d="M177.6202,181.11509c6.5619-7.76,13.00827-15.38333,19.45457-23.00673,1.41339-1.67147,2.81409-3.35386,4.24232-5.01255a8.038,8.038,0,1,1,12.32455,10.31772q-14.79453,17.58973-29.67408,35.10787a7.92706,7.92706,0,0,1-12.45963.09452q-6.65467-7.49574-13.16655-15.1179a8.0336,8.0336,0,1,1,12.077-10.59682c2.06887,2.27028,4.04893,4.62148,6.0698,6.93554C176.83792,180.23716,177.193,180.63293,177.6202,181.11509Z"/></svg>