<svg id="Слой_1" data-name="Слой 1" xmlns="http://www.w3.org/2000/svg" viewBox="0 0 180 180"><defs><style>.cls-1{fill:#6aa7c8;}</style></defs><title>сотрудница</title><path class="cls-1" d="M80.32391,100.9062c4.00849,1.99266,8.24805,3.49216,12.85315,2.64457a25.53142,25.53142,0,0,0,13.53438-6.65357,44.11423,44.11423,0,0,0,4.72806-5.43011,161.36334,161.36334,0,0,1,21.443,4.419c0-.58113.01222-1.065-.0024-1.548-.23442-7.92269-.32359-15.853-.74426-23.76583-.5573-10.45814-1.65345-20.8692-4.31411-31.038-1.52377-5.82092-3.49985-11.471-7.2533-16.32107-4.00177-5.16986-9.36145-7.59872-15.79234-7.81668a4.23943,4.23943,0,0,1-3.24169-1.30861c-2.12038-2.18947-4.9366-3.07118-7.87915-3.57054-.37345-.06344-.73875-.17115-1.10765-.25856a18.94265,18.94265,0,0,0-6.64973,0c-1.43053.14955-3.35052.5117-5.62023.9756-9.24735,1.89-16.16459,7.06862-21.08657,15.03305-3.9397,6.375-6.19646,13.38524-7.81276,20.64278a144.99327,144.99327,0,0,0-3.3136,24.50176c-.3768,7.65793-.5585,15.32545-.8224,22.98874-.01558.46046-.00216.92175-.00216,1.46228,7.55-1.64584,15.00517-3.418,22.63743-4.36513A27.662,27.662,0,0,0,80.32391,100.9062Z"/><path class="cls-1" d="M149.43573,119.41731c-2.08155-3.33829-5.22328-5.027-8.91489-6.16578a111.72864,111.72864,0,0,1-13.706-4.94835c-4.79111-2.15993-9.34683-4.909-14.33425-7.57953-1.53168,4.79111-3.06335,9.58245-4.55572,14.37356a59.99042,59.99042,0,0,0-10.25-1.885,6.90232,6.90232,0,0,0-1.571-1.64937,9.78248,9.78248,0,0,0-6.03779-1.64913v-.00047l-.005.00023-.005-.00023v.00047a9.7825,9.7825,0,0,0-6.03779,1.64913,6.90232,6.90232,0,0,0-1.571,1.64937,59.99042,59.99042,0,0,0-10.25,1.885c-1.49237-4.79111-3.024-9.58245-4.55572-14.37356-4.98742,2.67049-9.54314,5.4196-14.33425,7.57953a111.72864,111.72864,0,0,1-13.706,4.94835c-3.6916,1.13881-6.83334,2.82749-8.91489,6.16578a22.99175,22.99175,0,0,0-3.41667,12.29225c-.03931,5.45867.62825,10.91758,1.13881,16.4158a3.28333,3.28333,0,0,0,1.53168,2.19923c4.59479,2.12062,9.18982,4.31986,13.90231,6.12648,3.96654,1.49236,8.1294,2.59186,12.25294,3.6916,3.299.86388,6.637,1.57075,9.97532,2.12062,4.35917.66756,8.679,1.41375,13.07775,1.64937,3.64894.19631,7.25857.39191,10.90751.47077v.00048l.005-.00024.005.00024v-.00048c3.64894-.07886,7.25857-.27446,10.90751-.47077,4.39872-.23562,8.71858-.98181,13.07775-1.64937,3.33829-.54987,6.67634-1.25674,9.97532-2.12062,4.12354-1.09974,8.2864-2.19924,12.25294-3.6916,4.71249-1.80662,9.30752-4.00586,13.90231-6.12648a3.2833,3.2833,0,0,0,1.53168-2.19923c.51056-5.49822,1.17812-10.95713,1.13881-16.4158A22.99175,22.99175,0,0,0,149.43573,119.41731Z"/></svg>