<svg id="Слой_1" data-name="Слой 1" xmlns="http://www.w3.org/2000/svg" viewBox="0 0 180 180"><defs><style>.cls-1{fill:#6aa7c8;}</style></defs><title>сотрудник</title><path class="cls-1" d="M89.29559,10.12628c1.671.00455,3.34337.08979,5.005.23408,6.43431.55873,13.13826,2.17059,17.79938,6.64121,3.81732,3.66131,5.81277,8.79833,8.99608,13.02251,2.11668,2.80878,4.75991,5.21345,6.65678,8.17511,4.33439,6.76749,4.15866,15.69479,1.285,23.2s-8.12393,13.83994-13.598,19.72382c-5.66859,6.09293-11.672,11.86376-17.67173,17.6309-2.061,1.98107-4.36385,4.0755-7.21389,4.29816-3.93454.30738-7.09689-2.98421-9.79381-5.86549-6.75408-7.2158-14.4625-13.53468-20.75526-21.15613A54.2185,54.2185,0,0,1,52.22167,63.7761a34.05265,34.05265,0,0,1-3.17123-13.96026,20.27251,20.27251,0,0,1,.38763-5.72565,18.70092,18.70092,0,0,1,2.71052-5.49813c2.14-3.07723,4.86728-5.71118,7.003-8.79133,2.30853-3.32932,3.89949-7.142,6.46185-10.28016a25.48236,25.48236,0,0,1,13.12469-8.11112A39.70141,39.70141,0,0,1,89.29559,10.12628Zm4.27276,64.4789c2.0292.34047,3.49087.68651,4.97166.819,22.04476,1.973,31.54126-13.73472,29.39932-30.072-.8828-6.73334-4.35108-8.98726-10.76155-7.71232a12.56363,12.56363,0,0,0-2.04139.64685c-4.74578,1.82991-7.47461,5.58872-9.19111,10.09922C102.55435,57.29656,99.53608,66.36391,93.56835,74.60518Zm-7.212.05724a56.16107,56.16107,0,0,1-3.23063-5.49768C80.146,62.41214,77.28237,55.608,74.40746,48.80949c-2.01475-4.76437-4.76558-8.79694-9.87505-10.73286-6.37447-2.41521-10.98219-.08589-12.183,6.5994-1.73612,9.66579.52878,18.42574,7.99456,24.96C67.73439,76.10439,76.74413,76.53841,86.35632,74.66242ZM99.17857,58.60418a11.55945,11.55945,0,0,0,1.5567-2.70816,73.26988,73.26988,0,0,0,1.96786-8.8334c.82213-5.88549,3.76879-9.85487,9.558-11.56133a4.78093,4.78093,0,0,0,.86948-.58218c-7.25085.96564-11.075,4.97757-11.99779,11.95735C100.61567,50.78859,99.84331,54.667,99.17857,58.60418ZM67.0694,35.16309c.5078.20691,1.0068.4396,1.52479.61668,4.59767,1.57178,7.51381,4.65445,8.44476,9.47352.43745,2.26446.611,4.59065,1.19212,6.81358.58082,2.22181,1.52112,4.34964,2.30381,6.51866-.38726-4.37267-.99541-8.57641-1.77225-12.74875C77.5325,39.23,73.91861,35.85871,67.0694,35.16309ZM97.23187,94.76227c-2.92846-1.966-12.15314-1.88212-14.87217,0Zm12.18322-70.41559a12.39251,12.39251,0,0,0,12.11038,8.57706C116.5,31.46608,112.051,29.19135,109.41509,24.34668Zm-30.85958,68.12c-1.18578-6.08647,2.95233-9.73114,6.386-13.69315C78.93039,82.91954,76.69551,87.761,78.55551,92.46666ZM94.77128,78.3123c1.91461,2.37364,4.03886,4.30066,5.23591,6.69186,1.17466,2.34644,1.40659,5.16481,1.88929,7.117C103.74423,88.33638,101.14761,82.52533,94.77128,78.3123ZM58.75517,32.99543c5.39909-.689,9.79367-2.80795,11.83514-8.27672C67.92308,29.29666,63.56263,31.46423,58.75517,32.99543Zm27.16717,18.934.00012.68445h8.32825l-.00013-.68445ZM108.5292,83.69882l-8.79463-2.19315,1.87075,2.62331C103.7552,82.65068,105.96787,84.53964,108.5292,83.69882ZM79.9707,81.57077,71.84448,83.6845C74.70513,83.541,77.749,84.08061,79.9707,81.57077Zm22.79064-48.16931.52451.49006a13.47313,13.47313,0,0,0-6.34918,6.42081l-.45093-.4687Zm-24.9631,1.15089,6.037,7.47964A12.3824,12.3824,0,0,0,77.79824,34.55235Z"/><path class="cls-1" d="M67.6486,100.16324q6.601,20.72455,13.2059,41.46157l.67254-.03007c1.11295-2.93522,1.933-5.06719,2.53541-6.62148.50645-1.30705.91383-2.65108,1.42077-3.958a7.84579,7.84579,0,0,0,.83549-2.84191,5.8615,5.8615,0,0,0-1.31929-3.38548c-1.74933-2.70309-3.30653-5.45345-3.35571-8.88048a5.58184,5.58184,0,0,1,2.47683-4.8561c3.21011-2.43208,9.68024-2.08125,12.591.64525,1.70328,1.59541,2.35317,5.30454,1.19707,7.77989a38.97059,38.97059,0,0,1-3.13683,5.74239c-1.20768,1.7423-1.10813,3.15922-.28131,5.07072,1.47356,3.40651,2.49683,7.00755,3.72139,10.52269a12.22325,12.22325,0,0,0,.83453,1.38175c4.56941-14.35286,8.96768-28.16751,13.41537-42.13761,3.03631,1.70742,5.82265,3.55841,8.83438,4.90548,5.43046,2.429,10.92914,4.742,16.52449,6.75484,10.47162,3.76707,12.07391,7.74582,12.71535,8.82782,1.64375,2.77272,1.98508,5.40349,2.37848,8.43734.50235,3.87331.0499,7.346-.855,14.29124a26.64208,26.64208,0,0,1-.733,3.66441,13.97557,13.97557,0,0,1-1.00761,2.901c-1.15971,2.08868-8.4164,4.66129-15.6174,7.09021a103.51625,103.51625,0,0,1-14.55266,3.90062,175.42321,175.42321,0,0,1-20.882,3.17124,160.79152,160.79152,0,0,1-20.05641-.32762,126.81721,126.81721,0,0,1-13.11767-1.64848c-3.38006-.54165-6.74565-1.25712-10.05556-2.13107a123.405,123.405,0,0,1-12.31183-3.72024c-4.75455-1.804-9.36784-3.99357-13.9739-6.16167a3.221,3.221,0,0,1-1.5601-2.21321c-.511-5.49208-1.16742-11.0029-1.13054-16.50336a23.10846,23.10846,0,0,1,3.42152-12.34413c2.12272-3.35505,5.27426-5.05119,8.9836-6.19611a118.34188,118.34188,0,0,0,13.76827-4.96037C58.06719,105.61594,62.63516,102.84991,67.6486,100.16324Z"/></svg>