<?xml version="1.0" encoding="utf-8"?>
<!-- Generator: Adobe Illustrator 23.0.1, SVG Export Plug-In . SVG Version: 6.00 Build 0)  -->
<svg version="1.1" id="Слой_1" xmlns="http://www.w3.org/2000/svg" xmlns:xlink="http://www.w3.org/1999/xlink" x="0px" y="0px"
	 viewBox="0 0 180 180" style="enable-background:new 0 0 180 180;" xml:space="preserve">
<style type="text/css">
	.st0{fill:#201600;}
	.st1{fill:#638F56;}
	.st2{fill:#5F9898;}
	.st3{fill-rule:evenodd;clip-rule:evenodd;fill:#578685;}
	.st4{opacity:0.47;fill:#5F9898;}
	.st5{fill:#FFFFFF;}
</style>
<g>
	<path class="st2" d="M89.3,10.1c1.7,0,3.3,0.1,5,0.2c6.4,0.6,13.1,2.2,17.8,6.6c3.8,3.7,5.8,8.8,9,13c2.1,2.8,4.8,5.2,6.7,8.2
		c4.3,6.8,4.2,15.7,1.3,23.2c-2.9,7.5-8.1,13.8-13.6,19.7c-5.7,6.1-11.7,11.9-17.7,17.6c-2.1,2-4.4,4.1-7.2,4.3
		c-3.9,0.3-7.1-3-9.8-5.9C74,90,66.3,83.7,60,76c-3.1-3.7-5.8-7.8-7.8-12.3c-2-4.4-3.2-9.1-3.2-14c0-2-0.2-3.8,0.4-5.7
		c0.6-2,1.5-3.8,2.7-5.5c2.1-3.1,4.9-5.7,7-8.8c2.3-3.3,3.9-7.1,6.5-10.3c3.3-4,8.1-6.7,13.1-8.1C82.2,10.5,85.7,10.1,89.3,10.1z
		 M93.6,74.6c2,0.3,3.5,0.7,5,0.8c22,2,31.5-13.7,29.4-30.1c-0.9-6.7-4.4-9-10.8-7.7c-0.7,0.1-1.4,0.4-2,0.6
		c-4.7,1.8-7.5,5.6-9.2,10.1C102.6,57.3,99.5,66.4,93.6,74.6z M86.4,74.7c-1.2-2.1-2.4-3.7-3.2-5.5c-3-6.8-5.8-13.6-8.7-20.4
		c-2-4.8-4.8-8.8-9.9-10.7c-6.4-2.4-11-0.1-12.2,6.6c-1.7,9.7,0.5,18.4,8,25C67.7,76.1,76.7,76.5,86.4,74.7z M99.2,58.6
		c0.5-0.8,1.3-1.7,1.6-2.7c0.8-2.9,1.6-5.9,2-8.8c0.8-5.9,3.8-9.9,9.6-11.6c0.2-0.1,0.4-0.3,0.9-0.6c-7.3,1-11.1,5-12,12
		C100.6,50.8,99.8,54.7,99.2,58.6z M67.1,35.2c0.5,0.2,1,0.4,1.5,0.6c4.6,1.6,7.5,4.7,8.4,9.5c0.4,2.3,0.6,4.6,1.2,6.8
		c0.6,2.2,1.5,4.3,2.3,6.5c-0.4-4.4-1-8.6-1.8-12.7C77.5,39.2,73.9,35.9,67.1,35.2z M97.2,94.8c-2.9-2-12.2-1.9-14.9,0
		C87.7,94.8,92.5,94.8,97.2,94.8z M109.4,24.3c1.5,5.1,6.6,8.7,12.1,8.6C116.5,31.5,112.1,29.2,109.4,24.3z M78.6,92.5
		c-1.2-6.1,3-9.7,6.4-13.7C78.9,82.9,76.7,87.8,78.6,92.5z M94.8,78.3c1.9,2.4,4,4.3,5.2,6.7c1.2,2.3,1.4,5.2,1.9,7.1
		C103.7,88.3,101.1,82.5,94.8,78.3z M58.8,33c5.4-0.7,9.8-2.8,11.8-8.3C67.9,29.3,63.6,31.5,58.8,33z M85.9,51.9c0,0.2,0,0.5,0,0.7
		c2.8,0,5.6,0,8.3,0c0-0.2,0-0.5,0-0.7C91.5,51.9,88.7,51.9,85.9,51.9z M108.5,83.7c-3.1-0.8-5.7-1.4-8.8-2.2
		c0.9,1.2,1.5,2.1,1.9,2.6C103.8,82.7,106,84.5,108.5,83.7z M80,81.6c-2.7,0.7-5.4,1.4-8.1,2.1C74.7,83.5,77.7,84.1,80,81.6z
		 M102.8,33.4c0.2,0.2,0.3,0.3,0.5,0.5c-2.8,1.5-5,3.5-6.3,6.4c-0.2-0.2-0.3-0.3-0.5-0.5C98.6,37.7,100.7,35.5,102.8,33.4z
		 M77.8,34.6c2.2,2.8,4.1,5.1,6,7.5C82.9,38.9,81.1,36.5,77.8,34.6z"/>
	<path class="st2" d="M67.6,100.2c4.4,13.8,8.8,27.6,13.2,41.5c0.2,0,0.4,0,0.7,0c1.1-2.9,1.9-5.1,2.5-6.6c0.5-1.3,0.9-2.7,1.4-4
		c0.6-1.5,0.8-2,0.8-2.8c0-1.3-0.6-2.2-1.3-3.4c-1.7-2.7-3.3-5.5-3.4-8.9c0-2.2,0.9-3.7,2.5-4.9c3.2-2.4,9.7-2.1,12.6,0.6
		c1.7,1.6,2.4,5.3,1.2,7.8c-0.9,2-1.9,4-3.1,5.7c-1.2,1.7-1.1,3.2-0.3,5.1c1.5,3.4,2.5,7,3.7,10.5c0.1,0.3,0.3,0.5,0.8,1.4
		c4.6-14.4,9-28.2,13.4-42.1c3,1.7,5.8,3.6,8.8,4.9c5.4,2.4,10.9,4.7,16.5,6.8c10.5,3.8,12.1,7.7,12.7,8.8c1.6,2.8,2,5.4,2.4,8.4
		c0.5,3.9,0,7.3-0.9,14.3c-0.1,0.6-0.3,1.9-0.7,3.7c-0.3,1.1-0.6,2.1-1,2.9c-1.2,2.1-8.4,4.7-15.6,7.1c-2.8,0.9-7.4,2.5-14.6,3.9
		c-6.9,1.3-13.9,2.7-20.9,3.2c-6.6,0.5-13.4,0-20.1-0.3c-4.4-0.2-8.8-1-13.1-1.6c-3.4-0.5-6.7-1.3-10.1-2.1
		c-4.1-1.1-8.3-2.2-12.3-3.7c-4.8-1.8-9.4-4-14-6.2c-0.7-0.3-1.5-1.4-1.6-2.2c-0.5-5.5-1.2-11-1.1-16.5c0-4.3,1-8.6,3.4-12.3
		c2.1-3.4,5.3-5.1,9-6.2c4.7-1.4,9.3-3,13.8-5C58.1,105.6,62.6,102.8,67.6,100.2z"/>
</g>
</svg>
