<?xml version="1.0" encoding="utf-8"?>
<svg version="1.1" id="Слой_1" xmlns="http://www.w3.org/2000/svg" xmlns:xlink="http://www.w3.org/1999/xlink" x="0px" y="0px"
	 viewBox="0 0 40 40" style="enable-background:new 0 0 40 40;" xml:space="preserve">
<style type="text/css">
	.st0{fill:#201600;}
</style>
<g>
	<path class="st0" d="M20.5,0.3c2.4,0.1,4.4,0.4,6,2c0.6,0.6,0.9,1.3,1.4,2c0.4,0.6,0.8,1.4,1.3,1.9c2.1,1.9,2.4,4.3,1.5,6.7
		c-0.9,2.5-2.4,4.7-4.5,6.3c-0.5,0.4-0.8,1-1.3,1.4c-2.4,2.4-1,0.9-2.6,2.5c-0.1,0.1-0.6,0.6-1.1,0.7c-0.1,0-0.4,0-0.7,0
		c-0.1,0-0.2,0-0.3-0.1c-0.1,0-0.1-0.1-0.3-0.2c-0.2-0.1-0.2-0.1-0.3-0.2c0,0-0.2-0.1-0.5-0.3c-0.5-0.4-2.5-2.5-3-3.1
		c-0.4-0.4-0.7-0.7-1.1-1c-2.3-2-3.9-4.3-4.5-7.3c-0.4-2.1,0-3.9,1.7-5.4c0.5-0.5,1-1.1,1.3-1.8c1-2.5,3-3.7,5.6-4.1
		C19.6,0.4,20.2,0.3,20.5,0.3z M21.6,16.7c0.5,0.1,0.9,0.2,1.3,0.2c5.6,0.5,8-3.5,7.4-7.6c-0.2-1.7-1.1-2.3-2.7-2
		c-0.2,0-0.3,0.1-0.5,0.2c-1.2,0.5-1.9,1.4-2.3,2.6C23.8,12.3,23.1,14.6,21.6,16.7z M19.7,16.7c-0.3-0.5-0.6-0.9-0.8-1.4
		c-0.8-1.7-1.5-3.4-2.2-5.2c-0.5-1.2-1.2-2.2-2.5-2.7c-1.6-0.6-2.8,0-3.1,1.7c-0.4,2.4,0.1,4.7,2,6.3C15,17,17.3,17.2,19.7,16.7z
		 M23,12.6c0.1-0.2,0.3-0.4,0.4-0.7c0.2-0.7,0.4-1.5,0.5-2.2c0.2-1.5,1-2.5,2.4-2.9c0.1,0,0.1-0.1,0.2-0.1c-1.8,0.2-2.8,1.3-3,3
		C23.3,10.6,23.2,11.6,23,12.6z M14.9,6.7c0.1,0.1,0.3,0.1,0.4,0.2c1.2,0.4,1.9,1.2,2.1,2.4c0.1,0.6,0.2,1.2,0.3,1.7
		c0.1,0.6,0.4,1.1,0.6,1.7c-0.1-1.1-0.3-2.2-0.4-3.2C17.5,7.7,16.6,6.9,14.9,6.7z M22.5,21.8c-0.7-0.5-3.1-0.5-3.8,0
		C20.1,21.8,21.3,21.8,22.5,21.8z M25.6,3.9c0.4,1.3,1.7,2.2,3.1,2.2C27.4,5.7,26.2,5.2,25.6,3.9z M17.8,21.2
		c-0.3-1.5,0.7-2.5,1.6-3.5C17.9,18.8,17.3,20,17.8,21.2z M21.9,17.6c0.5,0.6,1,1.1,1.3,1.7c0.3,0.6,0.4,1.3,0.5,1.8
		C24.1,20.1,23.5,18.7,21.9,17.6z M12.8,6.1c1.4-0.2,2.5-0.7,3-2.1C15.1,5.2,14,5.7,12.8,6.1z M19.6,10.9c0,0.1,0,0.1,0,0.2
		c0.7,0,1.4,0,2.1,0c0-0.1,0-0.1,0-0.2C21,10.9,20.3,10.9,19.6,10.9z M25.4,19c-0.8-0.2-1.5-0.4-2.2-0.6c0.2,0.3,0.4,0.5,0.5,0.7
		C24.1,18.7,24.7,19.2,25.4,19z M18.1,18.4c-0.7,0.2-1.4,0.4-2.1,0.5C16.8,18.9,17.6,19.1,18.1,18.4z M23.9,6.2c0,0,0.1,0.1,0.1,0.1
		c-0.7,0.4-1.3,0.9-1.6,1.6c0,0-0.1-0.1-0.1-0.1C22.8,7.3,23.4,6.8,23.9,6.2z M17.6,6.5c0.6,0.7,1,1.3,1.5,1.9
		C18.9,7.6,18.4,7,17.6,6.5z"/>
	<path class="st0" d="M15,23.4c1.1,3.5,2.2,7,3.4,10.5c0.1,0,0.1,0,0.2,0c0.2-0.6,0.4-1.1,0.6-1.7c0.1-0.4,0.2-0.9,0.4-1.2
		c0.3-0.5,0.1-0.9-0.2-1.4c-0.4-0.7-0.8-1.4-0.9-2.3c0-0.6,0.2-0.9,0.6-1.2c0.8-0.6,2.5-0.5,3.2,0.2c0.4,0.4,0.6,1.3,0.3,2
		c-0.2,0.5-0.5,1-0.8,1.5c-0.3,0.4-0.3,0.8-0.1,1.3c0.4,0.9,0.6,1.8,0.9,2.7c0,0.1,0.1,0.1,0.2,0.4c1.2-3.6,2.3-7.1,3.4-10.7
		c0.8,0.4,1.5,0.9,2.2,1.2c1.4,0.6,2.8,1.2,4.2,1.7c1.3,0.5,2.6,0.9,3.2,2.2c0.6,1.4,0.8,3,0.6,4.5c-0.1,0.6-0.2,1.3-0.2,1.9
		c0.1,0.9-0.5,1.1-1.1,1.3c-1.1,0.5-2.2,1-3.3,1.4c-1.2,0.4-2.4,0.7-3.7,1c-1.8,0.3-3.5,0.7-5.3,0.8c-1.7,0.1-3.4,0-5.1-0.1
		c-1.1-0.1-2.2-0.2-3.3-0.4c-0.9-0.1-1.7-0.3-2.6-0.5C11,38.3,9.9,38,8.9,37.6c-1.2-0.5-2.4-1-3.5-1.6C5.2,36,5,35.7,5,35.5
		c-0.1-1.4-0.3-2.8-0.3-4.2c0-1.1,0.3-2.2,0.9-3.1c0.5-0.9,1.3-1.3,2.3-1.6c1.2-0.4,2.4-0.8,3.5-1.3C12.6,24.8,13.7,24.1,15,23.4z"
		/>
</g>
</svg>
