<?xml version="1.0" encoding="utf-8"?>
<!-- Generator: Adobe Illustrator 23.0.1, SVG Export Plug-In . SVG Version: 6.00 Build 0)  -->
<svg version="1.1" id="Слой_1" xmlns="http://www.w3.org/2000/svg" xmlns:xlink="http://www.w3.org/1999/xlink" x="0px" y="0px"
	 viewBox="0 0 40 40" style="enable-background:new 0 0 40 40;" xml:space="preserve">
<style type="text/css">
	.st0{fill:#201600;}
	.st1{fill:#638F56;}
	.st2{fill:#5F9898;}
	.st3{fill-rule:evenodd;clip-rule:evenodd;fill:#578685;}
</style>
<g>
	<path class="st2" d="M21.4,0.5c2.4,0.1,4.4,0.4,6,2c0.6,0.6,0.9,1.3,1.4,2c0.4,0.6,0.8,1.4,1.3,1.9c2.1,1.9,2.4,4.3,1.5,6.7
		c-0.9,2.5-2.4,4.7-4.5,6.3c-0.5,0.4-0.8,1-1.3,1.4c-2.4,2.4-1,0.9-2.6,2.5c-0.1,0.1-0.6,0.6-1.1,0.7c-0.1,0-0.4,0-0.7,0
		c-0.1,0-0.2,0-0.3-0.1c-0.1,0-0.1-0.1-0.3-0.2c-0.2-0.1-0.2-0.1-0.3-0.2c0,0-0.2-0.1-0.5-0.3c-0.5-0.4-2.5-2.5-3-3.1
		c-0.4-0.4-0.7-0.7-1.1-1c-2.3-2-3.9-4.3-4.5-7.3c-0.4-2.1,0-3.9,1.7-5.4c0.5-0.5,1-1.1,1.3-1.8c1-2.5,3-3.7,5.6-4.1
		C20.5,0.5,21,0.5,21.4,0.5z M22.5,16.8c0.5,0.1,0.9,0.2,1.3,0.2c5.6,0.5,8-3.5,7.4-7.6c-0.2-1.7-1.1-2.3-2.7-2
		c-0.2,0-0.3,0.1-0.5,0.2c-1.2,0.5-1.9,1.4-2.3,2.6C24.7,12.5,24,14.7,22.5,16.8z M20.6,16.9c-0.3-0.5-0.6-0.9-0.8-1.4
		c-0.8-1.7-1.5-3.4-2.2-5.2c-0.5-1.2-1.2-2.2-2.5-2.7c-1.6-0.6-2.8,0-3.1,1.7c-0.4,2.4,0.1,4.7,2,6.3C15.9,17.2,18.2,17.3,20.6,16.9
		z M23.9,12.8c0.1-0.2,0.3-0.4,0.4-0.7c0.2-0.7,0.4-1.5,0.5-2.2c0.2-1.5,1-2.5,2.4-2.9c0.1,0,0.1-0.1,0.2-0.1c-1.8,0.2-2.8,1.3-3,3
		C24.2,10.8,24,11.8,23.9,12.8z M15.7,6.8C15.9,6.9,16,7,16.1,7c1.2,0.4,1.9,1.2,2.1,2.4c0.1,0.6,0.2,1.2,0.3,1.7
		c0.1,0.6,0.4,1.1,0.6,1.7c-0.1-1.1-0.3-2.2-0.4-3.2C18.4,7.9,17.5,7,15.7,6.8z M23.4,21.9c-0.7-0.5-3.1-0.5-3.8,0
		C21,21.9,22.2,21.9,23.4,21.9z M26.5,4.1c0.4,1.3,1.7,2.2,3.1,2.2C28.3,5.9,27.1,5.3,26.5,4.1z M18.7,21.4
		c-0.3-1.5,0.7-2.5,1.6-3.5C18.7,18.9,18.2,20.2,18.7,21.4z M22.8,17.8c0.5,0.6,1,1.1,1.3,1.7c0.3,0.6,0.4,1.3,0.5,1.8
		C25,20.3,24.4,18.8,22.8,17.8z M13.6,6.3c1.4-0.2,2.5-0.7,3-2.1C16,5.4,14.9,5.9,13.6,6.3z M20.5,11.1c0,0.1,0,0.1,0,0.2
		c0.7,0,1.4,0,2.1,0c0-0.1,0-0.1,0-0.2C21.9,11.1,21.2,11.1,20.5,11.1z M26.2,19.1c-0.8-0.2-1.5-0.4-2.2-0.6
		c0.2,0.3,0.4,0.5,0.5,0.7C25,18.9,25.6,19.4,26.2,19.1z M19,18.6c-0.7,0.2-1.4,0.4-2.1,0.5C17.7,19.1,18.4,19.2,19,18.6z M24.8,6.4
		c0,0,0.1,0.1,0.1,0.1c-0.7,0.4-1.3,0.9-1.6,1.6c0,0-0.1-0.1-0.1-0.1C23.7,7.5,24.3,6.9,24.8,6.4z M18.5,6.7C19,7.4,19.5,8,20,8.6
		C19.8,7.8,19.3,7.2,18.5,6.7z"/>
	<path class="st2" d="M15.9,23.6c1.1,3.5,2.2,7,3.4,10.5c0.1,0,0.1,0,0.2,0c0.2-0.6,0.4-1.1,0.6-1.7c0.1-0.4,0.2-0.9,0.4-1.2
		c0.3-0.5,0.1-0.9-0.2-1.4c-0.4-0.7-0.8-1.4-0.9-2.3c0-0.6,0.2-0.9,0.6-1.2c0.8-0.6,2.5-0.5,3.2,0.2c0.4,0.4,0.6,1.3,0.3,2
		c-0.2,0.5-0.5,1-0.8,1.5c-0.3,0.4-0.3,0.8-0.1,1.3c0.4,0.9,0.6,1.8,0.9,2.7c0,0.1,0.1,0.1,0.2,0.4c1.2-3.6,2.3-7.1,3.4-10.7
		c0.8,0.4,1.5,0.9,2.2,1.2c1.4,0.6,2.8,1.2,4.2,1.7c1.3,0.5,2.6,0.9,3.2,2.2c0.6,1.4,0.8,3,0.6,4.5c-0.1,0.6-0.2,1.3-0.2,1.9
		c0.1,0.9-0.5,1.1-1.1,1.3c-1.1,0.5-2.2,1-3.3,1.4c-1.2,0.4-2.4,0.7-3.7,1c-1.8,0.3-3.5,0.7-5.3,0.8c-1.7,0.1-3.4,0-5.1-0.1
		c-1.1-0.1-2.2-0.2-3.3-0.4c-0.9-0.1-1.7-0.3-2.6-0.5c-1.1-0.3-2.1-0.6-3.1-0.9c-1.2-0.5-2.4-1-3.5-1.6c-0.2-0.1-0.4-0.4-0.4-0.6
		c-0.1-1.4-0.3-2.8-0.3-4.2c0-1.1,0.3-2.2,0.9-3.1c0.5-0.9,1.3-1.3,2.3-1.6c1.2-0.4,2.4-0.8,3.5-1.3C13.5,25,14.6,24.3,15.9,23.6z"
		/>
</g>
</svg>
