<svg id="Слой_1" data-name="Слой 1" xmlns="http://www.w3.org/2000/svg" viewBox="0 0 180 180"><defs><style>.cls-1{fill:#6aa7c8;}</style></defs><title>инопланетянин</title><path class="cls-1" d="M62.43545,76.1496c.57345.40422.74591,1.44318.998,2.22407A38.27022,38.27022,0,0,0,65.097,83.726c3.2216,6.47123,7.53872,12.05486,14.168,15.35015,4.14914,2.06228,8.53674,3.61415,13.30275,2.73648a26.42187,26.42187,0,0,0,14.00845-6.88711c4.90671-4.74988,8.80225-10.07048,10.16056-16.9566a6.0285,6.0285,0,0,1,1.38388-2.25459c.55508-.70521,1.44342-1.20174,1.84094-1.96849,2.52829-4.87593,4.24294-9.961,4.00447-15.58439-.0799-1.88958-.64764-3.23151-2.44342-3.88735-1.25162-.45682-1.49554-1.10744-.70844-2.2201a3.11633,3.11633,0,0,0,.501-1.48238c.5268-6.31316,1.96948-12.61838.04392-18.94916-1.10149-3.62184-2.51737-7.1474-6.15782-8.75981a13.85309,13.85309,0,0,1-4.73921-3.63276A22.55238,22.55238,0,0,0,97.60944,11.7783a7.62571,7.62571,0,0,1-2.08586-1.12308,15.11621,15.11621,0,0,0-9.565.00025c-1.70943.527-3.58015.77047-5.09629,1.636a92.89584,92.89584,0,0,0-11.39778,7.19107,30.08074,30.08074,0,0,0-10.55857,15.501c-1.77395,6.16874-1.03648,12.37917.77419,18.67049-1.74913.97569-3.6,1.76477-3.64864,4.47073A30.2419,30.2419,0,0,0,57.989,68.97713C58.94909,71.65877,59.90393,74.36448,62.43545,76.1496Z"/><path class="cls-1" d="M66.90563,98.5918q6.795,21.33372,13.59406,42.68027l.69231-.031c1.14566-3.0215,1.98983-5.21614,2.60993-6.81611.52134-1.34547.9407-2.729,1.46253-4.07436a8.07627,8.07627,0,0,0,.86005-2.92543,6.03378,6.03378,0,0,0-1.35806-3.485c-1.80075-2.78254-3.40373-5.61374-3.45435-9.14151a5.74591,5.74591,0,0,1,2.54963-4.99883c3.30447-2.50357,9.96478-2.14243,12.96106.66421,1.75335,1.64231,2.42234,5.46046,1.23226,8.00857a40.11587,40.11587,0,0,1-3.229,5.91118c-1.24317,1.79351-1.14069,3.25208-.28957,5.21976,1.51687,3.50664,2.57022,7.21353,3.83077,10.832a12.58337,12.58337,0,0,0,.85906,1.42237c4.70373-14.77474,9.23128-28.99545,13.80969-43.37618,3.12557,1.75761,5.99381,3.663,9.09406,5.04967,5.59008,2.50038,11.25039,4.88133,17.0102,6.95339,10.77942,3.8778,12.4288,7.97349,13.0891,9.0873,1.69206,2.85422,2.04342,5.56232,2.44839,8.68534.51712,3.98716.05136,7.56189-.88015,14.71131a27.42633,27.42633,0,0,1-.75459,3.77212,14.38624,14.38624,0,0,1-1.03723,2.98626c-1.1938,2.15006-8.66378,4.7983-16.07645,7.29861a106.5581,106.5581,0,0,1-14.98041,4.01527,180.58019,180.58019,0,0,1-21.49581,3.26446,165.51779,165.51779,0,0,1-20.64594-.33726,130.54033,130.54033,0,0,1-13.50324-1.69693c-3.47941-.55757-6.94393-1.29407-10.35113-2.1937a127.03207,127.03207,0,0,1-12.67371-3.8296c-4.8943-1.85707-9.64319-4.111-14.38464-6.34278a3.31566,3.31566,0,0,1-1.606-2.27826c-.52605-5.65351-1.20173-11.32632-1.16377-16.98845a23.78767,23.78767,0,0,1,3.52209-12.707c2.18511-3.45366,5.42929-5.19966,9.24765-6.37823a121.81964,121.81964,0,0,0,14.173-5.10618C57.04259,104.20478,61.74483,101.35744,66.90563,98.5918Z"/></svg>