<?xml version="1.0" encoding="utf-8"?>
<!-- Generator: Adobe Illustrator 23.0.1, SVG Export Plug-In . SVG Version: 6.00 Build 0)  -->
<svg version="1.1" id="Слой_1" xmlns="http://www.w3.org/2000/svg" xmlns:xlink="http://www.w3.org/1999/xlink" x="0px" y="0px"
	 viewBox="0 0 40 40" style="enable-background:new 0 0 40 40;" xml:space="preserve">
<style type="text/css">
	.st0{fill:#201600;}
	.st1{fill:#638F56;}
</style>
<g>
	<path class="st0" d="M-219.5,0.3c2.4,0.1,4.4,0.4,6,2c0.6,0.6,0.9,1.3,1.4,2c0.4,0.6,0.8,1.4,1.3,1.9c2.1,1.9,2.4,4.3,1.5,6.7
		c-0.9,2.5-2.4,4.7-4.5,6.3c-0.5,0.4-0.8,1-1.3,1.4c-2.4,2.4-1,0.9-2.6,2.5c-0.1,0.1-0.6,0.6-1.1,0.7c-0.1,0-0.4,0-0.7,0
		c-0.1,0-0.2,0-0.3-0.1c-0.1,0-0.1-0.1-0.3-0.2c-0.2-0.1-0.2-0.1-0.3-0.2c0,0-0.2-0.1-0.5-0.3c-0.5-0.4-2.5-2.5-3-3.1
		c-0.4-0.4-0.7-0.7-1.1-1c-2.3-2-3.9-4.3-4.5-7.3c-0.4-2.1,0-3.9,1.7-5.4c0.5-0.5,1-1.1,1.3-1.8c1-2.5,3-3.7,5.6-4.1
		C-220.4,0.4-219.8,0.3-219.5,0.3z M-218.4,16.7c0.5,0.1,0.9,0.2,1.3,0.2c5.6,0.5,8-3.5,7.4-7.6c-0.2-1.7-1.1-2.3-2.7-2
		c-0.2,0-0.3,0.1-0.5,0.2c-1.2,0.5-1.9,1.4-2.3,2.6C-216.2,12.3-216.9,14.6-218.4,16.7z M-220.3,16.7c-0.3-0.5-0.6-0.9-0.8-1.4
		c-0.8-1.7-1.5-3.4-2.2-5.2c-0.5-1.2-1.2-2.2-2.5-2.7c-1.6-0.6-2.8,0-3.1,1.7c-0.4,2.4,0.1,4.7,2,6.3C-225,17-222.7,17.2-220.3,16.7
		z M-217,12.6c0.1-0.2,0.3-0.4,0.4-0.7c0.2-0.7,0.4-1.5,0.5-2.2c0.2-1.5,1-2.5,2.4-2.9c0.1,0,0.1-0.1,0.2-0.1c-1.8,0.2-2.8,1.3-3,3
		C-216.7,10.6-216.8,11.6-217,12.6z M-225.1,6.7c0.1,0.1,0.3,0.1,0.4,0.2c1.2,0.4,1.9,1.2,2.1,2.4c0.1,0.6,0.2,1.2,0.3,1.7
		c0.1,0.6,0.4,1.1,0.6,1.7c-0.1-1.1-0.3-2.2-0.4-3.2C-222.5,7.7-223.4,6.9-225.1,6.7z M-217.5,21.8c-0.7-0.5-3.1-0.5-3.8,0
		C-219.9,21.8-218.7,21.8-217.5,21.8z M-214.4,3.9c0.4,1.3,1.7,2.2,3.1,2.2C-212.6,5.7-213.8,5.2-214.4,3.9z M-222.2,21.2
		c-0.3-1.5,0.7-2.5,1.6-3.5C-222.1,18.8-222.7,20-222.2,21.2z M-218.1,17.6c0.5,0.6,1,1.1,1.3,1.7c0.3,0.6,0.4,1.3,0.5,1.8
		C-215.9,20.1-216.5,18.7-218.1,17.6z M-227.2,6.1c1.4-0.2,2.5-0.7,3-2.1C-224.9,5.2-226,5.7-227.2,6.1z M-220.4,10.9
		c0,0.1,0,0.1,0,0.2c0.7,0,1.4,0,2.1,0c0-0.1,0-0.1,0-0.2C-219,10.9-219.7,10.9-220.4,10.9z M-214.6,19c-0.8-0.2-1.5-0.4-2.2-0.6
		c0.2,0.3,0.4,0.5,0.5,0.7C-215.9,18.7-215.3,19.2-214.6,19z M-221.9,18.4c-0.7,0.2-1.4,0.4-2.1,0.5
		C-223.2,18.9-222.4,19.1-221.9,18.4z M-216.1,6.2c0,0,0.1,0.1,0.1,0.1c-0.7,0.4-1.3,0.9-1.6,1.6c0,0-0.1-0.1-0.1-0.1
		C-217.2,7.3-216.6,6.8-216.1,6.2z M-222.4,6.5c0.6,0.7,1,1.3,1.5,1.9C-221.1,7.6-221.6,7-222.4,6.5z"/>
	<path class="st0" d="M-225,23.4c1.1,3.5,2.2,7,3.4,10.5c0.1,0,0.1,0,0.2,0c0.2-0.6,0.4-1.1,0.6-1.7c0.1-0.4,0.2-0.9,0.4-1.2
		c0.3-0.5,0.1-0.9-0.2-1.4c-0.4-0.7-0.8-1.4-0.9-2.3c0-0.6,0.2-0.9,0.6-1.2c0.8-0.6,2.5-0.5,3.2,0.2c0.4,0.4,0.6,1.3,0.3,2
		c-0.2,0.5-0.5,1-0.8,1.5c-0.3,0.4-0.3,0.8-0.1,1.3c0.4,0.9,0.6,1.8,0.9,2.7c0,0.1,0.1,0.1,0.2,0.4c1.2-3.6,2.3-7.1,3.4-10.7
		c0.8,0.4,1.5,0.9,2.2,1.2c1.4,0.6,2.8,1.2,4.2,1.7c1.3,0.5,2.6,0.9,3.2,2.2c0.6,1.4,0.8,3,0.6,4.5c-0.1,0.6-0.2,1.3-0.2,1.9
		c0.1,0.9-0.5,1.1-1.1,1.3c-1.1,0.5-2.2,1-3.3,1.4c-1.2,0.4-2.4,0.7-3.7,1c-1.8,0.3-3.5,0.7-5.3,0.8c-1.7,0.1-3.4,0-5.1-0.1
		c-1.1-0.1-2.2-0.2-3.3-0.4c-0.9-0.1-1.7-0.3-2.6-0.5c-1.1-0.3-2.1-0.6-3.1-0.9c-1.2-0.5-2.4-1-3.5-1.6c-0.2-0.1-0.4-0.4-0.4-0.6
		c-0.1-1.4-0.3-2.8-0.3-4.2c0-1.1,0.3-2.2,0.9-3.1c0.5-0.9,1.3-1.3,2.3-1.6c1.2-0.4,2.4-0.8,3.5-1.3
		C-227.4,24.8-226.3,24.1-225,23.4z"/>
</g>
<g>
	<path class="st1" d="M-161.8,23.6c1,0.5,2.1,0.9,3.2,0.7c1.3-0.2,2.5-0.7,3.4-1.7c0.4-0.4,0.8-0.9,1.2-1.4c1.8,0.2,3.6,0.7,5.4,1.1
		c0-0.1,0-0.3,0-0.4c-0.1-2-0.1-4-0.2-6c-0.1-2.6-0.4-5.3-1.1-7.8c-0.4-1.5-0.9-2.9-1.8-4.1c-1-1.3-2.4-1.9-4-2
		c-0.3,0-0.6-0.1-0.8-0.3c-0.5-0.6-1.2-0.8-2-0.9c-0.1,0-0.2,0-0.3-0.1h-1.7c-0.5,0.1-0.9,0.2-1.4,0.2c-2.3,0.5-4.1,1.8-5.3,3.8
		c-1,1.6-1.6,3.4-2,5.2c-0.5,2-0.7,4.1-0.8,6.2c-0.1,1.9-0.1,3.9-0.2,5.8c0,0.1,0,0.2,0,0.4c1.9-0.4,3.8-0.9,5.7-1.1
		C-163.8,22.2-162.9,23.1-161.8,23.6z"/>
	<path class="st1" d="M-144,28.6c-0.6-1.4-1.9-1.8-3.2-2.2c-1.4-0.5-2.8-1.1-4.1-1.7c-0.8-0.3-1.5-0.8-2.2-1.2
		c-0.4,1.3-0.8,2.5-1.2,3.8c-0.8-0.3-1.6-0.4-2.5-0.6c-0.1-0.1-0.1-0.2-0.2-0.3c-0.7-0.7-2.4-0.8-3.2-0.2c-0.2,0.1-0.3,0.3-0.4,0.4
		c-0.9,0.1-1.8,0.2-2.6,0.5c-0.4-1.2-0.8-2.4-1.2-3.6c-1.3,0.7-2.4,1.4-3.6,1.9c-1.1,0.5-2.3,0.9-3.5,1.2c-0.9,0.3-1.7,0.7-2.3,1.6
		c-0.6,0.9-0.9,2-0.9,3.1c0,1.4,0.2,2.8,0.3,4.1c0,0.2,0.2,0.5,0.4,0.6c1.2,0.5,2.3,1.1,3.5,1.5c1,0.4,2,0.7,3.1,0.9
		c0.8,0.2,1.7,0.4,2.5,0.5c1.1,0.2,2.2,0.4,3.3,0.4c1.7,0.1,3.4,0.2,5,0.1c1.8-0.1,3.5-0.5,5.2-0.8c1.2-0.2,2.5-0.6,3.6-1
		c1.1-0.4,2.2-0.9,3.3-1.4c0.5-0.3,1.1-0.5,1.1-1.3c0-0.6,0.1-1.3,0.2-1.9C-143.2,31.6-143.4,30-144,28.6z"/>
</g>
<g>
	<path class="st1" d="M-98.4,0.4c0.2,0.1,0.3,0.3,0.5,0.3c1.3,0.2,2.4,0.9,3.3,1.9c0.4,0.4,0.7,0.7,1.2,0.9c0.9,0.4,1.3,1.3,1.6,2.2
		c0.5,1.6,0.1,3.2,0,4.8c0,0.1-0.1,0.3-0.1,0.4c-0.2,0.3-0.1,0.4,0.2,0.6c0.5,0.2,0.6,0.5,0.6,1c0.1,1.4-0.4,2.7-1,4
		c-0.1,0.2-0.3,0.3-0.5,0.5c-0.1,0.2-0.3,0.4-0.4,0.6c-0.3,1.8-1.3,3.1-2.6,4.3c-1,1-2.2,1.5-3.6,1.8c-1.2,0.2-2.3-0.2-3.4-0.7
		c-1.7-0.8-2.8-2.3-3.6-3.9c-0.2-0.4-0.3-0.9-0.4-1.4c-0.1-0.2-0.1-0.5-0.3-0.6c-0.6-0.5-0.9-1.1-1.1-1.8c-0.3-0.9-0.5-1.8-0.5-2.8
		c0-0.7,0.5-0.9,0.9-1.1c-0.5-1.6-0.6-3.2-0.2-4.7c0.5-1.6,1.4-2.9,2.7-3.9c0.9-0.7,1.9-1.3,2.9-1.8c0.4-0.2,0.9-0.3,1.3-0.4
		C-100,0.4-99.2,0.4-98.4,0.4z"/>
	<path class="st1" d="M-105.6,22.8c1.2,3.6,2.3,7.2,3.5,10.9c0.1,0,0.1,0,0.2,0c0.2-0.6,0.5-1.2,0.7-1.7c0.1-0.4,0.2-0.9,0.4-1.2
		c0.4-0.6,0.1-1-0.2-1.4c-0.5-0.7-0.9-1.4-0.9-2.3c0-0.6,0.2-1,0.6-1.3c0.8-0.6,2.5-0.5,3.3,0.2c0.4,0.4,0.6,1.4,0.3,2
		c-0.2,0.5-0.5,1-0.8,1.5c-0.3,0.5-0.3,0.8-0.1,1.3c0.4,0.9,0.7,1.8,1,2.8c0,0.1,0.1,0.1,0.2,0.4c1.2-3.8,2.3-7.4,3.5-11
		c0.8,0.4,1.5,0.9,2.3,1.3c1.4,0.6,2.9,1.2,4.3,1.8c1.3,0.5,2.7,0.9,3.3,2.3c0.6,1.5,0.8,3.1,0.6,4.7c-0.1,0.7-0.2,1.3-0.2,2
		c0.1,0.9-0.6,1.1-1.1,1.4c-1.1,0.5-2.3,1-3.4,1.4c-1.2,0.4-2.5,0.8-3.8,1c-1.8,0.4-3.6,0.7-5.5,0.8c-1.7,0.1-3.5,0-5.3-0.1
		c-1.1-0.1-2.3-0.2-3.4-0.4c-0.9-0.1-1.8-0.3-2.6-0.6c-1.1-0.3-2.2-0.6-3.2-1c-1.2-0.5-2.5-1-3.7-1.6c-0.2-0.1-0.4-0.4-0.4-0.6
		c-0.1-1.4-0.3-2.9-0.3-4.3c0-1.1,0.3-2.2,0.9-3.2c0.6-0.9,1.4-1.3,2.4-1.6c1.2-0.4,2.4-0.8,3.6-1.3
		C-108.1,24.2-106.9,23.5-105.6,22.8z"/>
</g>
<g>
	<path class="st0" d="M-41.2,23.5c1,0.5,2.1,0.9,3.2,0.7c1.3-0.2,2.5-0.7,3.4-1.7c0.4-0.4,0.8-0.9,1.2-1.4c1.8,0.2,3.6,0.7,5.4,1.1
		c0-0.1,0-0.3,0-0.4c-0.1-2-0.1-4-0.2-6c-0.1-2.6-0.4-5.3-1.1-7.8c-0.4-1.5-0.9-2.9-1.8-4.1c-1-1.3-2.4-1.9-4-2
		c-0.3,0-0.6-0.1-0.8-0.3c-0.5-0.6-1.2-0.8-2-0.9c-0.1,0-0.2,0-0.3-0.1h-1.7c-0.5,0.1-0.9,0.2-1.4,0.2c-2.3,0.5-4.1,1.8-5.3,3.8
		c-1,1.6-1.6,3.4-2,5.2c-0.5,2-0.7,4.1-0.8,6.2c-0.1,1.9-0.1,3.9-0.2,5.8c0,0.1,0,0.2,0,0.4c1.9-0.4,3.8-0.9,5.7-1.1
		C-43.2,22.1-42.3,22.9-41.2,23.5z"/>
	<path class="st0" d="M-23.4,28.5c-0.6-1.4-1.9-1.8-3.2-2.2c-1.4-0.5-2.8-1.1-4.1-1.7c-0.8-0.3-1.5-0.8-2.2-1.2
		c-0.4,1.3-0.8,2.5-1.2,3.8c-0.8-0.3-1.6-0.4-2.5-0.6c-0.1-0.1-0.1-0.2-0.2-0.3c-0.7-0.7-2.4-0.8-3.2-0.2c-0.2,0.1-0.3,0.3-0.4,0.4
		c-0.9,0.1-1.8,0.2-2.6,0.5c-0.4-1.2-0.8-2.4-1.2-3.6c-1.3,0.7-2.4,1.4-3.6,1.9c-1.1,0.5-2.3,0.9-3.5,1.2c-0.9,0.3-1.7,0.7-2.3,1.6
		c-0.6,0.9-0.9,2-0.9,3.1c0,1.4,0.2,2.8,0.3,4.1c0,0.2,0.2,0.5,0.4,0.6c1.2,0.5,2.3,1.1,3.5,1.5c1,0.4,2,0.7,3.1,0.9
		c0.8,0.2,1.7,0.4,2.5,0.5c1.1,0.2,2.2,0.4,3.3,0.4c1.7,0.1,3.4,0.2,5,0.1c1.8-0.1,3.5-0.5,5.2-0.8c1.2-0.2,2.5-0.6,3.6-1
		c1.1-0.4,2.2-0.9,3.3-1.4c0.5-0.3,1.1-0.5,1.1-1.3c0-0.6,0.1-1.3,0.2-1.9C-22.6,31.4-22.8,29.9-23.4,28.5z"/>
</g>
<g>
	<path class="st0" d="M22.2,0.4c0.2,0.1,0.3,0.3,0.5,0.3C24.1,1,25.1,1.6,26,2.6c0.4,0.4,0.7,0.7,1.2,0.9c0.9,0.4,1.3,1.3,1.6,2.2
		c0.5,1.6,0.1,3.2,0,4.8c0,0.1-0.1,0.3-0.1,0.4c-0.2,0.3-0.1,0.4,0.2,0.6c0.5,0.2,0.6,0.5,0.6,1c0.1,1.4-0.4,2.7-1,4
		c-0.1,0.2-0.3,0.3-0.5,0.5c-0.1,0.2-0.3,0.4-0.4,0.6c-0.3,1.8-1.3,3.1-2.6,4.3c-1,1-2.2,1.5-3.6,1.8c-1.2,0.2-2.3-0.2-3.4-0.7
		c-1.7-0.8-2.8-2.3-3.6-3.9c-0.2-0.4-0.3-0.9-0.4-1.4c-0.1-0.2-0.1-0.5-0.3-0.6c-0.6-0.5-0.9-1.1-1.1-1.8c-0.3-0.9-0.5-1.8-0.5-2.8
		c0-0.7,0.5-0.9,0.9-1.1c-0.5-1.6-0.6-3.2-0.2-4.7c0.5-1.6,1.4-2.9,2.7-3.9c0.9-0.7,1.9-1.3,2.9-1.8c0.4-0.2,0.9-0.3,1.3-0.4
		C20.6,0.4,21.4,0.4,22.2,0.4z"/>
	<path class="st0" d="M15,22.8c1.2,3.6,2.3,7.2,3.5,10.9c0.1,0,0.1,0,0.2,0c0.2-0.6,0.5-1.2,0.7-1.7c0.1-0.4,0.2-0.9,0.4-1.2
		c0.4-0.6,0.1-1-0.2-1.4c-0.5-0.7-0.9-1.4-0.9-2.3c0-0.6,0.2-1,0.6-1.3c0.8-0.6,2.5-0.5,3.3,0.2c0.4,0.4,0.6,1.4,0.3,2
		c-0.2,0.5-0.5,1-0.8,1.5c-0.3,0.5-0.3,0.8-0.1,1.3c0.4,0.9,0.7,1.8,1,2.8c0,0.1,0.1,0.1,0.2,0.4c1.2-3.8,2.3-7.4,3.5-11
		c0.8,0.4,1.5,0.9,2.3,1.3c1.4,0.6,2.9,1.2,4.3,1.8c1.3,0.5,2.7,0.9,3.3,2.3c0.6,1.5,0.8,3.1,0.6,4.7c-0.1,0.7-0.2,1.3-0.2,2
		c0.1,0.9-0.6,1.1-1.1,1.4c-1.1,0.5-2.3,1-3.4,1.4c-1.2,0.4-2.5,0.8-3.8,1c-1.8,0.4-3.6,0.7-5.5,0.8c-1.7,0.1-3.5,0-5.3-0.1
		c-1.1-0.1-2.3-0.2-3.4-0.4c-0.9-0.1-1.8-0.3-2.6-0.6c-1.1-0.3-2.2-0.6-3.2-1c-1.2-0.5-2.5-1-3.7-1.6c-0.2-0.1-0.4-0.4-0.4-0.6
		c-0.1-1.4-0.3-2.9-0.3-4.3c0-1.1,0.3-2.2,0.9-3.2c0.6-0.9,1.4-1.3,2.4-1.6c1.2-0.4,2.4-0.8,3.6-1.3C12.5,24.2,13.7,23.5,15,22.8z"
		/>
</g>
</svg>
