<?xml version="1.0" encoding="utf-8"?>
<!-- Generator: Adobe Illustrator 23.0.1, SVG Export Plug-In . SVG Version: 6.00 Build 0)  -->
<svg version="1.1" id="Слой_1" xmlns="http://www.w3.org/2000/svg" xmlns:xlink="http://www.w3.org/1999/xlink" x="0px" y="0px"
	 viewBox="0 0 180 180" style="enable-background:new 0 0 180 180;" xml:space="preserve">
<style type="text/css">
	.st0{fill:#201600;}
	.st1{fill:#638F56;}
	.st2{fill:#5F9898;}
	.st3{fill-rule:evenodd;clip-rule:evenodd;fill:#578685;}
	.st4{opacity:0.47;fill:#5F9898;}
	.st5{fill:#FFFFFF;}
</style>
<g>
	<path class="st2" d="M62.4,76.1c0.6,0.4,0.7,1.4,1,2.2c0.6,1.8,0.8,3.7,1.7,5.4c3.2,6.5,7.5,12.1,14.2,15.4
		c4.1,2.1,8.5,3.6,13.3,2.7c5.3-1,10.1-3.1,14-6.9c4.9-4.7,8.8-10.1,10.2-17c0.2-0.8,0.8-1.6,1.4-2.3c0.6-0.7,1.4-1.2,1.8-2
		c2.5-4.9,4.2-10,4-15.6c-0.1-1.9-0.6-3.2-2.4-3.9c-1.3-0.5-1.5-1.1-0.7-2.2c0.3-0.4,0.5-1,0.5-1.5c0.5-6.3,2-12.6,0-18.9
		c-1.1-3.6-2.5-7.1-6.2-8.8c-2-0.9-3.3-2.1-4.7-3.6c-3.5-3.8-7.6-6.5-12.9-7.5c-0.7-0.1-1.4-0.7-2.1-1.1c-1.1-0.4-2.9-0.8-5.1-0.8
		c-1.9,0-3.4,0.4-4.5,0.8c-1.7,0.5-3.6,0.8-5.1,1.6c-3.9,2.2-7.9,4.4-11.4,7.2c-5.1,4-8.8,9.2-10.6,15.5c-1.8,6.2-1,12.4,0.8,18.7
		c-1.7,1-3.6,1.8-3.6,4.5c-0.1,3.8,0.7,7.4,2,10.9C58.9,71.7,59.9,74.4,62.4,76.1z"/>
	<path class="st2" d="M66.9,98.6c4.5,14.2,9.1,28.5,13.6,42.7c0.2,0,0.5,0,0.7,0c1.1-3,2-5.2,2.6-6.8c0.5-1.3,0.9-2.7,1.5-4.1
		c0.6-1.5,0.9-2.1,0.9-2.9c0-1.4-0.6-2.3-1.4-3.5c-1.8-2.8-3.4-5.6-3.5-9.1c0-2.3,0.9-3.8,2.5-5c3.3-2.5,10-2.1,13,0.7
		c1.8,1.6,2.4,5.5,1.2,8c-0.9,2-2,4.1-3.2,5.9c-1.2,1.8-1.1,3.3-0.3,5.2c1.5,3.5,2.6,7.2,3.8,10.8c0.1,0.3,0.3,0.5,0.9,1.4
		c4.7-14.8,9.2-29,13.8-43.4c3.1,1.8,6,3.7,9.1,5c5.6,2.5,11.3,4.9,17,7c10.8,3.9,12.4,8,13.1,9.1c1.7,2.9,2,5.6,2.4,8.7
		c0.5,4,0.1,7.6-0.9,14.7c-0.1,0.6-0.3,2-0.8,3.8c-0.3,1.1-0.6,2.2-1,3c-1.2,2.2-8.7,4.8-16.1,7.3c-2.8,1-7.6,2.6-15,4
		c-7.1,1.4-14.3,2.8-21.5,3.3c-6.8,0.5-13.8,0-20.6-0.3c-4.5-0.2-9-1-13.5-1.7c-3.5-0.6-6.9-1.3-10.4-2.2c-4.3-1.1-8.6-2.3-12.7-3.8
		c-4.9-1.9-9.6-4.1-14.4-6.3c-0.7-0.4-1.5-1.5-1.6-2.3c-0.5-5.7-1.2-11.3-1.2-17c0-4.4,1.1-8.8,3.5-12.7c2.2-3.5,5.4-5.2,9.2-6.4
		c4.8-1.5,9.6-3,14.2-5.1C57,104.2,61.7,101.4,66.9,98.6z"/>
</g>
</svg>
