<?xml version="1.0" encoding="utf-8"?>
<!-- Generator: Adobe Illustrator 23.0.1, SVG Export Plug-In . SVG Version: 6.00 Build 0)  -->
<svg version="1.1" id="Слой_1" xmlns="http://www.w3.org/2000/svg" xmlns:xlink="http://www.w3.org/1999/xlink" x="0px" y="0px"
	 viewBox="0 0 40 40" style="enable-background:new 0 0 40 40;" xml:space="preserve">
<style type="text/css">
	.st0{fill:#201600;}
	.st1{fill:#638F56;}
</style>
<g>
	<path class="st1" d="M21.6,0.4c0.2,0.1,0.3,0.3,0.5,0.3c1.3,0.2,2.4,0.9,3.3,1.9c0.4,0.4,0.7,0.7,1.2,0.9c0.9,0.4,1.3,1.3,1.6,2.2
		c0.5,1.6,0.1,3.2,0,4.8c0,0.1-0.1,0.3-0.1,0.4c-0.2,0.3-0.1,0.4,0.2,0.6c0.5,0.2,0.6,0.5,0.6,1c0.1,1.4-0.4,2.7-1,4
		c-0.1,0.2-0.3,0.3-0.5,0.5c-0.1,0.2-0.3,0.4-0.4,0.6c-0.3,1.8-1.3,3.1-2.6,4.3c-1,1-2.2,1.5-3.6,1.8c-1.2,0.2-2.3-0.2-3.4-0.7
		c-1.7-0.8-2.8-2.3-3.6-3.9c-0.2-0.4-0.3-0.9-0.4-1.4c-0.1-0.2-0.1-0.5-0.3-0.6c-0.6-0.5-0.9-1.1-1.1-1.8c-0.3-0.9-0.5-1.8-0.5-2.8
		c0-0.7,0.5-0.9,0.9-1.1c-0.5-1.6-0.6-3.2-0.2-4.7C12.8,5,13.7,3.7,15,2.7c0.9-0.7,1.9-1.3,2.9-1.8c0.4-0.2,0.9-0.3,1.3-0.4
		C20,0.4,20.8,0.4,21.6,0.4z"/>
	<path class="st1" d="M14.4,22.8c1.2,3.6,2.3,7.2,3.5,10.9c0.1,0,0.1,0,0.2,0c0.2-0.6,0.5-1.2,0.7-1.7c0.1-0.4,0.2-0.9,0.4-1.2
		c0.4-0.6,0.1-1-0.2-1.4c-0.5-0.7-0.9-1.4-0.9-2.3c0-0.6,0.2-1,0.6-1.3c0.8-0.6,2.5-0.5,3.3,0.2c0.4,0.4,0.6,1.4,0.3,2
		c-0.2,0.5-0.5,1-0.8,1.5c-0.3,0.5-0.3,0.8-0.1,1.3c0.4,0.9,0.7,1.8,1,2.8c0,0.1,0.1,0.1,0.2,0.4c1.2-3.8,2.3-7.4,3.5-11
		c0.8,0.4,1.5,0.9,2.3,1.3c1.4,0.6,2.9,1.2,4.3,1.8c1.3,0.5,2.7,0.9,3.3,2.3c0.6,1.5,0.8,3.1,0.6,4.7c-0.1,0.7-0.2,1.3-0.2,2
		c0.1,0.9-0.6,1.1-1.1,1.4c-1.1,0.5-2.3,1-3.4,1.4c-1.2,0.4-2.5,0.8-3.8,1c-1.8,0.4-3.6,0.7-5.5,0.8c-1.7,0.1-3.5,0-5.3-0.1
		c-1.1-0.1-2.3-0.2-3.4-0.4c-0.9-0.1-1.8-0.3-2.6-0.6c-1.1-0.3-2.2-0.6-3.2-1c-1.2-0.5-2.5-1-3.7-1.6c-0.2-0.1-0.4-0.4-0.4-0.6
		c-0.1-1.4-0.3-2.9-0.3-4.3c0-1.1,0.3-2.2,0.9-3.2C5.2,26.8,6,26.4,7,26.1c1.2-0.4,2.4-0.8,3.6-1.3C11.9,24.2,13.1,23.5,14.4,22.8z"
		/>
</g>
</svg>
