<?xml version="1.0" encoding="utf-8"?>
<!-- Generator: Adobe Illustrator 23.0.1, SVG Export Plug-In . SVG Version: 6.00 Build 0)  -->
<svg version="1.1" id="Слой_1" xmlns="http://www.w3.org/2000/svg" xmlns:xlink="http://www.w3.org/1999/xlink" x="0px" y="0px"
	 viewBox="0 0 180 180" style="enable-background:new 0 0 180 180;" xml:space="preserve">
<style type="text/css">
	.st0{fill:#201600;}
	.st1{fill:#638F56;}
	.st2{fill:#5F9898;}
	.st3{fill-rule:evenodd;clip-rule:evenodd;fill:#578685;}
	.st4{opacity:0.47;fill:#5F9898;}
	.st5{fill:#FFFFFF;}
</style>
<g>
	<path class="st2" d="M80.3,100.9c4,2,8.2,3.5,12.9,2.6c5.1-0.9,9.7-3,13.5-6.7c1.8-1.7,3.3-3.5,4.7-5.4c7.3,0.9,14.3,2.6,21.4,4.4
		c0-0.6,0-1.1,0-1.5c-0.2-7.9-0.3-15.9-0.7-23.8c-0.6-10.5-1.7-20.9-4.3-31c-1.5-5.8-3.5-11.5-7.3-16.3c-4-5.2-9.4-7.6-15.8-7.8
		c-1.3,0-2.3-0.3-3.2-1.3c-2.1-2.2-4.9-3.1-7.9-3.6c-0.4-0.1-0.7-0.2-1.1-0.3c-1.1-0.2-2.4-0.3-3.9-0.3c-1,0-1.9,0.1-2.7,0.3
		c-1.4,0.1-3.4,0.5-5.6,1c-9.2,1.9-16.2,7.1-21.1,15c-3.9,6.4-6.2,13.4-7.8,20.6c-1.8,8.1-2.9,16.2-3.3,24.5
		c-0.4,7.7-0.6,15.3-0.8,23c0,0.5,0,0.9,0,1.5c7.6-1.6,15-3.4,22.6-4.4C72.6,95.4,75.9,98.7,80.3,100.9z"/>
	<path class="st2" d="M149.4,119.4c-2.1-3.3-5.2-5-8.9-6.2c-4.6-1.4-9.3-2.9-13.7-4.9c-4.8-2.2-9.3-4.9-14.3-7.6
		c-1.5,4.8-3.1,9.6-4.6,14.4c-3.2-0.9-6.7-1.5-10.3-1.9c-0.4-0.6-0.9-1.2-1.6-1.6c-1.5-1.2-3.8-1.7-6-1.6v0c0,0,0,0,0,0s0,0,0,0v0
		c-2.3,0-4.5,0.5-6,1.6c-0.7,0.5-1.1,1.1-1.6,1.6c-3.6,0.4-7,1-10.3,1.9c-1.5-4.8-3-9.6-4.6-14.4c-5,2.7-9.5,5.4-14.3,7.6
		c-4.4,2-9.1,3.5-13.7,4.9c-3.7,1.1-6.8,2.8-8.9,6.2c-2.4,3.8-3.4,8-3.4,12.3c0,5.5,0.6,10.9,1.1,16.4c0.1,0.8,0.8,1.8,1.5,2.2
		c4.6,2.1,9.2,4.3,13.9,6.1c4,1.5,8.1,2.6,12.3,3.7c3.3,0.9,6.6,1.6,10,2.1c4.4,0.7,8.7,1.4,13.1,1.6c3.6,0.2,7.3,0.4,10.9,0.5v0
		c0,0,0,0,0,0s0,0,0,0v0c3.6-0.1,7.3-0.3,10.9-0.5c4.4-0.2,8.7-1,13.1-1.6c3.3-0.5,6.7-1.3,10-2.1c4.1-1.1,8.3-2.2,12.3-3.7
		c4.7-1.8,9.3-4,13.9-6.1c0.7-0.4,1.5-1.4,1.5-2.2c0.5-5.5,1.2-11,1.1-16.4C152.8,127.4,151.8,123.2,149.4,119.4z"/>
</g>
</svg>
