<?xml version="1.0" encoding="utf-8"?>
<!-- Generator: Adobe Illustrator 23.0.1, SVG Export Plug-In . SVG Version: 6.00 Build 0)  -->
<svg version="1.1" id="Слой_1" xmlns="http://www.w3.org/2000/svg" xmlns:xlink="http://www.w3.org/1999/xlink" x="0px" y="0px"
	 viewBox="0 0 40 40" style="enable-background:new 0 0 40 40;" xml:space="preserve">
<style type="text/css">
	.st0{fill:#201600;}
	.st1{fill:#638F56;}
	.st2{fill:#5F9898;}
	.st3{fill-rule:evenodd;clip-rule:evenodd;fill:#578685;}
</style>
<g>
	<path class="st1" d="M17.6,23.9c1,0.5,2.1,0.9,3.3,0.7c1.3-0.2,2.5-0.8,3.4-1.7c0.4-0.4,0.8-0.9,1.2-1.4c1.8,0.2,3.6,0.7,5.5,1.1
		c0-0.1,0-0.3,0-0.4c-0.1-2-0.1-4-0.2-6.1c-0.1-2.7-0.4-5.3-1.1-7.9c-0.4-1.5-0.9-2.9-1.8-4.2c-1-1.3-2.4-1.9-4-2
		c-0.3,0-0.6-0.1-0.8-0.3c-0.5-0.6-1.3-0.8-2-0.9c-0.1,0-0.2,0-0.3-0.1H19c-0.5,0.1-1,0.2-1.4,0.2c-2.4,0.5-4.1,1.8-5.4,3.8
		c-1,1.6-1.6,3.4-2,5.3c-0.5,2.1-0.7,4.1-0.8,6.2c-0.1,1.9-0.1,3.9-0.2,5.9c0,0.1,0,0.2,0,0.4c1.9-0.4,3.8-0.9,5.8-1.1
		C15.6,22.5,16.5,23.3,17.6,23.9z"/>
	<path class="st1" d="M35.6,28.9c-0.6-1.4-1.9-1.8-3.2-2.2c-1.4-0.5-2.8-1.1-4.2-1.7c-0.8-0.3-1.5-0.8-2.2-1.2
		c-0.4,1.3-0.8,2.6-1.2,3.8c-0.8-0.3-1.6-0.4-2.5-0.6c-0.1-0.1-0.1-0.2-0.2-0.3c-0.7-0.7-2.4-0.8-3.2-0.2c-0.2,0.1-0.3,0.3-0.4,0.4
		c-0.9,0.1-1.8,0.3-2.6,0.5c-0.4-1.2-0.8-2.4-1.2-3.7c-1.3,0.7-2.4,1.4-3.7,1.9c-1.1,0.5-2.3,0.9-3.5,1.3c-0.9,0.3-1.7,0.7-2.3,1.6
		c-0.6,1-0.9,2-0.9,3.1c0,1.4,0.2,2.8,0.3,4.2c0,0.2,0.2,0.5,0.4,0.6c1.2,0.5,2.3,1.1,3.5,1.6c1,0.4,2.1,0.7,3.1,0.9
		c0.8,0.2,1.7,0.4,2.5,0.5c1.1,0.2,2.2,0.4,3.3,0.4c1.7,0.1,3.4,0.2,5.1,0.1c1.8-0.1,3.5-0.5,5.3-0.8c1.2-0.2,2.5-0.6,3.7-1
		c1.1-0.4,2.2-0.9,3.3-1.4c0.6-0.3,1.2-0.5,1.1-1.3c0-0.6,0.1-1.3,0.2-1.9C36.4,31.9,36.2,30.4,35.6,28.9z"/>
</g>
</svg>
